#VRML V2.0 utf8
# 3D model generated by easyeda2kicad.py (https://github.com/uPesy/easyeda2kicad.py)

Shape{
    appearance Appearance {
        material  Material 	{
            diffuseColor 1.0 1.0 1.0
            specularColor 0.30196078431372547 0.30196078431372547 0.30196078431372547
            ambientIntensity 1.0
            transparency 0.0
            shininess 0.5
        }
    }
    geometry IndexedFaceSet {
        ccw TRUE
        solid FALSE
        coord DEF co Coordinate {
            point [
                -0.0197 -0.8268 0.6011, -0.0197 -0.8268 0.5606, 0.0786 -0.8268 0.5606, -0.0197 -0.8268 0.7631, -0.0197 -0.8268 0.7331, 0.0786 -0.8268 0.7331, 0.1903 -0.8268 0.8543, 0.1903 -0.8268 0.8216, 0.2179 -0.8268 0.8216, 0.3599 -0.8268 0.6019, 0.3373 -0.8268 0.6019, 0.3373 -0.8268 0.6011, 0.1965 -0.8268 0.6015, 0.1924 -0.8268 0.6011, 0.2179 -0.8268 0.6011, 0.2981 -0.8268 1.1024, 0.2981 -0.8268 0.8669, 0.3373 -0.8268 0.8669, 1.0433 -0.8268 0.374, 1.3189 -0.8268 0.374, 1.3189 -0.8268 0.5606, 0.1177 -0.8268 0.866, 0.1254 -0.8268 0.8669, 0.0848 -0.8268 0.8669, 0.4071 -0.8268 0.7919, 0.3696 -0.8268 0.7919, 0.4175 -0.8268 0.7639, 0.3696 -0.8268 0.7631, 0.4321 -0.8268 0.7639, 1.3189 -0.8268 0.7631, 1.3189 -0.8268 0.8669, 0.3931 -0.8268 0.8661, 0.3696 -0.8268 0.8669, 0.3791 -0.8268 0.8661, 0.3696 -0.8268 0.8412, 0.3645 -0.8268 0.7919, 0.3547 -0.8268 0.7639, 0.3373 -0.8268 0.7631, 0.3401 -0.8268 0.7639, 0.1434 -0.8268 0.8669, 0.1458 -0.8268 0.8668, 0.1712 -0.8268 0.8669, 0.1567 -0.8268 0.8636, 0.1567 -0.8268 0.8498, 0.1567 -0.8268 0.7808, 0.1567 -0.8268 0.7682, 0.1712 -0.8268 0.7631, 0.1549 -0.8268 0.7673, 0.144 -0.8268 0.7637, 0.1374 -0.8268 0.7631, 0.1555 -0.8268 0.8505, 0.1452 -0.8268 0.8544, 0.1326 -0.8268 0.8559, 0.1278 -0.8268 0.8557, 0.119 -0.8268 0.8538, 0.111 -0.8268 0.8499, 0.1048 -0.8268 0.8446, 0.1041 -0.8268 0.8438, 0.0991 -0.8268 0.8367, 0.0957 -0.8268 0.8279, 0.094 -0.8268 0.8139, 0.0942 -0.8268 0.8092, 0.1466 -0.8268 0.7763, 0.135 -0.8268 0.7741, 0.1303 -0.8268 0.774, 0.096 -0.8268 0.7992, 0.0994 -0.8268 0.7911, 0.1041 -0.8268 0.7847, 0.1069 -0.8268 0.782, 0.1214 -0.8268 0.7749, 0.1139 -0.8268 0.7775, 0.0848 -0.8268 1.1024, 0.0827 -0.8268 0.8317, 0.0848 -0.8268 0.8366, 0.0875 -0.8268 0.8431, 0.0949 -0.8268 0.8528, 0.0975 -0.8268 0.8552, 0.107 -0.8268 0.8619, 0.0804 -0.8268 0.8184, 0.0786 -0.8268 0.8669, 0.0802 -0.8268 0.8131, 0.0786 -0.8268 0.7631, 0.0822 -0.8268 0.7965, 0.0848 -0.8268 0.7899, 0.1015 -0.8268 0.7693, 0.0933 -0.8268 0.7762, 0.0848 -0.8268 0.7631, 0.0924 -0.8268 0.7771, 0.0864 -0.8268 0.7858, 0.1284 -0.8268 0.7622, 0.1222 -0.8268 0.7625, 0.0848 -0.8268 0.7331, 0.1194 -0.8268 0.7631, 0.1111 -0.8268 0.7648, 0.278 -0.8268 0.6749, 0.2912 -0.8268 0.6749, 0.2981 -0.8268 0.7331, 0.2546 -0.8268 0.62, 0.2561 -0.8268 0.614, 0.2565 -0.8268 0.614, 0.2417 -0.8268 0.7331, 0.2417 -0.8268 0.6571, 0.258 -0.8268 0.6199, 0.2571 -0.8268 0.6165, 0.2417 -0.8268 0.6011, 0.2417 -0.8268 0.6228, 0.2212 -0.8268 0.6749, 0.2179 -0.8268 0.7331, 0.2355 -0.8268 0.6749, 0.2498 -0.8268 0.6021, 0.2494 -0.8268 0.6011, 0.2442 -0.8268 0.5888, 0.2179 -0.8268 0.5606, 0.2238 -0.8268 0.5686, 0.2238 -0.8268 0.58, 0.2393 -0.8268 0.5815, 0.2417 -0.8268 0.5842, 0.2417 -0.8268 0.5842, 0.2417 -0.8268 0.5698, 0.2373 -0.8268 0.5681, 0.2417 -0.8268 0.5606, 0.2321 -0.8268 0.5676, 0.2293 -0.8268 0.5677, 0.2311 -0.8268 0.5785, 0.2343 -0.8268 0.5789, 0.2371 -0.8268 0.58, 0.2981 -0.8268 0.6011, 0.2621 -0.8268 0.6011, 0.2981 -0.8268 0.5606, 0.2581 -0.8268 0.5909, 0.2523 -0.8268 0.5796, 0.2476 -0.8268 0.574, 0.2468 -0.8268 0.5732, 0.2423 -0.8268 0.5701, 0.3696 -0.8268 0.5606, 0.3696 -0.8268 0.374, 0.5315 -0.8268 0.374, 0.2417 -0.8268 0.0, 0.2559 -0.8268 0.0, 0.2559 -0.8268 0.374, -0.9218 -0.8268 0.0, -0.5315 -0.8268 0.0, -0.9218 -0.8268 0.5606, -0.5315 -0.8268 0.374, -0.2559 -0.8268 0.374, -0.3372 -0.8268 0.5606, -0.3496 -0.8268 0.5558, -0.3672 -0.8268 0.5536, -1.0433 -0.8268 0.0, -1.0433 -0.8268 0.374, -1.3189 -0.8268 0.374, -1.3189 -0.8268 0.5606, -0.9218 -0.8268 1.8504, -0.9843 -0.8268 1.8504, -1.3189 -0.8268 0.8669, -0.9843 -0.8268 3.0709, -1.063 -0.8268 3.1496, -1.3189 -0.8268 3.1496, -0.3379 -0.8268 0.8777, -0.3042 -0.8268 0.8898, -0.689 -0.8268 1.1024, -0.0197 -0.8268 1.1024, -0.2714 -0.8268 0.8935, -0.237 -0.8268 0.8893, 0.0786 -0.8268 1.1024, 0.2179 -0.8268 0.8669, 0.2179 -0.8268 1.1024, 0.1712 -0.8268 1.1024, 0.3373 -0.8268 1.1024, 1.063 -0.8268 3.1496, 0.9843 -0.8268 3.0709, 1.3189 -0.8268 3.1496, 0.9843 -0.8268 1.8504, 0.689 -0.8268 1.8504, 0.689 -0.8268 1.1024, 0.3696 -0.8268 1.1024, 0.2103 -0.8268 0.6338, 0.2126 -0.8268 0.6303, 0.211 -0.8268 0.6609, 0.1698 -0.8268 0.6673, 0.1712 -0.8268 0.6686, 0.1712 -0.8268 0.7331, 0.1736 -0.8268 0.6707, 0.1777 -0.8268 0.6732, 0.214 -0.8268 0.6265, 0.2145 -0.8268 0.6218, 0.2139 -0.8268 0.6166, 0.2124 -0.8268 0.6126, 0.21 -0.8268 0.6092, 0.1848 -0.8268 0.6756, 0.1938 -0.8268 0.6765, 0.211 -0.8268 0.6733, 0.2027 -0.8268 0.6757, 0.2063 -0.8268 0.606, 0.2033 -0.8268 0.6041, 0.1925 -0.8268 0.6661, 0.1887 -0.8268 0.6659, 0.1785 -0.8268 0.6563, 0.1853 -0.8268 0.665, 0.1824 -0.8268 0.6634, 0.1787 -0.8268 0.6546, 0.1792 -0.8268 0.6526, 0.1801 -0.8268 0.6509, 0.1813 -0.8268 0.6495, 0.1858 -0.8268 0.6467, 0.2007 -0.8268 0.6652, 0.1938 -0.8268 0.6433, 0.2079 -0.8268 0.6626, 0.1987 -0.8268 0.6413, 0.2072 -0.8268 0.6365, 0.1805 -0.8268 0.6617, 0.1794 -0.8268 0.6601, 0.1788 -0.8268 0.6584, 0.0947 -0.8268 0.6369, 0.0965 -0.8268 0.6573, 0.0921 -0.8268 0.6333, 0.0903 -0.8268 0.6288, 0.1479 -0.8268 0.6019, 0.1351 -0.8268 0.6019, 0.1194 -0.8268 0.6011, 0.1653 -0.8268 0.6177, 0.1479 -0.8268 0.6489, 0.1653 -0.8268 0.6045, 0.1048 -0.8268 0.6011, 0.0999 -0.8268 0.6029, 0.0848 -0.8268 0.6011, 0.0915 -0.8268 0.6113, 0.09 -0.8268 0.6156, 0.1086 -0.8268 0.675, 0.0991 -0.8268 0.6713, 0.0965 -0.8268 0.6697, 0.0987 -0.8268 0.6403, 0.1043 -0.8268 0.643, 0.104 -0.8268 0.6622, 0.1135 -0.8268 0.6453, 0.1247 -0.8268 0.6657, 0.1204 -0.8268 0.6661, 0.112 -0.8268 0.6652, 0.1351 -0.8268 0.6132, 0.1348 -0.8268 0.6132, 0.1315 -0.8268 0.6085, 0.1272 -0.8268 0.6046, 0.0956 -0.8268 0.6059, 0.0942 -0.8268 0.6074, 0.1248 -0.8268 0.6031, 0.1197 -0.8268 0.6011, 0.0893 -0.8268 0.6214, 0.0894 -0.8268 0.6234, 0.1704 -0.8268 0.6145, 0.1712 -0.8268 0.6142, 0.1712 -0.8268 0.6414, 0.1659 -0.8268 0.6597, 0.1674 -0.8268 0.6639, 0.1424 -0.8268 0.6684, 0.1216 -0.8268 0.6765, 0.1295 -0.8268 0.6758, 0.1348 -0.8268 0.6741, 0.1351 -0.8268 0.6483, 0.1347 -0.8268 0.6539, 0.1334 -0.8268 0.6585, 0.1319 -0.8268 0.6611, 0.147 -0.8268 0.6583, 0.1659 -0.8268 0.6502, 0.1391 -0.8268 0.6717, 0.145 -0.8268 0.6642, 0.1654 -0.8268 0.6552, 0.1299 -0.8268 0.6632, 0.1277 -0.8268 0.6646, 0.1711 -0.8268 0.6414, 0.169 -0.8268 0.6436, 0.1673 -0.8268 0.6463, 0.1784 -0.8268 0.6115, 0.1847 -0.8268 0.634, 0.1771 -0.8268 0.6375, 0.1863 -0.8268 0.6106, 0.1869 -0.8268 0.6106, 0.1931 -0.8268 0.6305, 0.1934 -0.8268 0.6114, 0.2014 -0.8268 0.6205, 0.2013 -0.8268 0.6221, 0.1967 -0.8268 0.6126, 0.1979 -0.8268 0.6133, 0.1994 -0.8268 0.6146, 0.2005 -0.8268 0.6162, 0.2011 -0.8268 0.6181, 0.2007 -0.8268 0.6241, 0.1997 -0.8268 0.6258, 0.1981 -0.8268 0.6274, 0.1712 -0.8268 0.6023, 0.1712 -0.8268 0.6011, 0.1731 -0.8268 0.6016, 0.1777 -0.8268 0.6011, 0.1851 -0.8268 0.6002, 0.1712 -0.8268 0.5606, 0.2265 -0.8268 0.5791, 0.0848 -0.8268 0.5606, 0.105 -0.8268 0.6011, 0.1125 -0.8268 0.6002, -0.1082 -0.8268 0.7864, -0.0885 -0.8268 0.7698, -0.0197 -0.8268 0.8669, -0.2009 -0.8268 0.8754, -0.1888 -0.8268 0.8669, -0.1726 -0.8268 0.8557, -0.1475 -0.8268 0.8263, -0.1334 -0.8268 0.7984, -0.1298 -0.8268 0.7971, -0.3556 -0.8268 0.8669, -0.9218 -0.8268 0.8669, -0.3585 -0.8268 0.8652, -0.9218 -0.8268 0.7631, -0.5145 -0.8268 0.7631, -0.5081 -0.8268 0.7774, -0.4907 -0.8268 0.7998, -0.4358 -0.8268 0.8311, -0.4072 -0.8268 0.8347, -0.3756 -0.8268 0.8505, -0.3988 -0.8268 0.8342, -0.3905 -0.8268 0.8332, -0.4858 -0.8268 0.8045, -0.4627 -0.8268 0.8207, -0.4716 -0.8268 0.6185, -0.4943 -0.8268 0.6379, -0.9218 -0.8268 0.6011, -0.4454 -0.8268 0.6058, -0.5109 -0.8268 0.6616, -0.5213 -0.8268 0.6886, -0.9218 -0.8268 0.7331, -0.5248 -0.8268 0.717, -0.5246 -0.8268 0.724, -0.523 -0.8268 0.7331, -0.5197 -0.8268 0.7513, -0.37 -0.8268 0.5537, -0.3872 -0.8268 0.5564, -0.3972 -0.8268 0.5606, -0.4039 -0.8268 0.5634, -0.4362 -0.8268 0.603, -0.4353 -0.8268 0.6011, -0.4289 -0.8268 0.5874, -0.4181 -0.8268 0.5741, -0.2992 -0.8268 0.6011, -0.2992 -0.8268 0.6008, -0.3078 -0.8268 0.5846, -0.319 -0.8268 0.5721, -0.3334 -0.8268 0.562, -0.0648 -0.8268 0.7269, -0.0615 -0.8268 0.7032, -0.2065 -0.8268 0.6439, -0.2015 -0.8268 0.6459, -0.1929 -0.8268 0.6872, -0.0884 -0.8268 0.6342, -0.1081 -0.8268 0.6175, -0.3128 -0.8268 0.6749, -0.2154 -0.8268 0.7257, -0.3254 -0.8268 0.6865, -0.3409 -0.8268 0.6947, -0.2109 -0.8268 0.6407, -0.074 -0.8268 0.6543, -0.1069 -0.8268 0.7089, -0.1103 -0.8268 0.7228, -0.1159 -0.8268 0.7331, -0.4772 -0.8268 0.7331, -0.0648 -0.8268 0.6773, -0.1958 -0.8268 0.6466, -0.1951 -0.8268 0.6465, -0.193 -0.8268 0.646, -0.473 -0.8268 0.6895, -0.4643 -0.8268 0.6748, -0.4274 -0.8268 0.6673, -0.4513 -0.8268 0.6614, -0.4355 -0.8268 0.6517, -0.4006 -0.8268 0.6913, -0.4154 -0.8268 0.681, -0.479 -0.8268 0.7185, -0.4782 -0.8268 0.7073, -0.3846 -0.8268 0.6975, -0.3672 -0.8268 0.6996, -0.3584 -0.8268 0.6991, -0.2184 -0.8268 0.6241, -0.2182 -0.8268 0.6269, -0.2946 -0.8268 0.6335, -0.2167 -0.8268 0.6325, -0.2139 -0.8268 0.6374, -0.1213 -0.8268 0.6641, -0.1133 -0.8268 0.6754, -0.1083 -0.8268 0.6884, -0.1065 -0.8268 0.7025, -0.2014 -0.8268 0.6022, -0.2062 -0.8268 0.6041, -0.2109 -0.8268 0.6075, -0.2126 -0.8268 0.6092, -0.2157 -0.8268 0.6137, -0.2177 -0.8268 0.6187, -0.295 -0.8268 0.6187, -0.2946 -0.8268 0.6262, -0.1303 -0.8268 0.6067, -0.1544 -0.8268 0.6016, -0.1973 -0.8268 0.6016, -0.1915 -0.8268 0.6459, -0.1588 -0.8268 0.6459, -0.1458 -0.8268 0.6484, -0.133 -0.8268 0.6543, -0.1222 -0.8268 0.6631, -0.169 -0.8268 0.7591, -0.4707 -0.8268 0.7522, -0.4769 -0.8268 0.736, -0.1632 -0.8268 0.7591, -0.117 -0.8268 0.7353, -0.1254 -0.8268 0.7447, -0.1367 -0.8268 0.7526, -0.1494 -0.8268 0.7574, -0.1846 -0.8268 0.8028, -0.201 -0.8268 0.8223, -0.3679 -0.8268 0.7802, -0.2028 -0.8268 0.824, -0.2232 -0.8268 0.8382, -0.3569 -0.8268 0.8032, -0.4631 -0.8268 0.7631, -0.3731 -0.8268 0.783, -0.1698 -0.8268 0.7631, -0.1734 -0.8268 0.7794, -0.3894 -0.8268 0.789, -0.4064 -0.8268 0.7911, -0.414 -0.8268 0.7907, -0.3406 -0.8268 0.8226, -0.246 -0.8268 0.8469, -0.3211 -0.8268 0.8369, -0.2706 -0.8268 0.8499, -0.2974 -0.8268 0.8465, -0.4319 -0.8268 0.7865, -0.4481 -0.8268 0.7779, -0.4606 -0.8268 0.7667, -0.0837 -0.8268 0.7631, -0.0737 -0.8268 0.7491, -0.0673 -0.8268 0.7331, 0.3317 -0.8268 0.7978, 0.3267 -0.8268 0.7873, 0.3227 -0.8268 0.849, 0.329 -0.8268 0.8401, 0.2981 -0.8268 0.7666, 0.2981 -0.8268 0.7631, 0.3084 -0.8268 0.7706, 0.3191 -0.8268 0.7782, 0.3191 -0.8268 0.8526, 0.3328 -0.8268 0.8304, 0.3345 -0.8268 0.8163, 0.3342 -0.8268 0.8098, 0.2805 -0.8268 0.8661, 0.2961 -0.8268 0.8644, 0.2981 -0.8268 0.8636, 0.3084 -0.8268 0.8599, 0.2417 -0.8268 1.1024, 0.2417 -0.8268 0.8669, 0.2967 -0.8268 0.766, 0.2794 -0.8268 0.7639, 0.2417 -0.8268 0.7631, 0.2513 -0.8268 0.7639, 0.2513 -0.8268 0.8661, 0.3182 -0.8268 0.6136, 0.3373 -0.8268 0.6136, 0.3182 -0.8268 0.6479, 0.3373 -0.8268 0.6479, 0.3696 -0.8268 0.7331, 0.3576 -0.8268 0.704, 0.3576 -0.8268 0.6923, 0.3547 -0.8268 0.6479, 0.3599 -0.8268 0.6136, 0.3547 -0.8268 0.6596, 0.3373 -0.8268 0.6923, 0.3373 -0.8268 0.6596, 0.3182 -0.8268 0.6923, 0.3182 -0.8268 0.6596, 0.305 -0.8268 0.6019, 0.305 -0.8268 0.704, 0.3373 -0.8268 0.704, 0.3373 -0.8268 0.7331, 0.1903 -0.8268 0.7756, 0.2179 -0.8268 0.7756, 0.1903 -0.8268 0.8099, 0.2179 -0.8268 0.8099, 0.2297 -0.8268 0.8661, 0.2179 -0.8268 0.8661, 0.2268 -0.8268 0.8099, 0.232 -0.8268 0.7756, 0.2268 -0.8268 0.8216, 0.2297 -0.8268 0.8543, 0.2179 -0.8268 0.8543, 0.1771 -0.8268 0.7639, 0.2179 -0.8268 0.7631, 0.232 -0.8268 0.7639, 0.2179 -0.8268 0.7639, 0.1771 -0.8268 0.8661, 0.1325 -0.8268 0.8678, -1.3189 -0.8268 0.6011, -1.3189 -0.8268 0.7331, -1.3189 -0.8268 0.7631, -0.689 -0.8268 1.8504, 0.076 -0.8268 0.7756, 0.076 -0.8268 0.7639, 0.0221 -0.8268 0.7639, 0.0353 -0.8268 0.7756, 0.0353 -0.8268 0.8661, 0.0221 -0.8268 0.8661, 0.0748 -0.8268 0.6923, 0.0786 -0.8268 0.6011, 0.0771 -0.8268 0.6136, 0.0771 -0.8268 0.6019, 0.0221 -0.8268 0.6019, 0.0353 -0.8268 0.6479, 0.0353 -0.8268 0.6136, 0.0719 -0.8268 0.6479, 0.0719 -0.8268 0.6596, 0.0353 -0.8268 0.6596, 0.0353 -0.8268 0.6923, 0.0221 -0.8268 0.704, 0.0748 -0.8268 0.704, 0.2981 -0.8268 0.374, 0.2179 -0.8268 0.0, 0.1712 -0.8268 0.0, 0.0848 -0.8268 0.0, 0.0786 -0.8268 0.0, -0.0197 -0.8268 0.0, -0.2559 -0.8268 0.0, 0.3373 -0.8268 0.374, 0.3373 -0.8268 0.5606, 0.3696 -0.8268 0.6011, 0.3792 -0.8268 0.6019, 0.3792 -0.8268 0.704, 0.56 -0.8268 0.6019, 0.5454 -0.8268 0.6019, 0.4073 -0.8268 0.6019, 1.3189 -0.8268 0.6011, 1.3189 -0.8268 0.7331, 0.5211 -0.8268 0.704, 0.535 -0.8268 0.6298, 0.4924 -0.8268 0.6298, 0.4826 -0.8268 0.6019, 0.4681 -0.8268 0.6019, 0.507 -0.8268 0.704, 0.4546 -0.8268 0.6253, 0.447 -0.8268 0.6162, 0.4363 -0.8268 0.6086, 0.4246 -0.8268 0.604, 0.447 -0.8268 0.6905, 0.4506 -0.8268 0.687, 0.4569 -0.8268 0.6781, 0.4607 -0.8268 0.6683, 0.4084 -0.8268 0.704, 0.424 -0.8268 0.7023, 0.4363 -0.8268 0.6978, 0.4624 -0.8268 0.6543, 0.4621 -0.8268 0.6478, 0.4596 -0.8268 0.6358, 0.5315 -0.8268 0.0, 1.0433 -0.8268 0.0, 1.0827 0.0984 0.8661, 1.2795 0.0984 0.8661, 1.7323 0.6299 0.8661, -1.7323 0.6299 0.8661, -1.7323 -0.9055 0.8661, -1.4567 -0.5512 0.8661, -1.4567 -0.9055 0.8661, 1.4567 -0.9055 0.8661, 1.7323 -0.9055 0.8661, 1.4567 -0.5512 0.8661, 0.2953 0.0984 0.8661, 0.4921 0.0984 0.8661, 1.2795 -0.0984 0.8661, 1.0827 -0.0984 0.8661, 0.2953 -0.0984 0.8661, -0.2953 0.0984 0.8661, -0.4921 0.0984 0.8661, -1.0827 0.0984 0.8661, -0.4921 -0.0984 0.8661, -1.0827 -0.0984 0.8661, -0.2953 -0.0984 0.8661, 0.4921 -0.0984 0.8661, -1.2795 -0.0984 0.8661, -1.2795 0.0984 0.8661, 1.2795 0.0984 0.0787, 1.3189 0.4882 0.0787, 1.3189 -0.4488 0.0787, 1.0433 0.4882 0.0787, 1.0827 0.0984 0.0787, 1.0433 -0.4488 0.0787, 1.0827 -0.0984 0.0787, 1.2795 -0.0984 0.0787, 0.4921 0.0984 0.0787, 0.5315 0.4882 0.0787, 0.5315 -0.4488 0.0787, 0.2559 0.4882 0.0787, 0.2953 0.0984 0.0787, 0.2559 -0.4488 0.0787, 0.2953 -0.0984 0.0787, 0.4921 -0.0984 0.0787, -0.2953 0.0984 0.0787, -0.2559 0.4882 0.0787, -0.2559 -0.4488 0.0787, -0.5315 0.4882 0.0787, -0.4921 0.0984 0.0787, -0.5315 -0.4488 0.0787, -0.4921 -0.0984 0.0787, -0.2953 -0.0984 0.0787, -1.0827 0.0984 0.0787, -1.0433 0.4882 0.0787, -1.0433 -0.4488 0.0787, -1.3189 0.4882 0.0787, -1.2795 0.0984 0.0787, -1.3189 -0.4488 0.0787, -1.2795 -0.0984 0.0787, -1.0827 -0.0984 0.0787, -0.2559 0.8661 0.0, 0.2559 0.8661 0.0, 0.5315 0.8661 0.0, 1.0433 0.8661 0.0, 1.9685 -0.8268 0.0, 1.3189 -0.8268 0.0, 1.9685 0.8661 0.0, 1.3189 0.8661 0.0, -1.9685 -0.8268 0.0, -1.3189 -0.8268 0.0, -1.9685 -0.8268 0.374, -0.5315 0.8661 0.0, -1.0433 0.8661 0.0, 1.3976 0.8661 3.1496, 1.3976 0.7087 3.1496, 1.9685 0.8661 3.1496, 1.811 0.7087 3.1496, 1.9685 -1.1417 3.1496, 1.811 -0.9843 3.1496, 1.3189 -1.1417 3.1496, 1.378 -0.9843 3.1496, 1.378 -0.6299 3.1496, 1.063 -0.6299 3.1496, 1.9685 -1.1417 0.374, 1.3189 -1.1417 0.374, -1.3976 0.8661 3.1496, -1.3189 0.8661 3.0709, -1.9685 0.8661 3.1496, -1.3189 0.8661 2.7165, -1.9685 0.8661 0.0, 1.3189 0.8661 0.374, 1.3189 0.8661 3.0709, 1.3189 0.8661 2.7165, 1.0433 0.8661 0.374, 0.2559 0.8661 0.374, -0.2559 0.8661 0.374, -0.5315 0.8661 0.374, 0.5315 0.8661 0.374, -1.3189 0.8661 0.0, -1.3189 0.8661 0.374, -1.0433 0.8661 0.374, -1.3189 -1.1417 0.374, -1.3189 -1.1417 3.1496, -1.9685 -1.1417 0.374, -1.9685 -1.1417 3.1496, -1.063 -0.6299 3.1496, -1.378 -0.6299 3.1496, -1.378 -0.9843 3.1496, -1.3976 0.7087 3.1496, -1.811 0.7087 3.1496, -1.811 -0.9843 3.1496
            ]
        }
        coordIndex [
            0,1,2,-1,3,4,5,-1,6,7,8,-1,9,10,11,-1,12,13,14,-1,15,16,17,-1,18,19,20,-1,21,22,23,-1,24,25,26,-1,26,25,27,-1,26,27,28,-1,29,30,31,-1,31,30,32,-1,31,32,33,-1,33,32,34,-1,25,35,27,-1,27,35,36,-1,27,36,37,-1,37,36,38,-1,37,38,17,-1,17,38,34,-1,39,40,41,-1,41,40,42,-1,41,42,43,-1,44,45,46,-1,45,47,46,-1,46,47,48,-1,46,48,49,-1,50,51,44,-1,44,51,52,-1,44,52,53,-1,53,54,44,-1,44,54,55,-1,44,55,56,-1,56,57,44,-1,44,57,58,-1,44,58,59,-1,59,60,44,-1,44,60,61,-1,44,61,62,-1,62,61,63,-1,63,61,64,-1,64,61,65,-1,64,65,66,-1,66,67,64,-1,64,67,68,-1,64,68,69,-1,69,68,70,-1,23,22,71,-1,72,73,23,-1,23,73,74,-1,23,74,75,-1,75,76,23,-1,23,76,77,-1,23,77,21,-1,78,79,80,-1,80,79,81,-1,80,81,82,-1,82,81,83,-1,84,85,86,-1,86,85,87,-1,86,87,88,-1,89,90,91,-1,91,90,92,-1,91,92,86,-1,86,92,93,-1,86,93,84,-1,94,95,96,-1,97,98,99,-1,96,100,94,-1,94,100,101,-1,94,101,102,-1,102,101,97,-1,102,97,103,-1,103,97,99,-1,104,105,14,-1,14,105,106,-1,14,106,107,-1,107,106,100,-1,100,106,108,-1,100,108,101,-1,109,105,110,-1,110,105,104,-1,110,104,111,-1,112,113,114,-1,115,116,104,-1,104,116,117,-1,104,117,111,-1,118,119,120,-1,120,119,121,-1,120,121,112,-1,112,121,122,-1,112,122,113,-1,123,124,104,-1,104,124,125,-1,104,125,115,-1,126,127,128,-1,128,127,129,-1,128,129,130,-1,130,131,128,-1,128,131,132,-1,128,132,120,-1,120,132,133,-1,120,133,118,-1,134,135,136,-1,137,138,139,-1,140,141,142,-1,142,141,143,-1,144,1,145,-1,145,146,144,-1,144,146,147,-1,144,147,143,-1,148,140,149,-1,149,140,142,-1,149,142,150,-1,150,142,151,-1,152,153,154,-1,155,156,153,-1,153,156,157,-1,153,157,154,-1,158,159,160,-1,160,159,161,-1,161,159,162,-1,161,162,163,-1,79,164,161,-1,78,72,79,-1,79,72,23,-1,79,23,164,-1,164,23,71,-1,165,166,167,-1,34,32,17,-1,17,32,168,-1,17,168,15,-1,169,170,171,-1,171,170,172,-1,171,172,30,-1,172,173,30,-1,30,173,174,-1,30,174,32,-1,32,174,175,-1,32,175,168,-1,176,177,178,-1,179,180,181,-1,181,180,182,-1,181,182,183,-1,184,185,14,-1,185,186,14,-1,14,186,187,-1,14,187,188,-1,183,189,181,-1,181,189,190,-1,181,190,107,-1,177,184,178,-1,178,184,14,-1,178,14,191,-1,191,14,107,-1,191,107,192,-1,192,107,190,-1,188,193,14,-1,14,193,194,-1,14,194,12,-1,195,196,197,-1,197,196,198,-1,197,198,199,-1,197,200,195,-1,195,200,201,-1,195,201,202,-1,202,203,195,-1,195,203,204,-1,195,204,205,-1,205,204,206,-1,205,206,207,-1,207,206,208,-1,207,208,178,-1,178,208,209,-1,178,209,176,-1,210,211,199,-1,199,211,212,-1,199,212,197,-1,213,214,215,-1,215,214,216,-1,217,218,219,-1,220,221,222,-1,222,221,217,-1,223,224,225,-1,225,226,227,-1,228,91,229,-1,229,91,230,-1,213,231,214,-1,214,231,232,-1,214,232,233,-1,233,232,234,-1,235,236,234,-1,234,236,237,-1,234,237,233,-1,238,239,218,-1,218,239,240,-1,218,240,241,-1,224,242,225,-1,225,242,243,-1,225,243,226,-1,241,244,218,-1,218,244,245,-1,218,245,219,-1,227,246,225,-1,225,246,247,-1,225,247,91,-1,91,247,216,-1,91,216,230,-1,230,216,214,-1,248,249,250,-1,251,252,253,-1,228,254,91,-1,91,254,255,-1,91,255,256,-1,257,258,234,-1,234,258,259,-1,234,259,260,-1,261,221,262,-1,49,89,181,-1,181,89,91,-1,181,91,179,-1,179,91,256,-1,179,256,252,-1,252,256,263,-1,252,263,253,-1,248,250,220,-1,253,264,251,-1,251,264,261,-1,251,261,265,-1,265,261,262,-1,260,266,234,-1,234,266,267,-1,234,267,235,-1,250,268,220,-1,220,268,269,-1,220,269,221,-1,221,269,270,-1,221,270,262,-1,271,272,249,-1,249,272,273,-1,249,273,250,-1,271,274,272,-1,272,274,275,-1,272,275,276,-1,276,275,277,-1,276,278,279,-1,277,280,276,-1,276,280,281,-1,276,281,282,-1,282,283,276,-1,276,283,284,-1,276,284,278,-1,279,285,276,-1,276,285,286,-1,276,286,287,-1,288,289,290,-1,290,289,291,-1,292,293,13,-1,13,293,112,-1,13,112,14,-1,14,112,114,-1,14,114,104,-1,104,114,294,-1,104,294,123,-1,292,291,293,-1,293,291,289,-1,293,289,295,-1,223,225,296,-1,296,225,295,-1,296,295,297,-1,297,295,219,-1,219,295,289,-1,219,289,217,-1,217,289,288,-1,217,288,222,-1,298,299,300,-1,300,299,3,-1,301,302,300,-1,300,302,303,-1,300,303,304,-1,304,305,300,-1,300,305,306,-1,300,306,298,-1,158,160,307,-1,307,160,308,-1,307,308,309,-1,310,311,308,-1,308,311,312,-1,308,312,313,-1,308,314,309,-1,309,314,315,-1,309,315,316,-1,316,315,317,-1,316,317,318,-1,313,319,308,-1,308,319,320,-1,308,320,314,-1,321,322,323,-1,321,323,324,-1,322,325,323,-1,323,325,326,-1,323,326,327,-1,327,326,328,-1,328,329,327,-1,327,329,330,-1,327,330,310,-1,310,330,331,-1,310,331,311,-1,147,332,143,-1,143,332,333,-1,143,333,142,-1,142,333,334,-1,142,334,335,-1,336,324,337,-1,337,324,323,-1,337,323,338,-1,338,323,142,-1,338,142,339,-1,339,142,335,-1,0,340,1,-1,1,340,341,-1,1,341,342,-1,342,343,1,-1,1,343,344,-1,1,344,145,-1,345,346,4,-1,347,348,349,-1,350,351,0,-1,352,353,354,-1,354,353,355,-1,347,349,356,-1,350,0,357,-1,358,359,353,-1,353,359,360,-1,353,360,361,-1,4,346,0,-1,0,346,362,-1,0,362,357,-1,348,363,349,-1,349,363,364,-1,349,364,365,-1,366,367,368,-1,368,367,369,-1,368,369,370,-1,371,361,372,-1,372,361,373,-1,372,373,368,-1,368,373,374,-1,368,374,366,-1,371,375,361,-1,361,375,376,-1,361,376,353,-1,353,376,377,-1,353,377,355,-1,378,379,380,-1,380,379,381,-1,380,381,349,-1,349,381,382,-1,349,382,356,-1,383,384,349,-1,349,384,385,-1,349,385,353,-1,353,385,386,-1,353,386,358,-1,387,388,340,-1,340,388,389,-1,340,389,390,-1,390,391,340,-1,340,391,392,-1,340,392,393,-1,393,392,378,-1,393,378,394,-1,394,378,380,-1,351,395,0,-1,0,395,396,-1,0,396,340,-1,340,396,397,-1,340,397,387,-1,365,398,349,-1,349,398,399,-1,349,399,400,-1,400,401,349,-1,349,401,402,-1,349,402,383,-1,403,404,405,-1,405,361,403,-1,403,361,360,-1,403,360,406,-1,406,360,407,-1,407,408,406,-1,406,408,409,-1,406,409,410,-1,411,412,413,-1,412,414,413,-1,413,414,415,-1,413,415,416,-1,417,413,418,-1,404,403,417,-1,417,403,419,-1,417,419,413,-1,413,419,420,-1,413,420,411,-1,418,421,417,-1,417,421,422,-1,417,422,423,-1,416,415,424,-1,424,415,425,-1,424,425,426,-1,426,425,427,-1,426,427,428,-1,429,430,423,-1,423,430,431,-1,423,431,417,-1,299,432,3,-1,3,432,433,-1,3,433,4,-1,4,433,434,-1,4,434,345,-1,435,436,37,-1,437,438,17,-1,439,440,441,-1,441,440,37,-1,441,37,442,-1,442,37,436,-1,437,17,443,-1,438,444,17,-1,17,444,445,-1,17,445,37,-1,37,445,446,-1,37,446,435,-1,447,448,16,-1,16,448,449,-1,16,449,17,-1,17,449,450,-1,17,450,443,-1,15,451,16,-1,16,451,452,-1,16,452,447,-1,439,453,440,-1,440,453,454,-1,440,454,455,-1,455,454,456,-1,455,456,452,-1,452,456,457,-1,452,457,447,-1,458,459,460,-1,460,459,461,-1,462,463,464,-1,461,459,465,-1,465,459,466,-1,465,466,467,-1,464,468,469,-1,469,468,470,-1,469,470,471,-1,126,472,473,-1,463,462,474,-1,474,462,475,-1,474,475,473,-1,473,475,96,-1,473,96,126,-1,126,96,95,-1,126,95,127,-1,476,477,478,-1,478,477,479,-1,451,166,452,-1,452,166,165,-1,452,165,480,-1,480,165,481,-1,479,477,482,-1,482,477,483,-1,482,483,484,-1,484,483,485,-1,484,485,8,-1,8,485,486,-1,8,486,6,-1,487,46,488,-1,480,485,452,-1,452,485,483,-1,452,483,455,-1,455,483,489,-1,455,489,488,-1,488,489,490,-1,488,490,487,-1,50,44,43,-1,43,44,46,-1,43,46,41,-1,41,46,487,-1,41,487,491,-1,22,492,71,-1,71,492,39,-1,71,39,167,-1,167,39,41,-1,167,41,165,-1,165,41,491,-1,165,491,481,-1,151,142,493,-1,493,142,323,-1,493,323,494,-1,494,323,327,-1,494,327,495,-1,495,327,310,-1,495,310,154,-1,154,310,308,-1,154,308,152,-1,152,308,160,-1,152,160,496,-1,79,497,81,-1,81,497,498,-1,81,498,499,-1,500,497,501,-1,501,497,79,-1,501,79,300,-1,300,79,161,-1,300,161,301,-1,301,161,163,-1,5,81,3,-1,3,81,499,-1,3,499,300,-1,300,499,502,-1,300,502,501,-1,503,504,5,-1,503,505,504,-1,504,505,506,-1,504,506,507,-1,508,509,510,-1,510,509,505,-1,510,505,511,-1,511,505,503,-1,511,503,512,-1,512,503,513,-1,2,504,0,-1,0,504,507,-1,0,507,4,-1,4,507,514,-1,4,514,5,-1,5,514,515,-1,5,515,503,-1,2,295,504,-1,504,295,225,-1,504,225,5,-1,5,225,91,-1,5,91,81,-1,81,91,86,-1,81,86,83,-1,83,86,88,-1,516,128,139,-1,139,128,120,-1,139,120,137,-1,137,120,112,-1,137,112,517,-1,517,112,293,-1,517,293,518,-1,518,293,295,-1,518,295,519,-1,519,295,2,-1,519,2,520,-1,520,2,1,-1,520,1,521,-1,521,1,144,-1,521,144,522,-1,516,523,128,-1,128,523,524,-1,128,524,126,-1,126,524,11,-1,126,11,472,-1,472,11,10,-1,49,181,46,-1,46,181,107,-1,46,107,488,-1,488,107,100,-1,488,100,455,-1,455,100,96,-1,455,96,440,-1,440,96,475,-1,440,475,37,-1,37,475,462,-1,37,462,27,-1,523,135,524,-1,524,135,134,-1,524,134,11,-1,11,134,525,-1,11,525,9,-1,9,525,466,-1,526,527,462,-1,528,529,525,-1,469,467,464,-1,464,467,466,-1,464,466,462,-1,462,466,525,-1,462,525,526,-1,526,525,530,-1,531,532,533,-1,534,535,529,-1,529,535,536,-1,529,536,525,-1,525,536,537,-1,525,537,530,-1,31,28,29,-1,29,28,27,-1,29,27,532,-1,532,27,462,-1,532,462,533,-1,533,462,538,-1,537,539,540,-1,540,541,537,-1,537,541,542,-1,537,542,530,-1,543,544,538,-1,538,544,545,-1,538,545,546,-1,527,547,462,-1,462,547,548,-1,462,548,538,-1,538,548,549,-1,538,549,543,-1,546,550,538,-1,538,550,551,-1,538,551,537,-1,537,551,552,-1,537,552,539,-1,553,554,136,-1,136,554,18,-1,136,18,134,-1,134,18,20,-1,134,20,525,-1,525,20,531,-1,525,531,528,-1,528,531,533,-1,555,556,557,-1,558,559,560,-1,560,559,561,-1,562,563,564,-1,564,563,557,-1,558,565,566,-1,557,556,564,-1,564,556,567,-1,564,567,568,-1,569,565,570,-1,570,565,558,-1,570,558,571,-1,571,558,572,-1,571,572,573,-1,573,572,574,-1,570,575,569,-1,569,575,564,-1,569,564,576,-1,576,564,568,-1,576,568,566,-1,566,568,555,-1,566,555,558,-1,558,555,557,-1,575,573,564,-1,564,573,574,-1,564,574,560,-1,560,574,577,-1,560,577,558,-1,558,577,578,-1,558,578,572,-1,579,580,581,-1,580,579,582,-1,582,579,583,-1,582,583,584,-1,584,583,585,-1,584,585,581,-1,581,585,586,-1,581,586,579,-1,587,588,589,-1,588,587,590,-1,590,587,591,-1,590,591,592,-1,592,591,593,-1,592,593,589,-1,589,593,594,-1,589,594,587,-1,595,596,597,-1,596,595,598,-1,598,595,599,-1,598,599,600,-1,600,599,601,-1,600,601,597,-1,597,601,602,-1,597,602,595,-1,603,604,605,-1,604,603,606,-1,606,603,607,-1,606,607,608,-1,608,607,609,-1,608,609,605,-1,605,609,610,-1,605,610,603,-1,611,612,522,-1,522,612,138,-1,613,614,553,-1,553,614,554,-1,615,616,617,-1,617,616,618,-1,619,620,621,-1,621,620,150,-1,141,148,622,-1,622,148,623,-1,624,625,626,-1,626,625,627,-1,626,627,628,-1,628,627,629,-1,628,629,630,-1,630,629,631,-1,630,631,171,-1,171,631,632,-1,171,632,169,-1,169,632,633,-1,628,630,634,-1,634,630,635,-1,636,637,638,-1,638,637,639,-1,638,639,640,-1,617,618,641,-1,642,624,643,-1,643,624,626,-1,626,617,643,-1,643,617,641,-1,643,641,639,-1,639,641,644,-1,645,612,611,-1,646,647,639,-1,611,646,645,-1,645,646,639,-1,645,639,648,-1,648,639,644,-1,648,644,613,-1,613,644,614,-1,649,640,650,-1,650,640,639,-1,650,639,651,-1,651,639,647,-1,651,647,623,-1,623,647,622,-1,652,653,654,-1,654,653,655,-1,156,656,157,-1,157,656,657,-1,157,657,658,-1,659,636,660,-1,660,636,638,-1,660,638,661,-1,661,638,655,-1,661,655,658,-1,658,655,653,-1,658,653,157,-1,654,655,621,-1,621,655,638,-1,621,638,619,-1,619,638,640,-1,
        ]
    }
}
Shape{
    appearance Appearance {
        material  Material 	{
            diffuseColor 0.7019607843137254 0.7019607843137254 0.7019607843137254
            specularColor 0.050980392156862744 0.050980392156862744 0.050980392156862744
            ambientIntensity 1.0
            transparency 0.0
            shininess 0.5
        }
    }
    geometry IndexedFaceSet {
        ccw TRUE
        solid FALSE
        coord DEF co Coordinate {
            point [
                1.9685 -0.8268 0.0, 1.9685 0.8661 0.0, 1.9685 -0.8268 0.374, 1.9685 0.8661 3.1496, 1.9685 -1.1417 0.374, 1.9685 -1.1417 3.1496
            ]
        }
        coordIndex [
            0,1,2,-1,2,1,3,-1,2,3,4,-1,4,3,5,-1,
        ]
    }
}
Shape{
    appearance Appearance {
        material  Material 	{
            diffuseColor 1.0 1.0 1.0
            specularColor 0.30196078431372547 0.30196078431372547 0.30196078431372547
            ambientIntensity 1.0
            transparency 0.0
            shininess 0.5
        }
    }
    geometry IndexedFaceSet {
        ccw TRUE
        solid FALSE
        coord DEF co Coordinate {
            point [
                0.9843 -0.5512 3.0709, 1.4567 -0.5512 3.0709, 0.9843 -0.5512 1.7717, 1.4567 -0.5512 0.8661, -0.9843 -0.5512 1.7717, -1.4567 -0.5512 0.8661, -0.9843 -0.5512 3.0709, -1.4567 -0.5512 3.0709, -1.4567 -0.9055 3.0709, -1.4567 -0.9055 0.8661, -1.7323 -0.9055 3.0709, -1.7323 -0.9055 0.8661, -1.7323 0.6299 3.0709, -1.7323 0.6299 0.8661, 1.7323 0.6299 3.0709, 1.3189 0.6299 3.0709, 1.3189 0.6299 2.6378, -1.3189 0.6299 3.0709, -1.3189 0.6299 2.6378, 1.7323 0.6299 0.8661, 1.7323 -0.9055 3.0709, 1.7323 -0.9055 0.8661, 1.4567 -0.9055 3.0709, 1.4567 -0.9055 0.8661, 1.3189 0.8661 3.0709, 1.3189 0.8661 2.7165, 1.3189 0.7087 2.7165, -1.3189 0.8661 2.7165, -1.3189 0.8661 3.0709, -1.3189 0.7087 2.7165, 1.3189 -1.1417 0.374, 1.3189 -1.1417 3.1496, 1.3189 -0.8268 0.374, 1.3189 -0.8268 3.1496, -1.3189 -0.8268 0.374, -1.3189 -0.8268 3.1496, -1.3189 -1.1417 0.374, -1.3189 -1.1417 3.1496, 1.9685 -0.8268 0.374, 1.9685 -0.8268 0.0, 1.3189 -0.8268 0.0, 0.9843 -0.8268 1.8504, 0.9843 -0.8268 3.0709, 0.9843 -0.6299 1.8504, -0.9843 -0.8268 3.0709, -0.9843 -0.8268 1.8504, -0.9843 -0.6299 1.8504, -0.689 -0.8268 1.8504, 0.689 -0.8268 1.8504, 1.063 -0.6299 3.1496, 1.063 -0.8268 3.1496, 1.378 -0.6299 3.1496, 1.378 -0.9843 3.1496, 1.811 -0.9843 3.1496, 1.811 0.7087 3.1496, 1.3976 0.7087 3.1496, 1.3976 0.8661 3.1496, -1.3976 0.7087 3.1496, -1.3976 0.8661 3.1496, -1.811 0.7087 3.1496, -1.811 -0.9843 3.1496, -1.378 -0.9843 3.1496, -1.378 -0.6299 3.1496, -1.063 -0.6299 3.1496, -1.063 -0.8268 3.1496, 0.689 -1.1024 1.2594, 0.689 -1.1024 1.1024, 0.689 -0.8268 1.1024, -0.689 -1.1024 1.2594, -0.689 -1.1024 1.1024, -0.689 -0.8268 1.1024, -1.9685 0.8661 0.0, -1.3189 0.8661 0.0, -1.9685 -0.8268 0.0, -1.3189 -0.8268 0.0, 1.9685 -1.1417 0.374, -1.9685 -0.8268 0.374, -1.9685 -1.1417 0.374, -1.0433 0.4882 0.0787, -1.0433 0.8661 0.374, -1.0433 0.8661 0.0, -1.0433 -0.4488 0.0787, -1.0433 -0.8268 0.0, -1.0433 -0.8268 0.374, -1.3189 0.8661 0.374, -1.3189 0.4882 0.0787, -1.3189 -0.4488 0.0787, 1.3189 0.4882 0.0787, 1.3189 0.8661 0.374, 1.3189 0.8661 0.0, 1.3189 -0.4488 0.0787, 1.0433 0.8661 0.374, 1.0433 0.4882 0.0787, 1.0433 0.8661 0.0, 1.0433 -0.4488 0.0787, 1.0433 -0.8268 0.0, 1.0433 -0.8268 0.374, 0.5315 0.4882 0.0787, 0.5315 0.8661 0.374, 0.5315 0.8661 0.0, 0.5315 -0.4488 0.0787, 0.5315 -0.8268 0.0, 0.5315 -0.8268 0.374, 0.2559 0.8661 0.374, 0.2559 0.4882 0.0787, 0.2559 0.8661 0.0, 0.2559 -0.4488 0.0787, 0.2559 -0.8268 0.0, 0.2559 -0.8268 0.374, -0.2559 0.4882 0.0787, -0.2559 0.8661 0.374, -0.2559 0.8661 0.0, -0.2559 -0.4488 0.0787, -0.2559 -0.8268 0.0, -0.2559 -0.8268 0.374, -0.5315 0.8661 0.374, -0.5315 0.4882 0.0787, -0.5315 0.8661 0.0, -0.5315 -0.4488 0.0787, -0.5315 -0.8268 0.0, -0.5315 -0.8268 0.374
            ]
        }
        coordIndex [
            0,1,2,-1,2,1,3,-1,2,3,4,-1,4,3,5,-1,4,5,6,-1,6,5,7,-1,7,5,8,-1,8,5,9,-1,8,9,10,-1,10,9,11,-1,10,11,12,-1,12,11,13,-1,14,15,16,-1,17,12,18,-1,18,12,13,-1,18,13,16,-1,16,13,19,-1,16,19,14,-1,14,19,20,-1,20,19,21,-1,20,21,22,-1,22,21,23,-1,22,23,1,-1,1,23,3,-1,24,25,15,-1,15,25,26,-1,15,26,16,-1,27,28,29,-1,29,28,17,-1,29,17,18,-1,26,25,29,-1,29,25,27,-1,30,31,32,-1,32,31,33,-1,34,35,36,-1,36,35,37,-1,38,32,39,-1,39,32,40,-1,41,42,43,-1,43,42,0,-1,43,0,2,-1,44,45,6,-1,6,45,46,-1,6,46,4,-1,46,45,47,-1,46,47,43,-1,43,47,48,-1,43,48,41,-1,29,18,26,-1,26,18,16,-1,49,0,50,-1,50,0,42,-1,51,1,49,-1,49,1,0,-1,52,22,51,-1,51,22,1,-1,53,20,52,-1,52,20,22,-1,54,14,53,-1,53,14,20,-1,55,15,54,-1,54,15,14,-1,56,24,55,-1,55,24,15,-1,4,46,2,-1,2,46,43,-1,57,17,58,-1,58,17,28,-1,59,12,57,-1,57,12,17,-1,60,10,59,-1,59,10,12,-1,61,8,60,-1,60,8,10,-1,62,7,61,-1,61,7,8,-1,63,6,62,-1,62,6,7,-1,64,44,63,-1,63,44,6,-1,65,66,48,-1,48,66,67,-1,68,69,65,-1,65,69,66,-1,47,70,68,-1,68,70,69,-1,69,70,66,-1,66,70,67,-1,65,48,68,-1,68,48,47,-1,71,72,73,-1,73,72,74,-1,75,30,38,-1,38,30,32,-1,76,34,77,-1,77,34,36,-1,78,79,80,-1,78,80,81,-1,81,80,82,-1,81,82,83,-1,84,85,72,-1,72,85,86,-1,72,86,74,-1,74,86,34,-1,85,84,78,-1,78,84,79,-1,34,86,83,-1,83,86,81,-1,87,88,89,-1,87,89,90,-1,90,89,40,-1,90,40,32,-1,91,92,93,-1,93,92,94,-1,93,94,95,-1,95,94,96,-1,97,98,99,-1,97,99,100,-1,100,99,101,-1,100,101,102,-1,103,104,105,-1,105,104,106,-1,105,106,107,-1,107,106,108,-1,109,110,111,-1,109,111,112,-1,112,111,113,-1,112,113,114,-1,115,116,117,-1,117,116,118,-1,117,118,119,-1,119,118,120,-1,116,115,109,-1,109,115,110,-1,120,118,114,-1,114,118,112,-1,104,103,97,-1,97,103,98,-1,108,106,102,-1,102,106,100,-1,92,91,87,-1,87,91,88,-1,96,94,32,-1,32,94,90,-1,
        ]
    }
}
Shape{
    appearance Appearance {
        material  Material 	{
            diffuseColor 0.6666666666666666 0.6666666666666666 0.6666666666666666
            specularColor 0.4666666666666667 0.4666666666666667 0.4666666666666667
            ambientIntensity 0.6667
            transparency 0.0
            shininess 0.5
        }
    }
    geometry IndexedFaceSet {
        ccw TRUE
        solid FALSE
        coord DEF co Coordinate {
            point [
                -1.2205 -0.0394 -1.1811, -1.2205 0.0394 -1.1811, -1.1417 -0.0394 -1.1811, -1.1417 0.0394 -1.1811, -1.2795 -0.0984 -0.9607, -1.2795 -0.0984 0.0787, -1.2795 0.0984 -0.9607, -1.2795 0.0984 0.0787, -1.0827 0.0984 -0.9607, -1.0827 0.0984 0.0787, -1.0827 -0.0984 -0.9607, -1.0827 -0.0984 0.0787, -1.2795 -0.0984 1.5513, -1.2795 -0.0984 0.8661, -1.0827 -0.0984 1.5513, -1.0827 -0.0984 0.8661, -1.0827 0.0984 1.5513, -1.0827 0.0984 0.8661, -1.2795 0.0984 1.5513, -1.2795 0.0984 0.8661, -1.2205 0.0394 1.7717, -1.2205 -0.0394 1.7717, -1.1417 0.0394 1.7717, -1.1417 -0.0394 1.7717, -0.4331 -0.0394 -1.1811, -0.4331 0.0394 -1.1811, -0.3543 -0.0394 -1.1811, -0.3543 0.0394 -1.1811, -0.4921 -0.0984 -0.9607, -0.4921 -0.0984 0.0787, -0.4921 0.0984 -0.9607, -0.4921 0.0984 0.0787, -0.2953 0.0984 -0.9607, -0.2953 0.0984 0.0787, -0.2953 -0.0984 -0.9607, -0.2953 -0.0984 0.0787, -0.4921 -0.0984 1.5513, -0.4921 -0.0984 0.8661, -0.2953 -0.0984 1.5513, -0.2953 -0.0984 0.8661, -0.2953 0.0984 1.5513, -0.2953 0.0984 0.8661, -0.4921 0.0984 1.5513, -0.4921 0.0984 0.8661, -0.4331 0.0394 1.7717, -0.4331 -0.0394 1.7717, -0.3543 0.0394 1.7717, -0.3543 -0.0394 1.7717, 0.3543 -0.0394 -1.1811, 0.3543 0.0394 -1.1811, 0.4331 -0.0394 -1.1811, 0.4331 0.0394 -1.1811, 0.2953 -0.0984 -0.9607, 0.2953 -0.0984 0.0787, 0.2953 0.0984 -0.9607, 0.2953 0.0984 0.0787, 0.4921 0.0984 -0.9607, 0.4921 0.0984 0.0787, 0.4921 -0.0984 -0.9607, 0.4921 -0.0984 0.0787, 0.2953 -0.0984 1.5513, 0.2953 -0.0984 0.8661, 0.4921 -0.0984 1.5513, 0.4921 -0.0984 0.8661, 0.4921 0.0984 1.5513, 0.4921 0.0984 0.8661, 0.2953 0.0984 1.5513, 0.2953 0.0984 0.8661, 0.3543 0.0394 1.7717, 0.3543 -0.0394 1.7717, 0.4331 0.0394 1.7717, 0.4331 -0.0394 1.7717, 1.1417 -0.0394 -1.1811, 1.1417 0.0394 -1.1811, 1.2205 -0.0394 -1.1811, 1.2205 0.0394 -1.1811, 1.0827 -0.0984 -0.9607, 1.0827 -0.0984 0.0787, 1.0827 0.0984 -0.9607, 1.0827 0.0984 0.0787, 1.2795 0.0984 -0.9607, 1.2795 0.0984 0.0787, 1.2795 -0.0984 -0.9607, 1.2795 -0.0984 0.0787, 1.0827 -0.0984 1.5513, 1.0827 -0.0984 0.8661, 1.2795 -0.0984 1.5513, 1.2795 -0.0984 0.8661, 1.2795 0.0984 1.5513, 1.2795 0.0984 0.8661, 1.0827 0.0984 1.5513, 1.0827 0.0984 0.8661, 1.1417 0.0394 1.7717, 1.1417 -0.0394 1.7717, 1.2205 0.0394 1.7717, 1.2205 -0.0394 1.7717
            ]
        }
        coordIndex [
            0,1,2,-1,2,1,3,-1,4,5,6,-1,6,5,7,-1,8,9,10,-1,10,9,11,-1,6,7,8,-1,8,7,9,-1,10,11,4,-1,4,11,5,-1,12,13,14,-1,14,13,15,-1,16,17,18,-1,18,17,19,-1,20,21,22,-1,22,21,23,-1,14,15,16,-1,16,15,17,-1,18,19,12,-1,12,19,13,-1,14,23,12,-1,12,23,21,-1,16,22,14,-1,14,22,23,-1,20,18,21,-1,21,18,12,-1,18,20,16,-1,16,20,22,-1,8,3,6,-1,6,3,1,-1,10,2,8,-1,8,2,3,-1,0,4,1,-1,1,4,6,-1,4,0,10,-1,10,0,2,-1,24,25,26,-1,26,25,27,-1,28,29,30,-1,30,29,31,-1,32,33,34,-1,34,33,35,-1,30,31,32,-1,32,31,33,-1,34,35,28,-1,28,35,29,-1,36,37,38,-1,38,37,39,-1,40,41,42,-1,42,41,43,-1,44,45,46,-1,46,45,47,-1,38,39,40,-1,40,39,41,-1,42,43,36,-1,36,43,37,-1,48,49,50,-1,50,49,51,-1,52,53,54,-1,54,53,55,-1,56,57,58,-1,58,57,59,-1,54,55,56,-1,56,55,57,-1,58,59,52,-1,52,59,53,-1,60,61,62,-1,62,61,63,-1,64,65,66,-1,66,65,67,-1,68,69,70,-1,70,69,71,-1,62,63,64,-1,64,63,65,-1,66,67,60,-1,60,67,61,-1,72,73,74,-1,74,73,75,-1,76,77,78,-1,78,77,79,-1,80,81,82,-1,82,81,83,-1,78,79,80,-1,80,79,81,-1,82,83,76,-1,76,83,77,-1,84,85,86,-1,86,85,87,-1,88,89,90,-1,90,89,91,-1,92,93,94,-1,94,93,95,-1,86,87,88,-1,88,87,89,-1,90,91,84,-1,84,91,85,-1,38,47,36,-1,36,47,45,-1,40,46,38,-1,38,46,47,-1,44,42,45,-1,45,42,36,-1,42,44,40,-1,40,44,46,-1,32,27,30,-1,30,27,25,-1,34,26,32,-1,32,26,27,-1,24,28,25,-1,25,28,30,-1,28,24,34,-1,34,24,26,-1,62,71,60,-1,60,71,69,-1,64,70,62,-1,62,70,71,-1,68,66,69,-1,69,66,60,-1,66,68,64,-1,64,68,70,-1,56,51,54,-1,54,51,49,-1,58,50,56,-1,56,50,51,-1,48,52,49,-1,49,52,54,-1,52,48,58,-1,58,48,50,-1,86,95,84,-1,84,95,93,-1,88,94,86,-1,86,94,95,-1,92,90,93,-1,93,90,84,-1,90,92,88,-1,88,92,94,-1,80,75,78,-1,78,75,73,-1,82,74,80,-1,80,74,75,-1,72,76,73,-1,73,76,78,-1,76,72,82,-1,82,72,74,-1,
        ]
    }
}
Shape{
    appearance Appearance {
        material  Material 	{
            diffuseColor 0.0 0.0 0.0
            specularColor 0.0 0.0 0.0
            ambientIntensity 0.0
            transparency 0.0
            shininess 0.5
        }
    }
    geometry IndexedFaceSet {
        ccw TRUE
        solid FALSE
        coord DEF co Coordinate {
            point [
                0.447 -0.8307 0.6162, 0.4364 -0.8307 0.6231, 0.4363 -0.8307 0.6086, 0.4298 -0.8307 0.6185, 0.4246 -0.8307 0.604, 0.4214 -0.8307 0.6152, 0.4073 -0.8307 0.6019, 0.4072 -0.8307 0.6136, 0.3792 -0.8307 0.6019, 0.3924 -0.8307 0.6136, 0.3792 -0.8307 0.704, 0.3924 -0.8307 0.6923, 0.4084 -0.8307 0.704, 0.4078 -0.8307 0.6923, 0.4089 -0.8307 0.6923, 0.424 -0.8307 0.7023, 0.4219 -0.8307 0.6906, 0.4363 -0.8307 0.6978, 0.4306 -0.8307 0.6873, 0.447 -0.8307 0.6905, 0.4373 -0.8307 0.6827, 0.4506 -0.8307 0.687, 0.4402 -0.8307 0.6799, 0.4569 -0.8307 0.6781, 0.4441 -0.8307 0.6741, 0.4607 -0.8307 0.6683, 0.447 -0.8307 0.6667, 0.4624 -0.8307 0.6543, 0.4485 -0.8307 0.6539, 0.4621 -0.8307 0.6478, 0.4481 -0.8307 0.6469, 0.4596 -0.8307 0.6358, 0.4461 -0.8307 0.6377, 0.4546 -0.8307 0.6253, 0.4425 -0.8307 0.6302, 0.4376 -0.8307 0.6242, 0.447 -0.8268 0.6162, 0.4546 -0.8268 0.6253, 0.4596 -0.8268 0.6358, 0.4621 -0.8268 0.6478, 0.4624 -0.8268 0.6543, 0.4607 -0.8268 0.6683, 0.4569 -0.8268 0.6781, 0.4506 -0.8268 0.687, 0.447 -0.8268 0.6905, 0.4363 -0.8268 0.6978, 0.424 -0.8268 0.7023, 0.4084 -0.8268 0.704, 0.3792 -0.8268 0.704, 0.3792 -0.8268 0.6019, 0.4073 -0.8268 0.6019, 0.4246 -0.8268 0.604, 0.4363 -0.8268 0.6086, 0.4373 -0.8268 0.6827, 0.4402 -0.8268 0.6799, 0.4441 -0.8268 0.6741, 0.447 -0.8268 0.6667, 0.4485 -0.8268 0.6539, 0.4078 -0.8268 0.6923, 0.4089 -0.8268 0.6923, 0.4219 -0.8268 0.6906, 0.4306 -0.8268 0.6873, 0.3924 -0.8268 0.6923, 0.3924 -0.8268 0.6136, 0.4072 -0.8268 0.6136, 0.4376 -0.8268 0.6242, 0.4364 -0.8268 0.6231, 0.4298 -0.8268 0.6185, 0.4214 -0.8268 0.6152, 0.4481 -0.8268 0.6469, 0.4461 -0.8268 0.6377, 0.4425 -0.8268 0.6302
            ]
        }
        coordIndex [
            0,1,2,-1,2,1,3,-1,2,3,4,-1,4,3,5,-1,4,5,6,-1,6,5,7,-1,6,7,8,-1,8,7,9,-1,8,9,10,-1,10,9,11,-1,10,11,12,-1,11,13,12,-1,12,13,14,-1,12,14,15,-1,15,14,16,-1,15,16,17,-1,17,16,18,-1,17,18,19,-1,19,18,20,-1,19,20,21,-1,21,20,22,-1,21,22,23,-1,23,22,24,-1,23,24,25,-1,25,24,26,-1,25,26,27,-1,27,26,28,-1,27,28,29,-1,29,28,30,-1,29,30,31,-1,31,30,32,-1,31,32,33,-1,33,32,34,-1,33,34,0,-1,0,34,35,-1,0,35,1,-1,0,36,37,-1,0,37,33,-1,33,37,38,-1,33,38,31,-1,31,38,39,-1,31,39,29,-1,29,39,40,-1,29,40,27,-1,27,40,41,-1,27,41,25,-1,25,41,42,-1,25,42,23,-1,23,42,43,-1,23,43,21,-1,21,43,44,-1,21,44,19,-1,19,44,45,-1,19,45,17,-1,17,45,46,-1,17,46,15,-1,15,46,47,-1,15,47,12,-1,10,12,48,-1,48,12,47,-1,8,10,49,-1,49,10,48,-1,6,8,50,-1,50,8,49,-1,6,50,51,-1,6,51,4,-1,4,51,52,-1,4,52,2,-1,2,52,36,-1,2,36,0,-1,20,53,54,-1,20,54,22,-1,22,54,55,-1,22,55,24,-1,24,55,56,-1,24,56,26,-1,26,56,57,-1,26,57,28,-1,13,58,59,-1,13,59,14,-1,14,59,60,-1,14,60,16,-1,16,60,61,-1,16,61,18,-1,18,61,53,-1,18,53,20,-1,13,11,58,-1,58,11,62,-1,11,9,62,-1,62,9,63,-1,9,7,63,-1,63,7,64,-1,35,65,66,-1,35,66,1,-1,1,66,67,-1,1,67,3,-1,3,67,68,-1,3,68,5,-1,5,68,64,-1,5,64,7,-1,28,57,69,-1,28,69,30,-1,30,69,70,-1,30,70,32,-1,32,70,71,-1,32,71,34,-1,34,71,65,-1,34,65,35,-1,
        ]
    }
}
Shape{
    appearance Appearance {
        material  Material 	{
            diffuseColor 1.0 1.0 1.0
            specularColor 0.30196078431372547 0.30196078431372547 0.30196078431372547
            ambientIntensity 1.0
            transparency 0.0
            shininess 0.5
        }
    }
    geometry IndexedFaceSet {
        ccw TRUE
        solid FALSE
        coord DEF co Coordinate {
            point [
                0.4298 -0.8268 0.6185, 0.4364 -0.8268 0.6231, 0.4089 -0.8268 0.6923, 0.3924 -0.8268 0.6923, 0.3924 -0.8268 0.6136, 0.4078 -0.8268 0.6923, 0.4072 -0.8268 0.6136, 0.4214 -0.8268 0.6152, 0.4376 -0.8268 0.6242, 0.4425 -0.8268 0.6302, 0.4461 -0.8268 0.6377, 0.4485 -0.8268 0.6539, 0.4373 -0.8268 0.6827, 0.4306 -0.8268 0.6873, 0.447 -0.8268 0.6667, 0.4441 -0.8268 0.6741, 0.4402 -0.8268 0.6799, 0.4481 -0.8268 0.6469, 0.4219 -0.8268 0.6906
            ]
        }
        coordIndex [
            0,1,2,-1,3,4,5,-1,5,4,6,-1,5,6,2,-1,2,6,7,-1,2,7,0,-1,1,8,2,-1,2,8,9,-1,2,9,10,-1,11,12,13,-1,14,15,11,-1,11,15,16,-1,11,16,12,-1,10,17,2,-1,2,17,11,-1,2,11,18,-1,18,11,13,-1,
        ]
    }
}
Shape{
    appearance Appearance {
        material  Material 	{
            diffuseColor 0.0 0.0 0.0
            specularColor 0.0 0.0 0.0
            ambientIntensity 0.0
            transparency 0.0
            shininess 0.5
        }
    }
    geometry IndexedFaceSet {
        ccw TRUE
        solid FALSE
        coord DEF co Coordinate {
            point [
                0.258 -0.8307 0.6199, 0.258 -0.8268 0.6199, 0.2571 -0.8268 0.6165, 0.2571 -0.8307 0.6165, 0.2565 -0.8268 0.614, 0.2565 -0.8307 0.614, 0.2561 -0.8307 0.614, 0.2561 -0.8268 0.614, 0.2546 -0.8307 0.62, 0.2546 -0.8268 0.62, 0.2355 -0.8268 0.6749, 0.2355 -0.8307 0.6749, 0.2417 -0.8268 0.6571, 0.2212 -0.8307 0.6749, 0.2212 -0.8268 0.6749, 0.2498 -0.8268 0.6021, 0.2498 -0.8307 0.6021, 0.2417 -0.8268 0.6228, 0.2442 -0.8268 0.5888, 0.2442 -0.8307 0.5888, 0.2494 -0.8268 0.6011, 0.2417 -0.8268 0.5842, 0.2417 -0.8307 0.5842, 0.2417 -0.8268 0.5842, 0.2393 -0.8268 0.5815, 0.2393 -0.8307 0.5815, 0.2371 -0.8268 0.58, 0.2371 -0.8307 0.58, 0.2343 -0.8268 0.5789, 0.2343 -0.8307 0.5789, 0.2311 -0.8268 0.5785, 0.2311 -0.8307 0.5785, 0.2265 -0.8268 0.5791, 0.2265 -0.8307 0.5791, 0.2238 -0.8268 0.58, 0.2238 -0.8307 0.58, 0.2238 -0.8307 0.5686, 0.2238 -0.8268 0.5686, 0.2293 -0.8268 0.5677, 0.2293 -0.8307 0.5677, 0.2321 -0.8268 0.5676, 0.2321 -0.8307 0.5676, 0.2373 -0.8268 0.5681, 0.2373 -0.8307 0.5681, 0.2417 -0.8268 0.5698, 0.2423 -0.8307 0.5701, 0.2423 -0.8268 0.5701, 0.2468 -0.8268 0.5732, 0.2468 -0.8307 0.5732, 0.2476 -0.8268 0.574, 0.2476 -0.8307 0.574, 0.2523 -0.8268 0.5796, 0.2523 -0.8307 0.5796, 0.2581 -0.8268 0.5909, 0.2581 -0.8307 0.5909, 0.2912 -0.8268 0.6749, 0.2912 -0.8307 0.6749, 0.2621 -0.8268 0.6011, 0.278 -0.8307 0.6749, 0.278 -0.8268 0.6749, 0.1851 -0.8307 0.6002, 0.1851 -0.8268 0.6002, 0.1965 -0.8307 0.6015, 0.1924 -0.8268 0.6011, 0.1965 -0.8268 0.6015, 0.2033 -0.8268 0.6041, 0.2033 -0.8307 0.6041, 0.2063 -0.8268 0.606, 0.2063 -0.8307 0.606, 0.21 -0.8268 0.6092, 0.21 -0.8307 0.6092, 0.2124 -0.8268 0.6126, 0.2124 -0.8307 0.6126, 0.2139 -0.8268 0.6166, 0.2139 -0.8307 0.6166, 0.2145 -0.8268 0.6218, 0.2145 -0.8307 0.6218, 0.214 -0.8268 0.6265, 0.214 -0.8307 0.6265, 0.2126 -0.8268 0.6303, 0.2126 -0.8307 0.6303, 0.2103 -0.8268 0.6338, 0.2103 -0.8307 0.6338, 0.2072 -0.8268 0.6365, 0.2072 -0.8307 0.6365, 0.1987 -0.8268 0.6413, 0.1987 -0.8307 0.6413, 0.1938 -0.8268 0.6433, 0.1938 -0.8307 0.6433, 0.1858 -0.8268 0.6467, 0.1858 -0.8307 0.6467, 0.1813 -0.8268 0.6495, 0.1813 -0.8307 0.6495, 0.1801 -0.8268 0.6509, 0.1801 -0.8307 0.6509, 0.1792 -0.8268 0.6526, 0.1792 -0.8307 0.6526, 0.1787 -0.8268 0.6546, 0.1787 -0.8307 0.6546, 0.1785 -0.8268 0.6563, 0.1785 -0.8307 0.6563, 0.1788 -0.8268 0.6584, 0.1788 -0.8307 0.6584, 0.1794 -0.8268 0.6601, 0.1794 -0.8307 0.6601, 0.1805 -0.8268 0.6617, 0.1805 -0.8307 0.6617, 0.1824 -0.8268 0.6634, 0.1824 -0.8307 0.6634, 0.1853 -0.8268 0.665, 0.1853 -0.8307 0.665, 0.1887 -0.8268 0.6659, 0.1887 -0.8307 0.6659, 0.1925 -0.8268 0.6661, 0.1925 -0.8307 0.6661, 0.2007 -0.8268 0.6652, 0.2007 -0.8307 0.6652, 0.2079 -0.8268 0.6626, 0.2079 -0.8307 0.6626, 0.211 -0.8268 0.6609, 0.211 -0.8307 0.6609, 0.211 -0.8307 0.6733, 0.211 -0.8268 0.6733, 0.2027 -0.8268 0.6757, 0.2027 -0.8307 0.6757, 0.1938 -0.8268 0.6765, 0.1938 -0.8307 0.6765, 0.1848 -0.8268 0.6756, 0.1848 -0.8307 0.6756, 0.1777 -0.8268 0.6732, 0.1777 -0.8307 0.6732, 0.1736 -0.8268 0.6707, 0.1736 -0.8307 0.6707, 0.1712 -0.8268 0.6686, 0.1698 -0.8307 0.6673, 0.1698 -0.8268 0.6673, 0.1674 -0.8268 0.6639, 0.1674 -0.8307 0.6639, 0.1659 -0.8268 0.6597, 0.1659 -0.8307 0.6597, 0.1654 -0.8268 0.6552, 0.1654 -0.8307 0.6552, 0.1659 -0.8268 0.6502, 0.1659 -0.8307 0.6502, 0.1673 -0.8268 0.6463, 0.1673 -0.8307 0.6463, 0.169 -0.8268 0.6436, 0.169 -0.8307 0.6436, 0.1847 -0.8268 0.634, 0.1847 -0.8307 0.634, 0.1771 -0.8307 0.6375, 0.1711 -0.8268 0.6414, 0.1711 -0.8307 0.6414, 0.1712 -0.8268 0.6414, 0.1771 -0.8268 0.6375, 0.1931 -0.8268 0.6305, 0.1931 -0.8307 0.6305, 0.1981 -0.8268 0.6274, 0.1981 -0.8307 0.6274, 0.1997 -0.8268 0.6258, 0.1997 -0.8307 0.6258, 0.2007 -0.8268 0.6241, 0.2007 -0.8307 0.6241, 0.2013 -0.8268 0.6221, 0.2013 -0.8307 0.6221, 0.2014 -0.8268 0.6205, 0.2014 -0.8307 0.6205, 0.2011 -0.8268 0.6181, 0.2011 -0.8307 0.6181, 0.2005 -0.8268 0.6162, 0.2005 -0.8307 0.6162, 0.1994 -0.8268 0.6146, 0.1994 -0.8307 0.6146, 0.1979 -0.8268 0.6133, 0.1979 -0.8307 0.6133, 0.1967 -0.8268 0.6126, 0.1967 -0.8307 0.6126, 0.1934 -0.8268 0.6114, 0.1934 -0.8307 0.6114, 0.1869 -0.8268 0.6106, 0.1869 -0.8307 0.6106, 0.1863 -0.8268 0.6106, 0.1863 -0.8307 0.6106, 0.1653 -0.8268 0.6177, 0.1653 -0.8307 0.6177, 0.1704 -0.8307 0.6145, 0.1784 -0.8268 0.6115, 0.1784 -0.8307 0.6115, 0.1712 -0.8268 0.6142, 0.1704 -0.8268 0.6145, 0.1653 -0.8307 0.6045, 0.1653 -0.8268 0.6045, 0.1712 -0.8268 0.6023, 0.1731 -0.8307 0.6016, 0.1777 -0.8268 0.6011, 0.1731 -0.8268 0.6016, 0.1348 -0.8307 0.6132, 0.1351 -0.8307 0.6132, 0.1343 -0.8307 0.625, 0.1351 -0.8307 0.6307, 0.1479 -0.8307 0.6489, 0.1351 -0.8307 0.6315, 0.1351 -0.8307 0.6385, 0.1351 -0.8307 0.6019, 0.1479 -0.8307 0.6019, 0.1024 -0.8307 0.6245, 0.103 -0.8307 0.6274, 0.0921 -0.8307 0.6333, 0.1324 -0.8307 0.6204, 0.1297 -0.8307 0.6166, 0.1315 -0.8307 0.6085, 0.1281 -0.8307 0.6151, 0.1272 -0.8307 0.6046, 0.1244 -0.8307 0.6126, 0.1248 -0.8307 0.6031, 0.1206 -0.8307 0.6112, 0.1197 -0.8307 0.6011, 0.1158 -0.8307 0.6107, 0.1125 -0.8307 0.6002, 0.1115 -0.8307 0.6112, 0.1048 -0.8307 0.6011, 0.1086 -0.8307 0.6122, 0.0999 -0.8307 0.6029, 0.106 -0.8307 0.614, 0.0956 -0.8307 0.6059, 0.1049 -0.8307 0.6151, 0.0947 -0.8307 0.6369, 0.1042 -0.8307 0.6298, 0.0987 -0.8307 0.6403, 0.1057 -0.8307 0.6317, 0.1043 -0.8307 0.643, 0.1072 -0.8307 0.6329, 0.1102 -0.8307 0.6344, 0.1135 -0.8307 0.6453, 0.1181 -0.8307 0.6362, 0.1351 -0.8307 0.6483, 0.0903 -0.8307 0.6288, 0.0894 -0.8307 0.6234, 0.1023 -0.8307 0.6225, 0.0893 -0.8307 0.6214, 0.1026 -0.8307 0.6196, 0.09 -0.8307 0.6156, 0.1035 -0.8307 0.6172, 0.0915 -0.8307 0.6113, 0.0942 -0.8307 0.6074, 0.0965 -0.8307 0.6697, 0.0965 -0.8307 0.6573, 0.0991 -0.8307 0.6713, 0.104 -0.8307 0.6622, 0.1086 -0.8307 0.675, 0.112 -0.8307 0.6652, 0.1216 -0.8307 0.6765, 0.1204 -0.8307 0.6661, 0.1295 -0.8307 0.6758, 0.1247 -0.8307 0.6657, 0.1348 -0.8307 0.6741, 0.1277 -0.8307 0.6646, 0.1391 -0.8307 0.6717, 0.1299 -0.8307 0.6632, 0.1424 -0.8307 0.6684, 0.1319 -0.8307 0.6611, 0.145 -0.8307 0.6642, 0.1334 -0.8307 0.6585, 0.147 -0.8307 0.6583, 0.1347 -0.8307 0.6539, 0.1204 -0.8268 0.6661, 0.1247 -0.8268 0.6657, 0.1277 -0.8268 0.6646, 0.1299 -0.8268 0.6632, 0.1319 -0.8268 0.6611, 0.1334 -0.8268 0.6585, 0.1347 -0.8268 0.6539, 0.1351 -0.8268 0.6483, 0.1135 -0.8268 0.6453, 0.1043 -0.8268 0.643, 0.0987 -0.8268 0.6403, 0.0947 -0.8268 0.6369, 0.0921 -0.8268 0.6333, 0.0903 -0.8268 0.6288, 0.0894 -0.8268 0.6234, 0.0893 -0.8268 0.6214, 0.09 -0.8268 0.6156, 0.0915 -0.8268 0.6113, 0.0942 -0.8268 0.6074, 0.0956 -0.8268 0.6059, 0.1125 -0.8268 0.6002, 0.105 -0.8268 0.6011, 0.1048 -0.8268 0.6011, 0.0999 -0.8268 0.6029, 0.1194 -0.8268 0.6011, 0.1197 -0.8268 0.6011, 0.1248 -0.8268 0.6031, 0.1272 -0.8268 0.6046, 0.1315 -0.8268 0.6085, 0.1348 -0.8268 0.6132, 0.1351 -0.8268 0.6132, 0.1351 -0.8268 0.6019, 0.1479 -0.8268 0.6019, 0.1479 -0.8268 0.6489, 0.147 -0.8268 0.6583, 0.145 -0.8268 0.6642, 0.1424 -0.8268 0.6684, 0.1391 -0.8268 0.6717, 0.1348 -0.8268 0.6741, 0.1295 -0.8268 0.6758, 0.1216 -0.8268 0.6765, 0.1086 -0.8268 0.675, 0.0991 -0.8268 0.6713, 0.0965 -0.8268 0.6697, 0.0965 -0.8268 0.6573, 0.104 -0.8268 0.6622, 0.112 -0.8268 0.6652, 0.1297 -0.8268 0.6166, 0.1281 -0.8268 0.6151, 0.1244 -0.8268 0.6126, 0.1206 -0.8268 0.6112, 0.1158 -0.8268 0.6107, 0.1351 -0.8268 0.6315, 0.1351 -0.8268 0.6307, 0.1343 -0.8268 0.625, 0.1324 -0.8268 0.6204, 0.1351 -0.8268 0.6385, 0.1181 -0.8268 0.6362, 0.1057 -0.8268 0.6317, 0.1072 -0.8268 0.6329, 0.1102 -0.8268 0.6344, 0.1023 -0.8268 0.6225, 0.1024 -0.8268 0.6245, 0.103 -0.8268 0.6274, 0.1042 -0.8268 0.6298, 0.106 -0.8268 0.614, 0.1049 -0.8268 0.6151, 0.1035 -0.8268 0.6172, 0.1026 -0.8268 0.6196, 0.1115 -0.8268 0.6112, 0.1086 -0.8268 0.6122
            ]
        }
        coordIndex [
            0,1,2,-1,0,2,3,-1,3,2,4,-1,3,4,5,-1,6,5,7,-1,7,5,4,-1,8,6,9,-1,9,6,7,-1,10,11,12,-1,12,11,8,-1,12,8,9,-1,13,11,14,-1,14,11,10,-1,15,16,17,-1,17,16,13,-1,17,13,14,-1,18,19,20,-1,20,19,16,-1,20,16,15,-1,18,21,19,-1,19,21,22,-1,21,23,22,-1,22,23,24,-1,22,24,25,-1,25,24,26,-1,25,26,27,-1,27,26,28,-1,27,28,29,-1,29,28,30,-1,29,30,31,-1,31,30,32,-1,31,32,33,-1,33,32,34,-1,33,34,35,-1,36,35,37,-1,37,35,34,-1,36,37,38,-1,36,38,39,-1,39,38,40,-1,39,40,41,-1,41,40,42,-1,41,42,43,-1,43,42,44,-1,43,44,45,-1,44,46,45,-1,45,46,47,-1,45,47,48,-1,48,47,49,-1,48,49,50,-1,50,49,51,-1,50,51,52,-1,52,51,53,-1,52,53,54,-1,55,56,57,-1,57,56,54,-1,57,54,53,-1,58,56,59,-1,59,56,55,-1,0,58,1,-1,1,58,59,-1,3,5,54,-1,56,58,54,-1,54,58,0,-1,54,0,3,-1,11,13,8,-1,8,13,16,-1,8,16,6,-1,35,36,33,-1,33,36,39,-1,33,39,31,-1,31,39,41,-1,31,41,29,-1,29,41,43,-1,29,43,27,-1,27,43,45,-1,27,45,25,-1,5,6,54,-1,54,6,16,-1,54,16,52,-1,16,19,52,-1,52,19,22,-1,52,22,50,-1,50,22,25,-1,50,25,48,-1,48,25,45,-1,60,61,62,-1,62,61,63,-1,63,64,62,-1,62,64,65,-1,62,65,66,-1,66,65,67,-1,66,67,68,-1,68,67,69,-1,68,69,70,-1,70,69,71,-1,70,71,72,-1,72,71,73,-1,72,73,74,-1,74,73,75,-1,74,75,76,-1,76,75,77,-1,76,77,78,-1,78,77,79,-1,78,79,80,-1,80,79,81,-1,80,81,82,-1,82,81,83,-1,82,83,84,-1,84,83,85,-1,84,85,86,-1,86,85,87,-1,86,87,88,-1,88,87,89,-1,88,89,90,-1,90,89,91,-1,90,91,92,-1,92,91,93,-1,92,93,94,-1,94,93,95,-1,94,95,96,-1,96,95,97,-1,96,97,98,-1,98,97,99,-1,98,99,100,-1,100,99,101,-1,100,101,102,-1,102,101,103,-1,102,103,104,-1,104,103,105,-1,104,105,106,-1,106,105,107,-1,106,107,108,-1,108,107,109,-1,108,109,110,-1,110,109,111,-1,110,111,112,-1,112,111,113,-1,112,113,114,-1,114,113,115,-1,114,115,116,-1,116,115,117,-1,116,117,118,-1,118,117,119,-1,118,119,120,-1,121,120,122,-1,122,120,119,-1,121,122,123,-1,121,123,124,-1,124,123,125,-1,124,125,126,-1,126,125,127,-1,126,127,128,-1,128,127,129,-1,128,129,130,-1,130,129,131,-1,130,131,132,-1,131,133,132,-1,132,133,134,-1,133,135,134,-1,134,135,136,-1,134,136,137,-1,137,136,138,-1,137,138,139,-1,139,138,140,-1,139,140,141,-1,141,140,142,-1,141,142,143,-1,143,142,144,-1,143,144,145,-1,145,144,146,-1,145,146,147,-1,148,149,150,-1,147,146,151,-1,147,151,152,-1,152,151,153,-1,152,153,150,-1,150,153,154,-1,150,154,148,-1,149,148,155,-1,149,155,156,-1,156,155,157,-1,156,157,158,-1,158,157,159,-1,158,159,160,-1,160,159,161,-1,160,161,162,-1,162,161,163,-1,162,163,164,-1,164,163,165,-1,164,165,166,-1,166,165,167,-1,166,167,168,-1,168,167,169,-1,168,169,170,-1,170,169,171,-1,170,171,172,-1,172,171,173,-1,172,173,174,-1,174,173,175,-1,174,175,176,-1,176,175,177,-1,176,177,178,-1,178,177,179,-1,178,179,180,-1,180,179,181,-1,180,181,182,-1,183,184,185,-1,182,181,186,-1,182,186,187,-1,187,186,188,-1,187,188,185,-1,185,188,189,-1,185,189,183,-1,190,184,191,-1,191,184,183,-1,191,192,190,-1,190,192,193,-1,61,60,194,-1,194,60,193,-1,194,193,195,-1,195,193,192,-1,106,108,130,-1,130,108,128,-1,156,88,149,-1,149,88,90,-1,66,68,172,-1,172,68,70,-1,172,70,170,-1,170,70,72,-1,170,72,168,-1,168,72,74,-1,168,74,166,-1,166,74,76,-1,166,76,164,-1,164,76,78,-1,164,78,162,-1,162,78,80,-1,162,80,160,-1,160,80,82,-1,160,82,158,-1,158,82,84,-1,158,84,156,-1,156,84,86,-1,156,86,88,-1,60,182,193,-1,193,182,187,-1,193,187,190,-1,190,187,185,-1,190,185,184,-1,108,110,128,-1,128,110,112,-1,128,112,126,-1,126,112,114,-1,126,114,124,-1,124,114,116,-1,124,116,121,-1,121,116,118,-1,121,118,120,-1,172,174,66,-1,66,174,176,-1,66,176,62,-1,62,176,178,-1,62,178,60,-1,60,178,180,-1,60,180,182,-1,130,132,106,-1,106,132,134,-1,106,134,104,-1,104,134,137,-1,104,137,102,-1,102,137,139,-1,102,139,100,-1,100,139,141,-1,100,141,98,-1,98,141,143,-1,98,143,96,-1,96,143,145,-1,96,145,94,-1,94,145,147,-1,94,147,92,-1,92,147,152,-1,92,152,90,-1,90,152,150,-1,90,150,149,-1,196,197,198,-1,199,200,201,-1,201,200,202,-1,203,204,197,-1,197,204,200,-1,197,200,198,-1,198,200,199,-1,205,206,207,-1,198,208,196,-1,196,208,209,-1,196,209,210,-1,210,209,211,-1,210,211,212,-1,212,211,213,-1,212,213,214,-1,214,213,215,-1,214,215,216,-1,216,215,217,-1,216,217,218,-1,218,217,219,-1,218,219,220,-1,220,219,221,-1,220,221,222,-1,222,221,223,-1,222,223,224,-1,224,223,225,-1,207,206,226,-1,226,206,227,-1,226,227,228,-1,228,227,229,-1,228,229,230,-1,229,231,230,-1,230,231,232,-1,230,232,233,-1,233,232,234,-1,233,234,235,-1,207,236,205,-1,205,236,237,-1,205,237,238,-1,238,237,239,-1,238,239,240,-1,240,239,241,-1,240,241,242,-1,242,241,243,-1,242,243,225,-1,225,243,244,-1,225,244,224,-1,245,246,247,-1,247,246,248,-1,247,248,249,-1,249,248,250,-1,249,250,251,-1,251,250,252,-1,251,252,253,-1,253,252,254,-1,253,254,255,-1,255,254,256,-1,255,256,257,-1,257,256,258,-1,257,258,259,-1,259,258,260,-1,259,260,261,-1,261,260,262,-1,261,262,263,-1,263,262,264,-1,263,264,200,-1,200,264,235,-1,200,235,202,-1,202,235,234,-1,252,265,266,-1,252,266,254,-1,254,266,267,-1,254,267,256,-1,256,267,268,-1,256,268,258,-1,258,268,269,-1,258,269,260,-1,260,269,270,-1,260,270,262,-1,262,270,271,-1,262,271,264,-1,264,271,272,-1,264,272,235,-1,233,235,273,-1,273,235,272,-1,233,273,274,-1,233,274,230,-1,230,274,275,-1,230,275,228,-1,228,275,276,-1,228,276,226,-1,226,276,277,-1,226,277,207,-1,207,277,278,-1,207,278,236,-1,236,278,279,-1,236,279,237,-1,237,279,280,-1,237,280,239,-1,239,280,281,-1,239,281,241,-1,241,281,282,-1,241,282,243,-1,243,282,283,-1,243,283,244,-1,244,283,284,-1,244,284,224,-1,285,218,286,-1,286,218,220,-1,286,220,287,-1,287,220,222,-1,287,222,288,-1,288,222,224,-1,288,224,284,-1,285,289,218,-1,218,289,216,-1,289,290,216,-1,216,290,291,-1,216,291,214,-1,214,291,292,-1,214,292,212,-1,212,292,293,-1,212,293,210,-1,210,293,294,-1,210,294,196,-1,197,196,295,-1,295,196,294,-1,203,197,296,-1,296,197,295,-1,204,203,297,-1,297,203,296,-1,200,204,298,-1,298,204,297,-1,200,298,299,-1,200,299,263,-1,263,299,300,-1,263,300,261,-1,261,300,301,-1,261,301,259,-1,259,301,302,-1,259,302,257,-1,257,302,303,-1,257,303,255,-1,255,303,304,-1,255,304,253,-1,253,304,305,-1,253,305,251,-1,251,305,306,-1,251,306,249,-1,249,306,307,-1,249,307,247,-1,247,307,308,-1,247,308,245,-1,246,245,309,-1,309,245,308,-1,246,309,310,-1,246,310,248,-1,248,310,311,-1,248,311,250,-1,250,311,265,-1,250,265,252,-1,209,312,313,-1,209,313,211,-1,211,313,314,-1,211,314,213,-1,213,314,315,-1,213,315,215,-1,215,315,316,-1,215,316,217,-1,201,317,318,-1,201,318,199,-1,199,318,319,-1,199,319,198,-1,198,319,320,-1,198,320,208,-1,208,320,312,-1,208,312,209,-1,201,202,317,-1,317,202,321,-1,202,234,321,-1,321,234,322,-1,229,323,324,-1,229,324,231,-1,231,324,325,-1,231,325,232,-1,232,325,322,-1,232,322,234,-1,238,326,327,-1,238,327,205,-1,205,327,328,-1,205,328,206,-1,206,328,329,-1,206,329,227,-1,227,329,323,-1,227,323,229,-1,223,330,331,-1,223,331,225,-1,225,331,332,-1,225,332,242,-1,242,332,333,-1,242,333,240,-1,240,333,326,-1,240,326,238,-1,217,316,334,-1,217,334,219,-1,219,334,335,-1,219,335,221,-1,221,335,330,-1,221,330,223,-1,
        ]
    }
}
Shape{
    appearance Appearance {
        material  Material 	{
            diffuseColor 1.0 1.0 1.0
            specularColor 0.30196078431372547 0.30196078431372547 0.30196078431372547
            ambientIntensity 1.0
            transparency 0.0
            shininess 0.5
        }
    }
    geometry IndexedFaceSet {
        ccw TRUE
        solid FALSE
        coord DEF co Coordinate {
            point [
                0.1351 -0.8268 0.6307, 0.1351 -0.8268 0.6315, 0.1057 -0.8268 0.6317, 0.1351 -0.8268 0.6385, 0.1181 -0.8268 0.6362, 0.1102 -0.8268 0.6344, 0.1072 -0.8268 0.6329, 0.1343 -0.8268 0.625, 0.1042 -0.8268 0.6298, 0.1324 -0.8268 0.6204, 0.1049 -0.8268 0.6151, 0.106 -0.8268 0.614, 0.1281 -0.8268 0.6151, 0.1035 -0.8268 0.6172, 0.1244 -0.8268 0.6126, 0.1206 -0.8268 0.6112, 0.1158 -0.8268 0.6107, 0.103 -0.8268 0.6274, 0.1024 -0.8268 0.6245, 0.1297 -0.8268 0.6166, 0.1023 -0.8268 0.6225, 0.1026 -0.8268 0.6196, 0.1086 -0.8268 0.6122, 0.1115 -0.8268 0.6112
            ]
        }
        coordIndex [
            0,1,2,-1,1,3,4,-1,4,5,1,-1,1,5,6,-1,1,6,2,-1,0,2,7,-1,7,2,8,-1,7,8,9,-1,10,11,12,-1,10,12,13,-1,14,12,15,-1,15,12,16,-1,8,17,9,-1,9,17,18,-1,9,18,19,-1,19,18,20,-1,19,20,12,-1,12,20,21,-1,12,21,13,-1,11,22,12,-1,12,22,23,-1,12,23,16,-1,
        ]
    }
}
Shape{
    appearance Appearance {
        material  Material 	{
            diffuseColor 0.0 0.0 0.0
            specularColor 0.0 0.0 0.0
            ambientIntensity 0.0
            transparency 0.0
            shininess 0.5
        }
    }
    geometry IndexedFaceSet {
        ccw TRUE
        solid FALSE
        coord DEF co Coordinate {
            point [
                -0.4481 -0.8307 0.7779, -0.4319 -0.8307 0.7865, -0.4358 -0.8307 0.8311, -0.3078 -0.8307 0.5846, -0.2992 -0.8307 0.6008, -0.295 -0.8307 0.6187, -0.3905 -0.8307 0.8332, -0.3679 -0.8307 0.7802, -0.3569 -0.8307 0.8032, -0.3946 -0.8307 0.616, -0.3961 -0.8307 0.6227, -0.4355 -0.8307 0.6517, -0.4362 -0.8307 0.603, -0.4454 -0.8307 0.6058, -0.4513 -0.8307 0.6614, -0.4072 -0.8307 0.8347, -0.1929 -0.8307 0.6872, -0.2154 -0.8307 0.7257, -0.2946 -0.8307 0.6335, -0.3128 -0.8307 0.6749, -0.2946 -0.8307 0.6262, -0.3334 -0.8307 0.562, -0.319 -0.8307 0.5721, -0.3419 -0.8307 0.6367, -0.34 -0.8307 0.6301, -0.3397 -0.8307 0.623, -0.3413 -0.8307 0.616, -0.3445 -0.8307 0.6097, -0.3916 -0.8307 0.61, -0.4181 -0.8307 0.5741, -0.4289 -0.8307 0.5874, -0.169 -0.8307 0.7591, -0.1632 -0.8307 0.7591, -0.1334 -0.8307 0.7984, -0.1494 -0.8307 0.7574, -0.1298 -0.8307 0.7971, -0.1367 -0.8307 0.7526, -0.1082 -0.8307 0.7864, -0.0885 -0.8307 0.7698, -0.3756 -0.8307 0.8505, -0.3406 -0.8307 0.8226, -0.3585 -0.8307 0.8652, -0.3211 -0.8307 0.8369, -0.3379 -0.8307 0.8777, -0.414 -0.8307 0.7907, -0.4064 -0.8307 0.7911, -0.3988 -0.8307 0.8342, -0.3894 -0.8307 0.789, -0.3731 -0.8307 0.783, -0.3491 -0.8307 0.6044, -0.3547 -0.8307 0.6005, -0.3496 -0.8307 0.5558, -0.361 -0.8307 0.5981, -0.3672 -0.8307 0.5536, -0.3679 -0.8307 0.5972, -0.37 -0.8307 0.5537, -0.3692 -0.8307 0.5972, -0.3872 -0.8307 0.5564, -0.3757 -0.8307 0.5983, -0.4039 -0.8307 0.5634, -0.3823 -0.8307 0.6011, -0.3878 -0.8307 0.6054, -0.0884 -0.8307 0.6342, -0.1222 -0.8307 0.6631, -0.1081 -0.8307 0.6175, -0.133 -0.8307 0.6543, -0.1303 -0.8307 0.6067, -0.1458 -0.8307 0.6484, -0.1544 -0.8307 0.6016, -0.1588 -0.8307 0.6459, -0.1973 -0.8307 0.6016, -0.1915 -0.8307 0.6459, -0.2014 -0.8307 0.6022, -0.1254 -0.8307 0.7447, -0.117 -0.8307 0.7353, -0.0737 -0.8307 0.7491, -0.1103 -0.8307 0.7228, -0.0648 -0.8307 0.7269, -0.1069 -0.8307 0.7089, -0.0615 -0.8307 0.7032, -0.1065 -0.8307 0.7025, -0.0648 -0.8307 0.6773, -0.1083 -0.8307 0.6884, -0.074 -0.8307 0.6543, -0.1133 -0.8307 0.6754, -0.1213 -0.8307 0.6641, -0.1726 -0.8307 0.8557, -0.201 -0.8307 0.8223, -0.1475 -0.8307 0.8263, -0.1846 -0.8307 0.8028, -0.1734 -0.8307 0.7794, -0.4769 -0.8307 0.736, -0.5246 -0.8307 0.724, -0.479 -0.8307 0.7185, -0.5248 -0.8307 0.717, -0.4782 -0.8307 0.7073, -0.5213 -0.8307 0.6886, -0.473 -0.8307 0.6895, -0.5109 -0.8307 0.6616, -0.4643 -0.8307 0.6748, -0.4943 -0.8307 0.6379, -0.4716 -0.8307 0.6185, -0.3959 -0.8307 0.6298, -0.394 -0.8307 0.6367, -0.4274 -0.8307 0.6673, -0.3904 -0.8307 0.6428, -0.4154 -0.8307 0.681, -0.3869 -0.8307 0.6465, -0.4006 -0.8307 0.6913, -0.3812 -0.8307 0.6505, -0.3846 -0.8307 0.6975, -0.3748 -0.8307 0.653, -0.3672 -0.8307 0.6996, -0.3679 -0.8307 0.6538, -0.3584 -0.8307 0.6991, -0.363 -0.8307 0.6534, -0.3409 -0.8307 0.6947, -0.3562 -0.8307 0.6513, -0.3254 -0.8307 0.6865, -0.3502 -0.8307 0.6476, -0.3453 -0.8307 0.6425, -0.3042 -0.8307 0.8898, -0.2974 -0.8307 0.8465, -0.2714 -0.8307 0.8935, -0.2706 -0.8307 0.8499, -0.237 -0.8307 0.8893, -0.246 -0.8307 0.8469, -0.2009 -0.8307 0.8754, -0.2232 -0.8307 0.8382, -0.2028 -0.8307 0.824, -0.4627 -0.8307 0.8207, -0.4858 -0.8307 0.8045, -0.4606 -0.8307 0.7667, -0.4907 -0.8307 0.7998, -0.4707 -0.8307 0.7522, -0.5081 -0.8307 0.7774, -0.5197 -0.8307 0.7513, -0.1951 -0.8307 0.6465, -0.2126 -0.8307 0.6092, -0.2109 -0.8307 0.6075, -0.193 -0.8307 0.646, -0.2062 -0.8307 0.6041, -0.2184 -0.8307 0.6241, -0.2177 -0.8307 0.6187, -0.2157 -0.8307 0.6137, -0.2015 -0.8307 0.6459, -0.2065 -0.8307 0.6439, -0.2182 -0.8307 0.6269, -0.2109 -0.8307 0.6407, -0.2139 -0.8307 0.6374, -0.2167 -0.8307 0.6325, -0.1958 -0.8307 0.6466, -0.0837 -0.8268 0.7631, -0.0737 -0.8268 0.7491, -0.0673 -0.8268 0.7331, -0.0648 -0.8268 0.7269, -0.0615 -0.8268 0.7032, -0.0885 -0.8268 0.7698, -0.1082 -0.8268 0.7864, -0.1298 -0.8268 0.7971, -0.1334 -0.8268 0.7984, -0.1475 -0.8268 0.8263, -0.1726 -0.8268 0.8557, -0.1888 -0.8268 0.8669, -0.2009 -0.8268 0.8754, -0.237 -0.8268 0.8893, -0.2714 -0.8268 0.8935, -0.3042 -0.8268 0.8898, -0.3379 -0.8268 0.8777, -0.3556 -0.8268 0.8669, -0.3585 -0.8268 0.8652, -0.3756 -0.8268 0.8505, -0.3905 -0.8268 0.8332, -0.3988 -0.8268 0.8342, -0.4072 -0.8268 0.8347, -0.4358 -0.8268 0.8311, -0.4627 -0.8268 0.8207, -0.4858 -0.8268 0.8045, -0.4907 -0.8268 0.7998, -0.523 -0.8268 0.7331, -0.5197 -0.8268 0.7513, -0.5145 -0.8268 0.7631, -0.5081 -0.8268 0.7774, -0.5246 -0.8268 0.724, -0.5248 -0.8268 0.717, -0.5213 -0.8268 0.6886, -0.5109 -0.8268 0.6616, -0.4943 -0.8268 0.6379, -0.4716 -0.8268 0.6185, -0.4454 -0.8268 0.6058, -0.4362 -0.8268 0.603, -0.4353 -0.8268 0.6011, -0.4289 -0.8268 0.5874, -0.4181 -0.8268 0.5741, -0.4039 -0.8268 0.5634, -0.3972 -0.8268 0.5606, -0.3872 -0.8268 0.5564, -0.37 -0.8268 0.5537, -0.3672 -0.8268 0.5536, -0.2946 -0.8268 0.6262, -0.3496 -0.8268 0.5558, -0.3372 -0.8268 0.5606, -0.3334 -0.8268 0.562, -0.319 -0.8268 0.5721, -0.3078 -0.8268 0.5846, -0.2992 -0.8268 0.6008, -0.2992 -0.8268 0.6011, -0.295 -0.8268 0.6187, -0.2946 -0.8268 0.6335, -0.1929 -0.8268 0.6872, -0.2154 -0.8268 0.7257, -0.3128 -0.8268 0.6749, -0.3254 -0.8268 0.6865, -0.3409 -0.8268 0.6947, -0.3584 -0.8268 0.6991, -0.3672 -0.8268 0.6996, -0.3846 -0.8268 0.6975, -0.4006 -0.8268 0.6913, -0.4154 -0.8268 0.681, -0.4274 -0.8268 0.6673, -0.4355 -0.8268 0.6517, -0.4513 -0.8268 0.6614, -0.4643 -0.8268 0.6748, -0.473 -0.8268 0.6895, -0.4782 -0.8268 0.7073, -0.479 -0.8268 0.7185, -0.4772 -0.8268 0.7331, -0.4769 -0.8268 0.736, -0.4707 -0.8268 0.7522, -0.4631 -0.8268 0.7631, -0.4606 -0.8268 0.7667, -0.4481 -0.8268 0.7779, -0.4319 -0.8268 0.7865, -0.414 -0.8268 0.7907, -0.4064 -0.8268 0.7911, -0.3894 -0.8268 0.789, -0.3731 -0.8268 0.783, -0.3679 -0.8268 0.7802, -0.3569 -0.8268 0.8032, -0.3406 -0.8268 0.8226, -0.3211 -0.8268 0.8369, -0.2974 -0.8268 0.8465, -0.2706 -0.8268 0.8499, -0.246 -0.8268 0.8469, -0.2232 -0.8268 0.8382, -0.2028 -0.8268 0.824, -0.201 -0.8268 0.8223, -0.1846 -0.8268 0.8028, -0.1734 -0.8268 0.7794, -0.1698 -0.8268 0.7631, -0.169 -0.8268 0.7591, -0.1632 -0.8268 0.7591, -0.1494 -0.8268 0.7574, -0.1367 -0.8268 0.7526, -0.1254 -0.8268 0.7447, -0.117 -0.8268 0.7353, -0.1159 -0.8268 0.7331, -0.1103 -0.8268 0.7228, -0.1069 -0.8268 0.7089, -0.1065 -0.8268 0.7025, -0.1083 -0.8268 0.6884, -0.1133 -0.8268 0.6754, -0.1213 -0.8268 0.6641, -0.1222 -0.8268 0.6631, -0.133 -0.8268 0.6543, -0.1458 -0.8268 0.6484, -0.1588 -0.8268 0.6459, -0.1915 -0.8268 0.6459, -0.193 -0.8268 0.646, -0.1951 -0.8268 0.6465, -0.1958 -0.8268 0.6466, -0.2015 -0.8268 0.6459, -0.2065 -0.8268 0.6439, -0.2109 -0.8268 0.6407, -0.2139 -0.8268 0.6374, -0.2167 -0.8268 0.6325, -0.2182 -0.8268 0.6269, -0.2184 -0.8268 0.6241, -0.2177 -0.8268 0.6187, -0.2157 -0.8268 0.6137, -0.2126 -0.8268 0.6092, -0.2109 -0.8268 0.6075, -0.2062 -0.8268 0.6041, -0.2014 -0.8268 0.6022, -0.1973 -0.8268 0.6016, -0.1544 -0.8268 0.6016, -0.1303 -0.8268 0.6067, -0.1081 -0.8268 0.6175, -0.0884 -0.8268 0.6342, -0.074 -0.8268 0.6543, -0.0648 -0.8268 0.6773, -0.3679 -0.8268 0.6538, -0.363 -0.8268 0.6534, -0.3562 -0.8268 0.6513, -0.3502 -0.8268 0.6476, -0.3453 -0.8268 0.6425, -0.3419 -0.8268 0.6367, -0.34 -0.8268 0.6301, -0.3397 -0.8268 0.623, -0.3413 -0.8268 0.616, -0.3445 -0.8268 0.6097, -0.3491 -0.8268 0.6044, -0.3547 -0.8268 0.6005, -0.361 -0.8268 0.5981, -0.3679 -0.8268 0.5972, -0.3692 -0.8268 0.5972, -0.3757 -0.8268 0.5983, -0.3823 -0.8268 0.6011, -0.3878 -0.8268 0.6054, -0.3916 -0.8268 0.61, -0.3946 -0.8268 0.616, -0.3961 -0.8268 0.6227, -0.3959 -0.8268 0.6298, -0.394 -0.8268 0.6367, -0.3904 -0.8268 0.6428, -0.3869 -0.8268 0.6465, -0.3812 -0.8268 0.6505, -0.3748 -0.8268 0.653
            ]
        }
        coordIndex [
            0,1,2,-1,3,4,5,-1,6,7,8,-1,9,10,11,-1,12,11,13,-1,13,11,14,-1,2,1,15,-1,16,17,18,-1,18,17,19,-1,18,19,20,-1,20,19,21,-1,20,21,5,-1,5,21,22,-1,5,22,3,-1,23,24,19,-1,19,24,25,-1,19,25,21,-1,21,25,26,-1,21,26,27,-1,28,9,29,-1,29,9,11,-1,29,11,30,-1,30,11,12,-1,31,32,33,-1,33,32,34,-1,33,34,35,-1,35,34,36,-1,35,36,37,-1,37,36,38,-1,6,8,39,-1,39,8,40,-1,39,40,41,-1,41,40,42,-1,41,42,43,-1,1,44,15,-1,15,44,45,-1,15,45,46,-1,46,45,47,-1,46,47,6,-1,6,47,48,-1,6,48,7,-1,27,49,21,-1,21,49,50,-1,21,50,51,-1,51,50,52,-1,51,52,53,-1,53,52,54,-1,53,54,55,-1,55,54,56,-1,55,56,57,-1,57,56,58,-1,57,58,59,-1,59,58,60,-1,59,60,29,-1,29,60,61,-1,29,61,28,-1,62,63,64,-1,64,63,65,-1,64,65,66,-1,66,65,67,-1,66,67,68,-1,68,67,69,-1,68,69,70,-1,70,69,71,-1,70,71,72,-1,36,73,38,-1,38,73,74,-1,38,74,75,-1,75,74,76,-1,75,76,77,-1,77,76,78,-1,77,78,79,-1,79,78,80,-1,79,80,81,-1,81,80,82,-1,81,82,83,-1,83,82,84,-1,83,84,62,-1,62,84,85,-1,62,85,63,-1,86,87,88,-1,88,87,89,-1,88,89,33,-1,33,89,90,-1,33,90,31,-1,91,92,93,-1,93,92,94,-1,93,94,95,-1,95,94,96,-1,95,96,97,-1,97,96,98,-1,97,98,99,-1,99,98,100,-1,99,100,14,-1,14,100,101,-1,14,101,13,-1,10,102,11,-1,11,102,103,-1,11,103,104,-1,104,103,105,-1,104,105,106,-1,106,105,107,-1,106,107,108,-1,108,107,109,-1,108,109,110,-1,110,109,111,-1,110,111,112,-1,112,111,113,-1,112,113,114,-1,114,113,115,-1,114,115,116,-1,116,115,117,-1,116,117,118,-1,118,117,119,-1,118,119,19,-1,19,119,120,-1,19,120,23,-1,43,42,121,-1,121,42,122,-1,121,122,123,-1,123,122,124,-1,123,124,125,-1,125,124,126,-1,125,126,127,-1,127,126,128,-1,127,128,86,-1,86,128,129,-1,86,129,87,-1,2,130,0,-1,0,130,131,-1,0,131,132,-1,132,131,133,-1,132,133,134,-1,134,133,135,-1,134,135,91,-1,91,135,136,-1,91,136,92,-1,137,138,139,-1,71,140,72,-1,72,140,137,-1,72,137,141,-1,141,137,139,-1,142,143,137,-1,137,143,144,-1,137,144,138,-1,145,146,147,-1,146,148,147,-1,147,148,149,-1,147,149,150,-1,142,137,147,-1,147,137,151,-1,147,151,145,-1,152,38,153,-1,153,38,75,-1,153,75,154,-1,154,75,77,-1,154,77,155,-1,155,77,79,-1,155,79,156,-1,152,157,38,-1,38,157,158,-1,38,158,37,-1,37,158,159,-1,37,159,35,-1,35,159,160,-1,35,160,33,-1,33,160,161,-1,33,161,88,-1,88,161,162,-1,88,162,86,-1,127,86,163,-1,163,86,162,-1,163,164,127,-1,127,164,165,-1,127,165,125,-1,125,165,166,-1,125,166,123,-1,123,166,167,-1,123,167,121,-1,121,167,168,-1,121,168,43,-1,43,168,41,-1,41,168,169,-1,41,169,170,-1,41,170,171,-1,41,171,39,-1,39,171,172,-1,39,172,6,-1,6,172,173,-1,6,173,46,-1,46,173,174,-1,46,174,15,-1,15,174,175,-1,15,175,2,-1,2,175,176,-1,2,176,130,-1,130,176,177,-1,130,177,131,-1,131,177,178,-1,131,178,133,-1,179,92,180,-1,180,92,136,-1,180,136,181,-1,181,136,135,-1,181,135,182,-1,182,135,133,-1,182,133,178,-1,179,183,92,-1,92,183,184,-1,92,184,94,-1,94,184,185,-1,94,185,96,-1,96,185,186,-1,96,186,98,-1,98,186,187,-1,98,187,100,-1,100,187,188,-1,100,188,101,-1,101,188,189,-1,101,189,13,-1,13,189,190,-1,13,190,12,-1,12,190,191,-1,12,191,30,-1,191,192,30,-1,30,192,193,-1,30,193,29,-1,29,193,194,-1,29,194,59,-1,59,194,195,-1,59,195,57,-1,195,196,57,-1,57,196,197,-1,57,197,55,-1,55,197,198,-1,55,198,53,-1,199,20,5,-1,53,198,200,-1,201,21,200,-1,200,21,51,-1,200,51,53,-1,201,202,21,-1,21,202,203,-1,21,203,22,-1,22,203,204,-1,22,204,3,-1,3,204,205,-1,3,205,4,-1,4,205,206,-1,4,206,5,-1,5,206,207,-1,5,207,199,-1,18,20,208,-1,208,20,199,-1,16,18,209,-1,209,18,208,-1,17,16,210,-1,210,16,209,-1,19,17,211,-1,211,17,210,-1,19,211,212,-1,19,212,118,-1,118,212,213,-1,118,213,116,-1,116,213,214,-1,116,214,114,-1,114,214,215,-1,114,215,112,-1,112,215,216,-1,112,216,110,-1,110,216,217,-1,110,217,108,-1,108,217,218,-1,108,218,106,-1,106,218,219,-1,106,219,104,-1,104,219,220,-1,104,220,11,-1,11,220,221,-1,11,221,14,-1,14,221,222,-1,14,222,99,-1,99,222,223,-1,99,223,97,-1,97,223,224,-1,97,224,95,-1,95,224,225,-1,95,225,93,-1,91,93,225,-1,225,226,91,-1,91,226,227,-1,91,227,228,-1,229,132,228,-1,228,132,134,-1,228,134,91,-1,229,230,132,-1,132,230,231,-1,132,231,0,-1,0,231,232,-1,0,232,1,-1,1,232,233,-1,1,233,44,-1,44,233,234,-1,44,234,45,-1,45,234,235,-1,45,235,47,-1,47,235,236,-1,47,236,48,-1,48,236,237,-1,48,237,7,-1,7,237,238,-1,7,238,8,-1,8,238,239,-1,8,239,40,-1,40,239,240,-1,40,240,42,-1,42,240,241,-1,42,241,122,-1,122,241,242,-1,122,242,124,-1,124,242,243,-1,124,243,126,-1,126,243,244,-1,126,244,128,-1,128,244,245,-1,128,245,129,-1,129,245,246,-1,129,246,87,-1,87,246,247,-1,87,247,89,-1,89,247,248,-1,89,248,90,-1,90,248,31,-1,31,248,249,-1,31,249,250,-1,32,31,251,-1,251,31,250,-1,32,251,252,-1,32,252,34,-1,34,252,253,-1,34,253,36,-1,36,253,254,-1,36,254,73,-1,73,254,255,-1,73,255,74,-1,74,255,256,-1,74,256,76,-1,256,257,76,-1,76,257,258,-1,76,258,78,-1,78,258,259,-1,78,259,80,-1,80,259,260,-1,80,260,82,-1,82,260,261,-1,82,261,84,-1,84,261,262,-1,84,262,85,-1,85,262,263,-1,85,263,63,-1,63,263,264,-1,63,264,65,-1,65,264,265,-1,65,265,67,-1,67,265,266,-1,67,266,69,-1,71,69,267,-1,267,69,266,-1,71,267,268,-1,71,268,140,-1,140,268,269,-1,140,269,137,-1,137,269,270,-1,137,270,151,-1,151,270,271,-1,151,271,145,-1,145,271,272,-1,145,272,146,-1,146,272,273,-1,146,273,148,-1,148,273,274,-1,148,274,149,-1,149,274,275,-1,149,275,150,-1,150,275,276,-1,150,276,147,-1,147,276,277,-1,147,277,142,-1,142,277,278,-1,142,278,143,-1,143,278,279,-1,143,279,144,-1,144,279,280,-1,144,280,138,-1,138,280,281,-1,138,281,139,-1,139,281,282,-1,139,282,141,-1,141,282,283,-1,141,283,72,-1,72,283,284,-1,72,284,70,-1,68,70,285,-1,285,70,284,-1,68,285,286,-1,68,286,66,-1,66,286,287,-1,66,287,64,-1,64,287,288,-1,64,288,62,-1,62,288,289,-1,62,289,83,-1,83,289,290,-1,83,290,81,-1,81,290,156,-1,81,156,79,-1,113,291,292,-1,113,292,115,-1,115,292,293,-1,115,293,117,-1,117,293,294,-1,117,294,119,-1,119,294,295,-1,119,295,120,-1,120,295,296,-1,120,296,23,-1,23,296,297,-1,23,297,24,-1,24,297,298,-1,24,298,25,-1,25,298,299,-1,25,299,26,-1,26,299,300,-1,26,300,27,-1,27,300,301,-1,27,301,49,-1,49,301,302,-1,49,302,50,-1,50,302,303,-1,50,303,52,-1,52,303,304,-1,52,304,54,-1,54,304,305,-1,54,305,56,-1,56,305,306,-1,56,306,58,-1,58,306,307,-1,58,307,60,-1,60,307,308,-1,60,308,61,-1,61,308,309,-1,61,309,28,-1,28,309,310,-1,28,310,9,-1,9,310,311,-1,9,311,10,-1,10,311,312,-1,10,312,102,-1,102,312,313,-1,102,313,103,-1,103,313,314,-1,103,314,105,-1,105,314,315,-1,105,315,107,-1,107,315,316,-1,107,316,109,-1,109,316,317,-1,109,317,111,-1,111,317,291,-1,111,291,113,-1,
        ]
    }
}
Shape{
    appearance Appearance {
        material  Material 	{
            diffuseColor 1.0 1.0 1.0
            specularColor 0.30196078431372547 0.30196078431372547 0.30196078431372547
            ambientIntensity 1.0
            transparency 0.0
            shininess 0.5
        }
    }
    geometry IndexedFaceSet {
        ccw TRUE
        solid FALSE
        coord DEF co Coordinate {
            point [
                -0.3748 -0.8268 0.653, -0.3812 -0.8268 0.6505, -0.3692 -0.8268 0.5972, -0.3869 -0.8268 0.6465, -0.3904 -0.8268 0.6428, -0.363 -0.8268 0.6534, -0.3679 -0.8268 0.5972, -0.361 -0.8268 0.5981, -0.3679 -0.8268 0.6538, -0.3946 -0.8268 0.616, -0.3916 -0.8268 0.61, -0.3878 -0.8268 0.6054, -0.3491 -0.8268 0.6044, -0.3453 -0.8268 0.6425, -0.3502 -0.8268 0.6476, -0.394 -0.8268 0.6367, -0.3959 -0.8268 0.6298, -0.3961 -0.8268 0.6227, -0.3823 -0.8268 0.6011, -0.3757 -0.8268 0.5983, -0.3547 -0.8268 0.6005, -0.3562 -0.8268 0.6513, -0.3413 -0.8268 0.616, -0.3397 -0.8268 0.623, -0.3445 -0.8268 0.6097, -0.34 -0.8268 0.6301, -0.3419 -0.8268 0.6367
            ]
        }
        coordIndex [
            0,1,2,-1,2,1,3,-1,2,3,4,-1,5,6,7,-1,6,5,2,-1,2,5,8,-1,2,8,0,-1,9,10,4,-1,4,10,11,-1,12,13,14,-1,15,16,4,-1,4,16,17,-1,4,17,9,-1,11,18,4,-1,4,18,19,-1,4,19,2,-1,7,20,5,-1,5,20,12,-1,5,12,21,-1,21,12,14,-1,22,23,24,-1,24,23,25,-1,24,25,12,-1,12,25,26,-1,12,26,13,-1,
        ]
    }
}
Shape{
    appearance Appearance {
        material  Material 	{
            diffuseColor 0.0 0.0 0.0
            specularColor 0.0 0.0 0.0
            ambientIntensity 0.0
            transparency 0.0
            shininess 0.5
        }
    }
    geometry IndexedFaceSet {
        ccw TRUE
        solid FALSE
        coord DEF co Coordinate {
            point [
                0.3191 -0.8307 0.7782, 0.3085 -0.8307 0.7851, 0.3084 -0.8307 0.7706, 0.3019 -0.8307 0.7805, 0.2967 -0.8307 0.766, 0.2935 -0.8307 0.7773, 0.2794 -0.8307 0.7639, 0.2793 -0.8307 0.7756, 0.2513 -0.8307 0.7639, 0.2645 -0.8307 0.7756, 0.2513 -0.8307 0.8661, 0.2645 -0.8307 0.8543, 0.2805 -0.8307 0.8661, 0.2799 -0.8307 0.8543, 0.281 -0.8307 0.8543, 0.2961 -0.8307 0.8644, 0.294 -0.8307 0.8526, 0.3084 -0.8307 0.8599, 0.3027 -0.8307 0.8493, 0.3191 -0.8307 0.8526, 0.3094 -0.8307 0.8447, 0.3227 -0.8307 0.849, 0.3123 -0.8307 0.8419, 0.329 -0.8307 0.8401, 0.3162 -0.8307 0.8362, 0.3328 -0.8307 0.8304, 0.3191 -0.8307 0.8287, 0.3345 -0.8307 0.8163, 0.3206 -0.8307 0.816, 0.3342 -0.8307 0.8098, 0.3202 -0.8307 0.8089, 0.3317 -0.8307 0.7978, 0.3182 -0.8307 0.7997, 0.3267 -0.8307 0.7873, 0.3146 -0.8307 0.7922, 0.3097 -0.8307 0.7862, 0.3191 -0.8268 0.7782, 0.3267 -0.8268 0.7873, 0.3317 -0.8268 0.7978, 0.3342 -0.8268 0.8098, 0.3345 -0.8268 0.8163, 0.3328 -0.8268 0.8304, 0.329 -0.8268 0.8401, 0.3227 -0.8268 0.849, 0.3191 -0.8268 0.8526, 0.2805 -0.8268 0.8661, 0.3084 -0.8268 0.8599, 0.2981 -0.8268 0.8636, 0.2961 -0.8268 0.8644, 0.2513 -0.8268 0.8661, 0.2513 -0.8268 0.7639, 0.2794 -0.8268 0.7639, 0.2967 -0.8268 0.766, 0.2981 -0.8268 0.7666, 0.3084 -0.8268 0.7706, 0.3094 -0.8268 0.8447, 0.3123 -0.8268 0.8419, 0.3162 -0.8268 0.8362, 0.3191 -0.8268 0.8287, 0.3206 -0.8268 0.816, 0.2799 -0.8268 0.8543, 0.281 -0.8268 0.8543, 0.294 -0.8268 0.8526, 0.3027 -0.8268 0.8493, 0.2645 -0.8268 0.8543, 0.2645 -0.8268 0.7756, 0.2793 -0.8268 0.7756, 0.3097 -0.8268 0.7862, 0.3085 -0.8268 0.7851, 0.3019 -0.8268 0.7805, 0.2935 -0.8268 0.7773, 0.3202 -0.8268 0.8089, 0.3182 -0.8268 0.7997, 0.3146 -0.8268 0.7922
            ]
        }
        coordIndex [
            0,1,2,-1,2,1,3,-1,2,3,4,-1,4,3,5,-1,4,5,6,-1,6,5,7,-1,6,7,8,-1,8,7,9,-1,8,9,10,-1,10,9,11,-1,10,11,12,-1,11,13,12,-1,12,13,14,-1,12,14,15,-1,15,14,16,-1,15,16,17,-1,17,16,18,-1,17,18,19,-1,19,18,20,-1,19,20,21,-1,21,20,22,-1,21,22,23,-1,23,22,24,-1,23,24,25,-1,25,24,26,-1,25,26,27,-1,27,26,28,-1,27,28,29,-1,29,28,30,-1,29,30,31,-1,31,30,32,-1,31,32,33,-1,33,32,34,-1,33,34,0,-1,0,34,35,-1,0,35,1,-1,0,36,37,-1,0,37,33,-1,33,37,38,-1,33,38,31,-1,31,38,39,-1,31,39,29,-1,29,39,40,-1,29,40,27,-1,27,40,41,-1,27,41,25,-1,25,41,42,-1,25,42,23,-1,23,42,43,-1,23,43,21,-1,21,43,44,-1,21,44,19,-1,45,12,15,-1,19,44,46,-1,19,46,17,-1,17,46,47,-1,17,47,15,-1,15,47,48,-1,15,48,45,-1,10,12,49,-1,49,12,45,-1,8,10,50,-1,50,10,49,-1,6,8,51,-1,51,8,50,-1,36,0,2,-1,6,51,52,-1,6,52,4,-1,4,52,53,-1,4,53,2,-1,2,53,54,-1,2,54,36,-1,20,55,56,-1,20,56,22,-1,22,56,57,-1,22,57,24,-1,24,57,58,-1,24,58,26,-1,26,58,59,-1,26,59,28,-1,13,60,61,-1,13,61,14,-1,14,61,62,-1,14,62,16,-1,16,62,63,-1,16,63,18,-1,18,63,55,-1,18,55,20,-1,13,11,60,-1,60,11,64,-1,11,9,64,-1,64,9,65,-1,9,7,65,-1,65,7,66,-1,35,67,68,-1,35,68,1,-1,1,68,69,-1,1,69,3,-1,3,69,70,-1,3,70,5,-1,5,70,66,-1,5,66,7,-1,28,59,71,-1,28,71,30,-1,30,71,72,-1,30,72,32,-1,32,72,73,-1,32,73,34,-1,34,73,67,-1,34,67,35,-1,
        ]
    }
}
Shape{
    appearance Appearance {
        material  Material 	{
            diffuseColor 1.0 1.0 1.0
            specularColor 0.30196078431372547 0.30196078431372547 0.30196078431372547
            ambientIntensity 1.0
            transparency 0.0
            shininess 0.5
        }
    }
    geometry IndexedFaceSet {
        ccw TRUE
        solid FALSE
        coord DEF co Coordinate {
            point [
                0.3019 -0.8268 0.7805, 0.3085 -0.8268 0.7851, 0.281 -0.8268 0.8543, 0.2645 -0.8268 0.8543, 0.2645 -0.8268 0.7756, 0.2799 -0.8268 0.8543, 0.2793 -0.8268 0.7756, 0.2935 -0.8268 0.7773, 0.3097 -0.8268 0.7862, 0.3146 -0.8268 0.7922, 0.3182 -0.8268 0.7997, 0.3206 -0.8268 0.816, 0.3094 -0.8268 0.8447, 0.3027 -0.8268 0.8493, 0.3191 -0.8268 0.8287, 0.3162 -0.8268 0.8362, 0.3123 -0.8268 0.8419, 0.3202 -0.8268 0.8089, 0.294 -0.8268 0.8526
            ]
        }
        coordIndex [
            0,1,2,-1,3,4,5,-1,5,4,6,-1,5,6,2,-1,2,6,7,-1,2,7,0,-1,1,8,2,-1,2,8,9,-1,2,9,10,-1,11,12,13,-1,14,15,11,-1,11,15,16,-1,11,16,12,-1,10,17,2,-1,2,17,11,-1,2,11,18,-1,18,11,13,-1,
        ]
    }
}
Shape{
    appearance Appearance {
        material  Material 	{
            diffuseColor 0.0 0.0 0.0
            specularColor 0.0 0.0 0.0
            ambientIntensity 0.0
            transparency 0.0
            shininess 0.5
        }
    }
    geometry IndexedFaceSet {
        ccw TRUE
        solid FALSE
        coord DEF co Coordinate {
            point [
                0.1303 -0.8307 0.774, 0.1303 -0.8268 0.774, 0.1214 -0.8268 0.7749, 0.1214 -0.8307 0.7749, 0.1139 -0.8268 0.7775, 0.1139 -0.8307 0.7775, 0.1069 -0.8268 0.782, 0.1069 -0.8307 0.782, 0.1041 -0.8268 0.7847, 0.1041 -0.8307 0.7847, 0.0994 -0.8268 0.7911, 0.0994 -0.8307 0.7911, 0.096 -0.8268 0.7992, 0.096 -0.8307 0.7992, 0.0942 -0.8268 0.8092, 0.0942 -0.8307 0.8092, 0.094 -0.8268 0.8139, 0.094 -0.8307 0.8139, 0.0957 -0.8268 0.8279, 0.0957 -0.8307 0.8279, 0.0991 -0.8268 0.8367, 0.0991 -0.8307 0.8367, 0.1041 -0.8268 0.8438, 0.1041 -0.8307 0.8438, 0.1048 -0.8268 0.8446, 0.1048 -0.8307 0.8446, 0.111 -0.8268 0.8499, 0.111 -0.8307 0.8499, 0.119 -0.8268 0.8538, 0.119 -0.8307 0.8538, 0.1278 -0.8268 0.8557, 0.1278 -0.8307 0.8557, 0.1326 -0.8268 0.8559, 0.1326 -0.8307 0.8559, 0.1452 -0.8268 0.8544, 0.1452 -0.8307 0.8544, 0.1555 -0.8268 0.8505, 0.1555 -0.8307 0.8505, 0.1567 -0.8268 0.8498, 0.1567 -0.8307 0.8498, 0.1567 -0.8307 0.8636, 0.1567 -0.8268 0.8636, 0.1325 -0.8268 0.8678, 0.1325 -0.8307 0.8678, 0.1434 -0.8268 0.8669, 0.1458 -0.8307 0.8668, 0.1458 -0.8268 0.8668, 0.1254 -0.8268 0.8669, 0.1177 -0.8307 0.866, 0.1177 -0.8268 0.866, 0.107 -0.8268 0.8619, 0.107 -0.8307 0.8619, 0.0975 -0.8268 0.8552, 0.0975 -0.8307 0.8552, 0.0949 -0.8268 0.8528, 0.0949 -0.8307 0.8528, 0.0875 -0.8268 0.8431, 0.0848 -0.8268 0.8366, 0.0827 -0.8307 0.8317, 0.0875 -0.8307 0.8431, 0.0827 -0.8268 0.8317, 0.0804 -0.8268 0.8184, 0.0804 -0.8307 0.8184, 0.0802 -0.8268 0.8131, 0.0802 -0.8307 0.8131, 0.0822 -0.8268 0.7965, 0.0848 -0.8268 0.7899, 0.0864 -0.8307 0.7858, 0.0822 -0.8307 0.7965, 0.0864 -0.8268 0.7858, 0.0924 -0.8268 0.7771, 0.0924 -0.8307 0.7771, 0.0933 -0.8268 0.7762, 0.0933 -0.8307 0.7762, 0.1111 -0.8268 0.7648, 0.1015 -0.8307 0.7693, 0.1015 -0.8268 0.7693, 0.1194 -0.8268 0.7631, 0.1222 -0.8307 0.7625, 0.1111 -0.8307 0.7648, 0.1222 -0.8268 0.7625, 0.1284 -0.8268 0.7622, 0.1284 -0.8307 0.7622, 0.144 -0.8307 0.7637, 0.1374 -0.8268 0.7631, 0.144 -0.8268 0.7637, 0.1549 -0.8268 0.7673, 0.1549 -0.8307 0.7673, 0.1567 -0.8268 0.7682, 0.1567 -0.8307 0.7682, 0.1567 -0.8307 0.7808, 0.1567 -0.8268 0.7808, 0.1466 -0.8268 0.7763, 0.1466 -0.8307 0.7763, 0.135 -0.8268 0.7741, 0.135 -0.8307 0.7741, 0.4966 -0.8307 0.6414, 0.4924 -0.8307 0.6298, 0.5309 -0.8307 0.6414, 0.535 -0.8307 0.6298, 0.5119 -0.8307 0.6838, 0.507 -0.8307 0.704, 0.4681 -0.8307 0.6019, 0.4826 -0.8307 0.6019, 0.5128 -0.8307 0.6869, 0.5136 -0.8307 0.691, 0.5211 -0.8307 0.704, 0.5139 -0.8307 0.691, 0.5147 -0.8307 0.6867, 0.5155 -0.8307 0.6838, 0.56 -0.8307 0.6019, 0.5454 -0.8307 0.6019, 0.507 -0.8268 0.704, 0.5211 -0.8268 0.704, 0.4681 -0.8268 0.6019, 0.4826 -0.8268 0.6019, 0.4924 -0.8268 0.6298, 0.535 -0.8268 0.6298, 0.5454 -0.8268 0.6019, 0.56 -0.8268 0.6019, 0.5119 -0.8268 0.6838, 0.5128 -0.8268 0.6869, 0.5136 -0.8268 0.691, 0.4966 -0.8268 0.6414, 0.5309 -0.8268 0.6414, 0.5155 -0.8268 0.6838, 0.5139 -0.8268 0.691, 0.5147 -0.8268 0.6867
            ]
        }
        coordIndex [
            0,1,2,-1,0,2,3,-1,3,2,4,-1,3,4,5,-1,5,4,6,-1,5,6,7,-1,7,6,8,-1,7,8,9,-1,9,8,10,-1,9,10,11,-1,11,10,12,-1,11,12,13,-1,13,12,14,-1,13,14,15,-1,15,14,16,-1,15,16,17,-1,17,16,18,-1,17,18,19,-1,19,18,20,-1,19,20,21,-1,21,20,22,-1,21,22,23,-1,23,22,24,-1,23,24,25,-1,25,24,26,-1,25,26,27,-1,27,26,28,-1,27,28,29,-1,29,28,30,-1,29,30,31,-1,31,30,32,-1,31,32,33,-1,33,32,34,-1,33,34,35,-1,35,34,36,-1,35,36,37,-1,37,36,38,-1,37,38,39,-1,40,39,41,-1,41,39,38,-1,42,43,44,-1,44,43,45,-1,44,45,46,-1,46,45,40,-1,46,40,41,-1,43,42,47,-1,43,47,48,-1,47,49,48,-1,48,49,50,-1,48,50,51,-1,51,50,52,-1,51,52,53,-1,53,52,54,-1,53,54,55,-1,55,54,56,-1,57,58,56,-1,56,58,59,-1,56,59,55,-1,57,60,58,-1,58,60,61,-1,58,61,62,-1,62,61,63,-1,62,63,64,-1,64,63,65,-1,66,67,65,-1,65,67,68,-1,65,68,64,-1,66,69,67,-1,67,69,70,-1,67,70,71,-1,71,70,72,-1,71,72,73,-1,74,75,76,-1,76,75,73,-1,76,73,72,-1,77,78,74,-1,74,78,79,-1,74,79,75,-1,77,80,78,-1,78,80,81,-1,78,81,82,-1,82,81,83,-1,83,81,84,-1,84,85,83,-1,83,85,86,-1,83,86,87,-1,87,86,88,-1,87,88,89,-1,90,89,91,-1,91,89,88,-1,90,91,92,-1,90,92,93,-1,93,92,94,-1,93,94,95,-1,95,94,1,-1,95,1,0,-1,27,29,48,-1,19,21,59,-1,59,21,55,-1,48,29,43,-1,64,17,62,-1,62,17,19,-1,62,19,58,-1,58,19,59,-1,29,31,43,-1,43,31,33,-1,43,33,45,-1,45,33,35,-1,45,35,40,-1,40,35,37,-1,40,37,39,-1,89,90,87,-1,87,90,93,-1,87,93,83,-1,83,93,95,-1,83,95,82,-1,82,95,0,-1,82,0,78,-1,78,0,3,-1,78,3,79,-1,79,3,5,-1,79,5,75,-1,75,5,7,-1,75,7,73,-1,73,7,9,-1,73,9,71,-1,71,9,11,-1,71,11,67,-1,67,11,68,-1,68,11,13,-1,68,13,64,-1,64,13,15,-1,64,15,17,-1,21,23,55,-1,55,23,25,-1,55,25,53,-1,53,25,27,-1,53,27,51,-1,51,27,48,-1,96,97,98,-1,98,97,99,-1,100,101,96,-1,96,101,102,-1,96,102,97,-1,97,102,103,-1,100,104,101,-1,101,104,105,-1,101,105,106,-1,106,105,107,-1,106,107,108,-1,108,109,106,-1,106,109,98,-1,106,98,110,-1,110,98,99,-1,110,99,111,-1,101,106,112,-1,112,106,113,-1,102,101,114,-1,114,101,112,-1,103,102,115,-1,115,102,114,-1,97,103,116,-1,116,103,115,-1,99,97,117,-1,117,97,116,-1,111,99,118,-1,118,99,117,-1,110,111,119,-1,119,111,118,-1,106,110,113,-1,113,110,119,-1,100,120,121,-1,100,121,104,-1,104,121,122,-1,104,122,105,-1,100,96,120,-1,120,96,123,-1,96,98,123,-1,123,98,124,-1,98,109,124,-1,124,109,125,-1,107,126,127,-1,107,127,108,-1,108,127,125,-1,108,125,109,-1,107,105,126,-1,126,105,122,-1,
        ]
    }
}
Shape{
    appearance Appearance {
        material  Material 	{
            diffuseColor 1.0 1.0 1.0
            specularColor 0.30196078431372547 0.30196078431372547 0.30196078431372547
            ambientIntensity 1.0
            transparency 0.0
            shininess 0.5
        }
    }
    geometry IndexedFaceSet {
        ccw TRUE
        solid FALSE
        coord DEF co Coordinate {
            point [
                0.5139 -0.8268 0.691, 0.5136 -0.8268 0.691, 0.5147 -0.8268 0.6867, 0.5128 -0.8268 0.6869, 0.5155 -0.8268 0.6838, 0.5119 -0.8268 0.6838, 0.5309 -0.8268 0.6414, 0.4966 -0.8268 0.6414
            ]
        }
        coordIndex [
            0,1,2,-1,2,1,3,-1,2,3,4,-1,4,3,5,-1,4,5,6,-1,6,5,7,-1,
        ]
    }
}
Shape{
    appearance Appearance {
        material  Material 	{
            diffuseColor 0.0 0.0 0.0
            specularColor 0.0 0.0 0.0
            ambientIntensity 0.0
            transparency 0.0
            shininess 0.5
        }
    }
    geometry IndexedFaceSet {
        ccw TRUE
        solid FALSE
        coord DEF co Coordinate {
            point [
                0.3182 -0.8268 0.6136, 0.3182 -0.8307 0.6136, 0.3373 -0.8268 0.6136, 0.3599 -0.8307 0.6136, 0.3599 -0.8268 0.6136, 0.3182 -0.8307 0.6479, 0.3182 -0.8268 0.6479, 0.3547 -0.8268 0.6479, 0.3547 -0.8307 0.6479, 0.3373 -0.8268 0.6479, 0.3547 -0.8307 0.6596, 0.3547 -0.8268 0.6596, 0.3182 -0.8268 0.6596, 0.3182 -0.8307 0.6596, 0.3373 -0.8268 0.6596, 0.3182 -0.8307 0.6923, 0.3182 -0.8268 0.6923, 0.3576 -0.8268 0.6923, 0.3576 -0.8307 0.6923, 0.3373 -0.8268 0.6923, 0.3576 -0.8307 0.704, 0.3576 -0.8268 0.704, 0.305 -0.8268 0.704, 0.305 -0.8307 0.704, 0.3373 -0.8268 0.704, 0.305 -0.8307 0.6019, 0.305 -0.8268 0.6019, 0.3599 -0.8268 0.6019, 0.3599 -0.8307 0.6019, 0.3373 -0.8268 0.6019, 0.0353 -0.8307 0.6136, 0.0771 -0.8307 0.6136, 0.0353 -0.8268 0.6136, 0.0771 -0.8268 0.6136, 0.0353 -0.8307 0.6479, 0.0353 -0.8268 0.6479, 0.0719 -0.8307 0.6479, 0.0719 -0.8268 0.6479, 0.0719 -0.8307 0.6596, 0.0719 -0.8268 0.6596, 0.0353 -0.8307 0.6596, 0.0353 -0.8268 0.6596, 0.0353 -0.8307 0.6923, 0.0353 -0.8268 0.6923, 0.0748 -0.8307 0.6923, 0.0748 -0.8268 0.6923, 0.0748 -0.8307 0.704, 0.0748 -0.8268 0.704, 0.0221 -0.8307 0.704, 0.0221 -0.8268 0.704, 0.0221 -0.8307 0.6019, 0.0221 -0.8268 0.6019, 0.0771 -0.8307 0.6019, 0.0771 -0.8268 0.6019, 0.3687 -0.8307 0.8034, 0.3645 -0.8307 0.7919, 0.403 -0.8307 0.8034, 0.4071 -0.8307 0.7919, 0.384 -0.8307 0.8459, 0.3791 -0.8307 0.8661, 0.3401 -0.8307 0.7639, 0.3547 -0.8307 0.7639, 0.3849 -0.8307 0.8489, 0.3857 -0.8307 0.853, 0.3931 -0.8307 0.8661, 0.386 -0.8307 0.853, 0.3868 -0.8307 0.8487, 0.3876 -0.8307 0.8459, 0.4321 -0.8307 0.7639, 0.4175 -0.8307 0.7639, 0.3791 -0.8268 0.8661, 0.3931 -0.8268 0.8661, 0.3401 -0.8268 0.7639, 0.3696 -0.8268 0.8412, 0.3547 -0.8268 0.7639, 0.3645 -0.8268 0.7919, 0.4071 -0.8268 0.7919, 0.3696 -0.8268 0.7919, 0.4175 -0.8268 0.7639, 0.4321 -0.8268 0.7639, 0.384 -0.8268 0.8459, 0.3849 -0.8268 0.8489, 0.3857 -0.8268 0.853, 0.3687 -0.8268 0.8034, 0.403 -0.8268 0.8034, 0.3876 -0.8268 0.8459, 0.386 -0.8268 0.853, 0.3868 -0.8268 0.8487
            ]
        }
        coordIndex [
            0,1,2,-1,2,1,3,-1,2,3,4,-1,5,1,6,-1,6,1,0,-1,7,8,9,-1,9,8,5,-1,9,5,6,-1,10,8,11,-1,11,8,7,-1,12,13,14,-1,14,13,10,-1,14,10,11,-1,15,13,16,-1,16,13,12,-1,17,18,19,-1,19,18,15,-1,19,15,16,-1,20,18,21,-1,21,18,17,-1,22,23,24,-1,24,23,20,-1,24,20,21,-1,25,23,26,-1,26,23,22,-1,27,28,29,-1,29,28,25,-1,29,25,26,-1,3,28,4,-1,4,28,27,-1,25,28,3,-1,3,1,25,-1,25,1,5,-1,25,5,23,-1,18,20,15,-1,15,20,23,-1,15,23,13,-1,13,23,5,-1,13,5,10,-1,10,5,8,-1,30,31,32,-1,32,31,33,-1,34,30,35,-1,35,30,32,-1,36,34,37,-1,37,34,35,-1,38,36,39,-1,39,36,37,-1,40,38,41,-1,41,38,39,-1,42,40,43,-1,43,40,41,-1,44,42,45,-1,45,42,43,-1,46,44,47,-1,47,44,45,-1,48,46,49,-1,49,46,47,-1,50,48,51,-1,51,48,49,-1,52,50,53,-1,53,50,51,-1,31,52,33,-1,33,52,53,-1,50,52,31,-1,31,30,50,-1,50,30,34,-1,50,34,48,-1,44,46,42,-1,42,46,48,-1,42,48,40,-1,40,48,34,-1,40,34,38,-1,38,34,36,-1,54,55,56,-1,56,55,57,-1,58,59,54,-1,54,59,60,-1,54,60,55,-1,55,60,61,-1,58,62,59,-1,59,62,63,-1,59,63,64,-1,64,63,65,-1,64,65,66,-1,66,67,64,-1,64,67,56,-1,64,56,68,-1,68,56,57,-1,68,57,69,-1,59,64,70,-1,70,64,71,-1,72,60,73,-1,73,60,59,-1,73,59,70,-1,61,60,74,-1,74,60,72,-1,55,61,75,-1,75,61,74,-1,76,57,77,-1,77,57,55,-1,77,55,75,-1,69,57,78,-1,78,57,76,-1,68,69,79,-1,79,69,78,-1,64,68,71,-1,71,68,79,-1,58,80,81,-1,58,81,62,-1,62,81,82,-1,62,82,63,-1,58,54,80,-1,80,54,83,-1,54,56,83,-1,83,56,84,-1,56,67,84,-1,84,67,85,-1,65,86,87,-1,65,87,66,-1,66,87,85,-1,66,85,67,-1,65,63,86,-1,86,63,82,-1,
        ]
    }
}
Shape{
    appearance Appearance {
        material  Material 	{
            diffuseColor 1.0 1.0 1.0
            specularColor 0.30196078431372547 0.30196078431372547 0.30196078431372547
            ambientIntensity 1.0
            transparency 0.0
            shininess 0.5
        }
    }
    geometry IndexedFaceSet {
        ccw TRUE
        solid FALSE
        coord DEF co Coordinate {
            point [
                0.386 -0.8268 0.853, 0.3857 -0.8268 0.853, 0.3868 -0.8268 0.8487, 0.3849 -0.8268 0.8489, 0.3876 -0.8268 0.8459, 0.384 -0.8268 0.8459, 0.403 -0.8268 0.8034, 0.3687 -0.8268 0.8034
            ]
        }
        coordIndex [
            0,1,2,-1,2,1,3,-1,2,3,4,-1,4,3,5,-1,4,5,6,-1,6,5,7,-1,
        ]
    }
}
Shape{
    appearance Appearance {
        material  Material 	{
            diffuseColor 0.0 0.0 0.0
            specularColor 0.0 0.0 0.0
            ambientIntensity 0.0
            transparency 0.0
            shininess 0.5
        }
    }
    geometry IndexedFaceSet {
        ccw TRUE
        solid FALSE
        coord DEF co Coordinate {
            point [
                0.1903 -0.8268 0.7756, 0.1903 -0.8307 0.7756, 0.2179 -0.8268 0.7756, 0.232 -0.8307 0.7756, 0.232 -0.8268 0.7756, 0.1903 -0.8307 0.8099, 0.1903 -0.8268 0.8099, 0.2268 -0.8307 0.8099, 0.2179 -0.8268 0.8099, 0.2268 -0.8268 0.8099, 0.2268 -0.8307 0.8216, 0.2268 -0.8268 0.8216, 0.1903 -0.8268 0.8216, 0.1903 -0.8307 0.8216, 0.2179 -0.8268 0.8216, 0.1903 -0.8307 0.8543, 0.1903 -0.8268 0.8543, 0.2297 -0.8307 0.8543, 0.2179 -0.8268 0.8543, 0.2297 -0.8268 0.8543, 0.2297 -0.8307 0.8661, 0.2297 -0.8268 0.8661, 0.1771 -0.8268 0.8661, 0.1771 -0.8307 0.8661, 0.2179 -0.8268 0.8661, 0.1771 -0.8307 0.7639, 0.1771 -0.8268 0.7639, 0.232 -0.8268 0.7639, 0.232 -0.8307 0.7639, 0.2179 -0.8268 0.7639, 0.0353 -0.8307 0.7756, 0.076 -0.8307 0.7756, 0.0353 -0.8268 0.7756, 0.076 -0.8268 0.7756, 0.0353 -0.8307 0.8661, 0.0353 -0.8268 0.8661, 0.0221 -0.8307 0.8661, 0.0221 -0.8268 0.8661, 0.0221 -0.8307 0.7639, 0.0221 -0.8268 0.7639, 0.076 -0.8307 0.7639, 0.076 -0.8268 0.7639
            ]
        }
        coordIndex [
            0,1,2,-1,2,1,3,-1,2,3,4,-1,5,1,6,-1,6,1,0,-1,5,6,7,-1,7,6,8,-1,7,8,9,-1,10,7,11,-1,11,7,9,-1,12,13,14,-1,14,13,10,-1,14,10,11,-1,15,13,16,-1,16,13,12,-1,15,16,17,-1,17,16,18,-1,17,18,19,-1,20,17,21,-1,21,17,19,-1,22,23,24,-1,24,23,20,-1,24,20,21,-1,25,23,26,-1,26,23,22,-1,27,28,29,-1,29,28,25,-1,29,25,26,-1,3,28,4,-1,4,28,27,-1,25,28,3,-1,3,1,25,-1,25,1,5,-1,25,5,23,-1,17,20,15,-1,15,20,23,-1,15,23,13,-1,13,23,5,-1,13,5,10,-1,10,5,7,-1,30,31,32,-1,32,31,33,-1,34,30,35,-1,35,30,32,-1,36,34,37,-1,37,34,35,-1,38,36,39,-1,39,36,37,-1,40,38,41,-1,41,38,39,-1,31,40,33,-1,33,40,41,-1,34,36,30,-1,30,36,38,-1,30,38,31,-1,31,38,40,-1,
        ]
    }
}