#VRML V2.0 utf8
# 3D model generated by easyeda2kicad.py (https://github.com/uPesy/easyeda2kicad.py)

Shape{
    appearance Appearance {
        material  Material 	{
            diffuseColor 0.0 1.0 0.9803921568627451
            specularColor 0.0 0.5019607843137255 0.49019607843137253
            ambientIntensity 0.6988
            transparency 0.0
            shininess 0.5
        }
    }
    geometry IndexedFaceSet {
        ccw TRUE
        solid FALSE
        coord DEF co Coordinate {
            point [
                -4.6752 -1.4567 0.3923, -4.8031 -1.4567 0.3923, -4.8031 -0.7159 0.3923, -2.6525 1.2598 0.3923, -2.6525 1.4567 0.3923, -2.2492 1.4567 0.3923, 2.6525 -1.4567 0.3923, 2.4997 -1.4567 0.3923, 2.6525 -1.2598 0.3923, 2.4997 -0.7159 0.3923, 3.4399 -1.2598 0.3923, 4.8031 -1.4567 0.3923, 3.4399 -1.4567 0.3923, 4.8031 -0.7159 0.3923, 4.3504 -0.3937 0.3923, 4.5472 -0.3937 0.3923, 4.8031 -0.4546 0.3923, 4.5472 0.3937 0.3923, 4.8031 1.4567 0.3923, 4.3504 0.3937 0.3923, 2.4997 -0.4546 0.3923, 2.6525 1.2598 0.3923, 3.4399 1.2598 0.3923, 3.4399 1.4567 0.3923, -4.6752 -0.4546 0.3923, -4.6752 1.4567 0.3923, -4.5472 0.3937 0.3923, -4.3504 0.3937 0.3923, -4.5472 -0.3937 0.3923, -4.3504 -0.3937 0.3923, -2.2492 -0.4546 0.3923, -3.4399 1.2598 0.3923, -3.4399 1.4567 0.3923, -3.4399 -1.4567 0.3923, -3.4399 -1.2598 0.3923, -4.6752 -0.7159 0.3923, -2.6525 -1.2598 0.3923, -2.2492 -0.7159 0.3923, -2.6525 -1.4567 0.3923, 0.3657 -0.5166 0.3923, 0.3849 -0.6829 0.3923, 0.3657 -0.7159 0.3923, 0.3849 -0.7045 0.3923, 0.4059 -0.7131 0.3923, 0.4139 -0.5166 0.3923, 0.4077 -0.5171 0.3923, 0.3849 -0.5232 0.3923, 0.3849 -0.5496 0.3923, 0.4071 -0.5401 0.3923, 0.3885 -0.6848 0.3923, 0.431 -0.537 0.3923, 0.4504 -0.5392 0.3923, 0.4652 -0.5445 0.3923, 0.4788 -0.5536 0.3923, 0.4907 -0.5668 0.3923, 0.505 -0.6184 0.3923, 0.503 -0.6397 0.3923, 0.4976 -0.6566 0.3923, 0.4538 -0.6934 0.3923, 0.4355 -0.6955 0.3923, 0.4682 -0.6881 0.3923, 0.4802 -0.68 0.3923, 0.4895 -0.6702 0.3923, 0.4093 -0.6926 0.3923, 0.4988 -0.582 0.3923, 0.504 -0.603 0.3923, 0.4313 -0.5154 0.3923, 0.3657 -0.4546 0.3923, 0.446 -0.5166 0.3923, 0.5398 -0.4546 0.3923, 0.521 -0.5697 0.3923, 0.5094 -0.5513 0.3923, 0.5398 -0.5166 0.3923, 0.4824 -0.708 0.3923, 0.4983 -0.6979 0.3923, 0.5398 -0.7159 0.3923, 0.5131 -0.6823 0.3923, 0.5235 -0.6636 0.3923, 0.4917 -0.5342 0.3923, 0.473 -0.5234 0.3923, 0.451 -0.517 0.3923, 0.5295 -0.6428 0.3923, 0.5314 -0.62 0.3923, 0.5285 -0.592 0.3923, 0.4258 -0.7159 0.3923, 0.4337 -0.717 0.3923, 0.3657 -1.4567 0.3923, 0.5398 -1.4567 0.3923, 0.4391 -0.7171 0.3923, 0.4507 -0.7159 0.3923, 0.4634 -0.7146 0.3923, 0.2217 -0.7159 0.3923, 0.2217 -1.4567 0.3923, 0.0368 -0.7159 0.3923, 0.0368 -1.4567 0.3923, -2.2492 -1.4567 0.3923, 2.4997 -0.5166 0.3923, 4.8031 -0.5166 0.3923, 0.5482 -0.6931 0.3923, 0.5482 -0.7147 0.3923, 0.649 -0.7147 0.3923, 0.6226 -0.6931 0.3923, 0.6226 -0.5178 0.3923, 0.649 -0.5178 0.3923, 0.2457 -0.5178 0.3923, 0.2217 -0.5166 0.3923, 0.2457 -0.5394 0.3923, 0.2409 -0.6931 0.3923, 0.2409 -0.7147 0.3923, 0.3465 -0.7147 0.3923, 0.3465 -0.5178 0.3923, 0.3201 -0.6259 0.3923, 0.3201 -0.6931 0.3923, 0.2505 -0.6259 0.3923, 0.2505 -0.6043 0.3923, 0.3201 -0.6043 0.3923, 0.3201 -0.5394 0.3923, 0.0539 -0.6607 0.3923, 0.0468 -0.6401 0.3923, 0.0441 -0.6138 0.3923, 0.0652 -0.6783 0.3923, 0.0814 -0.6939 0.3923, 0.1019 -0.7058 0.3923, 0.1185 -0.5209 0.3923, 0.0368 -0.5166 0.3923, 0.1469 -0.5178 0.3923, 0.0955 -0.529 0.3923, 0.074 -0.5433 0.3923, 0.0738 -0.5435 0.3923, 0.0599 -0.5589 0.3923, 0.0508 -0.5759 0.3923, 0.0455 -0.5953 0.3923, 0.1246 -0.7126 0.3923, 0.149 -0.7147 0.3923, 0.2025 -0.7147 0.3923, 0.2025 -0.5178 0.3923, -0.1192 -0.7147 0.3923, -0.0993 -0.6595 0.3923, -0.018 -0.6595 0.3923, 0.0008 -0.7147 0.3923, 0.0296 -0.7147 0.3923, -0.148 -0.7147 0.3923, -0.0712 -0.5178 0.3923, -4.6752 -0.5166 0.3923, -2.2492 -0.5166 0.3923, -0.0448 -0.5178 0.3923, 0.0368 -0.4546 0.3923, 0.2217 -0.4546 0.3923, 0.0368 1.4567 0.3923, 0.2217 1.4567 0.3923, 0.3657 1.4567 0.3923, 0.5398 1.4567 0.3923, 2.4997 1.4567 0.3923, 2.6525 1.4567 0.3923, -4.8031 -0.5166 0.3923, -4.8031 -0.4546 0.3923, -4.8031 1.4567 0.3923, 4.3504 -0.6159 0.5892, 4.3504 0.6159 0.5892, 3.3858 -1.2008 0.5892, 3.2677 -1.2008 0.5892, 4.4488 -0.919 0.5892, 4.5472 -0.6159 0.5892, 4.6457 -0.919 0.5892, 4.5472 0.6159 0.5892, 4.6457 0.919 0.5892, 4.4488 0.919 0.5892, 4.639 -1.3698 0.5892, 4.6457 -1.3189 0.5892, 4.4488 -1.5157 0.5892, 3.3858 -1.5157 0.5892, 4.4488 -1.0551 0.5892, 4.6457 -1.0551 0.5892, 3.2677 1.2008 0.5892, 3.3858 1.2008 0.5892, 3.3858 1.5157 0.5892, 4.4488 1.0551 0.5892, 4.4488 1.5157 0.5892, 4.6457 1.0551 0.5892, 4.4998 -1.509 0.5892, 4.5472 -1.4894 0.5892, 4.588 -1.4581 0.5892, 4.6193 -1.4173 0.5892, 4.6457 1.3189 0.5892, 4.639 1.3698 0.5892, 4.6193 1.4173 0.5892, 4.588 1.4581 0.5892, 4.5472 1.4894 0.5892, 4.4998 1.509 0.5892, -3.3858 1.2008 0.5892, -3.3858 1.5157 0.5892, -4.3504 0.6159 0.5892, -4.3504 -0.6159 0.5892, -3.3858 -1.5157 0.5892, -3.3858 -1.2008 0.5892, -3.2677 -1.2008 0.5892, -3.2677 1.2008 0.5892, -4.6457 1.3189 0.5892, -4.6457 1.0551 0.5892, -4.4488 1.0551 0.5892, -4.4488 -1.0551 0.5892, -4.4488 -0.919 0.5892, -4.6457 -0.919 0.5892, -4.5472 -0.6159 0.5892, -4.6457 0.919 0.5892, -4.5472 0.6159 0.5892, -4.4488 0.919 0.5892, -4.639 1.3698 0.5892, -4.4488 1.5157 0.5892, -4.6457 -1.0551 0.5892, -4.6457 -1.3189 0.5892, -4.4488 -1.5157 0.5892, -4.639 -1.3698 0.5892, -4.6193 -1.4173 0.5892, -4.4998 1.509 0.5892, -4.5472 1.4894 0.5892, -4.588 1.4581 0.5892, -4.588 -1.4581 0.5892, -4.5472 -1.4894 0.5892, -4.4998 -1.509 0.5892, -4.6193 1.4173 0.5892, -2.9528 1.5748 0.5892, -2.9528 -1.5748 0.5892, 2.9528 1.5748 0.5892, 2.9528 -1.5748 0.5892, 2.9528 1.5748 1.3766, 2.9528 1.8504 1.3766, -2.9528 1.5748 1.3766, -2.9528 1.8504 1.3766, -3.0717 1.2008 4.1325, -2.9528 1.2008 4.1325, -2.9528 1.8504 4.1325, -3.2677 -1.2008 4.1325, -3.3858 -1.2008 4.1325, -3.3858 -1.5157 4.1325, -2.9528 -1.8504 4.1325, -2.9528 -1.2008 4.1325, -3.0717 -1.2008 4.1325, -4.4094 -1.8504 4.1325, -4.4488 -1.5157 4.1325, -4.639 -1.3698 4.1325, -4.6457 -1.3189 4.1325, -4.8031 -1.4567 4.1325, -4.6457 -1.0551 4.1325, -4.8031 1.4567 4.1325, -4.6457 0.919 4.1325, -4.4488 0.919 4.1325, -4.4488 1.0551 4.1325, -3.2677 1.2008 4.1325, -4.6193 -1.4173 4.1325, -4.7897 -1.5586 4.1325, -4.588 -1.4581 4.1325, -4.7504 -1.6535 4.1325, -4.5472 -1.4894 4.1325, -4.6878 -1.7351 4.1325, -4.4998 -1.509 4.1325, -4.6063 -1.7976 4.1325, -4.5113 -1.837 4.1325, -3.3858 1.2008 4.1325, -3.3858 1.5157 4.1325, -4.4488 1.5157 4.1325, -4.6457 1.0551 4.1325, -4.6457 -0.919 4.1325, -4.4488 -0.919 4.1325, -4.4488 -1.0551 4.1325, -4.4094 1.8504 4.1325, -4.5113 1.837 4.1325, -4.4998 1.509 4.1325, -4.6063 1.7976 4.1325, -4.5472 1.4894 4.1325, -4.6878 1.7351 4.1325, -4.588 1.4581 4.1325, -4.7504 1.6535 4.1325, -4.6193 1.4173 4.1325, -4.7897 1.5586 4.1325, -4.639 1.3698 4.1325, -4.6457 1.3189 4.1325, 2.9528 1.8504 4.1325, 4.4094 1.8504 4.1325, 4.4094 1.8504 0.786, -4.4094 1.8504 0.786, 4.8031 -1.4567 4.1325, 4.8031 1.4567 4.1325, -2.9528 -1.8504 1.3766, -4.4094 -1.8504 0.786, 2.9528 -1.8504 1.3766, 4.4094 -1.8504 0.786, 2.9528 -1.8504 4.1325, 4.4094 -1.8504 4.1325, 3.0717 -1.2008 4.1325, 2.9528 -1.2008 4.1325, 3.2677 1.2008 4.1325, 3.3858 1.2008 4.1325, 3.3858 1.5157 4.1325, 4.6457 -0.919 4.1325, 4.4488 -0.919 4.1325, 4.4488 -1.0551 4.1325, 3.2677 -1.2008 4.1325, 2.9528 1.2008 4.1325, 3.0717 1.2008 4.1325, 4.4488 1.0551 4.1325, 4.4488 0.919 4.1325, 4.6457 1.0551 4.1325, 4.6457 0.919 4.1325, 3.3858 -1.2008 4.1325, 3.3858 -1.5157 4.1325, 4.4488 -1.5157 4.1325, 4.639 1.3698 4.1325, 4.6457 1.3189 4.1325, 4.6193 1.4173 4.1325, 4.7897 1.5586 4.1325, 4.588 1.4581 4.1325, 4.7504 1.6535 4.1325, 4.5472 1.4894 4.1325, 4.6878 1.7351 4.1325, 4.4998 1.509 4.1325, 4.6063 1.7976 4.1325, 4.4488 1.5157 4.1325, 4.6457 -1.0551 4.1325, 4.5113 -1.837 4.1325, 4.4998 -1.509 4.1325, 4.6063 -1.7976 4.1325, 4.5472 -1.4894 4.1325, 4.6878 -1.7351 4.1325, 4.588 -1.4581 4.1325, 4.7504 -1.6535 4.1325, 4.6193 -1.4173 4.1325, 4.7897 -1.5586 4.1325, 4.639 -1.3698 4.1325, 4.6457 -1.3189 4.1325, 4.5113 1.837 4.1325, -2.9528 1.2008 0.9829, -2.9528 -1.5748 1.3766, -2.9528 -1.2008 0.9829, 2.9528 -1.5748 1.3766, 2.9528 -1.2008 0.9829, 2.9528 1.2008 0.9829, 3.0717 -1.2008 0.9829, 3.0717 1.2008 0.9829, -3.0717 1.2008 0.9829, -3.0717 -1.2008 0.9829, 4.5113 1.837 0.6841, 4.6063 1.7976 0.5892, 4.6878 1.7351 0.5076, 4.7218 1.6964 0.4737, 4.7504 1.6535 0.4451, 4.7732 1.6074 0.4223, 4.7897 1.5586 0.4057, 4.7998 1.5081 0.3957, -4.6063 1.7976 0.5892, -4.5113 1.837 0.6841, -4.7897 1.5586 0.4057, -4.7732 1.6074 0.4223, -4.7504 1.6535 0.4451, -4.7218 1.6964 0.4737, -4.6878 1.7351 0.5076, -4.7998 1.5081 0.3957, -4.5792 -1.8089 0.6163, -4.5113 -1.837 0.6841, -4.4968 -1.8389 0.6987, -4.6529 -1.7619 0.5426, -4.6063 -1.7976 0.5892, -4.7173 -1.7022 0.4782, -4.6878 -1.7351 0.5076, -4.7642 -1.6275 0.4313, -4.7485 -1.6524 0.4469, -4.8007 -1.5008 0.3948, -4.7933 -1.5443 0.4022, -4.7897 -1.5586 0.4057, 4.4968 -1.8389 0.6987, 4.5113 -1.837 0.6841, 4.5792 -1.8089 0.6163, 4.6063 -1.7976 0.5892, 4.7642 -1.6275 0.4313, 4.7485 -1.6524 0.4469, 4.7173 -1.7022 0.4782, 4.6878 -1.7351 0.5076, 4.6529 -1.7619 0.5426, 4.7897 -1.5586 0.4057, 4.7933 -1.5443 0.4022, 4.8007 -1.5008 0.3948, 3.4399 1.2598 -0.0014, 3.4399 1.4567 -0.0014, 2.6525 1.2598 -0.0014, 2.6525 1.4567 -0.0014, -2.6525 1.4567 -0.0014, -3.4399 1.4567 -0.0014, -2.6525 1.2598 -0.0014, -3.4399 1.2598 -0.0014, -3.4399 -1.2598 -0.0014, -3.4399 -1.4567 -0.0014, -2.6525 -1.2598 -0.0014, -2.6525 -1.4567 -0.0014, 2.6525 -1.4567 -0.0014, 3.4399 -1.4567 -0.0014, 2.6525 -1.2598 -0.0014, 3.4399 -1.2598 -0.0014
            ]
        }
        coordIndex [
            0,1,2,-1,3,4,5,-1,6,7,8,-1,8,7,9,-1,8,9,10,-1,11,12,13,-1,13,12,10,-1,14,15,16,-1,16,15,17,-1,16,17,18,-1,18,17,19,-1,20,21,22,-1,16,20,14,-1,14,20,22,-1,14,22,19,-1,19,22,23,-1,19,23,18,-1,24,25,26,-1,26,25,27,-1,26,28,24,-1,24,28,29,-1,24,29,30,-1,30,29,27,-1,30,27,31,-1,31,27,25,-1,31,25,32,-1,33,0,34,-1,34,0,35,-1,34,35,36,-1,36,35,37,-1,36,37,38,-1,39,40,41,-1,41,40,42,-1,41,42,43,-1,39,44,45,-1,45,46,39,-1,39,46,47,-1,39,47,40,-1,40,47,48,-1,40,48,49,-1,49,48,50,-1,49,50,51,-1,51,52,49,-1,49,52,53,-1,49,53,54,-1,55,56,49,-1,49,56,57,-1,58,59,60,-1,60,59,61,-1,57,62,49,-1,49,62,61,-1,49,61,63,-1,63,61,59,-1,54,64,49,-1,49,64,65,-1,49,65,55,-1,66,67,68,-1,68,67,69,-1,70,71,72,-1,73,74,75,-1,75,74,76,-1,75,76,77,-1,71,78,72,-1,72,78,79,-1,72,79,80,-1,77,81,75,-1,75,81,82,-1,75,82,72,-1,72,82,83,-1,72,83,70,-1,84,85,86,-1,86,85,87,-1,85,88,87,-1,87,88,89,-1,87,89,75,-1,75,89,90,-1,75,90,73,-1,43,84,41,-1,41,84,86,-1,41,86,91,-1,91,86,92,-1,91,92,93,-1,93,92,94,-1,93,94,37,-1,37,94,95,-1,37,95,38,-1,10,9,13,-1,13,9,96,-1,13,96,97,-1,72,98,75,-1,75,98,99,-1,75,99,100,-1,101,98,102,-1,102,98,72,-1,102,72,103,-1,103,72,96,-1,103,96,100,-1,100,96,9,-1,100,9,75,-1,75,9,7,-1,75,7,87,-1,104,105,39,-1,104,106,105,-1,105,106,107,-1,105,107,91,-1,91,107,108,-1,91,108,41,-1,41,108,109,-1,41,109,39,-1,39,109,110,-1,39,110,104,-1,111,112,113,-1,113,112,107,-1,113,107,114,-1,114,107,106,-1,114,106,115,-1,115,106,116,-1,117,93,118,-1,118,93,119,-1,117,120,93,-1,93,120,121,-1,93,121,122,-1,123,124,125,-1,125,124,105,-1,123,126,124,-1,124,126,127,-1,124,127,128,-1,128,129,124,-1,124,129,130,-1,124,130,131,-1,122,132,93,-1,93,132,133,-1,93,133,91,-1,91,133,134,-1,91,134,105,-1,105,134,135,-1,105,135,125,-1,136,137,138,-1,139,140,93,-1,93,140,124,-1,93,124,119,-1,119,124,131,-1,138,139,136,-1,136,139,93,-1,136,93,141,-1,141,93,37,-1,141,37,142,-1,35,143,37,-1,37,143,144,-1,37,144,142,-1,142,144,124,-1,142,124,145,-1,145,124,140,-1,80,68,72,-1,72,68,69,-1,72,69,96,-1,96,69,20,-1,96,20,97,-1,97,20,16,-1,143,24,144,-1,144,24,30,-1,144,30,124,-1,124,30,146,-1,124,146,105,-1,105,146,147,-1,105,147,39,-1,39,147,67,-1,39,67,44,-1,44,67,66,-1,31,3,30,-1,30,3,5,-1,30,5,146,-1,146,5,148,-1,146,148,147,-1,147,148,149,-1,147,149,67,-1,67,149,150,-1,67,150,69,-1,69,150,151,-1,69,151,20,-1,20,151,152,-1,20,152,21,-1,21,152,153,-1,0,2,35,-1,35,2,154,-1,35,154,143,-1,143,154,155,-1,143,155,24,-1,24,155,156,-1,24,156,25,-1,157,158,159,-1,159,158,160,-1,157,161,162,-1,162,161,163,-1,162,163,164,-1,164,163,165,-1,164,165,158,-1,158,165,166,-1,158,166,160,-1,167,168,169,-1,169,168,170,-1,157,159,161,-1,161,159,170,-1,161,170,171,-1,171,170,168,-1,171,168,172,-1,173,160,174,-1,174,160,166,-1,174,166,175,-1,175,166,176,-1,175,176,177,-1,177,176,178,-1,169,179,180,-1,180,181,169,-1,169,181,182,-1,169,182,167,-1,178,183,177,-1,177,183,184,-1,177,184,185,-1,185,186,177,-1,177,186,187,-1,177,187,188,-1,189,190,191,-1,192,193,191,-1,191,193,194,-1,191,194,189,-1,189,194,195,-1,189,195,196,-1,197,198,199,-1,200,193,201,-1,201,193,192,-1,201,192,202,-1,202,192,203,-1,202,203,204,-1,204,203,205,-1,204,205,206,-1,207,197,208,-1,208,197,199,-1,208,199,190,-1,190,199,206,-1,190,206,191,-1,191,206,205,-1,200,209,193,-1,193,209,210,-1,193,210,211,-1,211,210,212,-1,211,212,213,-1,214,215,216,-1,213,217,211,-1,211,217,218,-1,211,218,219,-1,214,216,208,-1,208,216,220,-1,208,220,207,-1,221,222,223,-1,223,222,224,-1,225,226,227,-1,227,226,228,-1,229,230,231,-1,232,233,234,-1,235,236,237,-1,237,232,235,-1,235,232,234,-1,235,234,238,-1,238,234,239,-1,240,241,242,-1,242,241,243,-1,242,243,244,-1,245,246,247,-1,229,231,248,-1,240,242,249,-1,249,242,250,-1,249,250,251,-1,251,250,252,-1,251,252,253,-1,253,252,254,-1,253,254,255,-1,255,254,256,-1,255,256,239,-1,239,256,257,-1,239,257,238,-1,258,248,259,-1,259,248,231,-1,259,231,260,-1,247,261,245,-1,245,261,244,-1,245,244,262,-1,262,244,243,-1,262,243,263,-1,263,243,264,-1,231,265,260,-1,260,265,266,-1,260,266,267,-1,267,266,268,-1,267,268,269,-1,269,268,270,-1,269,270,271,-1,271,270,272,-1,271,272,273,-1,273,272,274,-1,273,274,275,-1,275,274,244,-1,275,244,276,-1,276,244,261,-1,244,156,242,-1,242,156,155,-1,155,154,242,-1,242,154,2,-1,242,2,1,-1,277,278,226,-1,226,278,279,-1,226,279,228,-1,228,279,280,-1,228,280,231,-1,231,280,265,-1,281,11,13,-1,18,282,16,-1,16,282,281,-1,16,281,97,-1,97,281,13,-1,235,238,283,-1,283,238,284,-1,283,284,285,-1,285,284,286,-1,285,286,287,-1,287,286,288,-1,289,290,287,-1,291,292,293,-1,294,295,296,-1,289,287,297,-1,277,298,299,-1,300,301,302,-1,302,301,303,-1,304,297,305,-1,305,297,287,-1,305,287,306,-1,282,307,308,-1,307,282,309,-1,309,282,310,-1,309,310,311,-1,311,310,312,-1,311,312,313,-1,313,312,314,-1,313,314,315,-1,315,314,316,-1,315,316,317,-1,296,318,294,-1,294,318,281,-1,294,281,303,-1,303,281,282,-1,303,282,302,-1,302,282,308,-1,287,288,306,-1,306,288,319,-1,306,319,320,-1,320,319,321,-1,320,321,322,-1,322,321,323,-1,322,323,324,-1,324,323,325,-1,324,325,326,-1,326,325,327,-1,326,327,328,-1,328,327,281,-1,328,281,329,-1,329,281,318,-1,299,291,277,-1,277,291,293,-1,277,293,278,-1,278,293,317,-1,278,317,330,-1,330,317,316,-1,228,231,227,-1,227,231,230,-1,227,230,331,-1,235,283,236,-1,236,283,332,-1,236,332,333,-1,333,332,222,-1,333,222,331,-1,331,222,221,-1,331,221,227,-1,332,283,334,-1,334,283,285,-1,285,287,334,-1,334,287,290,-1,334,290,335,-1,277,226,298,-1,298,226,225,-1,298,225,336,-1,336,225,223,-1,336,223,335,-1,335,223,224,-1,335,224,334,-1,221,223,227,-1,227,223,225,-1,224,222,334,-1,334,222,332,-1,335,290,337,-1,337,290,289,-1,338,299,336,-1,336,299,298,-1,331,230,339,-1,339,230,229,-1,340,237,333,-1,333,237,236,-1,279,278,330,-1,279,330,341,-1,341,330,316,-1,341,316,342,-1,342,316,314,-1,342,314,343,-1,343,314,344,-1,344,314,312,-1,344,312,345,-1,345,312,346,-1,346,312,310,-1,346,310,347,-1,347,310,348,-1,348,310,282,-1,348,282,18,-1,343,349,342,-1,342,349,350,-1,342,350,341,-1,341,350,280,-1,341,280,279,-1,347,351,346,-1,346,351,352,-1,346,352,345,-1,345,352,353,-1,345,353,344,-1,344,353,354,-1,344,354,343,-1,343,354,355,-1,343,355,349,-1,153,152,347,-1,153,347,23,-1,23,347,348,-1,23,348,18,-1,5,4,351,-1,5,351,148,-1,152,151,347,-1,347,151,150,-1,347,150,351,-1,351,150,149,-1,351,149,148,-1,4,32,351,-1,351,32,25,-1,351,25,356,-1,356,25,156,-1,156,244,356,-1,356,244,274,-1,272,352,274,-1,274,352,351,-1,274,351,356,-1,355,354,272,-1,272,354,353,-1,272,353,352,-1,272,270,355,-1,355,270,268,-1,355,268,349,-1,349,268,266,-1,349,266,350,-1,350,266,265,-1,350,265,280,-1,256,357,257,-1,257,357,358,-1,257,358,238,-1,238,358,359,-1,238,359,284,-1,254,360,256,-1,256,360,361,-1,256,361,357,-1,252,362,254,-1,254,362,363,-1,254,363,360,-1,250,364,252,-1,252,364,365,-1,252,365,362,-1,1,366,242,-1,242,366,367,-1,242,367,250,-1,250,367,368,-1,250,368,364,-1,284,359,286,-1,286,359,369,-1,369,359,370,-1,370,359,358,-1,370,358,371,-1,371,358,357,-1,371,357,372,-1,372,357,361,-1,372,361,360,-1,362,365,373,-1,373,374,362,-1,362,374,375,-1,362,375,363,-1,363,375,376,-1,363,376,360,-1,360,376,377,-1,360,377,372,-1,33,367,0,-1,0,367,366,-1,0,366,1,-1,33,38,367,-1,367,38,95,-1,367,95,94,-1,365,364,373,-1,373,364,368,-1,373,368,378,-1,378,368,367,-1,378,367,379,-1,379,367,94,-1,379,94,92,-1,92,86,379,-1,379,86,87,-1,379,87,7,-1,7,6,379,-1,379,6,12,-1,379,12,380,-1,380,12,11,-1,11,281,380,-1,380,281,379,-1,379,281,378,-1,378,281,327,-1,378,327,373,-1,373,327,325,-1,373,325,374,-1,323,321,372,-1,372,377,323,-1,323,377,376,-1,323,376,325,-1,325,376,375,-1,325,375,374,-1,319,288,286,-1,286,369,319,-1,319,369,370,-1,319,370,321,-1,321,370,371,-1,321,371,372,-1,195,194,232,-1,232,194,233,-1,194,193,233,-1,233,193,234,-1,193,211,234,-1,234,211,239,-1,210,241,212,-1,212,241,240,-1,212,240,213,-1,213,240,249,-1,213,249,217,-1,217,249,251,-1,217,251,218,-1,218,251,253,-1,218,253,219,-1,219,253,255,-1,219,255,211,-1,211,255,239,-1,210,209,241,-1,241,209,243,-1,209,200,243,-1,243,200,264,-1,200,201,264,-1,264,201,263,-1,201,202,263,-1,263,202,262,-1,202,204,262,-1,262,204,245,-1,204,206,245,-1,245,206,246,-1,206,199,246,-1,246,199,247,-1,199,198,247,-1,247,198,261,-1,198,197,261,-1,261,197,276,-1,208,260,214,-1,214,260,267,-1,214,267,215,-1,215,267,269,-1,215,269,216,-1,216,269,271,-1,216,271,220,-1,220,271,273,-1,220,273,207,-1,207,273,275,-1,207,275,197,-1,197,275,276,-1,208,190,260,-1,260,190,259,-1,190,189,259,-1,259,189,258,-1,189,196,258,-1,258,196,248,-1,183,308,184,-1,184,308,307,-1,184,307,185,-1,185,307,309,-1,185,309,186,-1,186,309,311,-1,186,311,187,-1,187,311,313,-1,187,313,188,-1,188,313,315,-1,188,315,177,-1,177,315,317,-1,183,178,308,-1,308,178,302,-1,178,176,302,-1,302,176,300,-1,176,166,300,-1,300,166,301,-1,166,165,301,-1,301,165,303,-1,165,163,303,-1,303,163,294,-1,163,161,294,-1,294,161,295,-1,161,171,295,-1,295,171,296,-1,171,172,296,-1,296,172,318,-1,172,168,318,-1,318,168,329,-1,169,306,179,-1,179,306,320,-1,179,320,180,-1,180,320,322,-1,180,322,181,-1,181,322,324,-1,181,324,182,-1,182,324,326,-1,182,326,167,-1,167,326,328,-1,167,328,168,-1,168,328,329,-1,169,170,306,-1,306,170,305,-1,170,159,305,-1,305,159,304,-1,159,160,304,-1,304,160,297,-1,173,174,291,-1,291,174,292,-1,174,175,292,-1,292,175,293,-1,175,177,293,-1,293,177,317,-1,333,331,340,-1,340,331,339,-1,337,338,335,-1,335,338,336,-1,381,382,22,-1,22,382,23,-1,383,381,21,-1,21,381,22,-1,384,383,153,-1,153,383,21,-1,382,384,23,-1,23,384,153,-1,383,384,381,-1,381,384,382,-1,385,386,4,-1,4,386,32,-1,387,385,3,-1,3,385,4,-1,388,387,31,-1,31,387,3,-1,386,388,32,-1,32,388,31,-1,387,388,385,-1,385,388,386,-1,389,390,34,-1,34,390,33,-1,391,389,36,-1,36,389,34,-1,392,391,38,-1,38,391,36,-1,390,392,33,-1,33,392,38,-1,391,392,389,-1,389,392,390,-1,393,394,6,-1,6,394,12,-1,395,393,8,-1,8,393,6,-1,396,395,10,-1,10,395,8,-1,394,396,12,-1,12,396,10,-1,395,396,393,-1,393,396,394,-1,
        ]
    }
}
Shape{
    appearance Appearance {
        material  Material 	{
            diffuseColor 0.6470588235294118 0.6470588235294118 0.6470588235294118
            specularColor 0.3215686274509804 0.3215686274509804 0.3215686274509804
            ambientIntensity 0.6471
            transparency 0.0
            shininess 0.5
        }
    }
    geometry IndexedFaceSet {
        ccw TRUE
        solid FALSE
        coord DEF co Coordinate {
            point [
                4.5472 -0.6159 0.9277, 4.5472 0.6159 0.9277, 4.3504 -0.6159 0.9277, 4.3504 0.6159 0.9277, 4.5472 0.6159 0.5892, 4.5472 -0.6159 0.5892, 4.3504 -0.6159 0.5892, 4.3504 0.6159 0.5892, 4.5472 0.3937 0.3923, 4.5472 -0.3937 0.3923, 4.5472 -0.3937 0.1617, 4.5472 -0.0255 -1.378, 4.5472 0.1215 -0.0014, 4.5472 -0.0753 -1.367, 4.5472 -0.1215 -0.0014, 4.5472 -0.1215 -1.3457, 4.5472 0.2777 -0.0014, 4.5472 0.3937 0.1617, 4.5472 -0.2777 -0.0014, 4.5472 0.0255 -1.378, 4.5472 0.0753 -1.367, 4.5472 0.1215 -1.3457, 4.3504 -0.3937 0.3923, 4.3504 0.3937 0.3923, 4.3504 0.3937 0.1617, 4.3504 0.0255 -1.378, 4.3504 -0.1215 -0.0014, 4.3504 0.0753 -1.367, 4.3504 0.1215 -0.0014, 4.3504 0.1215 -1.3457, 4.3504 -0.2777 -0.0014, 4.3504 -0.3937 0.1617, 4.3504 0.2777 -0.0014, 4.3504 -0.0255 -1.378, 4.3504 -0.0753 -1.367, 4.3504 -0.1215 -1.3457, -4.5472 0.6159 0.9277, -4.5472 -0.6159 0.9277, -4.3504 0.6159 0.9277, -4.3504 -0.6159 0.9277, -4.5472 -0.6159 0.5892, -4.5472 0.6159 0.5892, -4.3504 0.6159 0.5892, -4.3504 -0.6159 0.5892, -4.3504 0.3937 0.3923, -4.3504 0.3937 0.1617, -4.5472 0.3937 0.3923, -4.5472 0.3937 0.1617, -4.5472 -0.3937 0.3923, -4.5472 -0.3937 0.1617, -4.3504 -0.3937 0.3923, -4.3504 -0.3937 0.1617, -4.5472 0.0255 -1.378, -4.5472 -0.1215 -0.0014, -4.5472 0.0753 -1.367, -4.5472 0.1215 -0.0014, -4.5472 0.1215 -1.3457, -4.5472 -0.2777 -0.0014, -4.5472 0.2777 -0.0014, -4.5472 -0.0255 -1.378, -4.5472 -0.0753 -1.367, -4.5472 -0.1215 -1.3457, -4.3504 -0.2777 -0.0014, -4.3504 -0.1215 -0.0014, -4.3504 0.0255 -1.378, -4.3504 0.0753 -1.367, -4.3504 0.2777 -0.0014, -4.3504 0.1215 -0.0014, -4.3504 -0.1215 -1.3457, -4.3504 -0.0753 -1.367, -4.3504 -0.0255 -1.378, -4.3504 0.1215 -1.3457, -3.2677 -1.2008 4.1325, -3.2677 -0.5359 3.5841, -3.2677 -1.2008 0.5892, -3.2677 -0.5359 2.4736, -3.2677 0.5359 3.5841, -3.2677 1.2008 4.1325, -3.2677 0.5359 2.4736, -3.2677 1.2008 0.5892, -3.2677 0.2383 1.239, -3.2677 0.1946 1.182, -3.2677 0.1376 1.1382, -3.2677 -0.2752 1.846, -3.2677 -0.2752 1.3766, -3.2677 -0.2658 1.3053, -3.2677 -0.2383 1.239, -3.2677 -0.1946 1.182, -3.2677 -0.1376 1.1382, -3.2677 -0.0712 1.1108, -3.2677 0.0 1.1014, -3.2677 0.0712 1.1108, -3.2677 0.2752 1.846, -3.2677 0.2752 1.3766, -3.2677 0.2658 1.3053, -3.0717 1.2008 4.1325, -3.0717 0.5359 3.5841, -3.0717 1.2008 0.9829, -3.0717 0.5359 2.4736, -3.0717 -0.5359 3.5841, -3.0717 -1.2008 4.1325, -3.0717 -0.5359 2.4736, -3.0717 -1.2008 0.9829, -3.0717 0.2752 1.846, -3.0717 0.2752 1.3766, -3.0717 0.2658 1.3053, -3.0717 0.2383 1.239, -3.0717 0.1946 1.182, -3.0717 0.1376 1.1382, -3.0717 0.0712 1.1108, -3.0717 0.0 1.1014, -3.0717 -0.0712 1.1108, -3.0717 -0.1376 1.1382, -3.0717 -0.1946 1.182, -3.0717 -0.2383 1.239, -3.0717 -0.2752 1.846, -3.0717 -0.2752 1.3766, -3.0717 -0.2658 1.3053, 3.2677 -0.5359 3.5841, 3.2677 -1.2008 4.1325, 3.2677 -0.5359 2.4736, 3.2677 -1.2008 0.5892, 3.2677 1.2008 4.1325, 3.2677 0.5359 3.5841, 3.2677 1.2008 0.5892, 3.2677 0.5359 2.4736, 3.2677 0.2752 1.846, 3.2677 0.2752 1.3766, 3.2677 0.2658 1.3053, 3.2677 0.2383 1.239, 3.2677 0.1946 1.182, 3.2677 0.1376 1.1382, 3.2677 -0.2383 1.239, 3.2677 -0.1946 1.182, 3.2677 -0.1376 1.1382, 3.2677 0.0712 1.1108, 3.2677 0.0 1.1014, 3.2677 -0.0712 1.1108, 3.2677 -0.2752 1.846, 3.2677 -0.2752 1.3766, 3.2677 -0.2658 1.3053, 3.0717 -1.2008 4.1325, 3.0717 -0.5359 3.5841, 3.0717 -1.2008 0.9829, 3.0717 -0.5359 2.4736, 3.0717 0.5359 3.5841, 3.0717 1.2008 4.1325, 3.0717 0.5359 2.4736, 3.0717 1.2008 0.9829, 3.0717 -0.2658 1.3053, 3.0717 -0.2383 1.239, 3.0717 -0.1946 1.182, 3.0717 -0.1376 1.1382, 3.0717 0.2383 1.239, 3.0717 0.1946 1.182, 3.0717 0.1376 1.1382, 3.0717 -0.2752 1.846, 3.0717 -0.2752 1.3766, 3.0717 -0.0712 1.1108, 3.0717 0.0 1.1014, 3.0717 0.0712 1.1108, 3.0717 0.2752 1.846, 3.0717 0.2752 1.3766, 3.0717 0.2658 1.3053
            ]
        }
        coordIndex [
            0,1,2,-1,2,1,3,-1,4,1,5,-1,5,1,0,-1,2,3,6,-1,6,3,7,-1,5,0,6,-1,6,0,2,-1,1,4,3,-1,3,4,7,-1,8,9,10,-1,11,12,13,-1,13,12,14,-1,13,14,15,-1,16,17,12,-1,12,17,8,-1,12,8,14,-1,14,8,10,-1,14,10,18,-1,11,19,12,-1,12,19,20,-1,12,20,21,-1,22,23,24,-1,25,26,27,-1,27,26,28,-1,27,28,29,-1,30,31,26,-1,26,31,22,-1,26,22,28,-1,28,22,24,-1,28,24,32,-1,25,33,26,-1,26,33,34,-1,26,34,35,-1,22,31,9,-1,9,31,10,-1,8,17,23,-1,23,17,24,-1,18,10,30,-1,30,10,31,-1,14,18,26,-1,26,18,30,-1,15,14,35,-1,35,14,26,-1,15,35,34,-1,15,34,13,-1,13,34,33,-1,13,33,11,-1,11,33,25,-1,11,25,19,-1,19,25,27,-1,19,27,20,-1,20,27,29,-1,20,29,21,-1,12,21,28,-1,28,21,29,-1,16,12,32,-1,32,12,28,-1,17,16,24,-1,24,16,32,-1,36,37,38,-1,38,37,39,-1,40,37,41,-1,41,37,36,-1,38,39,42,-1,42,39,43,-1,37,40,39,-1,39,40,43,-1,41,36,42,-1,42,36,38,-1,44,45,46,-1,46,45,47,-1,48,49,50,-1,50,49,51,-1,48,46,47,-1,52,53,54,-1,54,53,55,-1,54,55,56,-1,57,49,53,-1,53,49,48,-1,53,48,55,-1,55,48,47,-1,55,47,58,-1,52,59,53,-1,53,59,60,-1,53,60,61,-1,51,62,63,-1,63,64,65,-1,66,45,67,-1,67,45,44,-1,68,69,63,-1,63,69,70,-1,63,70,64,-1,50,51,44,-1,44,51,63,-1,44,63,67,-1,67,63,65,-1,67,65,71,-1,58,47,66,-1,66,47,45,-1,55,58,67,-1,67,58,66,-1,56,55,71,-1,71,55,67,-1,56,71,65,-1,56,65,54,-1,54,65,64,-1,54,64,52,-1,52,64,70,-1,52,70,59,-1,59,70,69,-1,59,69,60,-1,60,69,68,-1,60,68,61,-1,53,61,63,-1,63,61,68,-1,57,53,62,-1,62,53,63,-1,49,57,51,-1,51,57,62,-1,72,73,74,-1,74,73,75,-1,76,77,78,-1,78,77,79,-1,80,79,81,-1,81,79,82,-1,75,83,74,-1,74,83,84,-1,74,84,85,-1,85,86,74,-1,74,86,87,-1,74,87,88,-1,88,89,74,-1,74,89,90,-1,74,90,79,-1,79,90,91,-1,79,91,82,-1,92,78,93,-1,93,78,79,-1,93,79,94,-1,94,79,80,-1,95,96,97,-1,97,96,98,-1,99,100,101,-1,101,100,102,-1,98,103,97,-1,97,103,104,-1,97,104,105,-1,105,106,97,-1,97,106,107,-1,97,107,108,-1,108,109,97,-1,97,109,110,-1,97,110,102,-1,102,110,111,-1,111,112,102,-1,102,112,113,-1,102,113,114,-1,115,101,116,-1,116,101,102,-1,116,102,117,-1,117,102,114,-1,118,119,120,-1,120,119,121,-1,122,123,124,-1,124,123,125,-1,125,126,124,-1,124,126,127,-1,124,127,128,-1,128,129,124,-1,124,129,130,-1,124,130,131,-1,132,121,133,-1,133,121,134,-1,131,135,124,-1,124,135,136,-1,124,136,121,-1,121,136,137,-1,121,137,134,-1,138,120,139,-1,139,120,121,-1,139,121,140,-1,140,121,132,-1,141,142,143,-1,143,142,144,-1,145,146,147,-1,147,146,148,-1,149,150,143,-1,143,150,151,-1,143,151,152,-1,153,148,154,-1,154,148,155,-1,144,156,143,-1,143,156,157,-1,143,157,149,-1,152,158,143,-1,143,158,159,-1,143,159,148,-1,148,159,160,-1,148,160,155,-1,161,147,162,-1,162,147,148,-1,162,148,163,-1,163,148,153,-1,141,119,142,-1,142,119,118,-1,142,118,144,-1,144,118,120,-1,144,120,156,-1,156,120,138,-1,156,138,157,-1,157,138,139,-1,157,139,149,-1,149,139,140,-1,149,140,150,-1,150,140,132,-1,150,132,151,-1,151,132,133,-1,151,133,152,-1,152,133,134,-1,152,134,158,-1,158,134,137,-1,158,137,159,-1,159,137,136,-1,159,136,160,-1,160,136,135,-1,160,135,155,-1,155,135,131,-1,155,131,154,-1,154,131,130,-1,154,130,153,-1,153,130,129,-1,153,129,163,-1,163,129,128,-1,163,128,162,-1,162,128,127,-1,162,127,161,-1,161,127,126,-1,161,126,147,-1,147,126,125,-1,147,125,145,-1,145,125,123,-1,145,123,146,-1,146,123,122,-1,95,77,96,-1,96,77,76,-1,96,76,98,-1,98,76,78,-1,98,78,103,-1,103,78,92,-1,103,92,104,-1,104,92,93,-1,84,116,85,-1,85,116,117,-1,85,117,86,-1,86,117,114,-1,86,114,87,-1,87,114,113,-1,87,113,88,-1,88,113,112,-1,88,112,89,-1,89,112,111,-1,89,111,90,-1,90,111,110,-1,90,110,91,-1,91,110,109,-1,91,109,82,-1,82,109,108,-1,82,108,81,-1,81,108,107,-1,81,107,80,-1,80,107,106,-1,80,106,94,-1,94,106,105,-1,94,105,93,-1,93,105,104,-1,116,84,115,-1,115,84,83,-1,115,83,101,-1,101,83,75,-1,101,75,99,-1,99,75,73,-1,99,73,100,-1,100,73,72,-1,
        ]
    }
}
Shape{
    appearance Appearance {
        material  Material 	{
            diffuseColor 0.0 0.0 0.0
            specularColor 0.0 0.0 0.0
            ambientIntensity 0.0
            transparency 0.0
            shininess 0.5
        }
    }
    geometry IndexedFaceSet {
        ccw TRUE
        solid FALSE
        coord DEF co Coordinate {
            point [
                0.5482 -0.6931 0.3884, 0.5482 -0.7147 0.3884, 0.5482 -0.6931 0.3923, 0.5482 -0.7147 0.3923, 0.6226 -0.6931 0.3884, 0.6226 -0.6931 0.3923, 0.6226 -0.5178 0.3884, 0.6226 -0.5178 0.3923, 0.649 -0.5178 0.3884, 0.649 -0.5178 0.3923, 0.649 -0.7147 0.3884, 0.649 -0.7147 0.3923, 0.3849 -0.6829 0.3884, 0.3849 -0.7045 0.3884, 0.3849 -0.6829 0.3923, 0.3849 -0.7045 0.3923, 0.3885 -0.6848 0.3923, 0.3885 -0.6848 0.3884, 0.4093 -0.6926 0.3923, 0.4093 -0.6926 0.3884, 0.4355 -0.6955 0.3923, 0.4355 -0.6955 0.3884, 0.4538 -0.6934 0.3923, 0.4538 -0.6934 0.3884, 0.4682 -0.6881 0.3923, 0.4682 -0.6881 0.3884, 0.4802 -0.68 0.3923, 0.4802 -0.68 0.3884, 0.4895 -0.6702 0.3923, 0.4895 -0.6702 0.3884, 0.4976 -0.6566 0.3923, 0.4976 -0.6566 0.3884, 0.503 -0.6397 0.3923, 0.503 -0.6397 0.3884, 0.505 -0.6184 0.3923, 0.505 -0.6184 0.3884, 0.504 -0.603 0.3923, 0.504 -0.603 0.3884, 0.4988 -0.582 0.3923, 0.4988 -0.582 0.3884, 0.4907 -0.5668 0.3923, 0.4907 -0.5668 0.3884, 0.4788 -0.5536 0.3923, 0.4788 -0.5536 0.3884, 0.4652 -0.5445 0.3923, 0.4652 -0.5445 0.3884, 0.4504 -0.5392 0.3923, 0.4504 -0.5392 0.3884, 0.431 -0.537 0.3923, 0.431 -0.537 0.3884, 0.4071 -0.5401 0.3923, 0.4071 -0.5401 0.3884, 0.3849 -0.5496 0.3923, 0.3849 -0.5496 0.3884, 0.3849 -0.5232 0.3884, 0.3849 -0.5232 0.3923, 0.4313 -0.5154 0.3923, 0.4313 -0.5154 0.3884, 0.4139 -0.5166 0.3923, 0.4077 -0.5171 0.3884, 0.4077 -0.5171 0.3923, 0.451 -0.517 0.3884, 0.446 -0.5166 0.3923, 0.451 -0.517 0.3923, 0.473 -0.5234 0.3923, 0.473 -0.5234 0.3884, 0.4917 -0.5342 0.3923, 0.4917 -0.5342 0.3884, 0.5094 -0.5513 0.3923, 0.5094 -0.5513 0.3884, 0.521 -0.5697 0.3923, 0.521 -0.5697 0.3884, 0.5285 -0.592 0.3923, 0.5285 -0.592 0.3884, 0.5314 -0.62 0.3923, 0.5314 -0.62 0.3884, 0.5295 -0.6428 0.3923, 0.5295 -0.6428 0.3884, 0.5235 -0.6636 0.3923, 0.5235 -0.6636 0.3884, 0.5131 -0.6823 0.3923, 0.5131 -0.6823 0.3884, 0.4983 -0.6979 0.3923, 0.4983 -0.6979 0.3884, 0.4824 -0.708 0.3923, 0.4824 -0.708 0.3884, 0.4634 -0.7146 0.3923, 0.4634 -0.7146 0.3884, 0.4391 -0.7171 0.3884, 0.4507 -0.7159 0.3923, 0.4391 -0.7171 0.3923, 0.4059 -0.7131 0.3884, 0.4337 -0.717 0.3923, 0.4337 -0.717 0.3884, 0.4258 -0.7159 0.3923, 0.4059 -0.7131 0.3923, 0.2409 -0.6931 0.3884, 0.2409 -0.7147 0.3884, 0.2409 -0.6931 0.3923, 0.2409 -0.7147 0.3923, 0.3201 -0.6931 0.3884, 0.3201 -0.6931 0.3923, 0.3201 -0.6259 0.3884, 0.3201 -0.6259 0.3923, 0.2505 -0.6259 0.3884, 0.2505 -0.6259 0.3923, 0.2505 -0.6043 0.3884, 0.2505 -0.6043 0.3923, 0.3201 -0.6043 0.3884, 0.3201 -0.6043 0.3923, 0.3201 -0.5394 0.3884, 0.3201 -0.5394 0.3923, 0.2457 -0.5394 0.3884, 0.2457 -0.5394 0.3923, 0.2457 -0.5178 0.3884, 0.2457 -0.5178 0.3923, 0.3465 -0.5178 0.3884, 0.3465 -0.5178 0.3923, 0.3465 -0.7147 0.3884, 0.3465 -0.7147 0.3923, 0.0508 -0.5759 0.3884, 0.0599 -0.5589 0.3884, 0.0836 -0.567 0.3884, 0.0738 -0.5435 0.3884, 0.0931 -0.5569 0.3884, 0.074 -0.5433 0.3884, 0.1075 -0.5476 0.3884, 0.0955 -0.529 0.3884, 0.1238 -0.5419 0.3884, 0.1185 -0.5209 0.3884, 0.1471 -0.5394 0.3884, 0.1469 -0.5178 0.3884, 0.1761 -0.5394 0.3884, 0.2025 -0.5178 0.3884, 0.1761 -0.6931 0.3884, 0.2025 -0.7147 0.3884, 0.1481 -0.6931 0.3884, 0.149 -0.7147 0.3884, 0.1274 -0.6911 0.3884, 0.1246 -0.7126 0.3884, 0.1108 -0.686 0.3884, 0.1019 -0.7058 0.3884, 0.0974 -0.678 0.3884, 0.0814 -0.6939 0.3884, 0.0863 -0.6671 0.3884, 0.0652 -0.6783 0.3884, 0.078 -0.6535 0.3884, 0.0539 -0.6607 0.3884, 0.0723 -0.635 0.3884, 0.0468 -0.6401 0.3884, 0.0705 -0.6143 0.3884, 0.0441 -0.6138 0.3884, 0.0721 -0.5948 0.3884, 0.0455 -0.5953 0.3884, 0.0767 -0.5792 0.3884, 0.149 -0.7147 0.3923, 0.2025 -0.7147 0.3923, 0.1246 -0.7126 0.3923, 0.1019 -0.7058 0.3923, 0.0814 -0.6939 0.3923, 0.0652 -0.6783 0.3923, 0.0539 -0.6607 0.3923, 0.0468 -0.6401 0.3923, 0.0441 -0.6138 0.3923, 0.0455 -0.5953 0.3923, 0.0508 -0.5759 0.3923, 0.0599 -0.5589 0.3923, 0.0738 -0.5435 0.3923, 0.074 -0.5433 0.3923, 0.0955 -0.529 0.3923, 0.1185 -0.5209 0.3923, 0.1469 -0.5178 0.3923, 0.2025 -0.5178 0.3923, 0.1471 -0.5394 0.3923, 0.1761 -0.5394 0.3923, 0.1761 -0.6931 0.3923, 0.1481 -0.6931 0.3923, 0.0705 -0.6143 0.3923, 0.0723 -0.635 0.3923, 0.078 -0.6535 0.3923, 0.0863 -0.6671 0.3923, 0.0974 -0.678 0.3923, 0.1108 -0.686 0.3923, 0.1274 -0.6911 0.3923, 0.1238 -0.5419 0.3923, 0.1075 -0.5476 0.3923, 0.0931 -0.5569 0.3923, 0.0836 -0.567 0.3923, 0.0767 -0.5792 0.3923, 0.0721 -0.5948 0.3923
            ]
        }
        coordIndex [
            0,1,2,-1,2,1,3,-1,4,0,5,-1,5,0,2,-1,6,4,7,-1,7,4,5,-1,8,6,9,-1,9,6,7,-1,10,8,11,-1,11,8,9,-1,1,10,3,-1,3,10,11,-1,6,8,4,-1,4,8,10,-1,4,10,0,-1,0,10,1,-1,12,13,14,-1,14,13,15,-1,12,14,16,-1,12,16,17,-1,17,16,18,-1,17,18,19,-1,19,18,20,-1,19,20,21,-1,21,20,22,-1,21,22,23,-1,23,22,24,-1,23,24,25,-1,25,24,26,-1,25,26,27,-1,27,26,28,-1,27,28,29,-1,29,28,30,-1,29,30,31,-1,31,30,32,-1,31,32,33,-1,33,32,34,-1,33,34,35,-1,35,34,36,-1,35,36,37,-1,37,36,38,-1,37,38,39,-1,39,38,40,-1,39,40,41,-1,41,40,42,-1,41,42,43,-1,43,42,44,-1,43,44,45,-1,45,44,46,-1,45,46,47,-1,47,46,48,-1,47,48,49,-1,49,48,50,-1,49,50,51,-1,51,50,52,-1,51,52,53,-1,54,53,55,-1,55,53,52,-1,56,57,58,-1,58,57,59,-1,58,59,60,-1,60,59,54,-1,60,54,55,-1,57,56,61,-1,61,56,62,-1,62,63,61,-1,61,63,64,-1,61,64,65,-1,65,64,66,-1,65,66,67,-1,67,66,68,-1,67,68,69,-1,69,68,70,-1,69,70,71,-1,71,70,72,-1,71,72,73,-1,73,72,74,-1,73,74,75,-1,75,74,76,-1,75,76,77,-1,77,76,78,-1,77,78,79,-1,79,78,80,-1,79,80,81,-1,81,80,82,-1,81,82,83,-1,83,82,84,-1,83,84,85,-1,85,84,86,-1,85,86,87,-1,87,86,88,-1,88,86,89,-1,88,89,90,-1,15,13,91,-1,88,90,92,-1,88,92,93,-1,93,92,94,-1,93,94,91,-1,91,94,95,-1,91,95,15,-1,23,88,21,-1,21,88,93,-1,21,93,19,-1,19,93,91,-1,19,91,17,-1,17,91,13,-1,17,13,12,-1,53,54,51,-1,51,54,59,-1,51,59,49,-1,49,59,57,-1,49,57,47,-1,47,57,61,-1,47,61,45,-1,45,61,65,-1,45,65,43,-1,43,65,67,-1,43,67,41,-1,41,67,69,-1,41,69,39,-1,39,69,71,-1,39,71,37,-1,37,71,73,-1,37,73,35,-1,35,73,75,-1,35,75,33,-1,33,75,77,-1,33,77,31,-1,31,77,79,-1,31,79,29,-1,29,79,81,-1,29,81,27,-1,27,81,83,-1,27,83,25,-1,25,83,85,-1,25,85,23,-1,23,85,87,-1,23,87,88,-1,96,97,98,-1,98,97,99,-1,100,96,101,-1,101,96,98,-1,102,100,103,-1,103,100,101,-1,104,102,105,-1,105,102,103,-1,106,104,107,-1,107,104,105,-1,108,106,109,-1,109,106,107,-1,110,108,111,-1,111,108,109,-1,112,110,113,-1,113,110,111,-1,114,112,115,-1,115,112,113,-1,116,114,117,-1,117,114,115,-1,118,116,119,-1,119,116,117,-1,97,118,99,-1,99,118,119,-1,118,97,96,-1,96,100,118,-1,118,100,102,-1,118,102,116,-1,112,114,110,-1,110,114,116,-1,110,116,108,-1,108,116,102,-1,108,102,106,-1,106,102,104,-1,120,121,122,-1,122,121,123,-1,122,123,124,-1,124,123,125,-1,124,125,126,-1,126,125,127,-1,126,127,128,-1,128,127,129,-1,128,129,130,-1,130,129,131,-1,130,131,132,-1,132,131,133,-1,132,133,134,-1,134,133,135,-1,134,135,136,-1,136,135,137,-1,136,137,138,-1,138,137,139,-1,138,139,140,-1,140,139,141,-1,140,141,142,-1,142,141,143,-1,142,143,144,-1,144,143,145,-1,144,145,146,-1,146,145,147,-1,146,147,148,-1,148,147,149,-1,148,149,150,-1,150,149,151,-1,150,151,152,-1,152,151,153,-1,152,153,154,-1,154,153,120,-1,154,120,122,-1,137,135,155,-1,155,135,156,-1,137,155,157,-1,137,157,139,-1,139,157,158,-1,139,158,141,-1,141,158,159,-1,141,159,143,-1,143,159,160,-1,143,160,145,-1,145,160,161,-1,145,161,147,-1,147,161,162,-1,147,162,149,-1,149,162,163,-1,149,163,151,-1,151,163,164,-1,151,164,153,-1,153,164,165,-1,153,165,120,-1,120,165,166,-1,120,166,121,-1,121,166,167,-1,121,167,123,-1,123,167,168,-1,123,168,125,-1,125,168,169,-1,125,169,127,-1,127,169,170,-1,127,170,129,-1,129,170,171,-1,129,171,131,-1,133,131,172,-1,172,131,171,-1,135,133,156,-1,156,133,172,-1,130,132,173,-1,173,132,174,-1,132,134,174,-1,174,134,175,-1,134,136,175,-1,175,136,176,-1,150,177,178,-1,150,178,148,-1,148,178,179,-1,148,179,146,-1,146,179,180,-1,146,180,144,-1,144,180,181,-1,144,181,142,-1,142,181,182,-1,142,182,140,-1,140,182,183,-1,140,183,138,-1,138,183,176,-1,138,176,136,-1,130,173,184,-1,130,184,128,-1,128,184,185,-1,128,185,126,-1,126,185,186,-1,126,186,124,-1,124,186,187,-1,124,187,122,-1,122,187,188,-1,122,188,154,-1,154,188,189,-1,154,189,152,-1,152,189,177,-1,152,177,150,-1,
        ]
    }
}
Shape{
    appearance Appearance {
        material  Material 	{
            diffuseColor 0.0 1.0 0.9803921568627451
            specularColor 0.0 0.5019607843137255 0.49019607843137253
            ambientIntensity 0.6988
            transparency 0.0
            shininess 0.5
        }
    }
    geometry IndexedFaceSet {
        ccw TRUE
        solid FALSE
        coord DEF co Coordinate {
            point [
                0.1761 -0.5394 0.3923, 0.1761 -0.6931 0.3923, 0.1471 -0.5394 0.3923, 0.1481 -0.6931 0.3923, 0.1274 -0.6911 0.3923, 0.0705 -0.6143 0.3923, 0.0721 -0.5948 0.3923, 0.0767 -0.5792 0.3923, 0.1238 -0.5419 0.3923, 0.1108 -0.686 0.3923, 0.0974 -0.678 0.3923, 0.0863 -0.6671 0.3923, 0.078 -0.6535 0.3923, 0.0723 -0.635 0.3923, 0.0836 -0.567 0.3923, 0.0931 -0.5569 0.3923, 0.1075 -0.5476 0.3923
            ]
        }
        coordIndex [
            0,1,2,-1,2,1,3,-1,2,3,4,-1,5,6,2,-1,2,6,7,-1,2,7,8,-1,4,9,2,-1,2,9,10,-1,2,10,11,-1,11,12,2,-1,2,12,13,-1,2,13,5,-1,14,15,7,-1,7,15,16,-1,7,16,8,-1,
        ]
    }
}
Shape{
    appearance Appearance {
        material  Material 	{
            diffuseColor 0.0 0.0 0.0
            specularColor 0.0 0.0 0.0
            ambientIntensity 0.0
            transparency 0.0
            shininess 0.5
        }
    }
    geometry IndexedFaceSet {
        ccw TRUE
        solid FALSE
        coord DEF co Coordinate {
            point [
                -0.0246 -0.6379 0.3884, -0.018 -0.6595 0.3884, -0.0904 -0.6379 0.3884, -0.0993 -0.6595 0.3884, -0.054 -0.5556 0.3884, -0.0448 -0.5178 0.3884, 0.0296 -0.7147 0.3884, 0.0008 -0.7147 0.3884, -0.0559 -0.5488 0.3884, -0.0571 -0.5418 0.3884, -0.0712 -0.5178 0.3884, -0.0577 -0.5418 0.3884, -0.059 -0.5488 0.3884, -0.0608 -0.5556 0.3884, -0.148 -0.7147 0.3884, -0.1192 -0.7147 0.3884, -0.0712 -0.5178 0.3923, -0.148 -0.7147 0.3923, -0.0448 -0.5178 0.3923, 0.0296 -0.7147 0.3923, 0.0008 -0.7147 0.3923, -0.018 -0.6595 0.3923, -0.0993 -0.6595 0.3923, -0.1192 -0.7147 0.3923, -0.0246 -0.6379 0.3923, -0.0904 -0.6379 0.3923, -0.0608 -0.5556 0.3923, -0.0577 -0.5418 0.3923, -0.059 -0.5488 0.3923, -0.0571 -0.5418 0.3923, -0.054 -0.5556 0.3923, -0.0559 -0.5488 0.3923
            ]
        }
        coordIndex [
            0,1,2,-1,2,1,3,-1,4,5,0,-1,0,5,6,-1,0,6,1,-1,1,6,7,-1,4,8,5,-1,5,8,9,-1,5,9,10,-1,10,9,11,-1,10,11,12,-1,12,13,10,-1,10,13,2,-1,10,2,14,-1,14,2,3,-1,14,3,15,-1,10,14,16,-1,16,14,17,-1,5,10,18,-1,18,10,16,-1,6,5,19,-1,19,5,18,-1,7,6,20,-1,20,6,19,-1,1,7,21,-1,21,7,20,-1,3,1,22,-1,22,1,21,-1,15,3,23,-1,23,3,22,-1,14,15,17,-1,17,15,23,-1,0,2,24,-1,24,2,25,-1,2,13,25,-1,25,13,26,-1,11,27,28,-1,11,28,12,-1,12,28,26,-1,12,26,13,-1,11,9,27,-1,27,9,29,-1,4,30,31,-1,4,31,8,-1,8,31,29,-1,8,29,9,-1,4,0,30,-1,30,0,24,-1,
        ]
    }
}
Shape{
    appearance Appearance {
        material  Material 	{
            diffuseColor 0.0 1.0 0.9803921568627451
            specularColor 0.0 0.5019607843137255 0.49019607843137253
            ambientIntensity 0.6988
            transparency 0.0
            shininess 0.5
        }
    }
    geometry IndexedFaceSet {
        ccw TRUE
        solid FALSE
        coord DEF co Coordinate {
            point [
                -0.0246 -0.6379 0.3923, -0.0904 -0.6379 0.3923, -0.054 -0.5556 0.3923, -0.0608 -0.5556 0.3923, -0.0559 -0.5488 0.3923, -0.059 -0.5488 0.3923, -0.0571 -0.5418 0.3923, -0.0577 -0.5418 0.3923
            ]
        }
        coordIndex [
            0,1,2,-1,2,1,3,-1,2,3,4,-1,4,3,5,-1,4,5,6,-1,6,5,7,-1,
        ]
    }
}
Shape{
    appearance Appearance {
        material  Material 	{
            diffuseColor 0.0 0.9215686274509803 0.9372549019607843
            specularColor 0.0 0.8117647058823529 0.8235294117647058
            ambientIntensity 0.6478
            transparency 0.0
            shininess 0.5
        }
    }
    geometry IndexedFaceSet {
        ccw TRUE
        solid FALSE
        coord DEF co Coordinate {
            point [
                3.4665 0.2589 4.5262, 3.4665 1.752 4.5262, 2.9624 1.752 4.5262, -4.7455 1.7927 4.5262, -4.7695 1.7614 4.5262, -4.7695 1.752 4.5262, -4.7768 1.752 4.5262, -2.5591 -1.6535 4.5262, -2.5591 0.2589 4.5262, -2.8274 0.2589 4.5262, 3.7068 0.2589 4.5262, 3.8698 0.2589 4.5262, 3.8698 1.752 4.5262, -3.442 0.2589 4.5262, -3.5688 0.2589 4.5262, -3.5126 0.2472 4.5262, -3.5564 -0.0376 4.5262, -3.5246 -0.0672 4.5262, -3.5126 0.1665 4.5262, -3.7753 0.0074 4.5262, -3.7997 0.0307 4.5262, -3.8285 -0.1931 4.5262, -3.8155 0.0556 4.5262, -3.5062 -0.0947 4.5262, -3.496 -0.1224 4.5262, -3.4924 -0.1535 4.5262, -3.8254 0.0844 4.5262, -3.8285 0.1144 4.5262, -3.8823 0.2589 4.5262, -3.8236 0.1525 4.5262, -3.8128 0.1789 4.5262, -3.7955 0.2028 4.5262, -3.7718 0.2234 4.5262, -3.7408 0.2412 4.5262, -3.4968 -0.1922 4.5262, -3.442 -1.8504 4.5262, -3.507 -0.2202 4.5262, -3.5248 -0.246 4.5262, -3.5478 -0.2661 4.5262, -3.6375 0.0098 4.5262, -3.5543 0.1881 4.5262, -3.6887 0.037 4.5262, -3.6014 0.1994 4.5262, -3.6395 0.2018 4.5262, -3.8285 -0.2738 4.5262, -3.8823 -1.8504 4.5262, -3.8108 -0.2822 4.5262, -3.7607 -0.295 4.5262, -3.6938 -0.042 4.5262, -3.7882 -0.2179 4.5262, -3.6188 -0.0817 4.5262, -3.723 -0.2379 4.5262, -3.6112 -0.0866 4.5262, -3.6816 -0.2418 4.5262, -3.6415 -0.2387 4.5262, -3.579 -0.2832 4.5262, -3.6328 -0.2982 4.5262, -3.6898 -0.3023 4.5262, -3.7463 0.0854 4.5262, -3.7521 0.1006 4.5262, -3.7546 0.1217 4.5262, -3.737 0.0718 4.5262, -3.7201 0.0569 4.5262, -3.6136 -0.2312 4.5262, -3.5938 -0.2203 4.5262, -3.5823 -0.2095 4.5262, -3.7399 0.1651 4.5262, -3.748 0.1525 4.5262, -3.7528 0.1384 4.5262, -3.575 -0.1985 4.5262, -3.5687 -0.1813 4.5262, -3.5664 -0.1596 4.5262, -3.5687 -0.14 4.5262, -3.575 -0.1244 4.5262, -3.5885 -0.1059 4.5262, -3.678 0.1983 4.5262, -3.7073 0.1889 4.5262, -3.7274 0.1771 4.5262, -3.6945 0.2564 4.5262, -3.668 0.2589 4.5262, -3.8823 1.752 4.5262, -3.6336 0.2623 4.5262, -3.442 1.752 4.5262, -3.5724 0.2597 4.5262, 3.8227 -0.2365 4.5262, 3.8227 -0.2956 4.5262, 3.4934 -0.2956 4.5262, 3.4665 -1.8504 4.5262, 3.8698 -1.8504 4.5262, 3.5203 0.1396 4.5262, 3.5203 0.2136 4.5262, 3.7607 0.0831 4.5262, 3.5222 0.1414 4.5262, 3.7515 0.0492 4.5262, 3.7253 0.0034 4.5262, 3.7139 0.2583 4.5262, 3.7485 0.2474 4.5262, 3.7762 0.231 4.5262, 3.8 0.2077 4.5262, 3.816 0.1814 4.5262, 3.826 0.1504 4.5262, 3.8295 0.1136 4.5262, 3.8225 0.0624 4.5262, 3.8011 0.0108 4.5262, 3.5756 -0.2351 4.5262, 3.5756 -0.2365 4.5262, 3.6993 -0.1128 4.5262, 3.7376 -0.0726 4.5262, 3.6522 -0.0787 4.5262, 3.4934 -0.2379 4.5262, 3.7622 0.1051 4.5262, 3.7599 0.1307 4.5262, 3.571 0.1774 4.5262, 3.6152 0.1958 4.5262, 3.7538 0.1511 4.5262, 3.7439 0.168 4.5262, 3.6921 0.1988 4.5262, 3.7311 0.1811 4.5262, 3.7152 0.1911 4.5262, 3.6602 0.2018 4.5262, 3.5725 0.2436 4.5262, 3.6275 0.2589 4.5262, 3.6282 0.2591 4.5262, 3.6704 0.2623 4.5262, 4.1385 0.2581 4.5262, 4.171 0.2467 4.5262, 4.8031 0.2589 4.5262, 4.1996 0.2277 4.5262, 4.0467 -0.2981 4.5262, 4.0149 -0.2867 4.5262, 3.9872 -0.2684 4.5262, 3.9601 -0.2386 4.5262, 3.9359 -0.1941 4.5262, 3.9436 0.1613 4.5262, 3.9669 0.2001 4.5262, 3.9928 0.2271 4.5262, 4.0183 0.2441 4.5262, 4.2218 0.2036 4.5262, 4.2449 0.1622 4.5262, 4.2647 0.0919 4.5262, 4.6063 -1.8504 4.5262, 4.1268 -0.298 4.5262, 4.0859 -0.3023 4.5262, 4.2731 -0.0177 4.5262, 4.2648 -0.1199 4.5262, 4.8031 -1.6535 4.5262, 4.2443 -0.1911 4.5262, 4.219 -0.236 4.5262, 3.9165 -0.1206 4.5262, 3.9101 -0.0307 4.5262, 3.9189 0.0795 4.5262, 4.6572 -1.8437 4.5262, 4.7047 -1.824 4.5262, 4.7455 -1.7927 4.5262, 4.1919 -0.2655 4.5262, 4.1613 -0.2859 4.5262, 4.7964 -1.7045 4.5262, 4.7768 -1.752 4.5262, 4.0519 0.2569 4.5262, 4.0696 0.2589 4.5262, 4.0983 0.2623 4.5262, 4.1303 0.2589 4.5262, 4.8031 1.6535 4.5262, 2.5591 -1.6535 4.5262, -2.8274 -1.8504 4.5262, 2.5591 1.6535 4.5262, 2.5591 0.2589 4.5262, 2.5893 0.2589 4.5262, 2.5893 -1.8504 4.5262, 2.5893 1.752 4.5262, -2.8274 1.752 4.5262, -2.5591 1.6535 4.5262, -4.7964 1.7045 4.5262, -4.8031 1.6535 4.5262, -4.7695 0.2589 4.5262, -4.4032 1.8504 4.5262, -4.6063 1.8504 4.5262, -4.4032 1.752 4.5262, -4.6572 1.8437 4.5262, -4.7047 1.824 4.5262, 4.7964 1.7045 4.5262, 4.7768 1.752 4.5262, 4.6063 1.8504 4.5262, 4.7455 1.7927 4.5262, 4.6572 1.8437 4.5262, 4.7047 1.824 4.5262, -4.662 0.1951 4.5262, -4.662 0.0069 4.5262, -4.4536 0.1951 4.5262, -4.4671 0.0069 4.5262, -4.4671 -0.0536 4.5262, -4.662 -0.0536 4.5262, -4.662 -0.2956 4.5262, -4.4032 -1.8504 4.5262, -4.4032 0.2589 4.5262, -4.4536 0.2556 4.5262, -4.7047 -1.824 4.5262, -4.6572 -1.8437 4.5262, -4.6063 -1.8504 4.5262, -4.7359 0.2556 4.5262, -4.7359 -0.2956 4.5262, -4.7695 -1.7614 4.5262, -4.7455 -1.7927 4.5262, -4.8031 0.2589 4.5262, -4.8031 -1.6535 4.5262, -4.7964 -1.7045 4.5262, -4.7768 -1.752 4.5262, 2.5893 1.8504 4.5262, 2.9624 1.8504 4.5262, 3.4665 1.8504 4.5262, 3.8698 1.8504 4.5262, -2.8274 1.8504 4.5262, -3.442 1.8504 4.5262, -3.8823 1.8504 4.5262, 3.3589 0.2556 4.5262, 3.4396 0.2556 4.5262, 3.264 -0.0177 4.5262, 3.4396 -0.2956 4.5262, 3.202 -0.0893 4.5262, 3.0766 -0.2956 4.5262, 2.9624 -1.8504 4.5262, 3.0901 0.2556 4.5262, 2.9624 0.2589 4.5262, 3.0027 0.2556 4.5262, 2.9892 -0.2956 4.5262, 3.1718 -0.0188 4.5262, 3.3522 -0.2956 4.5262, 3.2095 0.0464 4.5262, 3.2186 0.0266 4.5262, 3.2201 0.0266 4.5262, 3.2304 0.0472 4.5262, 3.2417 0.0674 4.5262, 3.1993 0.0656 4.5262, 3.2222 -0.0749 4.5262, 3.2164 -0.0606 4.5262, 3.2146 -0.0606 4.5262, 3.2289 -0.0889 4.5262, 3.2085 -0.075 4.5262, 2.8969 -0.2382 4.5262, 2.8654 -0.2673 4.5262, 2.6196 -0.2065 4.5262, 2.6196 -0.2805 4.5262, 2.6337 -0.2871 4.5262, 2.6769 -0.2983 4.5262, 2.7255 -0.02 4.5262, 2.7247 -0.2416 4.5262, 2.7351 -0.2418 4.5262, 2.6748 -0.2326 4.5262, 2.6826 -0.0216 4.5262, 2.6397 -0.025 4.5262, 2.6397 0.2556 4.5262, 2.9086 0.2556 4.5262, 2.9355 -0.1244 4.5262, 2.9303 -0.1714 4.5262, 2.9172 -0.2075 4.5262, 2.9086 0.1951 4.5262, 2.8209 -0.0441 4.5262, 2.8171 -0.0415 4.5262, 2.8446 0.0239 4.5262, 2.8763 0.0057 4.5262, 2.9025 -0.0195 4.5262, 2.9197 -0.0469 4.5262, 2.9306 -0.079 4.5262, 2.8289 -0.2868 4.5262, 2.7769 -0.2999 4.5262, 2.737 -0.3023 4.5262, 2.7949 -0.0307 4.5262, 2.7564 -0.0218 4.5262, 2.8585 -0.1004 4.5262, 2.8511 -0.079 4.5262, 2.8381 -0.0594 4.5262, 2.8411 -0.1952 4.5262, 2.7706 -0.2384 4.5262, 2.8242 -0.213 4.5262, 2.7988 -0.2291 4.5262, 2.8527 -0.175 4.5262, 2.8596 -0.1512 4.5262, 2.8615 -0.1285 4.5262, 2.7069 0.0387 4.5262, 2.73 0.0399 4.5262, 2.7069 0.1951 4.5262, 2.753 0.0405 4.5262, 2.8042 0.036 4.5262, -3.0958 -0.2351 4.5262, -3.0958 -0.2956 4.5262, -3.3916 -0.2956 4.5262, -3.3916 0.2556 4.5262, -3.1093 0.2556 4.5262, -3.1093 0.1951 4.5262, -3.3176 -0.0469 4.5262, -3.3176 -0.2351 4.5262, -3.1227 -0.0469 4.5262, -3.1227 0.0136 4.5262, -3.3176 0.0136 4.5262, -3.3176 0.1951 4.5262, -3.9558 -0.1898 4.5262, -3.9757 -0.2271 4.5262, -4.0028 -0.2573 4.5262, -4.0357 -0.2792 4.5262, -4.3528 0.2556 4.5262, -4.2789 0.2556 4.5262, -4.01 0.2556 4.5262, -4.01 -0.0816 4.5262, -4.1861 -0.2367 4.5262, -4.1466 -0.2417 4.5262, -4.2454 -0.2854 4.5262, -4.2782 -0.2673 4.5262, -4.3058 -0.2416 4.5262, -4.3262 -0.2107 4.5262, -4.2789 -0.0763 4.5262, -4.2751 -0.1265 4.5262, -4.2655 -0.1637 4.5262, -3.936 0.2556 4.5262, -3.936 -0.0696 4.5262, -3.9411 -0.1355 4.5262, -4.2106 -0.2276 4.5262, -4.1421 -0.2418 4.5262, -4.108 -0.2387 4.5262, -4.0154 -0.1402 4.5262, -4.081 -0.2304 4.5262, -4.0815 -0.2953 4.5262, -4.1489 -0.3023 4.5262, -4.2023 -0.2979 4.5262, -4.3443 -0.1605 4.5262, -4.3527 -0.0819 4.5262, -4.3528 -0.0778 4.5262, -4.2498 -0.1937 4.5262, -4.2327 -0.2127 4.5262, -4.0596 -0.2178 4.5262, -4.0427 -0.2014 4.5262, -4.0277 -0.1775 4.5262, -4.6063 -1.6535 4.3293, -4.6063 1.6535 4.3293, -4.0551 1.378 4.3293, -3.1496 1.4567 4.3293, -3.7402 -1.378 4.3293, -3.7402 1.378 4.3293, -3.1496 1.6535 4.3293, -2.7559 1.4567 4.3293, -2.7559 0.1969 4.3293, -2.9528 0.1969 4.3293, -2.9528 -0.1969 4.3293, -3.1496 -1.4567 4.3293, -2.7559 -0.1969 4.3293, -2.7559 -1.4567 4.3293, -3.1496 -1.6535 4.3293, -4.0551 -1.378 4.3293, 4.6063 -1.6535 4.3293, 3.1496 -1.6535 4.3293, 3.1496 -1.4567 4.3293, 2.7559 -1.4567 4.3293, 2.7559 -0.1969 4.3293, 2.7559 0.1969 4.3293, 2.7559 1.4567 4.3293, 2.9528 0.1969 4.3293, 3.1496 1.4567 4.3293, 2.9528 -0.1969 4.3293, 3.7402 -1.378 4.3293, 3.7402 1.378 4.3293, 3.1496 1.6535 4.3293, 4.0551 1.378 4.3293, 4.6063 1.6535 4.3293, 4.0551 -1.378 4.3293, -2.7559 0.1969 4.1719, -2.7559 1.1811 3.9356, -2.7559 -0.1969 4.1719, -2.7559 -1.1811 3.9356, -2.7559 -1.079 2.3922, -2.7559 -0.9555 2.1784, -2.7559 -1.4567 1.3766, -2.7559 -1.1811 2.8726, -2.7559 -1.1553 2.6271, -2.7559 0.5906 1.8498, -2.7559 0.7903 1.9949, -2.7559 1.4567 1.3766, -2.7559 0.9555 2.1784, -2.7559 1.079 2.3922, -2.7559 -0.7903 1.9949, -2.7559 -0.5906 1.8498, -2.7559 -0.365 1.7493, -2.7559 -0.1235 1.698, -2.7559 0.1235 1.698, -2.7559 0.365 1.7493, -2.7559 1.1811 2.8726, -2.7559 1.1553 2.6271, 2.7559 1.4567 1.3766, 2.7559 1.1811 2.8726, 2.7559 1.1811 3.9356, 2.7559 0.1969 4.1719, 2.7559 -1.1811 3.9356, 2.7559 -0.1969 4.1719, 2.7559 -0.1235 1.698, 2.7559 -0.365 1.7493, 2.7559 -1.4567 1.3766, 2.7559 -0.5906 1.8498, 2.7559 -0.7903 1.9949, 2.7559 -0.9555 2.1784, 2.7559 -1.079 2.3922, 2.7559 -1.1811 2.8726, 2.7559 -1.1553 2.6271, 2.7559 1.1553 2.6271, 2.7559 1.079 2.3922, 2.7559 0.9555 2.1784, 2.7559 0.1235 1.698, 2.7559 0.365 1.7493, 2.7559 0.7903 1.9949, 2.7559 0.5906 1.8498, -2.9528 -1.4567 1.3766, -2.9528 -1.8504 1.3766, -2.9528 -1.4567 4.1325, -2.9528 -1.8504 4.1325, 2.9528 1.4567 1.3766, 2.9528 1.8504 1.3766, 2.9528 1.4567 4.1325, 2.9528 1.8504 4.1325, 4.8031 -1.6535 4.1325, 4.8031 1.6535 4.1325, -4.8031 1.6535 4.1325, -4.8031 -1.6535 4.1325, -2.9528 1.8504 4.1325, -2.9528 1.8504 1.3766, 4.6063 1.8504 4.1325, -4.6063 1.8504 4.1325, 2.9528 -1.8504 4.1325, -4.6063 -1.8504 4.1325, 4.6063 -1.8504 4.1325, 2.9528 -1.8504 1.3766, -2.5591 -0.1181 1.3766, -2.5591 -1.6535 1.3766, 2.5591 1.6535 1.3766, -2.5591 1.6535 1.3766, 2.5591 -0.1181 1.3766, 2.5591 -1.6535 1.3766, -2.9528 1.4567 1.3766, -2.5591 0.1181 1.3766, 2.5591 0.1181 1.3766, 2.9528 -1.4567 1.3766, 2.9528 -1.4567 4.1325, 3.1496 -1.4567 4.1325, 3.1496 -1.6535 4.1325, 4.6063 -1.6535 4.1325, 4.6572 -1.8437 4.1325, 4.7047 -1.824 4.1325, 4.7768 1.752 4.1325, 4.7964 1.7045 4.1325, 4.6063 1.6535 4.1325, 4.7964 -1.7045 4.1325, 3.1496 1.4567 4.1325, 3.1496 1.6535 4.1325, 4.6572 1.8437 4.1325, 4.7768 -1.752 4.1325, 4.7455 -1.7927 4.1325, 4.7047 1.824 4.1325, 4.7455 1.7927 4.1325, -2.9528 1.4567 4.1325, -3.1496 1.4567 4.1325, -3.1496 1.6535 4.1325, -4.6063 1.6535 4.1325, -4.6572 1.8437 4.1325, -4.7047 1.824 4.1325, -4.6572 -1.8437 4.1325, -4.7047 -1.824 4.1325, -4.6063 -1.6535 4.1325, -4.7455 -1.7927 4.1325, -4.7768 -1.752 4.1325, -4.7964 -1.7045 4.1325, -4.7964 1.7045 4.1325, -3.1496 -1.4567 4.1325, -3.1496 -1.6535 4.1325, -4.7768 1.752 4.1325, -4.7455 1.7927 4.1325, -2.5591 0.1235 1.698, -2.5591 0.1181 1.5734, -2.5591 -0.1181 1.5734, -2.5591 -0.7903 1.9949, -2.5591 -0.9555 2.1784, -2.5591 -1.079 2.3922, -2.5591 -0.1235 1.698, -2.5591 -0.365 1.7493, -2.5591 -0.5906 1.8498, -2.5591 -1.1553 2.6271, -2.5591 -1.1811 2.8726, -2.5591 -1.1811 3.9356, -2.5591 1.1811 3.9356, -2.5591 1.1811 2.8726, -2.5591 1.1553 2.6271, -2.5591 1.079 2.3922, -2.5591 0.9555 2.1784, -2.5591 0.7903 1.9949, -2.5591 0.5906 1.8498, -2.5591 0.365 1.7493, 2.5591 -1.079 2.3922, 2.5591 -0.9555 2.1784, 2.5591 0.1181 1.5734, 2.5591 0.365 1.7493, 2.5591 0.5906 1.8498, 2.5591 0.7903 1.9949, 2.5591 0.9555 2.1784, 2.5591 1.079 2.3922, 2.5591 1.1811 3.9356, 2.5591 1.1811 2.8726, 2.5591 1.1553 2.6271, 2.5591 -0.5906 1.8498, 2.5591 -0.365 1.7493, 2.5591 -0.1181 1.5734, 2.5591 -0.1235 1.698, 2.5591 0.1235 1.698, 2.5591 -1.1811 3.9356, 2.5591 -1.1811 2.8726, 2.5591 -1.1553 2.6271, 2.5591 -0.7903 1.9949, 2.9528 0.1969 4.1719, 2.9528 -0.1969 4.1719, -2.9528 0.1969 4.1719, -2.9528 -0.1969 4.1719, 4.0551 -1.378 3.9356, 4.0551 1.378 3.9356, 3.7402 -1.378 3.9356, 3.7402 -1.1811 3.9356, 3.7402 -1.1811 4.1325, 3.7402 1.1811 4.1325, 3.7402 1.1811 3.9356, 3.7402 1.378 3.9356, 3.937 1.1811 3.9356, 3.937 -1.1811 3.9356, -3.7402 1.378 3.9356, -4.0551 1.378 3.9356, -3.7402 1.1811 3.9356, -3.7402 1.1811 4.1325, -3.7402 -1.1811 4.1325, -3.7402 -1.1811 3.9356, -3.7402 -1.378 3.9356, -4.0551 -1.378 3.9356, -3.937 -1.1811 3.9356, -3.937 1.1811 3.9356, 3.937 -1.1811 4.1325, 3.937 1.1811 4.1325, -3.937 1.1811 4.1325, -3.937 -1.1811 4.1325
            ]
        }
        coordIndex [
            0,1,2,-1,3,4,5,-1,5,4,6,-1,7,8,9,-1,10,11,12,-1,13,14,15,-1,16,17,18,-1,19,20,21,-1,21,20,22,-1,17,23,18,-1,18,23,24,-1,18,24,25,-1,26,27,28,-1,28,27,29,-1,28,29,30,-1,30,31,28,-1,28,31,32,-1,28,32,33,-1,34,35,25,-1,25,35,13,-1,25,13,18,-1,18,13,15,-1,34,36,35,-1,35,36,37,-1,35,37,38,-1,16,18,39,-1,39,18,40,-1,39,40,41,-1,41,40,42,-1,41,42,43,-1,22,26,21,-1,21,26,28,-1,21,28,44,-1,44,28,45,-1,44,45,46,-1,46,45,47,-1,19,21,48,-1,48,21,49,-1,48,49,50,-1,50,49,51,-1,50,51,52,-1,52,51,53,-1,52,53,54,-1,38,55,35,-1,35,55,56,-1,35,56,45,-1,45,56,57,-1,45,57,47,-1,58,43,59,-1,59,43,60,-1,58,61,43,-1,43,61,62,-1,43,62,41,-1,54,63,52,-1,52,63,64,-1,52,64,65,-1,66,67,68,-1,65,69,52,-1,52,69,70,-1,52,70,71,-1,72,73,71,-1,71,73,74,-1,71,74,52,-1,43,75,60,-1,60,75,76,-1,60,76,68,-1,68,76,77,-1,68,77,66,-1,33,78,28,-1,28,78,79,-1,28,79,80,-1,80,79,81,-1,80,81,82,-1,82,81,83,-1,82,83,14,-1,11,84,85,-1,86,87,85,-1,85,87,88,-1,85,88,11,-1,89,90,0,-1,91,92,93,-1,93,92,94,-1,10,95,11,-1,11,95,96,-1,11,96,97,-1,97,98,11,-1,11,98,99,-1,11,99,100,-1,100,101,11,-1,11,101,102,-1,11,102,84,-1,84,102,103,-1,104,105,106,-1,106,105,84,-1,106,84,107,-1,107,84,103,-1,94,92,108,-1,108,92,89,-1,108,89,109,-1,109,89,0,-1,109,0,86,-1,91,110,92,-1,92,110,111,-1,92,111,112,-1,112,111,113,-1,114,115,116,-1,116,115,117,-1,116,117,118,-1,114,116,111,-1,111,116,119,-1,111,119,113,-1,90,120,0,-1,0,120,121,-1,0,121,1,-1,1,121,122,-1,1,122,12,-1,12,122,123,-1,12,123,10,-1,124,125,126,-1,126,125,127,-1,128,129,88,-1,129,130,88,-1,88,130,131,-1,88,131,132,-1,133,134,11,-1,11,134,135,-1,11,135,136,-1,127,137,126,-1,126,137,138,-1,126,138,139,-1,140,141,88,-1,88,141,142,-1,88,142,128,-1,139,143,126,-1,126,143,144,-1,126,144,145,-1,145,144,146,-1,145,146,147,-1,132,148,88,-1,88,148,149,-1,88,149,11,-1,11,149,150,-1,11,150,133,-1,140,151,141,-1,141,151,152,-1,141,152,153,-1,147,154,145,-1,145,154,155,-1,145,155,156,-1,156,155,141,-1,156,141,157,-1,157,141,153,-1,136,158,11,-1,11,158,159,-1,11,159,12,-1,12,159,160,-1,12,160,161,-1,162,12,126,-1,126,12,161,-1,126,161,124,-1,163,7,164,-1,165,166,167,-1,167,166,163,-1,167,163,168,-1,168,163,164,-1,169,170,171,-1,6,172,5,-1,5,172,173,-1,5,173,174,-1,175,176,177,-1,177,176,178,-1,177,178,179,-1,162,180,12,-1,12,180,181,-1,12,181,182,-1,182,181,183,-1,182,183,184,-1,184,183,185,-1,186,187,188,-1,188,187,189,-1,188,189,190,-1,191,192,190,-1,190,192,193,-1,190,193,188,-1,188,193,194,-1,188,194,195,-1,196,197,192,-1,192,197,198,-1,192,198,193,-1,199,174,200,-1,200,174,201,-1,200,201,192,-1,192,201,202,-1,192,202,196,-1,173,203,174,-1,174,203,204,-1,174,204,201,-1,201,204,205,-1,201,205,206,-1,207,2,208,-1,208,2,1,-1,208,1,209,-1,209,1,12,-1,209,12,210,-1,210,12,182,-1,169,211,170,-1,170,211,212,-1,170,212,82,-1,82,212,213,-1,82,213,80,-1,14,13,82,-1,82,13,9,-1,82,9,170,-1,170,9,8,-1,170,8,171,-1,179,3,177,-1,177,3,5,-1,177,5,194,-1,194,5,174,-1,194,174,195,-1,195,174,199,-1,214,215,0,-1,0,215,216,-1,0,216,217,-1,218,219,220,-1,221,222,223,-1,223,222,224,-1,223,224,225,-1,86,0,87,-1,87,0,217,-1,87,217,220,-1,220,217,226,-1,220,226,218,-1,227,228,229,-1,229,230,227,-1,227,230,231,-1,227,231,232,-1,232,231,214,-1,232,214,221,-1,221,214,0,-1,221,0,222,-1,222,0,2,-1,222,2,169,-1,169,2,207,-1,169,207,211,-1,233,234,235,-1,226,236,218,-1,218,236,233,-1,218,233,237,-1,237,233,235,-1,238,239,220,-1,240,167,241,-1,241,167,168,-1,241,168,242,-1,242,168,243,-1,244,245,246,-1,245,244,247,-1,247,244,248,-1,247,248,240,-1,240,248,249,-1,240,249,167,-1,167,249,250,-1,167,250,251,-1,252,253,220,-1,220,253,254,-1,220,254,238,-1,171,165,169,-1,169,165,167,-1,169,167,222,-1,222,167,251,-1,222,251,255,-1,246,256,257,-1,258,259,255,-1,255,259,260,-1,255,260,261,-1,219,224,220,-1,220,224,222,-1,220,222,252,-1,252,222,255,-1,252,255,262,-1,262,255,261,-1,239,263,220,-1,220,263,264,-1,220,264,168,-1,168,264,265,-1,168,265,243,-1,257,266,246,-1,246,266,267,-1,246,267,244,-1,268,269,246,-1,246,269,270,-1,246,270,256,-1,271,272,273,-1,273,272,274,-1,271,275,272,-1,272,275,276,-1,272,276,246,-1,246,276,277,-1,246,277,268,-1,278,279,280,-1,280,279,281,-1,280,281,255,-1,255,281,282,-1,255,282,258,-1,9,283,284,-1,7,9,164,-1,164,9,284,-1,164,284,35,-1,35,284,285,-1,35,285,13,-1,285,286,13,-1,13,286,287,-1,13,287,9,-1,9,287,288,-1,9,288,283,-1,289,290,291,-1,291,290,283,-1,291,283,292,-1,292,283,288,-1,292,288,293,-1,293,288,294,-1,295,296,45,-1,45,296,297,-1,45,297,298,-1,194,299,300,-1,213,175,80,-1,80,175,177,-1,80,177,28,-1,28,177,194,-1,28,194,301,-1,301,194,300,-1,301,300,302,-1,303,304,302,-1,305,306,193,-1,193,306,307,-1,193,307,308,-1,300,309,302,-1,302,309,310,-1,302,310,311,-1,301,312,28,-1,28,312,313,-1,28,313,45,-1,45,313,314,-1,45,314,295,-1,303,302,315,-1,304,316,302,-1,302,316,317,-1,302,317,318,-1,318,317,319,-1,298,320,45,-1,45,320,321,-1,45,321,193,-1,193,321,322,-1,193,322,305,-1,308,323,193,-1,193,323,324,-1,193,324,194,-1,194,324,325,-1,194,325,299,-1,311,326,302,-1,302,326,327,-1,302,327,315,-1,319,328,318,-1,318,328,329,-1,318,329,330,-1,331,332,333,-1,334,335,336,-1,333,332,336,-1,336,332,337,-1,336,337,334,-1,338,339,334,-1,334,339,340,-1,334,340,335,-1,335,340,341,-1,335,341,342,-1,342,341,343,-1,342,343,344,-1,342,345,335,-1,335,345,331,-1,335,331,346,-1,346,331,333,-1,347,348,349,-1,349,350,351,-1,352,353,354,-1,354,353,355,-1,356,354,357,-1,357,354,355,-1,357,355,358,-1,358,355,359,-1,358,359,360,-1,360,359,361,-1,360,361,362,-1,362,361,347,-1,362,347,357,-1,357,347,349,-1,357,349,356,-1,356,349,351,-1,363,364,365,-1,365,364,366,-1,365,366,343,-1,367,368,369,-1,343,366,344,-1,344,366,370,-1,344,370,369,-1,369,370,371,-1,369,371,367,-1,372,373,374,-1,374,373,375,-1,374,375,376,-1,368,377,369,-1,369,377,378,-1,369,378,379,-1,379,380,369,-1,369,380,381,-1,369,381,374,-1,374,381,382,-1,374,382,372,-1,363,339,364,-1,364,339,338,-1,364,338,383,-1,383,338,374,-1,383,374,384,-1,384,374,376,-1,385,353,386,-1,386,353,387,-1,353,352,387,-1,387,352,388,-1,387,388,389,-1,389,388,390,-1,391,392,393,-1,393,392,394,-1,394,395,393,-1,393,395,396,-1,393,396,397,-1,390,351,389,-1,389,351,350,-1,389,350,398,-1,398,350,393,-1,398,393,399,-1,399,393,397,-1,386,400,385,-1,385,400,401,-1,385,401,402,-1,391,393,403,-1,403,393,385,-1,403,385,404,-1,402,405,385,-1,385,405,406,-1,385,406,404,-1,407,408,409,-1,409,408,410,-1,411,412,413,-1,413,412,414,-1,145,415,126,-1,126,415,416,-1,126,416,162,-1,173,417,203,-1,203,417,418,-1,203,418,204,-1,211,207,419,-1,419,207,414,-1,419,414,420,-1,420,414,412,-1,207,208,414,-1,414,208,209,-1,414,209,421,-1,421,209,210,-1,421,210,182,-1,176,175,422,-1,422,175,213,-1,422,213,419,-1,419,213,212,-1,419,212,211,-1,220,168,423,-1,193,198,424,-1,410,164,35,-1,425,140,88,-1,410,35,424,-1,424,35,45,-1,424,45,193,-1,408,426,410,-1,410,426,423,-1,410,423,164,-1,164,423,168,-1,425,88,423,-1,423,88,87,-1,423,87,220,-1,427,428,369,-1,429,430,420,-1,412,411,385,-1,385,393,431,-1,431,393,432,-1,433,420,374,-1,374,420,430,-1,374,430,434,-1,420,412,429,-1,429,412,385,-1,429,385,435,-1,435,385,431,-1,435,431,434,-1,434,431,427,-1,434,427,374,-1,374,427,369,-1,393,436,432,-1,432,436,426,-1,432,426,428,-1,428,426,408,-1,428,408,369,-1,369,408,407,-1,437,423,436,-1,436,423,426,-1,437,438,423,-1,423,438,439,-1,423,439,425,-1,425,439,440,-1,425,440,441,-1,441,440,442,-1,443,444,445,-1,445,444,416,-1,445,416,440,-1,440,416,415,-1,440,415,446,-1,447,413,448,-1,448,413,414,-1,448,414,445,-1,445,414,421,-1,445,421,449,-1,446,450,440,-1,440,450,451,-1,440,451,442,-1,449,452,445,-1,445,452,453,-1,445,453,443,-1,454,419,433,-1,433,419,420,-1,454,455,419,-1,419,455,456,-1,419,456,422,-1,422,456,457,-1,422,457,458,-1,458,457,459,-1,460,461,462,-1,462,461,463,-1,462,463,464,-1,464,465,462,-1,462,465,418,-1,462,418,457,-1,457,418,417,-1,457,417,466,-1,467,409,468,-1,468,409,410,-1,468,410,462,-1,462,410,424,-1,462,424,460,-1,466,469,457,-1,457,469,470,-1,457,470,459,-1,424,198,197,-1,424,197,460,-1,460,197,196,-1,460,196,461,-1,461,196,202,-1,461,202,463,-1,463,202,201,-1,463,201,464,-1,201,206,464,-1,464,206,205,-1,464,205,465,-1,465,205,204,-1,465,204,418,-1,417,173,172,-1,417,172,466,-1,466,172,6,-1,466,6,469,-1,469,6,4,-1,469,4,470,-1,4,3,470,-1,470,3,179,-1,470,179,459,-1,459,179,178,-1,459,178,458,-1,458,178,176,-1,458,176,422,-1,415,145,156,-1,415,156,446,-1,446,156,157,-1,446,157,450,-1,450,157,153,-1,450,153,451,-1,451,153,152,-1,451,152,442,-1,442,152,151,-1,442,151,441,-1,441,151,140,-1,441,140,425,-1,421,182,184,-1,421,184,449,-1,449,184,185,-1,449,185,452,-1,452,185,183,-1,452,183,453,-1,453,183,181,-1,453,181,443,-1,443,181,180,-1,443,180,444,-1,444,180,162,-1,444,162,416,-1,434,471,472,-1,472,471,473,-1,428,427,473,-1,474,475,428,-1,428,475,476,-1,471,477,473,-1,473,477,478,-1,473,478,428,-1,428,478,479,-1,428,479,474,-1,476,480,428,-1,428,480,481,-1,428,481,7,-1,7,481,482,-1,7,482,8,-1,8,482,483,-1,8,483,171,-1,171,483,484,-1,171,484,430,-1,484,485,430,-1,430,485,486,-1,430,486,487,-1,487,488,430,-1,430,488,489,-1,430,489,434,-1,434,489,490,-1,434,490,471,-1,430,429,171,-1,171,429,165,-1,491,492,432,-1,435,493,429,-1,429,493,494,-1,429,494,495,-1,495,496,429,-1,429,496,497,-1,429,497,498,-1,163,166,499,-1,499,166,165,-1,499,165,500,-1,500,165,429,-1,500,429,501,-1,501,429,498,-1,502,503,504,-1,504,503,505,-1,504,505,493,-1,493,505,506,-1,493,506,494,-1,499,507,163,-1,163,507,508,-1,163,508,432,-1,432,508,509,-1,432,509,491,-1,504,431,502,-1,502,431,432,-1,502,432,510,-1,510,432,492,-1,432,428,163,-1,163,428,7,-1,493,472,504,-1,504,472,473,-1,447,355,413,-1,413,355,353,-1,413,353,411,-1,411,353,385,-1,436,393,437,-1,437,393,350,-1,437,350,438,-1,438,350,349,-1,467,342,409,-1,409,342,344,-1,409,344,407,-1,407,344,369,-1,433,374,454,-1,454,374,338,-1,454,338,455,-1,455,338,334,-1,349,348,438,-1,438,348,439,-1,348,347,439,-1,439,347,440,-1,347,361,440,-1,440,361,445,-1,361,359,445,-1,445,359,448,-1,359,355,448,-1,448,355,447,-1,332,331,457,-1,457,331,462,-1,331,345,462,-1,462,345,468,-1,345,342,468,-1,468,342,467,-1,334,337,455,-1,455,337,456,-1,337,332,456,-1,456,332,457,-1,383,484,364,-1,364,484,483,-1,364,483,366,-1,366,483,482,-1,366,482,370,-1,370,482,481,-1,370,481,371,-1,371,481,480,-1,371,480,367,-1,367,480,476,-1,367,476,368,-1,368,476,475,-1,368,475,377,-1,377,475,474,-1,377,474,378,-1,378,474,479,-1,378,479,379,-1,379,479,478,-1,379,478,380,-1,380,478,477,-1,380,477,381,-1,381,477,471,-1,381,471,382,-1,382,471,490,-1,382,490,372,-1,372,490,489,-1,372,489,373,-1,373,489,488,-1,373,488,375,-1,375,488,487,-1,375,487,376,-1,376,487,486,-1,376,486,384,-1,384,486,485,-1,384,485,383,-1,383,485,484,-1,508,398,509,-1,509,398,399,-1,509,399,491,-1,491,399,397,-1,491,397,492,-1,492,397,396,-1,492,396,510,-1,510,396,395,-1,510,395,502,-1,502,395,394,-1,502,394,503,-1,503,394,392,-1,503,392,505,-1,505,392,391,-1,505,391,506,-1,506,391,403,-1,506,403,494,-1,494,403,404,-1,494,404,495,-1,495,404,406,-1,495,406,496,-1,496,406,405,-1,496,405,497,-1,497,405,402,-1,497,402,498,-1,498,402,401,-1,498,401,501,-1,501,401,400,-1,501,400,500,-1,500,400,386,-1,398,508,389,-1,389,508,507,-1,389,507,387,-1,387,507,499,-1,387,499,386,-1,386,499,500,-1,435,434,493,-1,493,434,472,-1,427,431,473,-1,473,431,504,-1,511,388,354,-1,354,388,352,-1,512,511,356,-1,356,511,354,-1,390,512,351,-1,351,512,356,-1,511,512,388,-1,388,512,390,-1,363,513,339,-1,339,513,340,-1,514,365,341,-1,341,365,343,-1,513,514,340,-1,340,514,341,-1,365,514,363,-1,363,514,513,-1,515,516,362,-1,362,516,360,-1,517,515,357,-1,357,515,362,-1,518,517,519,-1,519,517,357,-1,519,357,520,-1,520,357,358,-1,520,358,521,-1,521,358,522,-1,516,522,360,-1,360,522,358,-1,521,522,523,-1,523,522,516,-1,523,516,524,-1,524,516,515,-1,524,515,518,-1,518,515,517,-1,525,526,336,-1,336,526,333,-1,527,525,528,-1,528,525,336,-1,528,336,529,-1,529,336,335,-1,529,335,530,-1,530,335,531,-1,532,531,346,-1,346,531,335,-1,526,532,333,-1,333,532,346,-1,530,531,533,-1,533,531,532,-1,533,532,534,-1,534,532,526,-1,534,526,527,-1,527,526,525,-1,519,535,518,-1,518,535,524,-1,535,536,524,-1,524,536,523,-1,536,520,523,-1,523,520,521,-1,536,535,520,-1,520,535,519,-1,528,537,527,-1,527,537,534,-1,537,538,534,-1,534,538,533,-1,538,529,533,-1,533,529,530,-1,529,538,528,-1,528,538,537,-1,
        ]
    }
}
Shape{
    appearance Appearance {
        material  Material 	{
            diffuseColor 0.0 0.0 0.0
            specularColor 0.0 0.0 0.0
            ambientIntensity 0.0
            transparency 0.0
            shininess 0.5
        }
    }
    geometry IndexedFaceSet {
        ccw TRUE
        solid FALSE
        coord DEF co Coordinate {
            point [
                -4.4536 0.2556 4.5222, -4.4536 0.1951 4.5222, -4.4536 0.2556 4.5262, -4.4536 0.1951 4.5262, -4.662 0.1951 4.5222, -4.662 0.1951 4.5262, -4.662 0.0069 4.5222, -4.662 0.0069 4.5262, -4.4671 0.0069 4.5222, -4.4671 0.0069 4.5262, -4.4671 -0.0536 4.5222, -4.4671 -0.0536 4.5262, -4.662 -0.0536 4.5222, -4.662 -0.0536 4.5262, -4.662 -0.2956 4.5222, -4.662 -0.2956 4.5262, -4.7359 -0.2956 4.5222, -4.7359 -0.2956 4.5262, -4.7359 0.2556 4.5222, -4.7359 0.2556 4.5262, 3.9101 -0.0307 4.5222, 3.9101 -0.0307 4.5262, 3.9165 -0.1206 4.5262, 3.9165 -0.1206 4.5222, 3.9359 -0.1941 4.5262, 3.9359 -0.1941 4.5222, 3.9601 -0.2386 4.5262, 3.9601 -0.2386 4.5222, 3.9872 -0.2684 4.5262, 3.9872 -0.2684 4.5222, 4.0149 -0.2867 4.5262, 4.0149 -0.2867 4.5222, 4.0467 -0.2981 4.5262, 4.0467 -0.2981 4.5222, 4.0859 -0.3023 4.5262, 4.0859 -0.3023 4.5222, 4.0519 0.2569 4.5222, 4.0983 0.2623 4.5222, 4.0696 0.2589 4.5262, 4.0983 0.2623 4.5262, 4.0519 0.2569 4.5262, 4.0183 0.2441 4.5262, 4.0183 0.2441 4.5222, 3.9928 0.2271 4.5262, 3.9928 0.2271 4.5222, 3.9669 0.2001 4.5262, 3.9669 0.2001 4.5222, 3.9436 0.1613 4.5262, 3.9436 0.1613 4.5222, 3.9189 0.0795 4.5262, 3.9189 0.0795 4.5222, 4.1303 0.2589 4.5262, 4.1385 0.2581 4.5222, 4.1385 0.2581 4.5262, 4.171 0.2467 4.5222, 4.171 0.2467 4.5262, 4.1996 0.2277 4.5222, 4.1996 0.2277 4.5262, 4.2218 0.2036 4.5222, 4.2218 0.2036 4.5262, 4.2449 0.1622 4.5222, 4.2449 0.1622 4.5262, 4.2647 0.0919 4.5222, 4.2647 0.0919 4.5262, 4.2731 -0.0177 4.5222, 4.2731 -0.0177 4.5262, 4.1268 -0.298 4.5262, 4.1268 -0.298 4.5222, 4.1613 -0.2859 4.5262, 4.1613 -0.2859 4.5222, 4.1919 -0.2655 4.5262, 4.1919 -0.2655 4.5222, 4.219 -0.236 4.5262, 4.219 -0.236 4.5222, 4.2443 -0.1911 4.5262, 4.2443 -0.1911 4.5222, 4.2648 -0.1199 4.5262, 4.2648 -0.1199 4.5222, 3.9841 -0.0274 4.5222, 3.9932 -0.1337 4.5222, 4.0095 -0.1848 4.5222, 4.0237 -0.2083 4.5222, 4.0396 -0.2245 4.5222, 4.056 -0.2344 4.5222, 4.0756 -0.2404 4.5222, 4.0924 -0.2418 4.5222, 4.1146 -0.2393 4.5222, 4.1318 -0.2326 4.5222, 4.1477 -0.2215 4.5222, 4.1632 -0.2035 4.5222, 4.1786 -0.1733 4.5222, 4.1933 -0.1145 4.5222, 4.1992 -0.0238 4.5222, 4.1895 0.0926 4.5222, 4.1747 0.1417 4.5222, 4.1605 0.1671 4.5222, 4.1438 0.1851 4.5222, 4.1291 0.1943 4.5222, 4.1125 0.2 4.5222, 4.0945 0.2018 4.5222, 4.0715 0.199 4.5222, 4.054 0.1922 4.5222, 4.0381 0.1811 4.5222, 4.0225 0.1632 4.5222, 4.006 0.1316 4.5222, 3.9906 0.0703 4.5222, 3.9841 -0.0274 4.5262, 3.9906 0.0703 4.5262, 4.006 0.1316 4.5262, 4.0225 0.1632 4.5262, 4.0381 0.1811 4.5262, 4.054 0.1922 4.5262, 4.0715 0.199 4.5262, 4.0945 0.2018 4.5262, 4.1125 0.2 4.5262, 4.1291 0.1943 4.5262, 4.1438 0.1851 4.5262, 4.1605 0.1671 4.5262, 4.1747 0.1417 4.5262, 4.1895 0.0926 4.5262, 4.1992 -0.0238 4.5262, 4.1933 -0.1145 4.5262, 4.1786 -0.1733 4.5262, 4.1632 -0.2035 4.5262, 4.1477 -0.2215 4.5262, 4.1318 -0.2326 4.5262, 4.1146 -0.2393 4.5262, 4.0924 -0.2418 4.5262, 4.0756 -0.2404 4.5262, 4.056 -0.2344 4.5262, 4.0396 -0.2245 4.5262, 4.0237 -0.2083 4.5262, 4.0095 -0.1848 4.5262, 3.9932 -0.1337 4.5262, 3.8227 -0.2365 4.5222, 3.8227 -0.2956 4.5222, 3.8227 -0.2365 4.5262, 3.8227 -0.2956 4.5262, 3.4934 -0.2956 4.5222, 3.4934 -0.2956 4.5262, 3.4934 -0.2379 4.5222, 3.4934 -0.2379 4.5262, 3.6522 -0.0787 4.5222, 3.6522 -0.0787 4.5262, 3.7622 0.1051 4.5222, 3.7622 0.1051 4.5262, 3.7607 0.0831 4.5262, 3.7607 0.0831 4.5222, 3.7515 0.0492 4.5262, 3.7515 0.0492 4.5222, 3.7253 0.0034 4.5262, 3.7253 0.0034 4.5222, 3.6602 0.2018 4.5222, 3.6602 0.2018 4.5262, 3.6921 0.1988 4.5262, 3.6921 0.1988 4.5222, 3.7152 0.1911 4.5262, 3.7152 0.1911 4.5222, 3.7311 0.1811 4.5262, 3.7311 0.1811 4.5222, 3.7439 0.168 4.5262, 3.7439 0.168 4.5222, 3.7538 0.1511 4.5262, 3.7538 0.1511 4.5222, 3.7599 0.1307 4.5262, 3.7599 0.1307 4.5222, 3.5203 0.1396 4.5222, 3.5203 0.1396 4.5262, 3.5222 0.1414 4.5262, 3.5222 0.1414 4.5222, 3.571 0.1774 4.5262, 3.571 0.1774 4.5222, 3.6152 0.1958 4.5262, 3.6152 0.1958 4.5222, 3.5203 0.2136 4.5222, 3.5203 0.2136 4.5262, 3.5725 0.2436 4.5222, 3.6704 0.2623 4.5222, 3.6704 0.2623 4.5262, 3.6282 0.2591 4.5262, 3.6282 0.2591 4.5222, 3.6275 0.2589 4.5262, 3.5725 0.2436 4.5262, 3.7068 0.2589 4.5262, 3.7139 0.2583 4.5222, 3.7139 0.2583 4.5262, 3.7485 0.2474 4.5222, 3.7485 0.2474 4.5262, 3.7762 0.231 4.5222, 3.7762 0.231 4.5262, 3.8 0.2077 4.5222, 3.8 0.2077 4.5262, 3.816 0.1814 4.5222, 3.816 0.1814 4.5262, 3.826 0.1504 4.5222, 3.826 0.1504 4.5262, 3.8295 0.1136 4.5222, 3.8295 0.1136 4.5262, 3.6993 -0.1128 4.5222, 3.6993 -0.1128 4.5262, 3.7376 -0.0726 4.5262, 3.7376 -0.0726 4.5222, 3.8011 0.0108 4.5262, 3.8011 0.0108 4.5222, 3.8225 0.0624 4.5262, 3.8225 0.0624 4.5222, 3.5756 -0.2351 4.5222, 3.5756 -0.2351 4.5262, 3.5756 -0.2365 4.5222, 3.5756 -0.2365 4.5262, 3.264 -0.0177 4.5222, 3.4396 -0.2956 4.5222, 3.264 -0.0177 4.5262, 3.4396 -0.2956 4.5262, 3.3522 -0.2956 4.5222, 3.3522 -0.2956 4.5262, 3.2289 -0.0889 4.5222, 3.2289 -0.0889 4.5262, 3.2164 -0.0606 4.5222, 3.2164 -0.0606 4.5262, 3.2222 -0.0749 4.5262, 3.2222 -0.0749 4.5222, 3.2146 -0.0606 4.5222, 3.2146 -0.0606 4.5262, 3.202 -0.0893 4.5222, 3.202 -0.0893 4.5262, 3.2085 -0.075 4.5262, 3.2085 -0.075 4.5222, 3.0766 -0.2956 4.5222, 3.0766 -0.2956 4.5262, 2.9892 -0.2956 4.5222, 2.9892 -0.2956 4.5262, 3.1718 -0.0188 4.5222, 3.1718 -0.0188 4.5262, 3.0027 0.2556 4.5222, 3.0027 0.2556 4.5262, 3.0901 0.2556 4.5222, 3.0901 0.2556 4.5262, 3.1993 0.0656 4.5222, 3.1993 0.0656 4.5262, 3.2186 0.0266 4.5222, 3.2186 0.0266 4.5262, 3.2095 0.0464 4.5262, 3.2095 0.0464 4.5222, 3.2201 0.0266 4.5222, 3.2201 0.0266 4.5262, 3.2417 0.0674 4.5222, 3.2417 0.0674 4.5262, 3.2304 0.0472 4.5262, 3.2304 0.0472 4.5222, 3.3589 0.2556 4.5222, 3.3589 0.2556 4.5262, 3.4396 0.2556 4.5222, 3.4396 0.2556 4.5262, 2.6196 -0.2805 4.5222, 2.6196 -0.2065 4.5222, 2.6196 -0.2805 4.5262, 2.6196 -0.2065 4.5262, 2.7351 -0.2418 4.5222, 2.7351 -0.2418 4.5262, 2.7247 -0.2416 4.5262, 2.7247 -0.2416 4.5222, 2.6748 -0.2326 4.5262, 2.6748 -0.2326 4.5222, 2.8615 -0.1285 4.5222, 2.8615 -0.1285 4.5262, 2.8596 -0.1512 4.5262, 2.8596 -0.1512 4.5222, 2.8527 -0.175 4.5262, 2.8527 -0.175 4.5222, 2.8411 -0.1952 4.5262, 2.8411 -0.1952 4.5222, 2.8242 -0.213 4.5262, 2.8242 -0.213 4.5222, 2.7988 -0.2291 4.5262, 2.7988 -0.2291 4.5222, 2.7706 -0.2384 4.5262, 2.7706 -0.2384 4.5222, 2.7255 -0.02 4.5222, 2.7255 -0.02 4.5262, 2.7564 -0.0218 4.5262, 2.7564 -0.0218 4.5222, 2.7949 -0.0307 4.5262, 2.7949 -0.0307 4.5222, 2.8171 -0.0415 4.5262, 2.8171 -0.0415 4.5222, 2.8209 -0.0441 4.5262, 2.8209 -0.0441 4.5222, 2.8381 -0.0594 4.5262, 2.8381 -0.0594 4.5222, 2.8511 -0.079 4.5262, 2.8511 -0.079 4.5222, 2.8585 -0.1004 4.5262, 2.8585 -0.1004 4.5222, 2.6397 -0.025 4.5222, 2.6397 -0.025 4.5262, 2.6826 -0.0216 4.5262, 2.6826 -0.0216 4.5222, 2.6397 0.2556 4.5222, 2.6397 0.2556 4.5262, 2.9086 0.2556 4.5222, 2.9086 0.2556 4.5262, 2.9086 0.1951 4.5222, 2.9086 0.1951 4.5262, 2.7069 0.1951 4.5222, 2.7069 0.1951 4.5262, 2.7069 0.0387 4.5222, 2.7069 0.0387 4.5262, 2.753 0.0405 4.5222, 2.753 0.0405 4.5262, 2.73 0.0399 4.5262, 2.73 0.0399 4.5222, 2.9355 -0.1244 4.5222, 2.9355 -0.1244 4.5262, 2.9306 -0.079 4.5262, 2.9306 -0.079 4.5222, 2.9197 -0.0469 4.5262, 2.9197 -0.0469 4.5222, 2.9025 -0.0195 4.5262, 2.9025 -0.0195 4.5222, 2.8763 0.0057 4.5262, 2.8763 0.0057 4.5222, 2.8446 0.0239 4.5262, 2.8446 0.0239 4.5222, 2.8042 0.036 4.5262, 2.8042 0.036 4.5222, 2.737 -0.3023 4.5222, 2.737 -0.3023 4.5262, 2.7769 -0.2999 4.5262, 2.7769 -0.2999 4.5222, 2.8289 -0.2868 4.5262, 2.8289 -0.2868 4.5222, 2.8654 -0.2673 4.5262, 2.8654 -0.2673 4.5222, 2.8969 -0.2382 4.5262, 2.8969 -0.2382 4.5222, 2.9172 -0.2075 4.5262, 2.9172 -0.2075 4.5222, 2.9303 -0.1714 4.5262, 2.9303 -0.1714 4.5222, 2.6337 -0.2871 4.5262, 2.6337 -0.2871 4.5222, 2.6769 -0.2983 4.5262, 2.6769 -0.2983 4.5222, -3.0958 -0.2351 4.5222, -3.0958 -0.2956 4.5222, -3.0958 -0.2351 4.5262, -3.0958 -0.2956 4.5262, -3.3916 -0.2956 4.5222, -3.3916 -0.2956 4.5262, -3.3916 0.2556 4.5222, -3.3916 0.2556 4.5262, -3.1093 0.2556 4.5222, -3.1093 0.2556 4.5262, -3.1093 0.1951 4.5222, -3.1093 0.1951 4.5262, -3.3176 0.1951 4.5222, -3.3176 0.1951 4.5262, -3.3176 0.0136 4.5222, -3.3176 0.0136 4.5262, -3.1227 0.0136 4.5222, -3.1227 0.0136 4.5262, -3.1227 -0.0469 4.5222, -3.1227 -0.0469 4.5262, -3.3176 -0.0469 4.5222, -3.3176 -0.0469 4.5262, -3.3176 -0.2351 4.5222, -3.3176 -0.2351 4.5262, -3.8285 -0.2738 4.5222, -3.8285 -0.1931 4.5222, -3.8285 -0.2738 4.5262, -3.8285 -0.1931 4.5262, -3.6816 -0.2418 4.5222, -3.6816 -0.2418 4.5262, -3.723 -0.2379 4.5262, -3.723 -0.2379 4.5222, -3.7882 -0.2179 4.5262, -3.7882 -0.2179 4.5222, -3.5664 -0.1596 4.5222, -3.5664 -0.1596 4.5262, -3.5687 -0.1813 4.5262, -3.5687 -0.1813 4.5222, -3.575 -0.1985 4.5262, -3.575 -0.1985 4.5222, -3.5823 -0.2095 4.5262, -3.5823 -0.2095 4.5222, -3.5938 -0.2203 4.5262, -3.5938 -0.2203 4.5222, -3.6136 -0.2312 4.5262, -3.6136 -0.2312 4.5222, -3.6415 -0.2387 4.5262, -3.6415 -0.2387 4.5222, -3.6938 -0.042 4.5222, -3.6938 -0.042 4.5262, -3.6188 -0.0817 4.5262, -3.6188 -0.0817 4.5222, -3.6112 -0.0866 4.5262, -3.6112 -0.0866 4.5222, -3.5885 -0.1059 4.5262, -3.5885 -0.1059 4.5222, -3.575 -0.1244 4.5262, -3.575 -0.1244 4.5222, -3.5687 -0.14 4.5262, -3.5687 -0.14 4.5222, -3.8285 0.1144 4.5222, -3.8285 0.1144 4.5262, -3.8254 0.0844 4.5262, -3.8254 0.0844 4.5222, -3.8155 0.0556 4.5262, -3.8155 0.0556 4.5222, -3.7997 0.0307 4.5262, -3.7997 0.0307 4.5222, -3.7753 0.0074 4.5262, -3.7753 0.0074 4.5222, -3.6945 0.2564 4.5222, -3.6336 0.2623 4.5222, -3.668 0.2589 4.5262, -3.6336 0.2623 4.5262, -3.6945 0.2564 4.5262, -3.7408 0.2412 4.5262, -3.7408 0.2412 4.5222, -3.7718 0.2234 4.5262, -3.7718 0.2234 4.5222, -3.7955 0.2028 4.5262, -3.7955 0.2028 4.5222, -3.8128 0.1789 4.5262, -3.8128 0.1789 4.5222, -3.8236 0.1525 4.5262, -3.8236 0.1525 4.5222, -3.5126 0.2472 4.5222, -3.5126 0.2472 4.5262, -3.5724 0.2597 4.5222, -3.5688 0.2589 4.5262, -3.5724 0.2597 4.5262, -3.5126 0.1665 4.5222, -3.5126 0.1665 4.5262, -3.6395 0.2018 4.5222, -3.6395 0.2018 4.5262, -3.6014 0.1994 4.5262, -3.6014 0.1994 4.5222, -3.5543 0.1881 4.5262, -3.5543 0.1881 4.5222, -3.7546 0.1217 4.5222, -3.7546 0.1217 4.5262, -3.7528 0.1384 4.5262, -3.7528 0.1384 4.5222, -3.748 0.1525 4.5262, -3.748 0.1525 4.5222, -3.7399 0.1651 4.5262, -3.7399 0.1651 4.5222, -3.7274 0.1771 4.5262, -3.7274 0.1771 4.5222, -3.7073 0.1889 4.5262, -3.7073 0.1889 4.5222, -3.678 0.1983 4.5262, -3.678 0.1983 4.5222, -3.6375 0.0098 4.5222, -3.6375 0.0098 4.5262, -3.6887 0.037 4.5262, -3.6887 0.037 4.5222, -3.7201 0.0569 4.5262, -3.7201 0.0569 4.5222, -3.737 0.0718 4.5262, -3.737 0.0718 4.5222, -3.7463 0.0854 4.5262, -3.7463 0.0854 4.5222, -3.7521 0.1006 4.5262, -3.7521 0.1006 4.5222, -3.4924 -0.1535 4.5222, -3.4924 -0.1535 4.5262, -3.496 -0.1224 4.5262, -3.496 -0.1224 4.5222, -3.5062 -0.0947 4.5262, -3.5062 -0.0947 4.5222, -3.5246 -0.0672 4.5262, -3.5246 -0.0672 4.5222, -3.5564 -0.0376 4.5262, -3.5564 -0.0376 4.5222, -3.6898 -0.3023 4.5222, -3.6898 -0.3023 4.5262, -3.6328 -0.2982 4.5262, -3.6328 -0.2982 4.5222, -3.579 -0.2832 4.5262, -3.579 -0.2832 4.5222, -3.5478 -0.2661 4.5262, -3.5478 -0.2661 4.5222, -3.5248 -0.246 4.5262, -3.5248 -0.246 4.5222, -3.507 -0.2202 4.5262, -3.507 -0.2202 4.5222, -3.4968 -0.1922 4.5262, -3.4968 -0.1922 4.5222, -3.8108 -0.2822 4.5262, -3.8108 -0.2822 4.5222, -3.7607 -0.295 4.5262, -3.7607 -0.295 4.5222, -3.936 0.2556 4.5222, -3.936 -0.0696 4.5222, -3.936 0.2556 4.5262, -3.936 -0.0696 4.5262, -4.1489 -0.3023 4.5222, -4.1489 -0.3023 4.5262, -4.0815 -0.2953 4.5262, -4.0815 -0.2953 4.5222, -4.0357 -0.2792 4.5262, -4.0357 -0.2792 4.5222, -4.0028 -0.2573 4.5262, -4.0028 -0.2573 4.5222, -3.9757 -0.2271 4.5262, -3.9757 -0.2271 4.5222, -3.9558 -0.1898 4.5262, -3.9558 -0.1898 4.5222, -3.9411 -0.1355 4.5262, -3.9411 -0.1355 4.5222, -4.3528 -0.0778 4.5222, -4.3528 -0.0778 4.5262, -4.3527 -0.0819 4.5262, -4.3527 -0.0819 4.5222, -4.3443 -0.1605 4.5262, -4.3443 -0.1605 4.5222, -4.3262 -0.2107 4.5262, -4.3262 -0.2107 4.5222, -4.3058 -0.2416 4.5262, -4.3058 -0.2416 4.5222, -4.2782 -0.2673 4.5262, -4.2782 -0.2673 4.5222, -4.2454 -0.2854 4.5262, -4.2454 -0.2854 4.5222, -4.2023 -0.2979 4.5262, -4.2023 -0.2979 4.5222, -4.3528 0.2556 4.5222, -4.3528 0.2556 4.5262, -4.2789 0.2556 4.5222, -4.2789 0.2556 4.5262, -4.2789 -0.0763 4.5222, -4.2789 -0.0763 4.5262, -4.1421 -0.2418 4.5222, -4.1421 -0.2418 4.5262, -4.1466 -0.2417 4.5262, -4.1466 -0.2417 4.5222, -4.1861 -0.2367 4.5262, -4.1861 -0.2367 4.5222, -4.2106 -0.2276 4.5262, -4.2106 -0.2276 4.5222, -4.2327 -0.2127 4.5262, -4.2327 -0.2127 4.5222, -4.2498 -0.1937 4.5262, -4.2498 -0.1937 4.5222, -4.2655 -0.1637 4.5262, -4.2655 -0.1637 4.5222, -4.2751 -0.1265 4.5262, -4.2751 -0.1265 4.5222, -4.01 -0.0816 4.5222, -4.01 -0.0816 4.5262, -4.0154 -0.1402 4.5262, -4.0154 -0.1402 4.5222, -4.0277 -0.1775 4.5262, -4.0277 -0.1775 4.5222, -4.0427 -0.2014 4.5262, -4.0427 -0.2014 4.5222, -4.0596 -0.2178 4.5262, -4.0596 -0.2178 4.5222, -4.081 -0.2304 4.5262, -4.081 -0.2304 4.5222, -4.108 -0.2387 4.5262, -4.108 -0.2387 4.5222, -4.01 0.2556 4.5222, -4.01 0.2556 4.5262
            ]
        }
        coordIndex [
            0,1,2,-1,2,1,3,-1,1,4,3,-1,3,4,5,-1,4,6,5,-1,5,6,7,-1,6,8,7,-1,7,8,9,-1,8,10,9,-1,9,10,11,-1,10,12,11,-1,11,12,13,-1,12,14,13,-1,13,14,15,-1,14,16,15,-1,15,16,17,-1,16,18,17,-1,17,18,19,-1,18,0,19,-1,19,0,2,-1,18,16,12,-1,12,16,14,-1,1,0,4,-1,4,0,18,-1,4,18,6,-1,6,18,12,-1,6,12,8,-1,8,12,10,-1,20,21,22,-1,20,22,23,-1,23,22,24,-1,23,24,25,-1,25,24,26,-1,25,26,27,-1,27,26,28,-1,27,28,29,-1,29,28,30,-1,29,30,31,-1,31,30,32,-1,31,32,33,-1,33,32,34,-1,33,34,35,-1,36,37,38,-1,38,37,39,-1,38,40,36,-1,36,40,41,-1,36,41,42,-1,42,41,43,-1,42,43,44,-1,44,43,45,-1,44,45,46,-1,46,45,47,-1,46,47,48,-1,48,47,49,-1,48,49,50,-1,50,49,21,-1,50,21,20,-1,39,37,51,-1,51,37,52,-1,51,52,53,-1,53,52,54,-1,53,54,55,-1,55,54,56,-1,55,56,57,-1,57,56,58,-1,57,58,59,-1,59,58,60,-1,59,60,61,-1,61,60,62,-1,61,62,63,-1,63,62,64,-1,63,64,65,-1,35,34,66,-1,35,66,67,-1,67,66,68,-1,67,68,69,-1,69,68,70,-1,69,70,71,-1,71,70,72,-1,71,72,73,-1,73,72,74,-1,73,74,75,-1,75,74,76,-1,75,76,77,-1,77,76,65,-1,77,65,64,-1,78,20,79,-1,79,20,23,-1,79,23,80,-1,80,23,25,-1,80,25,81,-1,81,25,27,-1,81,27,82,-1,82,27,29,-1,82,29,83,-1,83,29,31,-1,83,31,84,-1,84,31,33,-1,84,33,85,-1,85,33,35,-1,85,35,86,-1,86,35,67,-1,86,67,87,-1,87,67,69,-1,87,69,88,-1,88,69,71,-1,88,71,89,-1,89,71,73,-1,89,73,90,-1,90,73,75,-1,90,75,91,-1,91,75,77,-1,91,77,92,-1,92,77,64,-1,92,64,93,-1,93,64,62,-1,93,62,94,-1,94,62,60,-1,94,60,95,-1,95,60,58,-1,95,58,96,-1,96,58,56,-1,96,56,97,-1,97,56,54,-1,97,54,98,-1,98,54,52,-1,98,52,99,-1,99,52,37,-1,99,37,100,-1,100,37,36,-1,100,36,101,-1,101,36,42,-1,101,42,102,-1,102,42,44,-1,102,44,103,-1,103,44,46,-1,103,46,104,-1,104,46,48,-1,104,48,105,-1,105,48,50,-1,105,50,78,-1,78,50,20,-1,78,106,107,-1,78,107,105,-1,105,107,108,-1,105,108,104,-1,104,108,109,-1,104,109,103,-1,103,109,110,-1,103,110,102,-1,102,110,111,-1,102,111,101,-1,101,111,112,-1,101,112,100,-1,100,112,113,-1,100,113,99,-1,99,113,114,-1,99,114,98,-1,98,114,115,-1,98,115,97,-1,97,115,116,-1,97,116,96,-1,96,116,117,-1,96,117,95,-1,95,117,118,-1,95,118,94,-1,94,118,119,-1,94,119,93,-1,93,119,120,-1,93,120,92,-1,92,120,121,-1,92,121,91,-1,91,121,122,-1,91,122,90,-1,90,122,123,-1,90,123,89,-1,89,123,124,-1,89,124,88,-1,88,124,125,-1,88,125,87,-1,87,125,126,-1,87,126,86,-1,86,126,127,-1,86,127,85,-1,85,127,128,-1,85,128,84,-1,84,128,129,-1,84,129,83,-1,83,129,130,-1,83,130,82,-1,82,130,131,-1,82,131,81,-1,81,131,132,-1,81,132,80,-1,80,132,133,-1,80,133,79,-1,79,133,106,-1,79,106,78,-1,134,135,136,-1,136,135,137,-1,135,138,137,-1,137,138,139,-1,138,140,139,-1,139,140,141,-1,140,142,141,-1,141,142,143,-1,144,145,146,-1,144,146,147,-1,147,146,148,-1,147,148,149,-1,149,148,150,-1,149,150,151,-1,151,150,143,-1,151,143,142,-1,152,153,154,-1,152,154,155,-1,155,154,156,-1,155,156,157,-1,157,156,158,-1,157,158,159,-1,159,158,160,-1,159,160,161,-1,161,160,162,-1,161,162,163,-1,163,162,164,-1,163,164,165,-1,165,164,145,-1,165,145,144,-1,166,167,168,-1,166,168,169,-1,169,168,170,-1,169,170,171,-1,171,170,172,-1,171,172,173,-1,173,172,153,-1,173,153,152,-1,166,174,167,-1,167,174,175,-1,175,174,176,-1,177,178,179,-1,177,179,180,-1,180,179,181,-1,180,181,176,-1,176,181,182,-1,176,182,175,-1,178,177,183,-1,183,177,184,-1,183,184,185,-1,185,184,186,-1,185,186,187,-1,187,186,188,-1,187,188,189,-1,189,188,190,-1,189,190,191,-1,191,190,192,-1,191,192,193,-1,193,192,194,-1,193,194,195,-1,195,194,196,-1,195,196,197,-1,198,199,200,-1,198,200,201,-1,201,200,202,-1,201,202,203,-1,203,202,204,-1,203,204,205,-1,205,204,197,-1,205,197,196,-1,198,206,199,-1,199,206,207,-1,206,208,207,-1,207,208,209,-1,208,134,209,-1,209,134,136,-1,203,149,151,-1,135,134,138,-1,138,134,208,-1,138,208,140,-1,140,208,206,-1,140,206,142,-1,142,206,198,-1,142,198,151,-1,151,198,201,-1,151,201,203,-1,166,169,174,-1,174,169,171,-1,174,171,176,-1,176,171,173,-1,176,173,180,-1,180,173,152,-1,149,203,147,-1,147,203,205,-1,147,205,144,-1,144,205,196,-1,144,196,165,-1,165,196,194,-1,165,194,163,-1,163,194,192,-1,163,192,161,-1,161,192,190,-1,161,190,159,-1,159,190,188,-1,159,188,157,-1,157,188,186,-1,157,186,155,-1,155,186,184,-1,155,184,152,-1,152,184,177,-1,152,177,180,-1,210,211,212,-1,212,211,213,-1,211,214,213,-1,213,214,215,-1,214,216,215,-1,215,216,217,-1,218,219,220,-1,218,220,221,-1,221,220,217,-1,221,217,216,-1,218,222,219,-1,219,222,223,-1,224,225,226,-1,224,226,227,-1,227,226,223,-1,227,223,222,-1,224,228,225,-1,225,228,229,-1,228,230,229,-1,229,230,231,-1,230,232,231,-1,231,232,233,-1,232,234,233,-1,233,234,235,-1,234,236,235,-1,235,236,237,-1,236,238,237,-1,237,238,239,-1,240,241,242,-1,240,242,243,-1,243,242,239,-1,243,239,238,-1,240,244,241,-1,241,244,245,-1,246,247,248,-1,246,248,249,-1,249,248,245,-1,249,245,244,-1,246,250,247,-1,247,250,251,-1,250,252,251,-1,251,252,253,-1,252,210,253,-1,253,210,212,-1,227,222,232,-1,243,238,222,-1,232,222,234,-1,234,222,238,-1,234,238,236,-1,214,211,216,-1,216,211,210,-1,216,210,221,-1,221,210,218,-1,230,228,232,-1,232,228,224,-1,232,224,227,-1,210,252,218,-1,218,252,250,-1,218,250,246,-1,246,249,218,-1,218,249,244,-1,218,244,222,-1,222,244,240,-1,222,240,243,-1,254,255,256,-1,256,255,257,-1,258,259,260,-1,258,260,261,-1,261,260,262,-1,261,262,263,-1,263,262,257,-1,263,257,255,-1,264,265,266,-1,264,266,267,-1,267,266,268,-1,267,268,269,-1,269,268,270,-1,269,270,271,-1,271,270,272,-1,271,272,273,-1,273,272,274,-1,273,274,275,-1,275,274,276,-1,275,276,277,-1,277,276,259,-1,277,259,258,-1,278,279,280,-1,278,280,281,-1,281,280,282,-1,281,282,283,-1,283,282,284,-1,283,284,285,-1,285,284,286,-1,285,286,287,-1,287,286,288,-1,287,288,289,-1,289,288,290,-1,289,290,291,-1,291,290,292,-1,291,292,293,-1,293,292,265,-1,293,265,264,-1,294,295,296,-1,294,296,297,-1,297,296,279,-1,297,279,278,-1,294,298,295,-1,295,298,299,-1,298,300,299,-1,299,300,301,-1,300,302,301,-1,301,302,303,-1,302,304,303,-1,303,304,305,-1,304,306,305,-1,305,306,307,-1,308,309,310,-1,308,310,311,-1,311,310,307,-1,311,307,306,-1,312,313,314,-1,312,314,315,-1,315,314,316,-1,315,316,317,-1,317,316,318,-1,317,318,319,-1,319,318,320,-1,319,320,321,-1,321,320,322,-1,321,322,323,-1,323,322,324,-1,323,324,325,-1,325,324,309,-1,325,309,308,-1,326,327,328,-1,326,328,329,-1,329,328,330,-1,329,330,331,-1,331,330,332,-1,331,332,333,-1,333,332,334,-1,333,334,335,-1,335,334,336,-1,335,336,337,-1,337,336,338,-1,337,338,339,-1,339,338,313,-1,339,313,312,-1,254,256,340,-1,254,340,341,-1,341,340,342,-1,341,342,343,-1,343,342,327,-1,343,327,326,-1,263,255,254,-1,302,300,304,-1,304,300,298,-1,304,298,306,-1,326,261,343,-1,343,261,263,-1,343,263,341,-1,341,263,254,-1,298,294,306,-1,306,294,297,-1,306,297,311,-1,311,297,278,-1,311,278,308,-1,308,278,281,-1,308,281,325,-1,325,281,283,-1,325,283,323,-1,323,283,285,-1,323,285,321,-1,321,285,287,-1,321,287,319,-1,319,287,289,-1,319,289,317,-1,317,289,291,-1,317,291,315,-1,315,291,293,-1,315,293,312,-1,312,293,264,-1,312,264,339,-1,339,264,267,-1,339,267,337,-1,337,267,269,-1,337,269,335,-1,335,269,271,-1,335,271,333,-1,333,271,273,-1,333,273,331,-1,331,273,275,-1,331,275,329,-1,329,275,277,-1,329,277,326,-1,326,277,258,-1,326,258,261,-1,344,345,346,-1,346,345,347,-1,345,348,347,-1,347,348,349,-1,348,350,349,-1,349,350,351,-1,350,352,351,-1,351,352,353,-1,352,354,353,-1,353,354,355,-1,354,356,355,-1,355,356,357,-1,356,358,357,-1,357,358,359,-1,358,360,359,-1,359,360,361,-1,360,362,361,-1,361,362,363,-1,362,364,363,-1,363,364,365,-1,364,366,365,-1,365,366,367,-1,366,344,367,-1,367,344,346,-1,348,345,344,-1,344,366,348,-1,348,366,364,-1,348,364,350,-1,354,352,356,-1,356,352,350,-1,356,350,358,-1,358,350,364,-1,358,364,360,-1,360,364,362,-1,368,369,370,-1,370,369,371,-1,372,373,374,-1,372,374,375,-1,375,374,376,-1,375,376,377,-1,377,376,371,-1,377,371,369,-1,378,379,380,-1,378,380,381,-1,381,380,382,-1,381,382,383,-1,383,382,384,-1,383,384,385,-1,385,384,386,-1,385,386,387,-1,387,386,388,-1,387,388,389,-1,389,388,390,-1,389,390,391,-1,391,390,373,-1,391,373,372,-1,392,393,394,-1,392,394,395,-1,395,394,396,-1,395,396,397,-1,397,396,398,-1,397,398,399,-1,399,398,400,-1,399,400,401,-1,401,400,402,-1,401,402,403,-1,403,402,379,-1,403,379,378,-1,404,405,406,-1,404,406,407,-1,407,406,408,-1,407,408,409,-1,409,408,410,-1,409,410,411,-1,411,410,412,-1,411,412,413,-1,413,412,393,-1,413,393,392,-1,414,415,416,-1,416,415,417,-1,416,418,414,-1,414,418,419,-1,414,419,420,-1,420,419,421,-1,420,421,422,-1,422,421,423,-1,422,423,424,-1,424,423,425,-1,424,425,426,-1,426,425,427,-1,426,427,428,-1,428,427,405,-1,428,405,404,-1,429,430,431,-1,431,430,432,-1,432,433,431,-1,431,433,417,-1,431,417,415,-1,429,434,430,-1,430,434,435,-1,436,437,438,-1,436,438,439,-1,439,438,440,-1,439,440,441,-1,441,440,435,-1,441,435,434,-1,442,443,444,-1,442,444,445,-1,445,444,446,-1,445,446,447,-1,447,446,448,-1,447,448,449,-1,449,448,450,-1,449,450,451,-1,451,450,452,-1,451,452,453,-1,453,452,454,-1,453,454,455,-1,455,454,437,-1,455,437,436,-1,456,457,458,-1,456,458,459,-1,459,458,460,-1,459,460,461,-1,461,460,462,-1,461,462,463,-1,463,462,464,-1,463,464,465,-1,465,464,466,-1,465,466,467,-1,467,466,443,-1,467,443,442,-1,468,469,470,-1,468,470,471,-1,471,470,472,-1,471,472,473,-1,473,472,474,-1,473,474,475,-1,475,474,476,-1,475,476,477,-1,477,476,457,-1,477,457,456,-1,478,479,480,-1,478,480,481,-1,481,480,482,-1,481,482,483,-1,483,482,484,-1,483,484,485,-1,485,484,486,-1,485,486,487,-1,487,486,488,-1,487,488,489,-1,489,488,490,-1,489,490,491,-1,491,490,469,-1,491,469,468,-1,368,370,492,-1,368,492,493,-1,493,492,494,-1,493,494,495,-1,495,494,479,-1,495,479,478,-1,369,368,377,-1,377,368,493,-1,377,493,375,-1,375,493,495,-1,375,495,372,-1,372,495,478,-1,372,478,391,-1,391,478,481,-1,391,481,389,-1,389,481,483,-1,389,483,387,-1,387,483,485,-1,387,485,385,-1,385,485,487,-1,385,487,383,-1,383,487,489,-1,383,489,381,-1,381,489,491,-1,381,491,378,-1,378,491,468,-1,378,468,403,-1,403,468,471,-1,403,471,401,-1,401,471,473,-1,401,473,399,-1,399,473,475,-1,399,475,397,-1,397,475,477,-1,397,477,395,-1,395,477,456,-1,395,456,392,-1,392,456,459,-1,392,459,413,-1,413,459,461,-1,413,461,411,-1,411,461,463,-1,411,463,409,-1,409,463,465,-1,409,465,407,-1,407,465,467,-1,407,467,404,-1,404,467,442,-1,404,442,428,-1,428,442,445,-1,428,445,426,-1,426,445,447,-1,426,447,424,-1,424,447,449,-1,424,449,422,-1,422,449,451,-1,422,451,420,-1,420,451,453,-1,420,453,414,-1,414,453,455,-1,414,455,415,-1,415,455,436,-1,415,436,431,-1,431,436,439,-1,431,439,429,-1,429,439,441,-1,429,441,434,-1,496,497,498,-1,498,497,499,-1,500,501,502,-1,500,502,503,-1,503,502,504,-1,503,504,505,-1,505,504,506,-1,505,506,507,-1,507,506,508,-1,507,508,509,-1,509,508,510,-1,509,510,511,-1,511,510,512,-1,511,512,513,-1,513,512,499,-1,513,499,497,-1,514,515,516,-1,514,516,517,-1,517,516,518,-1,517,518,519,-1,519,518,520,-1,519,520,521,-1,521,520,522,-1,521,522,523,-1,523,522,524,-1,523,524,525,-1,525,524,526,-1,525,526,527,-1,527,526,528,-1,527,528,529,-1,529,528,501,-1,529,501,500,-1,514,530,515,-1,515,530,531,-1,530,532,531,-1,531,532,533,-1,532,534,533,-1,533,534,535,-1,536,537,538,-1,536,538,539,-1,539,538,540,-1,539,540,541,-1,541,540,542,-1,541,542,543,-1,543,542,544,-1,543,544,545,-1,545,544,546,-1,545,546,547,-1,547,546,548,-1,547,548,549,-1,549,548,550,-1,549,550,551,-1,551,550,535,-1,551,535,534,-1,552,553,554,-1,552,554,555,-1,555,554,556,-1,555,556,557,-1,557,556,558,-1,557,558,559,-1,559,558,560,-1,559,560,561,-1,561,560,562,-1,561,562,563,-1,563,562,564,-1,563,564,565,-1,565,564,537,-1,565,537,536,-1,552,566,553,-1,553,566,567,-1,566,496,567,-1,567,496,498,-1,534,532,530,-1,505,507,559,-1,559,507,509,-1,559,509,557,-1,557,509,511,-1,557,511,555,-1,555,511,513,-1,555,513,552,-1,552,513,497,-1,552,497,566,-1,566,497,496,-1,559,561,505,-1,505,561,563,-1,505,563,503,-1,503,563,565,-1,503,565,500,-1,530,514,534,-1,534,514,517,-1,534,517,551,-1,551,517,519,-1,551,519,549,-1,549,519,521,-1,549,521,547,-1,547,521,523,-1,547,523,545,-1,545,523,525,-1,545,525,543,-1,543,525,527,-1,543,527,541,-1,541,527,529,-1,541,529,539,-1,539,529,500,-1,539,500,536,-1,536,500,565,-1,
        ]
    }
}
Shape{
    appearance Appearance {
        material  Material 	{
            diffuseColor 0.0 0.9215686274509803 0.9372549019607843
            specularColor 0.0 0.8117647058823529 0.8235294117647058
            ambientIntensity 0.6478
            transparency 0.0
            shininess 0.5
        }
    }
    geometry IndexedFaceSet {
        ccw TRUE
        solid FALSE
        coord DEF co Coordinate {
            point [
                4.1786 -0.1733 4.5262, 4.1933 -0.1145 4.5262, 3.9841 -0.0274 4.5262, 4.1992 -0.0238 4.5262, 3.9906 0.0703 4.5262, 4.006 0.1316 4.5262, 4.0945 0.2018 4.5262, 4.1125 0.2 4.5262, 4.0756 -0.2404 4.5262, 3.9932 -0.1337 4.5262, 4.0095 -0.1848 4.5262, 4.1146 -0.2393 4.5262, 4.1318 -0.2326 4.5262, 4.0924 -0.2418 4.5262, 4.1477 -0.2215 4.5262, 4.1632 -0.2035 4.5262, 4.1895 0.0926 4.5262, 4.1747 0.1417 4.5262, 4.1605 0.1671 4.5262, 4.0237 -0.2083 4.5262, 4.0396 -0.2245 4.5262, 4.056 -0.2344 4.5262, 4.1438 0.1851 4.5262, 4.1291 0.1943 4.5262, 4.0715 0.199 4.5262, 4.054 0.1922 4.5262, 4.0381 0.1811 4.5262, 4.0225 0.1632 4.5262
            ]
        }
        coordIndex [
            0,1,2,-1,2,1,3,-1,2,3,4,-1,5,4,6,-1,6,4,7,-1,8,9,10,-1,11,12,2,-1,9,8,2,-1,2,8,13,-1,2,13,11,-1,12,14,2,-1,2,14,15,-1,2,15,0,-1,3,16,4,-1,4,16,17,-1,4,17,18,-1,10,19,8,-1,8,19,20,-1,8,20,21,-1,18,22,4,-1,4,22,23,-1,4,23,7,-1,6,24,25,-1,25,26,6,-1,6,26,27,-1,6,27,5,-1,
        ]
    }
}