#VRML V2.0 utf8
# 3D model generated by easyeda2kicad.py (https://github.com/uPesy/easyeda2kicad.py)

Shape{
    appearance Appearance {
        material  Material 	{
            diffuseColor 0.20784313725490197 0.20784313725490197 0.20784313725490197
            specularColor 0.01568627450980392 0.01568627450980392 0.01568627450980392
            ambientIntensity 0.2
            transparency 0
            shininess 0.5
        }
    }
    geometry IndexedFaceSet {
        ccw TRUE
        solid FALSE
        coord DEF co Coordinate {
            point [
                -2.5787 0.4921 0.9621, -2.5787 0.4921 3.3465, -0.0816 0.4921 3.3465, 0.168 0.4921 0.9597, 0.3027 0.4921 0.9621, 0.2904 0.4921 0.9612, 0.2449 0.4921 0.9489, 0.2449 0.4921 0.8961, 0.168 0.4921 0.566, 0.5321 0.4921 0.8113, 0.5169 0.4921 0.8561, 0.7202 0.4921 0.9597, -0.0336 0.4921 0.9165, -0.0816 0.4921 0.0, -0.0816 0.4921 0.9621, 0.3371 0.4921 0.9213, 0.2519 0.4921 0.6257, 0.2892 0.4921 0.915, 0.2449 0.4921 0.6296, 0.4934 0.4921 0.8934, 0.4591 0.4921 0.9265, 0.4223 0.4921 0.9479, -0.0336 0.4921 0.9597, 0.3791 0.4921 0.9609, 0.3653 0.4921 0.9621, 0.773 0.4921 0.9597, 0.1152 0.4921 0.9165, 0.1152 0.4921 0.7868, 0.3758 0.4921 0.9169, 0.4051 0.4921 0.9063, 0.433 0.4921 0.8876, 0.4567 0.4921 0.8612, 0.4728 0.4921 0.8308, 0.4832 0.4921 0.7882, 0.4849 0.4921 0.7586, 0.4809 0.4921 0.716, 0.4703 0.4921 0.6822, 0.3459 0.4921 0.6044, 0.4356 0.4921 0.6355, 0.3824 0.4921 0.6085, 0.4114 0.4921 0.6191, 0.4539 0.4921 0.6548, 0.2937 0.4921 0.6102, 0.5377 0.4921 0.7554, 0.7202 0.4921 0.6092, 0.5339 0.4921 0.7095, 0.1152 0.4921 0.7436, 0.1152 0.4921 0.6092, -0.024 0.4921 0.7436, -0.0432 0.4921 0.6092, -0.024 0.4921 0.7868, 2.5787 0.4921 0.9621, 2.5787 0.4921 0.0, 0.773 0.4921 0.566, 0.5713 0.4921 0.566, -0.0432 0.4921 0.566, 0.5217 0.4921 0.6672, 0.5713 0.4921 0.6092, 0.5006 0.4921 0.6302, 0.4718 0.4921 0.5998, 0.2449 0.4921 0.5864, 0.2868 0.4921 0.5691, 0.3424 0.4921 0.5614, 0.3532 0.4921 0.5612, 0.4016 0.4921 0.5662, 0.4399 0.4921 0.5793, 2.5787 0.4921 3.3465, 0.5 0.4921 3.3465, -0.5233 0.4921 0.566, -0.4657 0.4921 0.566, -0.6146 0.4921 0.9597, -0.6674 0.4921 0.9597, -0.7236 0.4921 0.6764, -0.5609 0.4921 0.6764, -0.7634 0.4921 0.566, -2.5787 0.4921 0.0, -0.3341 0.4921 0.9374, -0.3731 0.4921 0.912, -0.4173 0.4921 0.6741, -0.3952 0.4921 0.6393, -0.363 0.4921 0.6082, -0.3223 0.4921 0.5842, -0.277 0.4921 0.5704, -0.2271 0.4921 0.566, -0.12 0.4921 0.566, -0.12 0.4921 0.9597, -0.2311 0.4921 0.9597, -0.288 0.4921 0.9536, -0.3884 0.4921 0.8979, -0.412 0.4921 0.867, -0.4286 0.4921 0.8288, -0.4362 0.4921 0.7872, -0.4369 0.4921 0.7678, -0.4314 0.4921 0.7151, 0.3375 0.4921 0.9645, -0.821 0.4921 0.566, -0.821 0.4921 0.566
            ]
        }
        coordIndex [
            0,1,2,-1,3,4,5,-1,5,6,3,-1,3,6,7,-1,3,7,8,-1,9,10,11,-1,12,13,14,-1,15,16,17,-1,17,16,18,-1,17,18,7,-1,10,19,11,-1,11,19,20,-1,11,20,21,-1,4,3,14,-1,14,3,22,-1,14,22,12,-1,21,23,11,-1,11,23,24,-1,11,24,25,-1,12,26,27,-1,15,28,16,-1,16,28,29,-1,16,29,30,-1,30,31,16,-1,16,31,32,-1,16,32,33,-1,33,34,16,-1,16,34,35,-1,16,35,36,-1,37,38,39,-1,39,38,40,-1,36,41,16,-1,16,41,38,-1,16,38,42,-1,42,38,37,-1,9,11,43,-1,43,11,44,-1,43,44,45,-1,46,47,48,-1,48,47,49,-1,48,49,50,-1,51,52,53,-1,53,52,13,-1,53,13,54,-1,27,50,12,-1,12,50,49,-1,12,49,13,-1,13,49,55,-1,13,55,8,-1,45,44,56,-1,56,44,57,-1,56,57,58,-1,58,57,54,-1,58,54,59,-1,7,18,8,-1,8,18,60,-1,8,60,13,-1,13,60,61,-1,13,61,62,-1,62,63,13,-1,13,63,64,-1,13,64,54,-1,54,64,65,-1,54,65,59,-1,53,25,51,-1,51,25,24,-1,51,24,66,-1,66,24,67,-1,68,69,13,-1,70,71,14,-1,72,73,74,-1,74,73,68,-1,74,68,75,-1,75,68,13,-1,70,76,77,-1,78,79,69,-1,69,79,80,-1,69,80,13,-1,13,80,81,-1,13,81,82,-1,82,83,13,-1,13,83,84,-1,13,84,14,-1,84,85,14,-1,14,85,86,-1,14,86,70,-1,70,86,87,-1,70,87,76,-1,77,88,70,-1,70,88,89,-1,70,89,90,-1,90,91,70,-1,70,91,92,-1,70,92,69,-1,69,92,93,-1,69,93,78,-1,24,94,67,-1,67,94,4,-1,67,4,2,-1,2,4,14,-1,2,14,0,-1,0,14,71,-1,0,71,75,-1,75,71,95,-1,75,95,74,-1,
        ]
    }
}
Shape{
    appearance Appearance {
        material  Material 	{
            diffuseColor 0.8274509803921568 0.6666666666666666 0.12941176470588237
            specularColor 0.8274509803921568 0.6666666666666666 0.12941176470588237
            ambientIntensity 0.2
            transparency 0
            shininess 0.5
        }
    }
    geometry IndexedFaceSet {
        ccw TRUE
        solid FALSE
        coord DEF co Coordinate {
            point [
                -2.126 -0.0787 0.315, -2.2165 -0.0787 0.315, -2.126 0.0787 0.315, -2.2165 0.0787 0.315, -2.2165 0.0787 0.315
            ]
        }
        coordIndex [
            0,1,2,-1,2,1,3,-1,
        ]
    }
}
Shape{
    appearance Appearance {
        material  Material 	{
            diffuseColor 0.20784313725490197 0.20784313725490197 0.20784313725490197
            specularColor 0.01568627450980392 0.01568627450980392 0.01568627450980392
            ambientIntensity 0.2
            transparency 0
            shininess 0.5
        }
    }
    geometry IndexedFaceSet {
        ccw TRUE
        solid FALSE
        coord DEF co Coordinate {
            point [
                2.5787 -0.4921 0.0, -2.5787 -0.4921 0.0, 2.5787 -0.2559 0.0, -2.5787 -0.2559 0.0, 2.3346 0.3346 3.3465, 2.2165 0.2165 3.2283, 2.3346 -0.3346 3.3465, 2.2165 -0.2165 3.2283, 1.7835 0.2165 3.2283, 1.6654 0.3346 3.3465, 1.6654 -0.3346 3.3465, 1.7835 -0.2165 3.2283, 1.7835 -0.2165 0.2362, 1.7835 -0.0787 0.315, 1.7835 -0.0787 2.5812, 1.7835 0.0787 0.315, 1.7835 0.2165 0.2362, 1.7835 0.0787 2.5812, 2.2165 0.2165 0.2362, 2.2165 0.0787 2.5812, 2.2165 -0.0787 2.5812, 2.2165 -0.2165 0.2362, 2.2165 -0.0787 0.315, 2.2165 0.0787 0.315, 1.3346 0.3346 3.3465, 1.2165 0.2165 3.2283, 1.3346 -0.3346 3.3465, 1.2165 -0.2165 3.2283, 0.7835 0.2165 3.2283, 0.6654 0.3346 3.3465, 0.6654 -0.3346 3.3465, 0.7835 -0.2165 3.2283, 0.7835 -0.2165 0.2362, 0.7835 -0.0787 0.315, 0.7835 -0.0787 2.5812, 0.7835 0.0787 0.315, 0.7835 0.2165 0.2362, 0.7835 0.0787 2.5812, 1.2165 0.2165 0.2362, 1.2165 0.0787 2.5812, 1.2165 -0.0787 2.5812, 1.2165 -0.2165 0.2362, 1.2165 -0.0787 0.315, 1.2165 0.0787 0.315, 0.3346 0.3346 3.3465, 0.2165 0.2165 3.2283, 0.3346 -0.3346 3.3465, 0.2165 -0.2165 3.2283, -0.2165 0.2165 3.2283, -0.3346 0.3346 3.3465, -0.3346 -0.3346 3.3465, -0.2165 -0.2165 3.2283, -0.2165 -0.2165 0.2362, -0.2165 -0.0787 0.315, -0.2165 -0.0787 2.5812, -0.2165 0.0787 0.315, -0.2165 0.2165 0.2362, -0.2165 0.0787 2.5812, 0.2165 0.2165 0.2362, 0.2165 0.0787 2.5812, 0.2165 -0.0787 2.5812, 0.2165 -0.2165 0.2362, 0.2165 -0.0787 0.315, 0.2165 0.0787 0.315, 2.5787 -0.4921 3.3465, 2.5787 -0.4134 3.3465, 0.5 -0.4921 3.3465, 0.5 -0.4134 3.3465, -2.5787 -0.4921 3.3465, -1.6654 0.3346 3.3465, -0.0816 0.4921 3.3465, -2.5787 0.4921 3.3465, -1.6654 -0.3346 3.3465, -2.3346 -0.3346 3.3465, -2.5787 -0.4134 3.3465, 0.5 0.4921 3.3465, -1.3346 -0.3346 3.3465, -0.6654 -0.3346 3.3465, -0.6654 0.3346 3.3465, -2.3346 0.3346 3.3465, -1.3346 0.3346 3.3465, 2.5787 0.4921 3.3465, 2.5787 -0.2559 0.2362, 2.5787 0.4921 0.9621, 2.5787 0.2559 0.0, 2.5787 0.4921 0.0, 2.5787 0.2559 0.2362, 2.5787 -0.2362 0.2362, -2.5787 0.4921 0.9621, -2.5787 0.4921 0.0, -2.5787 0.2559 0.0, -2.5787 -0.2559 0.2362, -2.5787 -0.2362 0.2362, -2.5787 0.2559 0.2362, -0.0816 0.4921 0.0, -1.7835 0.2165 0.2362, -1.7835 0.0787 0.315, -1.7835 0.0787 2.5812, -1.7835 -0.0787 0.315, -1.7835 -0.2165 0.2362, -1.7835 -0.0787 2.5812, -1.7835 -0.2165 3.2283, -1.7835 0.2165 3.2283, -2.2165 -0.2165 0.2362, -2.2165 -0.2165 3.2283, -2.2165 -0.0787 0.315, -2.2165 -0.0787 2.5812, -2.2165 0.0787 0.315, -2.2165 0.2165 0.2362, -2.2165 0.0787 2.5812, -2.2165 0.2165 3.2283, -1.2165 -0.2165 0.2362, -1.2165 -0.2165 3.2283, -0.7835 -0.2165 0.2362, -0.7835 -0.2165 3.2283, -0.7835 0.0787 2.5812, -0.7835 0.2165 3.2283, -0.7835 0.2165 0.2362, -0.7835 -0.0787 2.5812, -0.7835 -0.0787 0.315, -0.7835 0.0787 0.315, -1.2165 0.2165 0.2362, -1.2165 0.2165 3.2283, -1.2165 -0.0787 0.315, -1.2165 -0.0787 2.5812, -1.2165 0.0787 0.315, -1.2165 0.0787 2.5812, -0.5 -0.2559 0.2362, -0.5 -0.2362 0.2362, -0.5 0.2559 0.2362, -0.5 0.2559 0.2362
            ]
        }
        coordIndex [
            0,1,2,-1,2,1,3,-1,4,5,6,-1,6,5,7,-1,5,4,8,-1,8,4,9,-1,10,11,9,-1,9,11,8,-1,6,7,10,-1,10,7,11,-1,12,13,14,-1,13,12,15,-1,15,12,16,-1,15,16,17,-1,17,16,8,-1,17,8,14,-1,14,8,11,-1,14,11,12,-1,18,5,16,-1,16,5,8,-1,19,5,18,-1,5,19,7,-1,7,19,20,-1,7,20,21,-1,21,20,22,-1,21,22,18,-1,18,22,23,-1,18,23,19,-1,12,11,21,-1,21,11,7,-1,24,25,26,-1,26,25,27,-1,25,24,28,-1,28,24,29,-1,30,31,29,-1,29,31,28,-1,26,27,30,-1,30,27,31,-1,32,33,34,-1,33,32,35,-1,35,32,36,-1,35,36,37,-1,37,36,28,-1,37,28,34,-1,34,28,31,-1,34,31,32,-1,38,25,36,-1,36,25,28,-1,39,25,38,-1,25,39,27,-1,27,39,40,-1,27,40,41,-1,41,40,42,-1,41,42,38,-1,38,42,43,-1,38,43,39,-1,32,31,41,-1,41,31,27,-1,44,45,46,-1,46,45,47,-1,45,44,48,-1,48,44,49,-1,50,51,49,-1,49,51,48,-1,46,47,50,-1,50,47,51,-1,52,53,54,-1,53,52,55,-1,55,52,56,-1,55,56,57,-1,57,56,48,-1,57,48,54,-1,54,48,51,-1,54,51,52,-1,58,45,56,-1,56,45,48,-1,59,45,58,-1,45,59,47,-1,47,59,60,-1,47,60,61,-1,61,60,62,-1,61,62,58,-1,58,62,63,-1,58,63,59,-1,52,51,61,-1,61,51,47,-1,64,65,66,-1,66,65,67,-1,66,67,68,-1,69,70,71,-1,72,73,74,-1,70,49,75,-1,75,49,44,-1,75,44,67,-1,67,44,46,-1,67,46,50,-1,76,67,77,-1,77,67,50,-1,77,50,78,-1,74,73,71,-1,71,73,79,-1,71,79,69,-1,50,49,78,-1,78,49,70,-1,78,70,80,-1,80,70,69,-1,80,69,76,-1,76,69,72,-1,76,72,67,-1,67,72,74,-1,67,74,68,-1,26,10,24,-1,24,10,9,-1,29,75,30,-1,30,75,67,-1,30,67,26,-1,26,67,65,-1,26,65,10,-1,29,24,75,-1,75,24,9,-1,75,9,81,-1,81,9,4,-1,81,4,65,-1,65,4,6,-1,65,6,10,-1,0,2,82,-1,83,81,65,-1,84,85,86,-1,86,85,83,-1,86,83,87,-1,87,83,65,-1,87,65,82,-1,82,65,64,-1,82,64,0,-1,88,89,90,-1,3,1,91,-1,91,1,68,-1,91,68,92,-1,92,68,74,-1,74,71,92,-1,92,71,88,-1,92,88,93,-1,93,88,90,-1,68,1,66,-1,66,1,0,-1,66,0,64,-1,85,84,94,-1,94,84,90,-1,94,90,89,-1,95,96,97,-1,96,95,98,-1,98,95,99,-1,98,99,100,-1,100,99,101,-1,100,101,97,-1,97,101,102,-1,97,102,95,-1,103,104,99,-1,99,104,101,-1,103,105,106,-1,105,103,107,-1,107,103,108,-1,107,108,109,-1,109,108,110,-1,109,110,106,-1,106,110,104,-1,106,104,103,-1,95,102,108,-1,108,102,110,-1,73,104,79,-1,79,104,110,-1,72,101,73,-1,73,101,104,-1,102,69,110,-1,110,69,79,-1,69,102,72,-1,72,102,101,-1,111,112,113,-1,113,112,114,-1,115,116,117,-1,116,115,114,-1,114,115,118,-1,114,118,113,-1,113,118,119,-1,113,119,117,-1,117,119,120,-1,117,120,115,-1,117,116,121,-1,121,116,122,-1,111,123,124,-1,123,111,125,-1,125,111,121,-1,125,121,126,-1,126,121,122,-1,126,122,124,-1,124,122,112,-1,124,112,111,-1,77,114,76,-1,76,114,112,-1,76,112,80,-1,80,112,122,-1,116,78,122,-1,122,78,80,-1,78,116,77,-1,77,116,114,-1,91,92,127,-1,127,92,128,-1,127,128,82,-1,82,128,87,-1,128,12,87,-1,87,12,21,-1,87,21,86,-1,41,38,16,-1,21,18,86,-1,86,18,16,-1,86,16,129,-1,129,16,38,-1,129,38,36,-1,16,12,41,-1,41,12,128,-1,41,128,32,-1,32,128,61,-1,32,61,36,-1,36,61,58,-1,36,58,129,-1,129,58,56,-1,129,56,128,-1,128,56,52,-1,128,52,61,-1,95,121,99,-1,99,121,111,-1,117,129,113,-1,113,129,128,-1,113,128,111,-1,111,128,92,-1,111,92,99,-1,117,121,129,-1,129,121,95,-1,129,95,93,-1,93,95,108,-1,93,108,92,-1,92,108,103,-1,92,103,99,-1,82,2,127,-1,127,2,3,-1,127,3,91,-1,93,90,129,-1,129,90,84,-1,129,84,86,-1,
        ]
    }
}
Shape{
    appearance Appearance {
        material  Material 	{
            diffuseColor 0.8274509803921568 0.6666666666666666 0.12941176470588237
            specularColor 0.8274509803921568 0.6666666666666666 0.12941176470588237
            ambientIntensity 0.2
            transparency 0
            shininess 0.5
        }
    }
    geometry IndexedFaceSet {
        ccw TRUE
        solid FALSE
        coord DEF co Coordinate {
            point [
                -1.7835 -0.0787 2.5812, -1.7835 0.0787 2.5812, -1.8405 0.0787 2.4861, -1.8405 -0.0787 2.4861, -1.8743 0.0787 2.3805, -1.8743 -0.0787 2.3805, -1.8832 0.0787 2.27, -1.8832 -0.0787 2.27, -2.1168 -0.0787 2.27, -2.1168 0.0787 2.27, -2.1257 0.0787 2.3805, -2.1257 -0.0787 2.3805, -2.1595 0.0787 2.4861, -2.1595 -0.0787 2.4861, -2.2165 0.0787 2.5812, -2.2165 -0.0787 2.5812, -1.7835 0.0787 0.315, -1.7835 -0.0787 0.315, -1.874 0.0787 0.315, -1.874 -0.0787 0.315, -2.2165 -0.0787 0.315, -2.126 -0.0787 0.315, -2.1412 -0.0787 1.0326, -2.0194 -0.0787 0.9461, -2.057 -0.0787 0.9556, -1.8426 -0.0787 1.1079, -2.0866 -0.0787 -1.2598, -1.9134 -0.0787 -1.2598, -2.126 -0.0787 -1.0366, -1.874 -0.0787 -1.0366, -2.0912 -0.0787 0.974, -2.1198 -0.0787 1.0002, -1.846 -0.0787 1.0692, -1.8588 -0.0787 1.0326, -1.8802 -0.0787 1.0002, -1.9088 -0.0787 0.974, -1.943 -0.0787 0.9556, -1.9806 -0.0787 0.9461, -2.154 -0.0787 1.0692, -2.1574 -0.0787 1.1079, -2.1412 0.0787 1.0326, -2.1198 0.0787 1.0002, -2.2165 0.0787 0.315, -1.9806 0.0787 0.9461, -1.943 0.0787 0.9556, -2.126 0.0787 0.315, -1.9088 0.0787 0.974, -1.9134 0.0787 -1.2598, -2.0866 0.0787 -1.2598, -1.874 0.0787 -1.0366, -2.126 0.0787 -1.0366, -1.8588 0.0787 1.0326, -1.8802 0.0787 1.0002, -2.1574 0.0787 1.1079, -2.154 0.0787 1.0692, -2.0912 0.0787 0.974, -2.057 0.0787 0.9556, -2.0194 0.0787 0.9461, -1.846 0.0787 1.0692, -1.8426 0.0787 1.1079, -0.874 0.0787 -1.0366, -0.874 0.0787 0.315, -0.874 -0.0787 -1.0366, -0.874 -0.0787 0.315, -0.9134 0.0787 -1.2598, -0.9134 -0.0787 -1.2598, -1.0866 0.0787 -1.2598, -1.0866 -0.0787 -1.2598, -1.126 0.0787 -1.0366, -1.126 -0.0787 -1.0366, -1.126 -0.0787 0.315, -1.126 0.0787 0.315, -1.2165 -0.0787 0.315, -1.2165 0.0787 0.315, -0.7835 -0.0787 2.5812, -0.7835 0.0787 2.5812, -0.8405 0.0787 2.4861, -0.8405 -0.0787 2.4861, -0.8743 0.0787 2.3805, -0.8743 -0.0787 2.3805, -0.8832 0.0787 2.27, -0.8832 -0.0787 2.27, -1.1168 -0.0787 2.27, -1.1168 0.0787 2.27, -1.1257 0.0787 2.3805, -1.1257 -0.0787 2.3805, -1.1595 0.0787 2.4861, -1.1595 -0.0787 2.4861, -1.2165 0.0787 2.5812, -1.2165 -0.0787 2.5812, -0.8588 -0.0787 1.0326, -0.8802 -0.0787 1.0002, -0.7835 -0.0787 0.315, -1.0194 -0.0787 0.9461, -1.057 -0.0787 0.9556, -1.0912 -0.0787 0.974, -0.8426 -0.0787 1.1079, -0.846 -0.0787 1.0692, -0.9088 -0.0787 0.974, -0.943 -0.0787 0.9556, -0.9806 -0.0787 0.9461, -1.1412 -0.0787 1.0326, -1.1198 -0.0787 1.0002, -1.154 -0.0787 1.0692, -1.1574 -0.0787 1.1079, -0.7835 0.0787 0.315, -1.1574 0.0787 1.1079, -1.154 0.0787 1.0692, -1.1412 0.0787 1.0326, -1.057 0.0787 0.9556, -1.0194 0.0787 0.9461, -0.9806 0.0787 0.9461, -0.943 0.0787 0.9556, -0.9088 0.0787 0.974, -0.8588 0.0787 1.0326, -0.8802 0.0787 1.0002, -1.1198 0.0787 1.0002, -1.0912 0.0787 0.974, -0.846 0.0787 1.0692, -0.8426 0.0787 1.1079, 0.126 0.0787 -1.0366, 0.126 0.0787 0.315, 0.126 -0.0787 -1.0366, 0.126 -0.0787 0.315, 0.0866 0.0787 -1.2598, 0.0866 -0.0787 -1.2598, -0.0866 0.0787 -1.2598, -0.0866 -0.0787 -1.2598, -0.126 0.0787 -1.0366, -0.126 -0.0787 -1.0366, -0.126 -0.0787 0.315, -0.126 0.0787 0.315, -0.2165 -0.0787 0.315, -0.2165 0.0787 0.315, 0.2165 -0.0787 2.5812, 0.2165 0.0787 2.5812, 0.1595 0.0787 2.4861, 0.1595 -0.0787 2.4861, 0.1257 0.0787 2.3805, 0.1257 -0.0787 2.3805, 0.1168 0.0787 2.27, 0.1168 -0.0787 2.27, -0.1168 -0.0787 2.27, -0.1168 0.0787 2.27, -0.1257 0.0787 2.3805, -0.1257 -0.0787 2.3805, -0.1595 0.0787 2.4861, -0.1595 -0.0787 2.4861, -0.2165 0.0787 2.5812, -0.2165 -0.0787 2.5812, 0.2165 -0.0787 0.315, 0.154 -0.0787 1.0692, 0.1412 -0.0787 1.0326, 0.057 -0.0787 0.9556, 0.0194 -0.0787 0.9461, -0.0194 -0.0787 0.9461, -0.057 -0.0787 0.9556, -0.0912 -0.0787 0.974, -0.1412 -0.0787 1.0326, -0.1198 -0.0787 1.0002, 0.1198 -0.0787 1.0002, 0.0912 -0.0787 0.974, -0.154 -0.0787 1.0692, -0.1574 -0.0787 1.1079, 0.1574 -0.0787 1.1079, 0.2165 0.0787 0.315, -0.1574 0.0787 1.1079, -0.154 0.0787 1.0692, -0.1412 0.0787 1.0326, -0.1198 0.0787 1.0002, 0.0194 0.0787 0.9461, 0.057 0.0787 0.9556, 0.0912 0.0787 0.974, -0.0912 0.0787 0.974, -0.057 0.0787 0.9556, -0.0194 0.0787 0.9461, 0.1412 0.0787 1.0326, 0.1198 0.0787 1.0002, 0.154 0.0787 1.0692, 0.1574 0.0787 1.1079, 1.126 0.0787 -1.0366, 1.126 0.0787 0.315, 1.126 -0.0787 -1.0366, 1.126 -0.0787 0.315, 1.0866 0.0787 -1.2598, 1.0866 -0.0787 -1.2598, 0.9134 0.0787 -1.2598, 0.9134 -0.0787 -1.2598, 0.874 0.0787 -1.0366, 0.874 -0.0787 -1.0366, 0.874 -0.0787 0.315, 0.874 0.0787 0.315, 0.7835 -0.0787 0.315, 0.7835 0.0787 0.315, 1.2165 -0.0787 2.5812, 1.2165 0.0787 2.5812, 1.1595 0.0787 2.4861, 1.1595 -0.0787 2.4861, 1.1257 0.0787 2.3805, 1.1257 -0.0787 2.3805, 1.1168 0.0787 2.27, 1.1168 -0.0787 2.27, 0.8832 -0.0787 2.27, 0.8832 0.0787 2.27, 0.8743 0.0787 2.3805, 0.8743 -0.0787 2.3805, 0.8405 0.0787 2.4861, 0.8405 -0.0787 2.4861, 0.7835 0.0787 2.5812, 0.7835 -0.0787 2.5812, 1.1412 -0.0787 1.0326, 1.1198 -0.0787 1.0002, 1.2165 -0.0787 0.315, 0.9806 -0.0787 0.9461, 0.943 -0.0787 0.9556, 0.9088 -0.0787 0.974, 1.1574 -0.0787 1.1079, 1.154 -0.0787 1.0692, 1.0912 -0.0787 0.974, 1.057 -0.0787 0.9556, 1.0194 -0.0787 0.9461, 0.8588 -0.0787 1.0326, 0.8802 -0.0787 1.0002, 0.846 -0.0787 1.0692, 0.8426 -0.0787 1.1079, 1.2165 0.0787 0.315, 0.8426 0.0787 1.1079, 0.846 0.0787 1.0692, 0.8588 0.0787 1.0326, 0.943 0.0787 0.9556, 0.9806 0.0787 0.9461, 1.0194 0.0787 0.9461, 1.057 0.0787 0.9556, 1.0912 0.0787 0.974, 1.1412 0.0787 1.0326, 1.1198 0.0787 1.0002, 0.8802 0.0787 1.0002, 0.9088 0.0787 0.974, 1.154 0.0787 1.0692, 1.1574 0.0787 1.1079, 2.126 0.0787 -1.0366, 2.126 0.0787 0.315, 2.126 -0.0787 -1.0366, 2.126 -0.0787 0.315, 2.0866 0.0787 -1.2598, 2.0866 -0.0787 -1.2598, 1.9134 0.0787 -1.2598, 1.9134 -0.0787 -1.2598, 1.874 0.0787 -1.0366, 1.874 -0.0787 -1.0366, 1.874 -0.0787 0.315, 1.874 0.0787 0.315, 1.7835 -0.0787 0.315, 1.7835 0.0787 0.315, 2.2165 -0.0787 2.5812, 2.2165 0.0787 2.5812, 2.1595 0.0787 2.4861, 2.1595 -0.0787 2.4861, 2.1257 0.0787 2.3805, 2.1257 -0.0787 2.3805, 2.1168 0.0787 2.27, 2.1168 -0.0787 2.27, 1.8832 -0.0787 2.27, 1.8832 0.0787 2.27, 1.8743 0.0787 2.3805, 1.8743 -0.0787 2.3805, 1.8405 0.0787 2.4861, 1.8405 -0.0787 2.4861, 1.7835 0.0787 2.5812, 1.7835 -0.0787 2.5812, 1.8588 -0.0787 1.0326, 1.9806 -0.0787 0.9461, 1.943 -0.0787 0.9556, 2.1574 -0.0787 1.1079, 2.2165 -0.0787 0.315, 1.9088 -0.0787 0.974, 1.8802 -0.0787 1.0002, 2.154 -0.0787 1.0692, 2.1412 -0.0787 1.0326, 2.1198 -0.0787 1.0002, 2.0912 -0.0787 0.974, 2.057 -0.0787 0.9556, 2.0194 -0.0787 0.9461, 1.846 -0.0787 1.0692, 1.8426 -0.0787 1.1079, 2.2165 0.0787 0.315, 1.8588 0.0787 1.0326, 1.8802 0.0787 1.0002, 2.0194 0.0787 0.9461, 2.057 0.0787 0.9556, 2.0912 0.0787 0.974, 2.1412 0.0787 1.0326, 2.1198 0.0787 1.0002, 1.8426 0.0787 1.1079, 1.846 0.0787 1.0692, 1.9088 0.0787 0.974, 1.943 0.0787 0.9556, 1.9806 0.0787 0.9461, 2.154 0.0787 1.0692, 2.1574 0.0787 1.1079, 2.1574 0.0787 1.1079
            ]
        }
        coordIndex [
            0,1,2,-1,0,2,3,-1,3,2,4,-1,3,4,5,-1,5,4,6,-1,5,6,7,-1,8,9,10,-1,8,10,11,-1,11,10,12,-1,11,12,13,-1,13,12,14,-1,13,14,15,-1,16,17,18,-1,18,17,19,-1,11,13,15,-1,20,21,22,-1,23,24,19,-1,25,17,0,-1,26,27,28,-1,28,27,29,-1,28,29,21,-1,21,29,19,-1,21,19,22,-1,24,30,19,-1,19,30,31,-1,19,31,22,-1,25,32,17,-1,17,32,33,-1,17,33,34,-1,34,35,17,-1,17,35,36,-1,17,36,19,-1,19,36,37,-1,19,37,23,-1,22,38,20,-1,20,38,39,-1,20,39,15,-1,15,39,8,-1,15,8,11,-1,3,5,0,-1,0,5,7,-1,0,7,25,-1,4,2,1,-1,40,41,42,-1,43,44,45,-1,45,44,46,-1,47,48,49,-1,49,48,50,-1,49,50,18,-1,18,50,45,-1,16,18,51,-1,51,18,45,-1,51,45,52,-1,52,45,46,-1,14,53,42,-1,42,53,54,-1,42,54,40,-1,41,55,42,-1,42,55,56,-1,42,56,45,-1,45,56,57,-1,45,57,43,-1,51,58,16,-1,16,58,59,-1,16,59,1,-1,1,59,6,-1,1,6,4,-1,12,10,14,-1,14,10,9,-1,14,9,53,-1,25,7,59,-1,59,7,6,-1,25,59,32,-1,32,59,58,-1,32,58,33,-1,33,58,51,-1,33,51,34,-1,34,51,52,-1,34,52,35,-1,35,52,46,-1,35,46,36,-1,36,46,44,-1,36,44,37,-1,37,44,43,-1,37,43,23,-1,23,43,57,-1,23,57,24,-1,24,57,56,-1,24,56,30,-1,30,56,55,-1,30,55,31,-1,31,55,41,-1,31,41,22,-1,22,41,40,-1,22,40,38,-1,38,40,54,-1,38,54,39,-1,39,54,53,-1,8,39,9,-1,9,39,53,-1,48,47,26,-1,26,47,27,-1,28,21,50,-1,50,21,45,-1,49,18,29,-1,29,18,19,-1,50,48,28,-1,28,48,26,-1,47,49,27,-1,27,49,29,-1,60,61,62,-1,62,61,63,-1,64,60,65,-1,65,60,62,-1,66,64,67,-1,67,64,65,-1,68,66,69,-1,69,66,67,-1,69,70,68,-1,68,70,71,-1,70,72,71,-1,71,72,73,-1,74,75,76,-1,74,76,77,-1,77,76,78,-1,77,78,79,-1,79,78,80,-1,79,80,81,-1,82,83,84,-1,82,84,85,-1,85,84,86,-1,85,86,87,-1,87,86,88,-1,87,88,89,-1,85,87,89,-1,63,70,62,-1,62,70,69,-1,62,69,65,-1,65,69,67,-1,77,79,81,-1,90,91,92,-1,93,94,63,-1,63,94,95,-1,77,81,74,-1,74,81,96,-1,74,96,92,-1,92,96,97,-1,92,97,90,-1,91,98,92,-1,92,98,99,-1,92,99,63,-1,63,99,100,-1,63,100,93,-1,72,70,101,-1,101,70,63,-1,101,63,102,-1,102,63,95,-1,101,103,72,-1,72,103,104,-1,72,104,89,-1,89,104,82,-1,89,82,85,-1,105,92,61,-1,61,92,63,-1,88,106,73,-1,73,106,107,-1,73,107,108,-1,64,66,60,-1,60,66,68,-1,60,68,61,-1,61,68,71,-1,73,109,71,-1,71,109,110,-1,110,111,71,-1,71,111,112,-1,71,112,113,-1,105,61,114,-1,114,61,71,-1,114,71,115,-1,115,71,113,-1,108,116,73,-1,73,116,117,-1,73,117,109,-1,114,118,105,-1,105,118,119,-1,105,119,75,-1,75,119,80,-1,75,80,76,-1,76,80,78,-1,86,84,88,-1,88,84,83,-1,88,83,106,-1,96,81,119,-1,119,81,80,-1,96,119,97,-1,97,119,118,-1,97,118,90,-1,90,118,114,-1,90,114,91,-1,91,114,115,-1,91,115,98,-1,98,115,113,-1,98,113,99,-1,99,113,112,-1,99,112,100,-1,100,112,111,-1,100,111,93,-1,93,111,110,-1,93,110,94,-1,94,110,109,-1,94,109,95,-1,95,109,117,-1,95,117,102,-1,102,117,116,-1,102,116,101,-1,101,116,108,-1,101,108,103,-1,103,108,107,-1,103,107,104,-1,104,107,106,-1,82,104,83,-1,83,104,106,-1,120,121,122,-1,122,121,123,-1,124,120,125,-1,125,120,122,-1,126,124,127,-1,127,124,125,-1,128,126,129,-1,129,126,127,-1,129,130,128,-1,128,130,131,-1,130,132,131,-1,131,132,133,-1,134,135,136,-1,134,136,137,-1,137,136,138,-1,137,138,139,-1,139,138,140,-1,139,140,141,-1,142,143,144,-1,142,144,145,-1,145,144,146,-1,145,146,147,-1,147,146,148,-1,147,148,149,-1,145,147,149,-1,150,151,152,-1,123,130,122,-1,122,130,129,-1,122,129,125,-1,125,129,127,-1,150,153,123,-1,123,153,154,-1,154,155,123,-1,123,155,156,-1,123,156,157,-1,132,130,158,-1,158,130,123,-1,158,123,159,-1,159,123,157,-1,152,160,150,-1,150,160,161,-1,150,161,153,-1,158,162,132,-1,132,162,163,-1,132,163,149,-1,149,163,142,-1,149,142,145,-1,151,150,164,-1,164,150,134,-1,164,134,141,-1,141,134,137,-1,141,137,139,-1,165,150,121,-1,121,150,123,-1,166,133,148,-1,124,126,120,-1,120,126,128,-1,120,128,121,-1,121,128,131,-1,166,167,133,-1,133,167,168,-1,133,168,169,-1,170,171,131,-1,131,171,172,-1,169,173,133,-1,133,173,174,-1,133,174,131,-1,131,174,175,-1,131,175,170,-1,165,121,176,-1,176,121,131,-1,176,131,177,-1,177,131,172,-1,176,178,165,-1,165,178,179,-1,165,179,135,-1,135,179,140,-1,135,140,136,-1,136,140,138,-1,146,144,148,-1,148,144,143,-1,148,143,166,-1,164,141,179,-1,179,141,140,-1,164,179,151,-1,151,179,178,-1,151,178,152,-1,152,178,176,-1,152,176,160,-1,160,176,177,-1,160,177,161,-1,161,177,172,-1,161,172,153,-1,153,172,171,-1,153,171,154,-1,154,171,170,-1,154,170,155,-1,155,170,175,-1,155,175,156,-1,156,175,174,-1,156,174,157,-1,157,174,173,-1,157,173,159,-1,159,173,169,-1,159,169,158,-1,158,169,168,-1,158,168,162,-1,162,168,167,-1,162,167,163,-1,163,167,166,-1,142,163,143,-1,143,163,166,-1,180,181,182,-1,182,181,183,-1,184,180,185,-1,185,180,182,-1,186,184,187,-1,187,184,185,-1,188,186,189,-1,189,186,187,-1,189,190,188,-1,188,190,191,-1,190,192,191,-1,191,192,193,-1,194,195,196,-1,194,196,197,-1,197,196,198,-1,197,198,199,-1,199,198,200,-1,199,200,201,-1,202,203,204,-1,202,204,205,-1,205,204,206,-1,205,206,207,-1,207,206,208,-1,207,208,209,-1,205,207,209,-1,183,190,182,-1,182,190,189,-1,182,189,185,-1,185,189,187,-1,210,211,212,-1,213,214,183,-1,183,214,215,-1,194,197,199,-1,199,201,194,-1,194,201,216,-1,194,216,212,-1,212,216,217,-1,212,217,210,-1,211,218,212,-1,212,218,219,-1,212,219,183,-1,183,219,220,-1,183,220,213,-1,192,190,221,-1,221,190,183,-1,221,183,222,-1,222,183,215,-1,221,223,192,-1,192,223,224,-1,192,224,209,-1,209,224,202,-1,209,202,205,-1,225,212,181,-1,181,212,183,-1,208,226,193,-1,193,226,227,-1,193,227,228,-1,184,186,180,-1,180,186,188,-1,180,188,181,-1,181,188,191,-1,193,229,191,-1,191,229,230,-1,230,231,191,-1,191,231,232,-1,191,232,233,-1,225,181,234,-1,234,181,191,-1,234,191,235,-1,235,191,233,-1,228,236,193,-1,193,236,237,-1,193,237,229,-1,234,238,225,-1,225,238,239,-1,225,239,195,-1,195,239,200,-1,195,200,196,-1,196,200,198,-1,206,204,208,-1,208,204,203,-1,208,203,226,-1,216,201,239,-1,239,201,200,-1,216,239,217,-1,217,239,238,-1,217,238,210,-1,210,238,234,-1,210,234,211,-1,211,234,235,-1,211,235,218,-1,218,235,233,-1,218,233,219,-1,219,233,232,-1,219,232,220,-1,220,232,231,-1,220,231,213,-1,213,231,230,-1,213,230,214,-1,214,230,229,-1,214,229,215,-1,215,229,237,-1,215,237,222,-1,222,237,236,-1,222,236,221,-1,221,236,228,-1,221,228,223,-1,223,228,227,-1,223,227,224,-1,224,227,226,-1,202,224,203,-1,203,224,226,-1,240,241,242,-1,242,241,243,-1,244,240,245,-1,245,240,242,-1,246,244,247,-1,247,244,245,-1,248,246,249,-1,249,246,247,-1,249,250,248,-1,248,250,251,-1,250,252,251,-1,251,252,253,-1,254,255,256,-1,254,256,257,-1,257,256,258,-1,257,258,259,-1,259,258,260,-1,259,260,261,-1,262,263,264,-1,262,264,265,-1,265,264,266,-1,265,266,267,-1,267,266,268,-1,267,268,269,-1,265,267,269,-1,252,250,270,-1,271,272,243,-1,273,274,254,-1,247,245,249,-1,249,245,242,-1,249,242,250,-1,250,242,243,-1,250,243,270,-1,272,275,243,-1,243,275,276,-1,243,276,270,-1,273,277,274,-1,274,277,278,-1,274,278,279,-1,279,280,274,-1,274,280,281,-1,274,281,243,-1,243,281,282,-1,243,282,271,-1,270,283,252,-1,252,283,284,-1,252,284,269,-1,269,284,262,-1,269,262,265,-1,257,259,254,-1,254,259,261,-1,254,261,273,-1,285,274,241,-1,241,274,243,-1,258,256,255,-1,286,287,253,-1,288,289,251,-1,251,289,290,-1,244,246,240,-1,240,246,248,-1,240,248,241,-1,241,248,251,-1,285,241,291,-1,291,241,251,-1,291,251,292,-1,292,251,290,-1,268,293,253,-1,253,293,294,-1,253,294,286,-1,287,295,253,-1,253,295,296,-1,253,296,251,-1,251,296,297,-1,251,297,288,-1,291,298,285,-1,285,298,299,-1,285,299,255,-1,255,299,260,-1,255,260,258,-1,266,264,268,-1,268,264,263,-1,268,263,293,-1,273,261,299,-1,299,261,260,-1,273,299,277,-1,277,299,298,-1,277,298,278,-1,278,298,291,-1,278,291,279,-1,279,291,292,-1,279,292,280,-1,280,292,290,-1,280,290,281,-1,281,290,289,-1,281,289,282,-1,282,289,288,-1,282,288,271,-1,271,288,297,-1,271,297,272,-1,272,297,296,-1,272,296,275,-1,275,296,295,-1,275,295,276,-1,276,295,287,-1,276,287,270,-1,270,287,286,-1,270,286,283,-1,283,286,294,-1,283,294,284,-1,284,294,293,-1,262,284,263,-1,263,284,293,-1,
        ]
    }
}
Shape{
    appearance Appearance {
        material  Material 	{
            diffuseColor 1.0 1.0 1.0
            specularColor 0.8784313725490196 0.8784313725490196 0.8784313725490196
            ambientIntensity 0.2
            transparency 0
            shininess 0.5
        }
    }
    geometry IndexedFaceSet {
        ccw TRUE
        solid FALSE
        coord DEF co Coordinate {
            point [
                0.5713 0.4528 0.6092, 0.5713 0.4528 0.566, 0.5713 0.4921 0.6092, 0.5713 0.4921 0.566, 0.773 0.4528 0.566, 0.773 0.4921 0.566, 0.773 0.4528 0.9597, 0.773 0.4921 0.9597, 0.7202 0.4528 0.9597, 0.7202 0.4921 0.9597, 0.7202 0.4528 0.6092, 0.7202 0.4921 0.6092, 0.2449 0.4528 0.6296, 0.2449 0.4528 0.5864, 0.2449 0.4921 0.6296, 0.2449 0.4921 0.5864, 0.3532 0.4528 0.5612, 0.3532 0.4921 0.5612, 0.3424 0.4921 0.5614, 0.3424 0.4528 0.5614, 0.2868 0.4921 0.5691, 0.2868 0.4528 0.5691, 0.5377 0.4528 0.7554, 0.5377 0.4921 0.7554, 0.5339 0.4921 0.7095, 0.5339 0.4528 0.7095, 0.5217 0.4921 0.6672, 0.5217 0.4528 0.6672, 0.5006 0.4921 0.6302, 0.5006 0.4528 0.6302, 0.4718 0.4921 0.5998, 0.4718 0.4528 0.5998, 0.4399 0.4921 0.5793, 0.4399 0.4528 0.5793, 0.4016 0.4921 0.5662, 0.4016 0.4528 0.5662, 0.3375 0.4921 0.9645, 0.3653 0.4921 0.9621, 0.3375 0.4528 0.9645, 0.3791 0.4528 0.9609, 0.3791 0.4921 0.9609, 0.4223 0.4921 0.9479, 0.4223 0.4528 0.9479, 0.4591 0.4921 0.9265, 0.4591 0.4528 0.9265, 0.4934 0.4921 0.8934, 0.4934 0.4528 0.8934, 0.5169 0.4921 0.8561, 0.5169 0.4528 0.8561, 0.5321 0.4921 0.8113, 0.5321 0.4528 0.8113, 0.3027 0.4921 0.9621, 0.2904 0.4528 0.9612, 0.2904 0.4921 0.9612, 0.2449 0.4528 0.9489, 0.2449 0.4921 0.9489, 0.2449 0.4528 0.8961, 0.2449 0.4921 0.8961, 0.3371 0.4528 0.9213, 0.3371 0.4921 0.9213, 0.2892 0.4921 0.915, 0.2892 0.4528 0.915, 0.4849 0.4528 0.7586, 0.4849 0.4921 0.7586, 0.4832 0.4921 0.7882, 0.4832 0.4528 0.7882, 0.4728 0.4921 0.8308, 0.4728 0.4528 0.8308, 0.4567 0.4921 0.8612, 0.4567 0.4528 0.8612, 0.433 0.4921 0.8876, 0.433 0.4528 0.8876, 0.4051 0.4921 0.9063, 0.4051 0.4528 0.9063, 0.3758 0.4921 0.9169, 0.3758 0.4528 0.9169, 0.3459 0.4528 0.6044, 0.3459 0.4921 0.6044, 0.3824 0.4921 0.6085, 0.3824 0.4528 0.6085, 0.4114 0.4921 0.6191, 0.4114 0.4528 0.6191, 0.4356 0.4921 0.6355, 0.4356 0.4528 0.6355, 0.4539 0.4921 0.6548, 0.4539 0.4528 0.6548, 0.4703 0.4921 0.6822, 0.4703 0.4528 0.6822, 0.4809 0.4921 0.716, 0.4809 0.4528 0.716, 0.2519 0.4921 0.6257, 0.2519 0.4528 0.6257, 0.2937 0.4921 0.6102, 0.2937 0.4528 0.6102, -0.0432 0.4528 0.6092, -0.0432 0.4528 0.566, -0.0432 0.4921 0.6092, -0.0432 0.4921 0.566, 0.168 0.4528 0.566, 0.168 0.4921 0.566, 0.168 0.4528 0.9597, 0.168 0.4921 0.9597, -0.0336 0.4528 0.9597, -0.0336 0.4921 0.9597, -0.0336 0.4528 0.9165, -0.0336 0.4921 0.9165, 0.1152 0.4528 0.9165, 0.1152 0.4921 0.9165, 0.1152 0.4528 0.7868, 0.1152 0.4921 0.7868, -0.024 0.4528 0.7868, -0.024 0.4921 0.7868, -0.024 0.4528 0.7436, -0.024 0.4921 0.7436, 0.1152 0.4528 0.7436, 0.1152 0.4921 0.7436, 0.1152 0.4528 0.6092, 0.1152 0.4921 0.6092, -0.2271 0.4528 0.566, -0.12 0.4528 0.566, -0.2271 0.4921 0.566, -0.12 0.4921 0.566, -0.12 0.4528 0.9597, -0.12 0.4921 0.9597, -0.2311 0.4528 0.9597, -0.2311 0.4921 0.9597, -0.4369 0.4528 0.7678, -0.4369 0.4921 0.7678, -0.4362 0.4921 0.7872, -0.4362 0.4528 0.7872, -0.4286 0.4921 0.8288, -0.4286 0.4528 0.8288, -0.412 0.4921 0.867, -0.412 0.4528 0.867, -0.3884 0.4921 0.8979, -0.3884 0.4528 0.8979, -0.3731 0.4921 0.912, -0.3731 0.4528 0.912, -0.3341 0.4921 0.9374, -0.3341 0.4528 0.9374, -0.288 0.4921 0.9536, -0.288 0.4528 0.9536, -0.277 0.4921 0.5704, -0.277 0.4528 0.5704, -0.3223 0.4921 0.5842, -0.3223 0.4528 0.5842, -0.363 0.4921 0.6082, -0.363 0.4528 0.6082, -0.3952 0.4921 0.6393, -0.3952 0.4528 0.6393, -0.4173 0.4921 0.6741, -0.4173 0.4528 0.6741, -0.4314 0.4921 0.7151, -0.4314 0.4528 0.7151, -0.3841 0.4528 0.7666, -0.3808 0.4528 0.8058, -0.3715 0.4528 0.8369, -0.3581 0.4528 0.8611, -0.339 0.4528 0.8815, -0.3103 0.4528 0.9, -0.2778 0.4528 0.9114, -0.2309 0.4528 0.9165, -0.1728 0.4528 0.9165, -0.1728 0.4528 0.6092, -0.2287 0.4528 0.6092, -0.2703 0.4528 0.6131, -0.3035 0.4528 0.6234, -0.3301 0.4528 0.6392, -0.3523 0.4528 0.6611, -0.3688 0.4528 0.688, -0.3792 0.4528 0.7193, -0.2309 0.4921 0.9165, -0.1728 0.4921 0.9165, -0.2778 0.4921 0.9114, -0.3103 0.4921 0.9, -0.339 0.4921 0.8815, -0.3581 0.4921 0.8611, -0.3715 0.4921 0.8369, -0.3808 0.4921 0.8058, -0.3841 0.4921 0.7666, -0.3792 0.4921 0.7193, -0.3688 0.4921 0.688, -0.3523 0.4921 0.6611, -0.3301 0.4921 0.6392, -0.3035 0.4921 0.6234, -0.2703 0.4921 0.6131, -0.2287 0.4921 0.6092, -0.1728 0.4921 0.6092, -0.6674 0.4528 0.9597, -0.821 0.4528 0.566, -0.6674 0.4921 0.9597, -0.821 0.4921 0.566, -0.7634 0.4528 0.566, -0.7634 0.4921 0.566, -0.7236 0.4528 0.6764, -0.7236 0.4921 0.6764, -0.5609 0.4528 0.6764, -0.5609 0.4921 0.6764, -0.5233 0.4528 0.566, -0.5233 0.4921 0.566, -0.4657 0.4528 0.566, -0.4657 0.4921 0.566, -0.6146 0.4528 0.9597, -0.6146 0.4921 0.9597, -0.5742 0.4528 0.7196, -0.6329 0.4528 0.8841, -0.6367 0.4528 0.8977, -0.6392 0.4528 0.9117, -0.6405 0.4528 0.9117, -0.6431 0.4528 0.8977, -0.6466 0.4528 0.8841, -0.7059 0.4528 0.7196, -0.5742 0.4921 0.7196, -0.7059 0.4921 0.7196, -0.6329 0.4921 0.8841, -0.6367 0.4921 0.8977, -0.6392 0.4921 0.9117, -0.6405 0.4921 0.9117, -0.6431 0.4921 0.8977, -0.6466 0.4921 0.8841, -0.6466 0.4921 0.8841
            ]
        }
        coordIndex [
            0,1,2,-1,2,1,3,-1,1,4,3,-1,3,4,5,-1,4,6,5,-1,5,6,7,-1,6,8,7,-1,7,8,9,-1,8,10,9,-1,9,10,11,-1,10,0,11,-1,11,0,2,-1,8,6,10,-1,10,6,4,-1,10,4,0,-1,0,4,1,-1,12,13,14,-1,14,13,15,-1,16,17,18,-1,16,18,19,-1,19,18,20,-1,19,20,21,-1,21,20,15,-1,21,15,13,-1,22,23,24,-1,22,24,25,-1,25,24,26,-1,25,26,27,-1,27,26,28,-1,27,28,29,-1,29,28,30,-1,29,30,31,-1,31,30,32,-1,31,32,33,-1,33,32,34,-1,33,34,35,-1,35,34,17,-1,35,17,16,-1,36,37,38,-1,38,37,39,-1,37,40,39,-1,39,40,41,-1,39,41,42,-1,42,41,43,-1,42,43,44,-1,44,43,45,-1,44,45,46,-1,46,45,47,-1,46,47,48,-1,48,47,49,-1,48,49,50,-1,50,49,23,-1,50,23,22,-1,36,38,51,-1,51,38,52,-1,51,52,53,-1,53,52,54,-1,53,54,55,-1,54,56,55,-1,55,56,57,-1,58,59,60,-1,58,60,61,-1,61,60,57,-1,61,57,56,-1,62,63,64,-1,62,64,65,-1,65,64,66,-1,65,66,67,-1,67,66,68,-1,67,68,69,-1,69,68,70,-1,69,70,71,-1,71,70,72,-1,71,72,73,-1,73,72,74,-1,73,74,75,-1,75,74,59,-1,75,59,58,-1,76,77,78,-1,76,78,79,-1,79,78,80,-1,79,80,81,-1,81,80,82,-1,81,82,83,-1,83,82,84,-1,83,84,85,-1,85,84,86,-1,85,86,87,-1,87,86,88,-1,87,88,89,-1,89,88,63,-1,89,63,62,-1,12,14,90,-1,12,90,91,-1,91,90,92,-1,91,92,93,-1,93,92,77,-1,93,77,76,-1,79,16,76,-1,76,16,19,-1,76,19,93,-1,93,19,21,-1,93,21,91,-1,91,21,13,-1,91,13,12,-1,56,54,61,-1,61,54,52,-1,61,52,58,-1,58,52,38,-1,58,38,75,-1,75,38,39,-1,75,39,73,-1,73,39,42,-1,73,42,71,-1,71,42,44,-1,71,44,69,-1,69,44,46,-1,69,46,67,-1,67,46,48,-1,67,48,65,-1,65,48,50,-1,65,50,62,-1,62,50,22,-1,62,22,89,-1,89,22,25,-1,89,25,87,-1,87,25,27,-1,87,27,85,-1,85,27,29,-1,85,29,83,-1,83,29,31,-1,83,31,81,-1,81,31,33,-1,81,33,79,-1,79,33,35,-1,79,35,16,-1,94,95,96,-1,96,95,97,-1,95,98,97,-1,97,98,99,-1,98,100,99,-1,99,100,101,-1,100,102,101,-1,101,102,103,-1,102,104,103,-1,103,104,105,-1,104,106,105,-1,105,106,107,-1,106,108,107,-1,107,108,109,-1,108,110,109,-1,109,110,111,-1,110,112,111,-1,111,112,113,-1,112,114,113,-1,113,114,115,-1,114,116,115,-1,115,116,117,-1,116,94,117,-1,117,94,96,-1,98,95,94,-1,94,116,98,-1,98,116,114,-1,98,114,100,-1,104,102,106,-1,106,102,100,-1,106,100,108,-1,108,100,114,-1,108,114,110,-1,110,114,112,-1,118,119,120,-1,120,119,121,-1,119,122,121,-1,121,122,123,-1,122,124,123,-1,123,124,125,-1,126,127,128,-1,126,128,129,-1,129,128,130,-1,129,130,131,-1,131,130,132,-1,131,132,133,-1,133,132,134,-1,133,134,135,-1,135,134,136,-1,135,136,137,-1,137,136,138,-1,137,138,139,-1,139,138,140,-1,139,140,141,-1,141,140,125,-1,141,125,124,-1,118,120,142,-1,118,142,143,-1,143,142,144,-1,143,144,145,-1,145,144,146,-1,145,146,147,-1,147,146,148,-1,147,148,149,-1,149,148,150,-1,149,150,151,-1,151,150,152,-1,151,152,153,-1,153,152,127,-1,153,127,126,-1,153,126,154,-1,154,126,129,-1,154,129,155,-1,155,129,131,-1,155,131,156,-1,156,131,133,-1,156,133,157,-1,157,133,135,-1,157,135,158,-1,158,135,137,-1,158,137,159,-1,159,137,139,-1,159,139,160,-1,160,139,141,-1,160,141,161,-1,161,141,124,-1,161,124,162,-1,162,124,122,-1,162,122,163,-1,163,122,119,-1,163,119,164,-1,164,119,118,-1,164,118,165,-1,165,118,143,-1,165,143,166,-1,166,143,145,-1,166,145,167,-1,167,145,147,-1,167,147,168,-1,168,147,149,-1,168,149,169,-1,169,149,151,-1,169,151,170,-1,170,151,153,-1,170,153,154,-1,161,162,171,-1,171,162,172,-1,161,171,173,-1,161,173,160,-1,160,173,174,-1,160,174,159,-1,159,174,175,-1,159,175,158,-1,158,175,176,-1,158,176,157,-1,157,176,177,-1,157,177,156,-1,156,177,178,-1,156,178,155,-1,155,178,179,-1,155,179,154,-1,154,179,180,-1,154,180,170,-1,170,180,181,-1,170,181,169,-1,169,181,182,-1,169,182,168,-1,168,182,183,-1,168,183,167,-1,167,183,184,-1,167,184,166,-1,166,184,185,-1,166,185,165,-1,165,185,186,-1,165,186,164,-1,163,164,187,-1,187,164,186,-1,162,163,172,-1,172,163,187,-1,188,189,190,-1,190,189,191,-1,189,192,191,-1,191,192,193,-1,192,194,193,-1,193,194,195,-1,194,196,195,-1,195,196,197,-1,196,198,197,-1,197,198,199,-1,198,200,199,-1,199,200,201,-1,200,202,201,-1,201,202,203,-1,202,188,203,-1,203,188,190,-1,204,205,202,-1,200,198,196,-1,205,206,202,-1,202,206,207,-1,202,207,188,-1,188,207,208,-1,188,208,209,-1,209,210,188,-1,188,210,211,-1,188,211,189,-1,192,189,194,-1,194,189,211,-1,194,211,196,-1,196,211,204,-1,196,204,200,-1,200,204,202,-1,204,211,212,-1,212,211,213,-1,205,204,214,-1,214,204,212,-1,205,214,215,-1,205,215,206,-1,206,215,216,-1,206,216,207,-1,208,207,217,-1,217,207,216,-1,208,217,218,-1,208,218,209,-1,209,218,219,-1,209,219,210,-1,211,210,213,-1,213,210,219,-1,
        ]
    }
}
Shape{
    appearance Appearance {
        material  Material 	{
            diffuseColor 0.20784313725490197 0.20784313725490197 0.20784313725490197
            specularColor 0.01568627450980392 0.01568627450980392 0.01568627450980392
            ambientIntensity 0.2
            transparency 0
            shininess 0.5
        }
    }
    geometry IndexedFaceSet {
        ccw TRUE
        solid FALSE
        coord DEF co Coordinate {
            point [
                -0.1728 0.4921 0.9165, -0.1728 0.4921 0.6092, -0.2309 0.4921 0.9165, -0.2287 0.4921 0.6092, -0.3792 0.4921 0.7193, -0.3841 0.4921 0.7666, -0.3808 0.4921 0.8058, -0.3715 0.4921 0.8369, -0.2778 0.4921 0.9114, -0.2703 0.4921 0.6131, -0.3035 0.4921 0.6234, -0.3301 0.4921 0.6392, -0.3581 0.4921 0.8611, -0.339 0.4921 0.8815, -0.3103 0.4921 0.9, -0.3523 0.4921 0.6611, -0.3688 0.4921 0.688, -0.5742 0.4921 0.7196, -0.7059 0.4921 0.7196, -0.6329 0.4921 0.8841, -0.6466 0.4921 0.8841, -0.6367 0.4921 0.8977, -0.6431 0.4921 0.8977, -0.6392 0.4921 0.9117, -0.6405 0.4921 0.9117, -0.6405 0.4921 0.9117
            ]
        }
        coordIndex [
            0,1,2,-1,2,1,3,-1,4,5,2,-1,5,6,2,-1,2,6,7,-1,2,7,8,-1,3,9,2,-1,2,9,10,-1,2,10,11,-1,12,13,7,-1,7,13,14,-1,7,14,8,-1,11,15,2,-1,2,15,16,-1,2,16,4,-1,17,18,19,-1,19,18,20,-1,19,20,21,-1,21,20,22,-1,21,22,23,-1,23,22,24,-1,
        ]
    }
}