#VRML V2.0 utf8
# 3D model generated by easyeda2kicad.py (https://github.com/uPesy/easyeda2kicad.py)

Shape{
    appearance Appearance {
        material  Material 	{
            diffuseColor 0.25098039215686274 0.25098039215686274 0.25098039215686274
            specularColor 0.12549019607843137 0.12549019607843137 0.12549019607843137
            ambientIntensity 0.2
            transparency 0
            shininess 0.5
        }
    }
    geometry IndexedFaceSet {
        ccw TRUE
        solid FALSE
        coord DEF co Coordinate {
            point [
                0.5906 0.1969 0.2323, 0.5906 -0.1969 0.2323, 0.5906 0.1969 0.2244, 0.5906 -0.1969 0.2244, -0.5906 0.1969 0.2323, -0.5906 0.1969 0.2244, -0.5906 -0.1969 0.2323, -0.5906 -0.1969 0.2244, -0.5906 -0.1969 0.2244
            ]
        }
        coordIndex [
            0,1,2,-1,2,1,3,-1,4,0,5,-1,5,0,2,-1,6,4,7,-1,7,4,5,-1,1,6,3,-1,3,6,7,-1,4,6,0,-1,0,6,1,-1,7,5,3,-1,3,5,2,-1,
        ]
    }
}
Shape{
    appearance Appearance {
        material  Material 	{
            diffuseColor 0.7529411764705882 0.7529411764705882 0.7529411764705882
            specularColor 0.3764705882352941 0.3764705882352941 0.3764705882352941
            ambientIntensity 0.2
            transparency 0
            shininess 0.5
        }
    }
    geometry IndexedFaceSet {
        ccw TRUE
        solid FALSE
        coord DEF co Coordinate {
            point [
                -0.4409 -0.315 0.0, -0.4449 -0.315 0.0, -0.4449 -0.2598 0.0, -0.0433 -0.1969 0.0, -0.0433 -0.2953 0.0, -0.0591 -0.2953 0.0, -0.4843 -0.1969 0.0, -0.5472 -0.1969 0.0, -0.6299 -0.0367 0.0, -0.189 -0.2087 0.0, -0.189 -0.315 0.0, -0.1929 -0.2953 0.0, -0.1929 -0.315 0.0, -0.626 -0.315 0.0, -0.6299 -0.315 0.0, -0.626 -0.2598 0.0, -0.5472 -0.2598 0.0, -0.0665 -0.2003 0.0, -0.0689 -0.1984 0.0, -0.2953 -0.1969 0.0, -0.2953 -0.2953 0.0, -0.311 -0.2953 0.0, -0.0646 -0.2028 0.0, -0.1874 -0.2028 0.0, -0.2087 -0.1969 0.0, -0.1855 -0.2003 0.0, -0.1831 -0.1984 0.0, -0.0591 -0.315 0.0, -0.063 -0.315 0.0, -0.063 -0.2087 0.0, -0.0634 -0.2056 0.0, -0.435 -0.1984 0.0, -0.4375 -0.2003 0.0, -0.4409 -0.2087 0.0, -0.4843 -0.2598 0.0, -0.0717 -0.1973 0.0, -0.0748 -0.1969 0.0, -0.0302 -0.0367 0.0, -0.1772 -0.1969 0.0, -0.1802 -0.1973 0.0, -0.2087 -0.2953 0.0, -0.1886 -0.2056 0.0, -0.4394 -0.2028 0.0, -0.4405 -0.2056 0.0, -0.3209 -0.1984 0.0, -0.3184 -0.2003 0.0, -0.3165 -0.2028 0.0, -0.3237 -0.1973 0.0, -0.3268 -0.1969 0.0, -0.4291 -0.1969 0.0, -0.4322 -0.1973 0.0, -0.311 -0.315 0.0, -0.315 -0.315 0.0, -0.315 -0.2087 0.0, -0.3154 -0.2056 0.0, 0.315 -0.2087 0.0, 0.315 -0.315 0.0, 0.311 -0.2953 0.0, 0.311 -0.315 0.0, 0.063 -0.2087 0.0, 0.063 -0.315 0.0, 0.0591 -0.2953 0.0, 0.0591 -0.315 0.0, 0.6299 -0.0367 0.0, 0.6299 -0.315 0.0, 0.626 -0.2598 0.0, 0.626 -0.315 0.0, -0.0302 -0.1969 0.0, 0.0514 -0.0367 0.0, 0.0433 -0.1969 0.0, 0.0546 -0.0371 0.0, 0.0567 -0.0372 0.0, 0.4843 -0.1969 0.0, 0.4843 -0.2598 0.0, 0.4449 -0.2598 0.0, 0.3165 -0.2028 0.0, 0.2953 -0.1969 0.0, 0.3184 -0.2003 0.0, 0.3209 -0.1984 0.0, 0.0614 -0.0367 0.0, 0.0717 -0.1973 0.0, 0.1831 -0.1984 0.0, 0.2087 -0.1969 0.0, 0.1855 -0.2003 0.0, 0.1874 -0.2028 0.0, 0.4375 -0.2003 0.0, 0.435 -0.1984 0.0, 0.5472 -0.2598 0.0, 0.5472 -0.1969 0.0, 0.2953 -0.2953 0.0, 0.3154 -0.2056 0.0, 0.3237 -0.1973 0.0, 0.0689 -0.1984 0.0, 0.0665 -0.2003 0.0, 0.0646 -0.2028 0.0, 0.0433 -0.2953 0.0, 0.0634 -0.2056 0.0, 0.2087 -0.2953 0.0, 0.1929 -0.2953 0.0, 0.4394 -0.2028 0.0, 0.4322 -0.1973 0.0, 0.4291 -0.1969 0.0, 0.3268 -0.1969 0.0, 0.1802 -0.1973 0.0, 0.1772 -0.1969 0.0, 0.0748 -0.1969 0.0, 0.1929 -0.315 0.0, 0.189 -0.315 0.0, 0.189 -0.2087 0.0, 0.1886 -0.2056 0.0, 0.4449 -0.315 0.0, 0.4409 -0.315 0.0, 0.4409 -0.2087 0.0, 0.4405 -0.2056 0.0, 0.4409 0.2087 0.0, 0.4409 0.315 0.0, 0.4449 0.2598 0.0, 0.4449 0.315 0.0, -0.0226 -0.0276 0.0, -0.0226 -0.0362 0.0, 0.0197 -0.0362 0.0, 0.0351 -0.0321 0.0, 0.0351 -0.0235 0.0, 0.0197 0.0425 0.0, 0.0435 -0.0356 0.0, 0.626 0.315 0.0, 0.6299 0.315 0.0, 0.626 0.2598 0.0, 0.5472 0.2598 0.0, 0.5472 0.1969 0.0, 0.1407 -0.0362 0.0, 0.4843 0.1969 0.0, 0.2953 0.1969 0.0, 0.2953 0.2953 0.0, 0.311 0.2953 0.0, 0.0895 0.0218 0.0, 0.0849 0.0291 0.0, 0.1301 0.0425 0.0, -0.0206 0.0425 0.0, -0.0302 0.1969 0.0, -0.0206 0.0339 0.0, 0.0613 0.034 0.0, 0.0671 0.0318 0.0, 0.0365 -0.0243 0.0, 0.0726 0.0282 0.0, 0.0774 0.0229 0.0, 0.0831 0.0023 0.0, 0.0823 -0.0062 0.0, 0.0801 -0.013 0.0, 0.0626 -0.0277 0.0, 0.0553 -0.0285 0.0, 0.0684 -0.0256 0.0, 0.0732 -0.0224 0.0, 0.0769 -0.0185 0.0, 0.0448 -0.0274 0.0, 0.3154 0.2056 0.0, 0.315 0.2087 0.0, 0.315 0.315 0.0, 0.311 0.315 0.0, 0.189 0.2087 0.0, 0.189 0.315 0.0, 0.1929 0.2953 0.0, 0.1929 0.315 0.0, 0.1004 -0.0362 0.0, 0.0664 -0.0362 0.0, 0.0741 -0.0336 0.0, 0.0806 0.0169 0.0, 0.0827 0.0084 0.0, 0.3165 0.2028 0.0, 0.3184 0.2003 0.0, 0.1407 0.0425 0.0, 0.3209 0.1984 0.0, 0.3237 0.1973 0.0, 0.3268 0.1969 0.0, 0.4375 0.2003 0.0, 0.4394 0.2028 0.0, 0.0091 -0.0007 0.0, 0.0091 -0.0276 0.0, -0.0187 -0.0007 0.0, -0.0187 0.0079 0.0, 0.0091 0.0079 0.0, 0.0091 0.0339 0.0, 0.4291 0.1969 0.0, 0.4322 0.1973 0.0, 0.435 0.1984 0.0, 0.4843 0.2598 0.0, 0.4405 0.2056 0.0, 0.0804 -0.0295 0.0, 0.0863 -0.0233 0.0, 0.1004 -0.0276 0.0, 0.0905 -0.0158 0.0, 0.1301 -0.0276 0.0, 0.2087 0.1969 0.0, 0.1855 0.2003 0.0, 0.1874 0.2028 0.0, 0.2087 0.2953 0.0, 0.1886 0.2056 0.0, 0.0929 -0.0075 0.0, 0.0936 0.0017 0.0, 0.0925 0.0129 0.0, 0.0778 0.036 0.0, 0.0703 0.0403 0.0, 0.0615 0.0428 0.0, 0.0536 0.0435 0.0, 0.0433 0.1969 0.0, 0.0433 0.2953 0.0, 0.0591 0.2953 0.0, 0.0646 0.2028 0.0, 0.0665 0.2003 0.0, 0.0689 0.1984 0.0, 0.0717 0.1973 0.0, 0.0748 0.1969 0.0, 0.1831 0.1984 0.0, 0.0442 0.0428 0.0, 0.0351 0.0404 0.0, 0.0351 0.0298 0.0, 0.0439 0.0336 0.0, 0.0535 0.0348 0.0, 0.0591 0.315 0.0, 0.063 0.315 0.0, 0.063 0.2087 0.0, 0.0634 0.2056 0.0, 0.1772 0.1969 0.0, 0.1802 0.1973 0.0, -0.0593 -0.0362 0.0, -0.0379 -0.0362 0.0, -0.0379 0.0425 0.0, -0.1781 -0.0362 0.0, -0.1666 -0.0362 0.0, -0.1071 -0.0362 0.0, -0.0974 -0.0146 0.0, -0.0928 -0.0217 0.0, -0.6299 0.315 0.0, -0.626 0.315 0.0, -0.626 0.2598 0.0, -0.5472 0.2598 0.0, -0.5472 0.1969 0.0, -0.4843 0.1969 0.0, -0.0864 -0.0279 0.0, -0.0781 -0.0327 0.0, -0.0691 -0.0354 0.0, -0.315 0.2087 0.0, -0.315 0.315 0.0, -0.311 0.2953 0.0, -0.311 0.315 0.0, -0.1186 -0.0362 0.0, -0.1261 -0.0141 0.0, -0.1586 -0.0141 0.0, -0.2953 0.1969 0.0, -0.3268 0.1969 0.0, -0.3237 0.1973 0.0, -0.3209 0.1984 0.0, -0.3184 0.2003 0.0, -0.3165 0.2028 0.0, -0.063 0.2087 0.0, -0.063 0.315 0.0, -0.0591 0.2953 0.0, -0.0591 0.315 0.0, -0.2953 0.2953 0.0, -0.3154 0.2056 0.0, -0.0601 0.0425 0.0, -0.0715 0.0413 0.0, -0.1368 0.0425 0.0, -0.0807 0.0381 0.0, -0.0893 0.0323 0.0, -0.4843 0.2598 0.0, -0.4449 0.2598 0.0, -0.0894 0.0322 0.0, -0.0949 0.0261 0.0, -0.0986 0.0193 0.0, -0.1007 0.0115 0.0, -0.1013 0.0041 0.0, -0.1002 -0.0064 0.0, -0.4449 0.315 0.0, -0.4409 0.315 0.0, -0.4409 0.2087 0.0, -0.4405 0.2056 0.0, -0.4394 0.2028 0.0, -0.4375 0.2003 0.0, -0.435 0.1984 0.0, -0.4322 0.1973 0.0, -0.2087 0.1969 0.0, -0.2087 0.2953 0.0, -0.1929 0.2953 0.0, -0.0689 0.1984 0.0, -0.0665 0.2003 0.0, -0.0433 0.1969 0.0, -0.0646 0.2028 0.0, -0.0433 0.2953 0.0, -0.0634 0.2056 0.0, -0.4291 0.1969 0.0, -0.1474 0.0425 0.0, -0.1929 0.315 0.0, -0.189 0.315 0.0, -0.189 0.2087 0.0, -0.1886 0.2056 0.0, -0.1874 0.2028 0.0, -0.1855 0.2003 0.0, -0.1831 0.1984 0.0, -0.1802 0.1973 0.0, -0.1772 0.1969 0.0, -0.0748 0.1969 0.0, -0.0717 0.1973 0.0, 0.4449 0.2598 0.2244, 0.4449 0.315 0.2244, 0.4409 0.315 0.2244, -0.189 0.2087 0.2244, -0.189 0.315 0.2244, -0.1929 0.2953 0.2244, -0.1929 0.315 0.2244, 0.189 -0.2087 0.2244, 0.189 -0.315 0.2244, 0.1929 -0.2953 0.2244, 0.1929 -0.315 0.2244, -0.4409 0.315 0.2244, -0.4449 0.315 0.2244, -0.4449 0.2598 0.2244, 0.0591 -0.2953 0.2244, 0.0591 -0.315 0.2244, 0.063 -0.315 0.2244, -0.315 -0.2087 0.2244, -0.315 -0.315 0.2244, -0.311 -0.2953 0.2244, -0.311 -0.315 0.2244, -0.626 0.2598 0.2244, -0.626 0.315 0.2244, -0.6299 0.315 0.2244, -0.6299 -0.315 0.2244, -0.626 -0.2598 0.2244, -0.626 -0.315 0.2244, 0.063 0.2087 0.2244, 0.063 0.315 0.2244, 0.0591 0.2953 0.2244, 0.0591 0.315 0.2244, -0.063 -0.315 0.2244, -0.0591 -0.315 0.2244, -0.0591 -0.2953 0.2244, -0.5472 -0.2598 0.2244, -0.5472 -0.1969 0.2244, -0.4843 -0.1969 0.2244, -0.4843 -0.2598 0.2244, -0.4449 -0.2598 0.2244, -0.4375 -0.2003 0.2244, -0.435 -0.1984 0.2244, -0.2953 -0.1969 0.2244, -0.3237 -0.1973 0.2244, -0.3209 -0.1984 0.2244, -0.3184 -0.2003 0.2244, -0.3165 -0.2028 0.2244, -0.4394 -0.2028 0.2244, -0.4449 -0.315 0.2244, -0.4409 -0.315 0.2244, -0.4409 -0.2087 0.2244, -0.4405 -0.2056 0.2244, 0.0646 0.2028 0.2244, 0.0433 0.1969 0.2244, 0.0665 0.2003 0.2244, 0.0689 0.1984 0.2244, -0.0433 0.1969 0.2244, -0.0717 -0.1973 0.2244, -0.0689 -0.1984 0.2244, -0.0433 -0.1969 0.2244, -0.0665 -0.2003 0.2244, -0.063 -0.2087 0.2244, -0.0433 -0.2953 0.2244, -0.4322 -0.1973 0.2244, -0.4291 -0.1969 0.2244, -0.3268 -0.1969 0.2244, -0.2953 -0.2953 0.2244, -0.3154 -0.2056 0.2244, -0.2087 0.1969 0.2244, -0.2953 0.1969 0.2244, -0.0646 -0.2028 0.2244, -0.0634 -0.2056 0.2244, 0.315 0.2087 0.2244, 0.315 0.315 0.2244, 0.311 0.2953 0.2244, 0.311 0.315 0.2244, 0.2087 0.1969 0.2244, 0.2087 0.2953 0.2244, 0.1929 0.2953 0.2244, 0.0433 0.2953 0.2244, 0.0634 0.2056 0.2244, 0.1802 0.1973 0.2244, 0.1772 0.1969 0.2244, 0.0748 0.1969 0.2244, 0.0717 0.1973 0.2244, 0.4291 0.1969 0.2244, 0.3268 0.1969 0.2244, -0.1831 -0.1984 0.2244, -0.1929 -0.2953 0.2244, -0.1929 -0.315 0.2244, -0.189 -0.315 0.2244, -0.1874 0.2028 0.2244, -0.1855 0.2003 0.2244, -0.1831 0.1984 0.2244, -0.0433 0.2953 0.2244, -0.0591 0.2953 0.2244, 0.3237 0.1973 0.2244, 0.3209 0.1984 0.2244, 0.2953 0.1969 0.2244, 0.3184 0.2003 0.2244, 0.3165 0.2028 0.2244, 0.1874 -0.2028 0.2244, 0.2087 -0.1969 0.2244, 0.1855 -0.2003 0.2244, 0.1831 -0.1984 0.2244, -0.0591 0.315 0.2244, -0.063 0.315 0.2244, -0.063 0.2087 0.2244, -0.0634 0.2056 0.2244, -0.0646 0.2028 0.2244, 0.4322 0.1973 0.2244, -0.1802 -0.1973 0.2244, 0.435 0.1984 0.2244, -0.1772 -0.1969 0.2244, -0.0748 -0.1969 0.2244, 0.4409 -0.315 0.2244, 0.4449 -0.315 0.2244, 0.4449 -0.2598 0.2244, -0.2087 0.2953 0.2244, -0.1886 0.2056 0.2244, 0.2953 0.2953 0.2244, 0.3154 0.2056 0.2244, 0.2087 -0.2953 0.2244, 0.1886 -0.2056 0.2244, 0.2953 -0.1969 0.2244, 0.5472 0.1969 0.2244, 0.626 0.2598 0.2244, 0.5472 0.2598 0.2244, 0.626 -0.315 0.2244, 0.6299 -0.315 0.2244, 0.626 -0.2598 0.2244, 0.6299 0.315 0.2244, 0.626 0.315 0.2244, -0.0665 0.2003 0.2244, -0.0689 0.1984 0.2244, -0.0717 0.1973 0.2244, -0.2953 0.2953 0.2244, -0.311 0.2953 0.2244, -0.189 -0.2087 0.2244, -0.2087 -0.1969 0.2244, -0.2087 -0.2953 0.2244, 0.1874 0.2028 0.2244, 0.1855 0.2003 0.2244, 0.4409 0.2087 0.2244, 0.4843 0.1969 0.2244, 0.4843 0.2598 0.2244, 0.4322 -0.1973 0.2244, 0.435 -0.1984 0.2244, 0.4843 -0.1969 0.2244, 0.4375 -0.2003 0.2244, 0.4409 -0.2087 0.2244, 0.4843 -0.2598 0.2244, 0.2953 -0.2953 0.2244, 0.311 -0.2953 0.2244, -0.3154 0.2056 0.2244, -0.315 0.2087 0.2244, -0.315 0.315 0.2244, -0.311 0.315 0.2244, -0.3165 0.2028 0.2244, -0.3184 0.2003 0.2244, 0.1929 0.315 0.2244, 0.189 0.315 0.2244, 0.189 0.2087 0.2244, 0.1886 0.2056 0.2244, -0.1886 -0.2056 0.2244, -0.1874 -0.2028 0.2244, -0.1855 -0.2003 0.2244, 0.0717 -0.1973 0.2244, 0.0748 -0.1969 0.2244, 0.1772 -0.1969 0.2244, 0.1802 -0.1973 0.2244, 0.063 -0.2087 0.2244, 0.0433 -0.1969 0.2244, 0.0433 -0.2953 0.2244, 0.4394 -0.2028 0.2244, 0.4405 -0.2056 0.2244, 0.311 -0.315 0.2244, 0.315 -0.315 0.2244, 0.315 -0.2087 0.2244, 0.3154 -0.2056 0.2244, 0.3165 -0.2028 0.2244, 0.3268 -0.1969 0.2244, 0.4291 -0.1969 0.2244, -0.0748 0.1969 0.2244, -0.1772 0.1969 0.2244, -0.1802 0.1973 0.2244, 0.1831 0.1984 0.2244, 0.0634 -0.2056 0.2244, 0.0646 -0.2028 0.2244, 0.0665 -0.2003 0.2244, 0.3184 -0.2003 0.2244, 0.3209 -0.1984 0.2244, 0.3237 -0.1973 0.2244, 0.5472 -0.2598 0.2244, 0.5472 -0.1969 0.2244, -0.4409 0.2087 0.2244, -0.4843 0.2598 0.2244, -0.4843 0.1969 0.2244, 0.4405 0.2056 0.2244, 0.4394 0.2028 0.2244, 0.4375 0.2003 0.2244, -0.3209 0.1984 0.2244, -0.3237 0.1973 0.2244, -0.3268 0.1969 0.2244, -0.5472 0.2598 0.2244, -0.5472 0.1969 0.2244, -0.435 0.1984 0.2244, -0.4375 0.2003 0.2244, -0.4394 0.2028 0.2244, -0.4405 0.2056 0.2244, 0.0689 -0.1984 0.2244, -0.4291 0.1969 0.2244, -0.4322 0.1973 0.2244, -0.4322 0.1973 0.2244
            ]
        }
        coordIndex [
            0,1,2,-1,3,4,5,-1,6,7,8,-1,9,10,11,-1,11,10,12,-1,13,14,15,-1,15,14,8,-1,15,8,16,-1,16,8,7,-1,17,18,3,-1,19,20,21,-1,17,3,22,-1,23,24,25,-1,25,24,26,-1,27,28,5,-1,5,28,29,-1,5,29,3,-1,3,29,30,-1,3,30,22,-1,6,31,32,-1,0,2,33,-1,33,2,34,-1,33,34,6,-1,18,35,3,-1,3,35,36,-1,3,36,37,-1,37,36,38,-1,37,38,39,-1,11,40,9,-1,9,40,24,-1,9,24,41,-1,41,24,23,-1,32,42,6,-1,6,42,43,-1,6,43,33,-1,44,19,45,-1,45,19,46,-1,19,37,24,-1,24,37,39,-1,24,39,26,-1,44,47,19,-1,19,47,48,-1,19,48,37,-1,37,48,49,-1,37,49,50,-1,51,52,21,-1,21,52,53,-1,21,53,19,-1,19,53,54,-1,19,54,46,-1,55,56,57,-1,57,56,58,-1,59,60,61,-1,61,60,62,-1,63,64,65,-1,65,64,66,-1,67,68,69,-1,69,68,70,-1,69,70,71,-1,72,73,74,-1,75,76,77,-1,77,76,78,-1,71,79,69,-1,69,79,63,-1,69,63,80,-1,81,82,83,-1,83,82,84,-1,85,86,72,-1,65,87,63,-1,63,87,88,-1,63,88,72,-1,57,89,55,-1,55,89,76,-1,55,76,90,-1,90,76,75,-1,82,63,76,-1,76,63,91,-1,76,91,78,-1,80,92,69,-1,69,92,93,-1,69,93,94,-1,61,95,59,-1,59,95,69,-1,59,69,96,-1,96,69,94,-1,82,97,98,-1,85,72,99,-1,86,100,72,-1,72,100,101,-1,72,101,63,-1,63,101,102,-1,63,102,91,-1,81,103,82,-1,82,103,104,-1,82,104,63,-1,63,104,105,-1,63,105,80,-1,106,107,98,-1,98,107,108,-1,98,108,82,-1,82,108,109,-1,82,109,84,-1,110,111,74,-1,74,111,112,-1,74,112,72,-1,72,112,113,-1,72,113,99,-1,114,115,116,-1,116,115,117,-1,118,119,37,-1,37,119,120,-1,121,120,122,-1,122,120,123,-1,121,124,120,-1,120,124,68,-1,120,68,37,-1,37,68,67,-1,37,67,3,-1,125,126,127,-1,127,126,63,-1,127,63,128,-1,128,63,129,-1,130,131,129,-1,132,133,134,-1,135,136,137,-1,123,138,139,-1,139,138,140,-1,139,140,118,-1,141,142,143,-1,143,142,144,-1,143,144,145,-1,146,147,143,-1,143,147,148,-1,149,150,151,-1,151,150,152,-1,148,153,143,-1,143,153,152,-1,143,152,154,-1,154,152,150,-1,155,132,156,-1,156,132,134,-1,156,134,157,-1,157,134,158,-1,159,160,161,-1,161,160,162,-1,129,63,130,-1,130,63,79,-1,130,79,163,-1,163,79,164,-1,163,164,165,-1,145,166,143,-1,143,166,167,-1,143,167,146,-1,168,169,170,-1,170,169,130,-1,169,171,130,-1,130,171,172,-1,130,172,173,-1,131,174,175,-1,176,177,178,-1,178,177,118,-1,178,118,179,-1,179,118,140,-1,179,140,180,-1,180,140,181,-1,173,182,130,-1,130,182,183,-1,130,183,131,-1,131,183,184,-1,131,184,174,-1,116,185,114,-1,114,185,131,-1,114,131,186,-1,186,131,175,-1,165,187,163,-1,163,187,188,-1,163,188,189,-1,189,188,190,-1,189,190,191,-1,192,193,194,-1,161,195,159,-1,159,195,192,-1,159,192,196,-1,196,192,194,-1,190,197,191,-1,191,197,198,-1,191,198,137,-1,137,198,199,-1,137,199,135,-1,200,201,139,-1,139,201,202,-1,139,202,203,-1,204,205,206,-1,207,208,204,-1,204,208,170,-1,204,170,139,-1,139,170,137,-1,139,137,200,-1,200,137,136,-1,208,209,170,-1,170,209,210,-1,170,210,211,-1,155,168,132,-1,132,168,170,-1,132,170,192,-1,192,170,212,-1,192,212,193,-1,203,213,139,-1,139,213,214,-1,139,214,123,-1,123,214,215,-1,123,215,122,-1,122,215,216,-1,122,216,143,-1,143,216,217,-1,143,217,141,-1,218,219,206,-1,206,219,220,-1,206,220,204,-1,204,220,221,-1,204,221,207,-1,211,222,170,-1,170,222,223,-1,170,223,212,-1,224,225,37,-1,37,225,226,-1,227,228,37,-1,229,230,231,-1,232,233,234,-1,235,236,234,-1,234,236,8,-1,234,8,232,-1,236,237,227,-1,236,227,8,-1,8,227,37,-1,8,37,6,-1,6,37,50,-1,6,50,31,-1,231,238,229,-1,229,238,239,-1,229,239,240,-1,241,242,243,-1,243,242,244,-1,240,224,229,-1,229,224,37,-1,229,37,245,-1,245,37,228,-1,245,228,246,-1,246,228,247,-1,248,249,250,-1,250,251,248,-1,248,251,252,-1,248,252,253,-1,254,255,256,-1,256,255,257,-1,243,258,241,-1,241,258,248,-1,241,248,259,-1,259,248,253,-1,260,261,262,-1,262,261,263,-1,262,263,264,-1,237,265,266,-1,264,267,262,-1,262,267,268,-1,262,268,269,-1,269,270,262,-1,262,270,271,-1,262,271,229,-1,229,271,272,-1,229,272,230,-1,273,274,266,-1,266,274,275,-1,266,275,237,-1,237,275,276,-1,237,276,277,-1,277,278,237,-1,237,278,279,-1,237,279,227,-1,227,279,280,-1,281,282,283,-1,284,285,286,-1,286,285,287,-1,256,288,254,-1,254,288,286,-1,254,286,289,-1,289,286,287,-1,280,290,227,-1,227,290,249,-1,227,249,291,-1,291,249,248,-1,291,248,262,-1,262,248,281,-1,262,281,260,-1,292,293,283,-1,283,293,294,-1,283,294,281,-1,281,294,295,-1,281,295,296,-1,118,37,139,-1,139,37,226,-1,139,226,286,-1,286,226,260,-1,286,260,284,-1,296,297,281,-1,281,297,298,-1,281,298,260,-1,260,298,299,-1,260,299,300,-1,300,301,260,-1,260,301,302,-1,260,302,284,-1,303,304,305,-1,306,307,308,-1,308,307,309,-1,310,311,312,-1,312,311,313,-1,314,315,316,-1,317,318,319,-1,320,321,322,-1,322,321,323,-1,324,325,326,-1,326,327,328,-1,328,327,329,-1,330,331,332,-1,332,331,333,-1,334,335,336,-1,328,337,338,-1,339,340,341,-1,342,343,339,-1,344,324,345,-1,345,346,344,-1,344,346,347,-1,344,347,348,-1,342,339,349,-1,326,328,324,-1,324,328,338,-1,324,338,339,-1,350,351,341,-1,341,351,352,-1,341,352,339,-1,339,352,353,-1,339,353,349,-1,354,355,356,-1,356,355,357,-1,355,358,344,-1,359,360,361,-1,361,360,362,-1,334,336,363,-1,363,336,364,-1,363,364,361,-1,343,365,339,-1,339,365,366,-1,339,366,324,-1,324,366,367,-1,324,367,345,-1,322,368,320,-1,320,368,344,-1,320,344,369,-1,369,344,348,-1,370,371,344,-1,362,372,361,-1,361,372,373,-1,361,373,363,-1,374,375,376,-1,376,375,377,-1,378,379,380,-1,332,381,330,-1,330,381,355,-1,330,355,382,-1,382,355,354,-1,383,384,344,-1,344,384,385,-1,344,385,355,-1,355,385,386,-1,355,386,357,-1,387,388,389,-1,390,391,392,-1,393,370,394,-1,394,370,395,-1,358,396,397,-1,398,399,400,-1,400,399,401,-1,400,401,402,-1,403,404,405,-1,405,404,406,-1,407,408,397,-1,397,408,409,-1,397,409,358,-1,358,409,410,-1,358,410,411,-1,387,389,412,-1,412,389,413,-1,412,413,414,-1,414,413,415,-1,414,415,416,-1,417,418,419,-1,308,420,306,-1,306,420,370,-1,306,370,421,-1,421,370,393,-1,376,422,374,-1,374,422,400,-1,374,400,423,-1,423,400,402,-1,312,424,310,-1,310,424,404,-1,310,404,425,-1,425,404,403,-1,404,426,427,-1,427,426,428,-1,427,428,429,-1,430,431,432,-1,432,431,433,-1,432,433,428,-1,428,433,434,-1,411,435,358,-1,358,435,436,-1,358,436,344,-1,344,436,437,-1,371,438,439,-1,392,440,390,-1,390,440,441,-1,390,441,442,-1,378,443,444,-1,305,445,303,-1,303,445,446,-1,303,446,447,-1,448,449,450,-1,450,449,451,-1,417,419,452,-1,452,419,453,-1,452,453,450,-1,426,454,455,-1,456,371,457,-1,457,371,439,-1,457,439,458,-1,458,439,459,-1,456,460,371,-1,371,460,461,-1,371,461,344,-1,462,463,380,-1,380,463,464,-1,380,464,378,-1,378,464,465,-1,378,465,443,-1,440,466,441,-1,441,466,467,-1,441,467,468,-1,469,470,427,-1,427,470,471,-1,427,471,404,-1,404,471,472,-1,404,472,406,-1,319,473,317,-1,317,473,474,-1,317,474,475,-1,451,476,450,-1,450,476,477,-1,450,477,452,-1,478,479,455,-1,455,479,480,-1,455,480,426,-1,426,480,481,-1,426,481,482,-1,483,484,428,-1,437,485,344,-1,344,485,486,-1,344,486,370,-1,370,486,487,-1,370,487,395,-1,383,344,488,-1,488,344,441,-1,488,441,444,-1,444,441,468,-1,444,468,378,-1,378,468,389,-1,378,389,400,-1,400,389,388,-1,400,388,398,-1,473,489,474,-1,474,489,490,-1,474,490,491,-1,482,492,426,-1,426,492,493,-1,426,493,428,-1,428,493,494,-1,428,494,483,-1,495,432,496,-1,496,432,428,-1,496,428,450,-1,450,428,484,-1,450,484,448,-1,314,316,497,-1,497,316,498,-1,497,498,499,-1,445,500,446,-1,446,500,501,-1,446,501,502,-1,461,503,344,-1,344,503,504,-1,344,504,505,-1,506,324,507,-1,507,324,344,-1,507,344,499,-1,499,344,508,-1,499,508,509,-1,509,510,499,-1,499,510,511,-1,499,511,497,-1,469,427,512,-1,512,427,446,-1,512,446,491,-1,491,446,502,-1,491,502,474,-1,474,502,414,-1,474,414,361,-1,361,414,416,-1,361,416,359,-1,505,513,344,-1,344,513,514,-1,344,514,508,-1,232,326,233,-1,233,326,325,-1,314,274,315,-1,315,274,273,-1,117,115,304,-1,304,115,305,-1,64,431,66,-1,66,431,430,-1,417,111,418,-1,418,111,110,-1,160,463,162,-1,162,463,462,-1,375,157,377,-1,377,157,158,-1,255,408,257,-1,257,408,407,-1,331,219,333,-1,333,219,218,-1,313,311,106,-1,106,311,107,-1,335,334,27,-1,27,334,28,-1,242,458,244,-1,244,458,459,-1,307,293,309,-1,309,293,292,-1,323,321,51,-1,51,321,52,-1,1,0,350,-1,350,0,351,-1,434,433,125,-1,125,433,126,-1,58,56,478,-1,478,56,479,-1,62,60,318,-1,318,60,319,-1,12,10,391,-1,391,10,392,-1,329,327,13,-1,13,327,14,-1,126,433,63,-1,63,433,431,-1,63,431,64,-1,326,232,327,-1,327,232,8,-1,327,8,14,-1,409,408,254,-1,254,408,255,-1,294,293,306,-1,306,293,307,-1,301,300,485,-1,485,300,486,-1,352,351,33,-1,33,351,0,-1,53,52,320,-1,320,52,321,-1,49,48,366,-1,366,48,367,-1,440,392,9,-1,9,392,10,-1,29,28,363,-1,363,28,334,-1,416,415,36,-1,36,415,38,-1,473,319,59,-1,59,319,60,-1,108,107,310,-1,310,107,311,-1,105,104,470,-1,470,104,471,-1,480,479,55,-1,55,479,56,-1,112,111,452,-1,452,111,417,-1,484,483,101,-1,101,483,102,-1,457,458,241,-1,241,458,242,-1,275,274,497,-1,497,274,314,-1,513,505,290,-1,290,505,249,-1,464,463,159,-1,159,463,160,-1,220,219,330,-1,330,219,331,-1,222,211,384,-1,384,211,385,-1,445,305,114,-1,114,305,115,-1,156,157,374,-1,374,157,375,-1,182,173,387,-1,387,173,388,-1,
        ]
    }
}
Shape{
    appearance Appearance {
        material  Material 	{
            diffuseColor 1.0 1.0 1.0
            specularColor 0.5019607843137255 0.5019607843137255 0.5019607843137255
            ambientIntensity 0.2
            transparency 0
            shininess 0.5
        }
    }
    geometry IndexedFaceSet {
        ccw TRUE
        solid FALSE
        coord DEF co Coordinate {
            point [
                -0.5472 -0.2598 -0.0039, -0.626 -0.2598 -0.0039, -0.5472 -0.2598 0.0, -0.626 -0.2598 0.0, -0.5472 -0.1969 -0.0039, -0.5472 -0.1969 0.0, -0.4843 -0.1969 -0.0039, -0.4843 -0.1969 0.0, -0.4843 -0.2598 -0.0039, -0.4843 -0.2598 0.0, -0.4449 -0.2598 -0.0039, -0.4449 -0.2598 0.0, -0.626 -0.2598 0.2244, -0.626 -0.2598 0.2283, -0.5472 -0.2598 0.2244, -0.5472 -0.2598 0.2283, -0.5472 -0.1969 0.2244, -0.5472 -0.1969 0.2283, -0.4843 -0.1969 0.2244, -0.4843 -0.1969 0.2283, -0.4843 -0.2598 0.2244, -0.4843 -0.2598 0.2283, -0.4449 -0.2598 0.2244, -0.4449 -0.2598 0.2283, -0.4449 -0.315 0.2244, -0.4449 -0.3189 0.2283, -0.4449 -0.315 0.0, -0.4449 -0.3189 -0.0039, -0.626 -0.3189 0.2283, -0.626 -0.3189 -0.0039, -0.626 -0.315 0.0, -0.626 -0.315 0.2244, -0.2953 -0.2953 -0.0039, -0.311 -0.2953 -0.0039, -0.2953 -0.2953 0.0, -0.311 -0.2953 0.0, -0.2953 -0.1969 -0.0039, -0.2953 -0.1969 0.0, -0.2087 -0.1969 -0.0039, -0.2087 -0.1969 0.0, -0.2087 -0.2953 -0.0039, -0.2087 -0.2953 0.0, -0.1929 -0.2953 -0.0039, -0.1929 -0.2953 0.0, -0.311 -0.315 0.0, -0.311 -0.3189 -0.0039, -0.311 -0.315 0.2244, -0.311 -0.3189 0.2283, -0.311 -0.2953 0.2244, -0.311 -0.2953 0.2283, -0.2953 -0.2953 0.2244, -0.2953 -0.2953 0.2283, -0.2953 -0.1969 0.2244, -0.2953 -0.1969 0.2283, -0.2087 -0.1969 0.2244, -0.2087 -0.1969 0.2283, -0.2087 -0.2953 0.2244, -0.2087 -0.2953 0.2283, -0.1929 -0.2953 0.2244, -0.1929 -0.2953 0.2283, -0.1929 -0.315 0.2244, -0.1929 -0.3189 0.2283, -0.1929 -0.315 0.0, -0.1929 -0.3189 -0.0039, -0.2087 0.2953 0.0, -0.2087 0.2953 -0.0039, -0.1929 0.2953 0.0, -0.1929 0.2953 -0.0039, -0.2087 0.1969 0.0, -0.2087 0.1969 -0.0039, -0.2953 0.1969 0.0, -0.2953 0.1969 -0.0039, -0.2953 0.2953 0.0, -0.2953 0.2953 -0.0039, -0.311 0.2953 0.0, -0.311 0.2953 -0.0039, -0.311 0.2953 0.2244, -0.311 0.2953 0.2283, -0.311 0.315 0.2244, -0.311 0.3189 0.2283, -0.311 0.315 0.0, -0.311 0.3189 -0.0039, -0.1929 0.3189 0.2283, -0.1929 0.3189 -0.0039, -0.1929 0.315 0.0, -0.1929 0.315 0.2244, -0.1929 0.2953 0.2244, -0.1929 0.2953 0.2283, -0.2087 0.2953 0.2283, -0.2087 0.2953 0.2244, -0.2087 0.1969 0.2283, -0.2087 0.1969 0.2244, -0.2953 0.1969 0.2283, -0.2953 0.1969 0.2244, -0.2953 0.2953 0.2283, -0.2953 0.2953 0.2244, -0.0433 -0.2953 -0.0039, -0.0591 -0.2953 -0.0039, -0.0433 -0.2953 0.0, -0.0591 -0.2953 0.0, -0.0433 -0.1969 -0.0039, -0.0433 -0.1969 0.0, 0.0433 -0.1969 0.0, 0.0433 -0.1969 -0.0039, -0.0302 -0.1969 0.0, 0.0433 -0.2953 -0.0039, 0.0433 -0.2953 0.0, 0.0591 -0.2953 -0.0039, 0.0591 -0.2953 0.0, -0.0591 -0.315 0.0, -0.0591 -0.3189 -0.0039, -0.0591 -0.315 0.2244, -0.0591 -0.3189 0.2283, -0.0591 -0.2953 0.2244, -0.0591 -0.2953 0.2283, -0.0433 -0.2953 0.2244, -0.0433 -0.2953 0.2283, -0.0433 -0.1969 0.2244, -0.0433 -0.1969 0.2283, 0.0433 -0.1969 0.2244, 0.0433 -0.1969 0.2283, 0.0433 -0.2953 0.2244, 0.0433 -0.2953 0.2283, 0.0591 -0.2953 0.2244, 0.0591 -0.2953 0.2283, 0.0591 -0.315 0.2244, 0.0591 -0.3189 0.2283, 0.0591 -0.315 0.0, 0.0591 -0.3189 -0.0039, 0.2087 -0.2953 -0.0039, 0.1929 -0.2953 -0.0039, 0.2087 -0.2953 0.0, 0.1929 -0.2953 0.0, 0.2087 -0.1969 -0.0039, 0.2087 -0.1969 0.0, 0.2953 -0.1969 -0.0039, 0.2953 -0.1969 0.0, 0.2953 -0.2953 -0.0039, 0.2953 -0.2953 0.0, 0.311 -0.2953 -0.0039, 0.311 -0.2953 0.0, 0.1929 -0.315 0.0, 0.1929 -0.3189 -0.0039, 0.1929 -0.315 0.2244, 0.1929 -0.3189 0.2283, 0.1929 -0.2953 0.2244, 0.1929 -0.2953 0.2283, 0.2087 -0.2953 0.2244, 0.2087 -0.2953 0.2283, 0.2087 -0.1969 0.2244, 0.2087 -0.1969 0.2283, 0.2953 -0.1969 0.2244, 0.2953 -0.1969 0.2283, 0.2953 -0.2953 0.2244, 0.2953 -0.2953 0.2283, 0.311 -0.2953 0.2244, 0.311 -0.2953 0.2283, 0.311 -0.315 0.2244, 0.311 -0.3189 0.2283, 0.311 -0.315 0.0, 0.311 -0.3189 -0.0039, 0.0433 0.2953 0.0, 0.0433 0.2953 -0.0039, 0.0591 0.2953 0.0, 0.0591 0.2953 -0.0039, 0.0433 0.1969 0.0, 0.0433 0.1969 -0.0039, -0.0433 0.1969 0.0, -0.0433 0.1969 -0.0039, -0.0302 0.1969 0.0, -0.0433 0.2953 0.0, -0.0433 0.2953 -0.0039, -0.0591 0.2953 0.0, -0.0591 0.2953 -0.0039, -0.0591 0.2953 0.2244, -0.0591 0.2953 0.2283, -0.0591 0.315 0.2244, -0.0591 0.3189 0.2283, -0.0591 0.315 0.0, -0.0591 0.3189 -0.0039, 0.0591 0.3189 0.2283, 0.0591 0.3189 -0.0039, 0.0591 0.315 0.0, 0.0591 0.315 0.2244, 0.0591 0.2953 0.2244, 0.0591 0.2953 0.2283, 0.0433 0.2953 0.2283, 0.0433 0.2953 0.2244, 0.0433 0.1969 0.2283, 0.0433 0.1969 0.2244, -0.0433 0.1969 0.2283, -0.0433 0.1969 0.2244, -0.0433 0.2953 0.2283, -0.0433 0.2953 0.2244, 0.2953 0.2953 0.0, 0.2953 0.2953 -0.0039, 0.311 0.2953 0.0, 0.311 0.2953 -0.0039, 0.2953 0.1969 0.0, 0.2953 0.1969 -0.0039, 0.2087 0.1969 0.0, 0.2087 0.1969 -0.0039, 0.2087 0.2953 0.0, 0.2087 0.2953 -0.0039, 0.1929 0.2953 0.0, 0.1929 0.2953 -0.0039, 0.1929 0.2953 0.2244, 0.1929 0.2953 0.2283, 0.1929 0.315 0.2244, 0.1929 0.3189 0.2283, 0.1929 0.315 0.0, 0.1929 0.3189 -0.0039, 0.311 0.3189 0.2283, 0.311 0.3189 -0.0039, 0.311 0.315 0.0, 0.311 0.315 0.2244, 0.311 0.2953 0.2244, 0.311 0.2953 0.2283, 0.2953 0.2953 0.2283, 0.2953 0.2953 0.2244, 0.2953 0.1969 0.2283, 0.2953 0.1969 0.2244, 0.2087 0.1969 0.2283, 0.2087 0.1969 0.2244, 0.2087 0.2953 0.2283, 0.2087 0.2953 0.2244, 0.2087 0.2953 0.2244
            ]
        }
        coordIndex [
            0,1,2,-1,2,1,3,-1,4,0,5,-1,5,0,2,-1,6,4,7,-1,7,4,5,-1,8,6,9,-1,9,6,7,-1,10,8,11,-1,11,8,9,-1,12,13,14,-1,14,13,15,-1,14,15,16,-1,16,15,17,-1,16,17,18,-1,18,17,19,-1,18,19,20,-1,20,19,21,-1,20,21,22,-1,22,21,23,-1,22,23,24,-1,24,23,25,-1,24,25,26,-1,26,25,27,-1,26,27,11,-1,11,27,10,-1,28,29,25,-1,25,29,27,-1,3,1,30,-1,30,1,29,-1,30,29,31,-1,31,29,28,-1,31,28,12,-1,12,28,13,-1,8,10,27,-1,29,1,0,-1,4,6,0,-1,0,6,8,-1,0,8,29,-1,29,8,27,-1,25,23,28,-1,28,23,21,-1,13,28,15,-1,15,28,21,-1,15,21,17,-1,17,21,19,-1,32,33,34,-1,34,33,35,-1,36,32,37,-1,37,32,34,-1,38,36,39,-1,39,36,37,-1,40,38,41,-1,41,38,39,-1,42,40,43,-1,43,40,41,-1,35,33,44,-1,44,33,45,-1,44,45,46,-1,46,45,47,-1,46,47,48,-1,48,47,49,-1,48,49,50,-1,50,49,51,-1,50,51,52,-1,52,51,53,-1,52,53,54,-1,54,53,55,-1,54,55,56,-1,56,55,57,-1,56,57,58,-1,58,57,59,-1,58,59,60,-1,60,59,61,-1,60,61,62,-1,62,61,63,-1,62,63,43,-1,43,63,42,-1,47,45,61,-1,61,45,63,-1,63,45,32,-1,32,45,33,-1,42,63,40,-1,40,63,32,-1,40,32,38,-1,38,32,36,-1,47,61,57,-1,57,61,59,-1,49,47,51,-1,51,47,57,-1,51,57,53,-1,53,57,55,-1,64,65,66,-1,66,65,67,-1,68,69,64,-1,64,69,65,-1,70,71,68,-1,68,71,69,-1,72,73,70,-1,70,73,71,-1,74,75,72,-1,72,75,73,-1,76,77,78,-1,78,77,79,-1,78,79,80,-1,80,79,81,-1,80,81,74,-1,74,81,75,-1,82,83,79,-1,79,83,81,-1,66,67,84,-1,84,67,83,-1,84,83,85,-1,85,83,82,-1,85,82,86,-1,86,82,87,-1,87,88,86,-1,86,88,89,-1,88,90,89,-1,89,90,91,-1,90,92,91,-1,91,92,93,-1,92,94,93,-1,93,94,95,-1,94,77,95,-1,95,77,76,-1,81,83,65,-1,65,83,67,-1,75,81,73,-1,73,81,65,-1,73,65,71,-1,71,65,69,-1,82,79,94,-1,94,79,77,-1,87,82,88,-1,88,82,94,-1,88,94,90,-1,90,94,92,-1,96,97,98,-1,98,97,99,-1,100,96,101,-1,101,96,98,-1,102,103,104,-1,104,103,100,-1,104,100,101,-1,105,103,106,-1,106,103,102,-1,107,105,108,-1,108,105,106,-1,99,97,109,-1,109,97,110,-1,109,110,111,-1,111,110,112,-1,111,112,113,-1,113,112,114,-1,113,114,115,-1,115,114,116,-1,115,116,117,-1,117,116,118,-1,117,118,119,-1,119,118,120,-1,119,120,121,-1,121,120,122,-1,121,122,123,-1,123,122,124,-1,123,124,125,-1,125,124,126,-1,125,126,127,-1,127,126,128,-1,127,128,108,-1,108,128,107,-1,112,110,126,-1,126,110,128,-1,128,110,96,-1,96,110,97,-1,107,128,105,-1,105,128,96,-1,105,96,103,-1,103,96,100,-1,112,126,122,-1,122,126,124,-1,114,112,116,-1,116,112,122,-1,116,122,118,-1,118,122,120,-1,129,130,131,-1,131,130,132,-1,133,129,134,-1,134,129,131,-1,135,133,136,-1,136,133,134,-1,137,135,138,-1,138,135,136,-1,139,137,140,-1,140,137,138,-1,132,130,141,-1,141,130,142,-1,141,142,143,-1,143,142,144,-1,143,144,145,-1,145,144,146,-1,145,146,147,-1,147,146,148,-1,147,148,149,-1,149,148,150,-1,149,150,151,-1,151,150,152,-1,151,152,153,-1,153,152,154,-1,153,154,155,-1,155,154,156,-1,155,156,157,-1,157,156,158,-1,157,158,159,-1,159,158,160,-1,159,160,140,-1,140,160,139,-1,144,142,158,-1,158,142,160,-1,160,142,129,-1,129,142,130,-1,139,160,137,-1,137,160,129,-1,137,129,135,-1,135,129,133,-1,144,158,154,-1,154,158,156,-1,146,144,148,-1,148,144,154,-1,148,154,150,-1,150,154,152,-1,161,162,163,-1,163,162,164,-1,165,166,161,-1,161,166,162,-1,167,168,169,-1,169,168,166,-1,169,166,165,-1,170,171,167,-1,167,171,168,-1,172,173,170,-1,170,173,171,-1,174,175,176,-1,176,175,177,-1,176,177,178,-1,178,177,179,-1,178,179,172,-1,172,179,173,-1,180,181,177,-1,177,181,179,-1,163,164,182,-1,182,164,181,-1,182,181,183,-1,183,181,180,-1,183,180,184,-1,184,180,185,-1,185,186,184,-1,184,186,187,-1,186,188,187,-1,187,188,189,-1,188,190,189,-1,189,190,191,-1,190,192,191,-1,191,192,193,-1,192,175,193,-1,193,175,174,-1,179,181,162,-1,162,181,164,-1,173,179,171,-1,171,179,162,-1,171,162,168,-1,168,162,166,-1,180,177,192,-1,192,177,175,-1,185,180,186,-1,186,180,192,-1,186,192,188,-1,188,192,190,-1,194,195,196,-1,196,195,197,-1,198,199,194,-1,194,199,195,-1,200,201,198,-1,198,201,199,-1,202,203,200,-1,200,203,201,-1,204,205,202,-1,202,205,203,-1,206,207,208,-1,208,207,209,-1,208,209,210,-1,210,209,211,-1,210,211,204,-1,204,211,205,-1,212,213,209,-1,209,213,211,-1,196,197,214,-1,214,197,213,-1,214,213,215,-1,215,213,212,-1,215,212,216,-1,216,212,217,-1,217,218,216,-1,216,218,219,-1,218,220,219,-1,219,220,221,-1,220,222,221,-1,221,222,223,-1,222,224,223,-1,223,224,225,-1,224,207,225,-1,225,207,206,-1,211,213,195,-1,195,213,197,-1,205,211,203,-1,203,211,195,-1,203,195,201,-1,201,195,199,-1,212,209,224,-1,224,209,207,-1,217,212,218,-1,218,212,224,-1,218,224,220,-1,220,224,222,-1,
        ]
    }
}
Shape{
    appearance Appearance {
        material  Material 	{
            diffuseColor 0.0 0.0 0.0
            specularColor 0.0 0.0 0.0
            ambientIntensity 0.2
            transparency 0
            shininess 0.5
        }
    }
    geometry IndexedFaceSet {
        ccw TRUE
        solid FALSE
        coord DEF co Coordinate {
            point [
                -0.1474 0.0425 0.0004, -0.1781 -0.0362 0.0004, -0.1474 0.0425 0.0, -0.1781 -0.0362 0.0, -0.1666 -0.0362 0.0004, -0.1666 -0.0362 0.0, -0.1586 -0.0141 0.0004, -0.1586 -0.0141 0.0, -0.1261 -0.0141 0.0004, -0.1261 -0.0141 0.0, -0.1186 -0.0362 0.0004, -0.1186 -0.0362 0.0, -0.1071 -0.0362 0.0004, -0.1071 -0.0362 0.0, -0.1368 0.0425 0.0004, -0.1368 0.0425 0.0, -0.1288 -0.0055 0.0004, -0.1551 -0.0055 0.0004, -0.1405 0.0274 0.0004, -0.1413 0.0301 0.0004, -0.1418 0.0329 0.0004, -0.142 0.0329 0.0004, -0.1425 0.0301 0.0004, -0.1432 0.0274 0.0004, -0.1288 -0.0055 0.0, -0.1551 -0.0055 0.0, -0.1405 0.0274 0.0, -0.1413 0.0301 -0.0, -0.1418 0.0329 0.0, -0.142 0.0329 0.0, -0.1425 0.0301 0.0, -0.1432 0.0274 0.0, -0.0593 -0.0362 0.0004, -0.0379 -0.0362 0.0004, -0.0593 -0.0362 0.0, -0.0379 -0.0362 0.0, -0.0379 0.0425 0.0004, -0.0379 0.0425 0.0, -0.0601 0.0425 0.0004, -0.0601 0.0425 0.0, -0.1013 0.0041 0.0004, -0.1013 0.0041 0.0, -0.1007 0.0115 0.0, -0.1007 0.0115 0.0004, -0.0986 0.0193 0.0, -0.0986 0.0193 0.0004, -0.0949 0.0261 0.0, -0.0949 0.0261 0.0004, -0.0894 0.0322 0.0, -0.0894 0.0322 0.0004, -0.0893 0.0323 0.0, -0.0893 0.0323 0.0004, -0.0807 0.0381 0.0, -0.0807 0.0381 0.0004, -0.0715 0.0413 0.0, -0.0715 0.0413 0.0004, -0.0691 -0.0354 0.0, -0.0691 -0.0354 0.0004, -0.0781 -0.0327 0.0, -0.0781 -0.0327 0.0004, -0.0864 -0.0279 0.0, -0.0864 -0.0279 0.0004, -0.0928 -0.0217 0.0, -0.0928 -0.0217 0.0004, -0.0974 -0.0146 0.0, -0.0974 -0.0146 0.0004, -0.1002 -0.0064 0.0, -0.1002 -0.0064 0.0004, -0.0855 0.0228 0.0004, -0.0817 0.0269 0.0004, -0.0759 0.0306 0.0004, -0.0694 0.0329 0.0004, -0.0601 0.0339 0.0004, -0.0485 0.0339 0.0004, -0.0485 -0.0276 0.0004, -0.0597 -0.0276 0.0004, -0.068 -0.0268 0.0004, -0.0746 -0.0247 0.0004, -0.08 -0.0216 0.0004, -0.0844 -0.0172 0.0004, -0.0877 -0.0118 0.0004, -0.09 -0.0044 0.0004, -0.0907 0.0039 0.0004, -0.0901 0.0117 0.0004, -0.0882 0.018 0.0004, -0.0601 0.0339 0.0, -0.0485 0.0339 0.0, -0.0694 0.0329 0.0, -0.0759 0.0306 0.0, -0.0817 0.0269 0.0, -0.0855 0.0228 0.0, -0.0882 0.018 0.0, -0.0901 0.0117 0.0, -0.0907 0.0039 0.0, -0.09 -0.0044 0.0, -0.0877 -0.0118 0.0, -0.0844 -0.0172 0.0, -0.08 -0.0216 -0.0, -0.0746 -0.0247 0.0, -0.068 -0.0268 0.0, -0.0597 -0.0276 0.0, -0.0485 -0.0276 0.0, -0.0226 -0.0276 0.0004, -0.0226 -0.0362 0.0004, -0.0226 -0.0276 0.0, -0.0226 -0.0362 0.0, 0.0197 -0.0362 0.0004, 0.0197 -0.0362 0.0, 0.0197 0.0425 0.0004, 0.0197 0.0425 0.0, -0.0206 0.0425 0.0004, -0.0206 0.0425 0.0, -0.0206 0.0339 0.0004, -0.0206 0.0339 0.0, 0.0091 0.0339 0.0004, 0.0091 0.0339 0.0, 0.0091 0.0079 0.0004, 0.0091 0.0079 0.0, -0.0187 0.0079 0.0004, -0.0187 0.0079 0.0, -0.0187 -0.0007 0.0004, -0.0187 -0.0007 0.0, 0.0091 -0.0007 0.0004, 0.0091 -0.0007 0.0, 0.0091 -0.0276 0.0004, 0.0091 -0.0276 0.0, 0.0351 -0.0235 0.0004, 0.0351 -0.0321 0.0004, 0.0351 -0.0235 0.0, 0.0351 -0.0321 0.0, 0.0435 -0.0356 0.0004, 0.0567 -0.0372 0.0004, 0.0567 -0.0372 0.0, 0.0546 -0.0371 0.0, 0.0546 -0.0371 0.0004, 0.0514 -0.0367 0.0, 0.0435 -0.0356 0.0, 0.0614 -0.0367 0.0, 0.0664 -0.0362 0.0004, 0.0664 -0.0362 0.0, 0.0741 -0.0336 0.0004, 0.0741 -0.0336 0.0, 0.0804 -0.0295 0.0004, 0.0804 -0.0295 0.0, 0.0863 -0.0233 0.0004, 0.0863 -0.0233 0.0, 0.0905 -0.0158 0.0004, 0.0905 -0.0158 0.0, 0.0929 -0.0075 0.0004, 0.0929 -0.0075 0.0, 0.0936 0.0017 0.0004, 0.0936 0.0017 0.0, 0.0536 0.0435 0.0004, 0.0536 0.0435 0.0, 0.0615 0.0428 0.0, 0.0615 0.0428 0.0004, 0.0703 0.0403 0.0, 0.0703 0.0403 0.0004, 0.0778 0.036 0.0, 0.0778 0.036 0.0004, 0.0849 0.0291 0.0, 0.0849 0.0291 0.0004, 0.0895 0.0218 0.0, 0.0895 0.0218 0.0004, 0.0925 0.0129 0.0, 0.0925 0.0129 0.0004, 0.0351 0.0404 0.0004, 0.0351 0.0404 0.0, 0.0442 0.0428 0.0, 0.0442 0.0428 0.0004, 0.0351 0.0298 0.0004, 0.0351 0.0298 0.0, 0.0535 0.0348 0.0004, 0.0535 0.0348 0.0, 0.0439 0.0336 0.0, 0.0439 0.0336 0.0004, 0.0831 0.0023 0.0004, 0.0831 0.0023 0.0, 0.0827 0.0084 0.0, 0.0827 0.0084 0.0004, 0.0806 0.0169 0.0, 0.0806 0.0169 0.0004, 0.0774 0.0229 0.0, 0.0774 0.0229 0.0004, 0.0726 0.0282 0.0, 0.0726 0.0282 0.0004, 0.0671 0.0318 0.0, 0.0671 0.0318 0.0004, 0.0613 0.034 0.0, 0.0613 0.034 0.0004, 0.0553 -0.0285 0.0004, 0.0553 -0.0285 0.0, 0.0626 -0.0277 0.0, 0.0626 -0.0277 0.0004, 0.0684 -0.0256 0.0, 0.0684 -0.0256 0.0004, 0.0732 -0.0224 0.0, 0.0732 -0.0224 0.0004, 0.0769 -0.0185 0.0, 0.0769 -0.0185 0.0004, 0.0801 -0.013 0.0, 0.0801 -0.013 0.0004, 0.0823 -0.0062 0.0, 0.0823 -0.0062 0.0004, 0.0365 -0.0243 0.0, 0.0365 -0.0243 0.0004, 0.0448 -0.0274 0.0, 0.0448 -0.0274 0.0004, 0.1004 -0.0276 0.0004, 0.1004 -0.0362 0.0004, 0.1004 -0.0276 0.0, 0.1004 -0.0362 0.0, 0.1407 -0.0362 0.0004, 0.1407 -0.0362 0.0, 0.1407 0.0425 0.0004, 0.1407 0.0425 0.0, 0.1301 0.0425 0.0004, 0.1301 0.0425 0.0, 0.1301 -0.0276 0.0004, 0.1301 -0.0276 0.0, 0.1301 -0.0276 0.0
            ]
        }
        coordIndex [
            0,1,2,-1,2,1,3,-1,1,4,3,-1,3,4,5,-1,4,6,5,-1,5,6,7,-1,6,8,7,-1,7,8,9,-1,8,10,9,-1,9,10,11,-1,10,12,11,-1,11,12,13,-1,12,14,13,-1,13,14,15,-1,14,0,15,-1,15,0,2,-1,16,8,17,-1,17,8,6,-1,18,14,16,-1,16,14,12,-1,16,12,8,-1,8,12,10,-1,18,19,14,-1,14,19,20,-1,14,20,0,-1,0,20,21,-1,0,21,22,-1,22,23,0,-1,0,23,17,-1,0,17,1,-1,1,17,6,-1,1,6,4,-1,16,17,24,-1,24,17,25,-1,18,16,26,-1,26,16,24,-1,18,26,27,-1,18,27,19,-1,19,27,28,-1,19,28,20,-1,21,20,29,-1,29,20,28,-1,21,29,30,-1,21,30,22,-1,22,30,31,-1,22,31,23,-1,17,23,25,-1,25,23,31,-1,32,33,34,-1,34,33,35,-1,33,36,35,-1,35,36,37,-1,36,38,37,-1,37,38,39,-1,40,41,42,-1,40,42,43,-1,43,42,44,-1,43,44,45,-1,45,44,46,-1,45,46,47,-1,47,46,48,-1,47,48,49,-1,49,48,50,-1,49,50,51,-1,51,50,52,-1,51,52,53,-1,53,52,54,-1,53,54,55,-1,55,54,39,-1,55,39,38,-1,32,34,56,-1,32,56,57,-1,57,56,58,-1,57,58,59,-1,59,58,60,-1,59,60,61,-1,61,60,62,-1,61,62,63,-1,63,62,64,-1,63,64,65,-1,65,64,66,-1,65,66,67,-1,67,66,41,-1,67,41,40,-1,45,47,68,-1,68,47,49,-1,68,49,69,-1,69,49,51,-1,69,51,70,-1,70,51,53,-1,70,53,71,-1,71,53,55,-1,71,55,72,-1,72,55,38,-1,72,38,73,-1,73,38,36,-1,73,36,74,-1,74,36,33,-1,74,33,75,-1,75,33,32,-1,75,32,76,-1,76,32,57,-1,76,57,77,-1,77,57,59,-1,77,59,78,-1,78,59,61,-1,78,61,79,-1,79,61,63,-1,79,63,80,-1,80,63,65,-1,80,65,81,-1,81,65,67,-1,81,67,82,-1,82,67,40,-1,82,40,83,-1,83,40,43,-1,83,43,84,-1,84,43,45,-1,84,45,68,-1,72,73,85,-1,85,73,86,-1,72,85,87,-1,72,87,71,-1,71,87,88,-1,71,88,70,-1,70,88,89,-1,70,89,69,-1,69,89,90,-1,69,90,68,-1,68,90,91,-1,68,91,84,-1,84,91,92,-1,84,92,83,-1,83,92,93,-1,83,93,82,-1,82,93,94,-1,82,94,81,-1,81,94,95,-1,81,95,80,-1,80,95,96,-1,80,96,79,-1,79,96,97,-1,79,97,78,-1,78,97,98,-1,78,98,77,-1,77,98,99,-1,77,99,76,-1,76,99,100,-1,76,100,75,-1,74,75,101,-1,101,75,100,-1,73,74,86,-1,86,74,101,-1,102,103,104,-1,104,103,105,-1,103,106,105,-1,105,106,107,-1,106,108,107,-1,107,108,109,-1,108,110,109,-1,109,110,111,-1,110,112,111,-1,111,112,113,-1,112,114,113,-1,113,114,115,-1,114,116,115,-1,115,116,117,-1,116,118,117,-1,117,118,119,-1,118,120,119,-1,119,120,121,-1,120,122,121,-1,121,122,123,-1,122,124,123,-1,123,124,125,-1,124,102,125,-1,125,102,104,-1,106,103,102,-1,102,124,106,-1,106,124,122,-1,106,122,108,-1,112,110,114,-1,114,110,108,-1,114,108,116,-1,116,108,122,-1,116,122,118,-1,118,122,120,-1,126,127,128,-1,128,127,129,-1,129,127,130,-1,131,132,133,-1,131,133,134,-1,134,133,135,-1,134,135,130,-1,130,135,136,-1,130,136,129,-1,132,131,137,-1,137,131,138,-1,137,138,139,-1,139,138,140,-1,139,140,141,-1,141,140,142,-1,141,142,143,-1,143,142,144,-1,143,144,145,-1,145,144,146,-1,145,146,147,-1,147,146,148,-1,147,148,149,-1,149,148,150,-1,149,150,151,-1,152,153,154,-1,152,154,155,-1,155,154,156,-1,155,156,157,-1,157,156,158,-1,157,158,159,-1,159,158,160,-1,159,160,161,-1,161,160,162,-1,161,162,163,-1,163,162,164,-1,163,164,165,-1,165,164,151,-1,165,151,150,-1,166,167,168,-1,166,168,169,-1,169,168,153,-1,169,153,152,-1,166,170,167,-1,167,170,171,-1,172,173,174,-1,172,174,175,-1,175,174,171,-1,175,171,170,-1,176,177,178,-1,176,178,179,-1,179,178,180,-1,179,180,181,-1,181,180,182,-1,181,182,183,-1,183,182,184,-1,183,184,185,-1,185,184,186,-1,185,186,187,-1,187,186,188,-1,187,188,189,-1,189,188,173,-1,189,173,172,-1,190,191,192,-1,190,192,193,-1,193,192,194,-1,193,194,195,-1,195,194,196,-1,195,196,197,-1,197,196,198,-1,197,198,199,-1,199,198,200,-1,199,200,201,-1,201,200,202,-1,201,202,203,-1,203,202,177,-1,203,177,176,-1,126,128,204,-1,126,204,205,-1,205,204,206,-1,205,206,207,-1,207,206,191,-1,207,191,190,-1,193,131,190,-1,190,131,134,-1,190,134,207,-1,207,134,130,-1,207,130,205,-1,205,130,127,-1,205,127,126,-1,170,166,175,-1,175,166,169,-1,175,169,172,-1,172,169,152,-1,172,152,189,-1,189,152,155,-1,189,155,187,-1,187,155,157,-1,187,157,185,-1,185,157,159,-1,185,159,183,-1,183,159,161,-1,183,161,181,-1,181,161,163,-1,181,163,179,-1,179,163,165,-1,179,165,176,-1,176,165,150,-1,176,150,203,-1,203,150,148,-1,203,148,201,-1,201,148,146,-1,201,146,199,-1,199,146,144,-1,199,144,197,-1,197,144,142,-1,197,142,195,-1,195,142,140,-1,195,140,193,-1,193,140,138,-1,193,138,131,-1,208,209,210,-1,210,209,211,-1,209,212,211,-1,211,212,213,-1,212,214,213,-1,213,214,215,-1,214,216,215,-1,215,216,217,-1,216,218,217,-1,217,218,219,-1,218,208,219,-1,219,208,210,-1,216,214,218,-1,218,214,212,-1,218,212,208,-1,208,212,209,-1,
        ]
    }
}
Shape{
    appearance Appearance {
        material  Material 	{
            diffuseColor 0.7529411764705882 0.7529411764705882 0.7529411764705882
            specularColor 0.3764705882352941 0.3764705882352941 0.3764705882352941
            ambientIntensity 0.2
            transparency 0
            shininess 0.5
        }
    }
    geometry IndexedFaceSet {
        ccw TRUE
        solid FALSE
        coord DEF co Coordinate {
            point [
                -0.1288 -0.0055 0.0, -0.1551 -0.0055 0.0, -0.1405 0.0274 0.0, -0.1432 0.0274 0.0, -0.1413 0.0301 -0.0, -0.1425 0.0301 0.0, -0.1418 0.0329 0.0, -0.142 0.0329 0.0, -0.0485 0.0339 0.0, -0.0485 -0.0276 0.0, -0.0601 0.0339 0.0, -0.0597 -0.0276 0.0, -0.068 -0.0268 0.0, -0.0907 0.0039 0.0, -0.0901 0.0117 0.0, -0.0882 0.018 0.0, -0.0694 0.0329 0.0, -0.0746 -0.0247 0.0, -0.08 -0.0216 -0.0, -0.0844 -0.0172 0.0, -0.0877 -0.0118 0.0, -0.09 -0.0044 0.0, -0.0855 0.0228 0.0, -0.0817 0.0269 0.0, -0.0759 0.0306 0.0, -0.0759 0.0306 0.0
            ]
        }
        coordIndex [
            0,1,2,-1,2,1,3,-1,2,3,4,-1,4,3,5,-1,4,5,6,-1,6,5,7,-1,8,9,10,-1,10,9,11,-1,10,11,12,-1,13,14,10,-1,10,14,15,-1,10,15,16,-1,12,17,10,-1,10,17,18,-1,10,18,19,-1,19,20,10,-1,10,20,21,-1,10,21,13,-1,22,23,15,-1,15,23,24,-1,15,24,16,-1,
        ]
    }
}
Shape{
    appearance Appearance {
        material  Material 	{
            diffuseColor 1.0 1.0 1.0
            specularColor 0.5019607843137255 0.5019607843137255 0.5019607843137255
            ambientIntensity 0.2
            transparency 0
            shininess 0.5
        }
    }
    geometry IndexedFaceSet {
        ccw TRUE
        solid FALSE
        coord DEF co Coordinate {
            point [
                0.626 -0.2598 0.0, 0.626 -0.2598 -0.0039, 0.5472 -0.2598 0.0, 0.5472 -0.2598 -0.0039, 0.4843 -0.2598 0.0, 0.4843 -0.2598 -0.0039, 0.4449 -0.2598 0.0, 0.4449 -0.2598 -0.0039, 0.4843 -0.1969 0.0, 0.4843 -0.1969 -0.0039, 0.5472 -0.1969 0.0, 0.5472 -0.1969 -0.0039, 0.626 -0.2598 0.2244, 0.626 -0.2598 0.2283, 0.626 -0.315 0.2244, 0.626 -0.3189 0.2283, 0.626 -0.315 0.0, 0.626 -0.3189 -0.0039, 0.4449 -0.315 0.0, 0.4449 -0.3189 -0.0039, 0.4449 -0.315 0.2244, 0.4449 -0.3189 0.2283, 0.4449 -0.2598 0.2244, 0.4449 -0.2598 0.2283, 0.5472 -0.2598 0.2283, 0.5472 -0.2598 0.2244, 0.4843 -0.2598 0.2283, 0.4843 -0.2598 0.2244, 0.4843 -0.1969 0.2283, 0.4843 -0.1969 0.2244, 0.5472 -0.1969 0.2283, 0.5472 -0.1969 0.2244, 0.5472 0.2598 -0.0039, 0.626 0.2598 -0.0039, 0.5472 0.2598 0.0, 0.626 0.2598 0.0, 0.5472 0.1969 -0.0039, 0.5472 0.1969 0.0, 0.4843 0.1969 -0.0039, 0.4843 0.1969 0.0, 0.4843 0.2598 -0.0039, 0.4843 0.2598 0.0, 0.4449 0.2598 -0.0039, 0.4449 0.2598 0.0, 0.4449 0.2598 0.2244, 0.4449 0.2598 0.2283, 0.4449 0.315 0.2244, 0.4449 0.3189 0.2283, 0.4449 0.315 0.0, 0.4449 0.3189 -0.0039, 0.626 0.315 0.0, 0.626 0.3189 -0.0039, 0.626 0.315 0.2244, 0.626 0.3189 0.2283, 0.626 0.2598 0.2244, 0.626 0.2598 0.2283, 0.5472 0.2598 0.2244, 0.5472 0.2598 0.2283, 0.5472 0.1969 0.2244, 0.5472 0.1969 0.2283, 0.4843 0.1969 0.2244, 0.4843 0.1969 0.2283, 0.4843 0.2598 0.2244, 0.4843 0.2598 0.2283, -0.626 0.2598 0.0, -0.626 0.2598 -0.0039, -0.5472 0.2598 0.0, -0.5472 0.2598 -0.0039, -0.4843 0.2598 0.0, -0.4843 0.2598 -0.0039, -0.4449 0.2598 0.0, -0.4449 0.2598 -0.0039, -0.4843 0.1969 0.0, -0.4843 0.1969 -0.0039, -0.5472 0.1969 0.0, -0.5472 0.1969 -0.0039, -0.626 0.2598 0.2244, -0.626 0.2598 0.2283, -0.626 0.315 0.2244, -0.626 0.3189 0.2283, -0.626 0.315 0.0, -0.626 0.3189 -0.0039, -0.4449 0.315 0.0, -0.4449 0.3189 -0.0039, -0.4449 0.315 0.2244, -0.4449 0.3189 0.2283, -0.4449 0.2598 0.2244, -0.4449 0.2598 0.2283, -0.5472 0.2598 0.2283, -0.5472 0.2598 0.2244, -0.4843 0.2598 0.2283, -0.4843 0.2598 0.2244, -0.4843 0.1969 0.2283, -0.4843 0.1969 0.2244, -0.5472 0.1969 0.2283, -0.5472 0.1969 0.2244, -0.5472 0.1969 0.2244
            ]
        }
        coordIndex [
            0,1,2,-1,2,1,3,-1,4,5,6,-1,6,5,7,-1,8,9,4,-1,4,9,5,-1,10,11,8,-1,8,11,9,-1,2,3,10,-1,10,3,11,-1,12,13,14,-1,14,13,15,-1,14,15,16,-1,16,15,17,-1,16,17,0,-1,0,17,1,-1,6,7,18,-1,18,7,19,-1,18,19,20,-1,20,19,21,-1,20,21,22,-1,22,21,23,-1,24,13,25,-1,25,13,12,-1,21,19,15,-1,15,19,17,-1,23,26,22,-1,22,26,27,-1,26,28,27,-1,27,28,29,-1,28,30,29,-1,29,30,31,-1,30,24,31,-1,31,24,25,-1,19,7,17,-1,17,7,5,-1,1,17,3,-1,3,17,5,-1,3,5,11,-1,11,5,9,-1,26,23,21,-1,15,13,24,-1,30,28,24,-1,24,28,26,-1,24,26,15,-1,15,26,21,-1,32,33,34,-1,34,33,35,-1,36,32,37,-1,37,32,34,-1,38,36,39,-1,39,36,37,-1,40,38,41,-1,41,38,39,-1,42,40,43,-1,43,40,41,-1,44,45,46,-1,46,45,47,-1,46,47,48,-1,48,47,49,-1,48,49,43,-1,43,49,42,-1,35,33,50,-1,50,33,51,-1,50,51,52,-1,52,51,53,-1,52,53,54,-1,54,53,55,-1,54,55,56,-1,56,55,57,-1,56,57,58,-1,58,57,59,-1,58,59,60,-1,60,59,61,-1,60,61,62,-1,62,61,63,-1,62,63,44,-1,44,63,45,-1,53,51,47,-1,47,51,49,-1,40,42,49,-1,51,33,32,-1,36,38,32,-1,32,38,40,-1,32,40,51,-1,51,40,49,-1,47,45,53,-1,53,45,63,-1,55,53,57,-1,57,53,63,-1,57,63,59,-1,59,63,61,-1,64,65,66,-1,66,65,67,-1,68,69,70,-1,70,69,71,-1,72,73,68,-1,68,73,69,-1,74,75,72,-1,72,75,73,-1,66,67,74,-1,74,67,75,-1,76,77,78,-1,78,77,79,-1,78,79,80,-1,80,79,81,-1,80,81,64,-1,64,81,65,-1,70,71,82,-1,82,71,83,-1,82,83,84,-1,84,83,85,-1,84,85,86,-1,86,85,87,-1,88,77,89,-1,89,77,76,-1,85,83,79,-1,79,83,81,-1,87,90,86,-1,86,90,91,-1,90,92,91,-1,91,92,93,-1,92,94,93,-1,93,94,95,-1,94,88,95,-1,95,88,89,-1,83,71,81,-1,81,71,69,-1,65,81,67,-1,67,81,69,-1,67,69,75,-1,75,69,73,-1,90,87,85,-1,79,77,88,-1,94,92,88,-1,88,92,90,-1,88,90,79,-1,79,90,85,-1,
        ]
    }
}
Shape{
    appearance Appearance {
        material  Material 	{
            diffuseColor 0.7529411764705882 0.7529411764705882 0.7529411764705882
            specularColor 0.3764705882352941 0.3764705882352941 0.3764705882352941
            ambientIntensity 0.2
            transparency 0
            shininess 0.5
        }
    }
    geometry IndexedFaceSet {
        ccw TRUE
        solid FALSE
        coord DEF co Coordinate {
            point [
                -0.4409 -0.2087 0.2244, -0.4409 -0.2087 0.0, -0.4405 -0.2056 0.2244, -0.4405 -0.2056 0.0, -0.4394 -0.2028 0.2244, -0.4394 -0.2028 0.0, -0.4375 -0.2003 0.2244, -0.4375 -0.2003 0.0, -0.435 -0.1984 0.2244, -0.435 -0.1984 0.0, -0.4322 -0.1973 0.2244, -0.4322 -0.1973 0.0, -0.4291 -0.1969 0.2244, -0.4291 -0.1969 0.0, -0.3268 -0.1969 0.2244, -0.3268 -0.1969 0.0, -0.3237 -0.1973 0.2244, -0.3237 -0.1973 0.0, -0.3209 -0.1984 0.2244, -0.3209 -0.1984 0.0, -0.3184 -0.2003 0.2244, -0.3184 -0.2003 0.0, -0.3165 -0.2028 0.2244, -0.3165 -0.2028 0.0, -0.3154 -0.2056 0.2244, -0.3154 -0.2056 0.0, -0.315 -0.2087 0.2244, -0.315 -0.2087 0.0, -0.0748 -0.1969 0.2244, -0.0748 -0.1969 0.0, -0.0717 -0.1973 0.2244, -0.0717 -0.1973 0.0, -0.0689 -0.1984 0.2244, -0.0689 -0.1984 0.0, -0.0665 -0.2003 0.2244, -0.0665 -0.2003 0.0, -0.0646 -0.2028 0.2244, -0.0646 -0.2028 0.0, -0.0634 -0.2056 0.2244, -0.0634 -0.2056 0.0, -0.063 -0.2087 0.2244, -0.063 -0.2087 0.0, -0.189 -0.2087 0.2244, -0.189 -0.2087 0.0, -0.1886 -0.2056 0.2244, -0.1886 -0.2056 0.0, -0.1874 -0.2028 0.2244, -0.1874 -0.2028 0.0, -0.1855 -0.2003 0.2244, -0.1855 -0.2003 0.0, -0.1831 -0.1984 0.2244, -0.1831 -0.1984 0.0, -0.1802 -0.1973 0.2244, -0.1802 -0.1973 0.0, -0.1772 -0.1969 0.2244, -0.1772 -0.1969 0.0, 0.063 -0.2087 0.2244, 0.063 -0.2087 0.0, 0.0634 -0.2056 0.2244, 0.0634 -0.2056 0.0, 0.0646 -0.2028 0.2244, 0.0646 -0.2028 0.0, 0.0665 -0.2003 0.2244, 0.0665 -0.2003 0.0, 0.0689 -0.1984 0.2244, 0.0689 -0.1984 0.0, 0.0717 -0.1973 0.2244, 0.0717 -0.1973 0.0, 0.0748 -0.1969 0.2244, 0.0748 -0.1969 0.0, 0.1772 -0.1969 0.2244, 0.1772 -0.1969 0.0, 0.1802 -0.1973 0.2244, 0.1802 -0.1973 0.0, 0.1831 -0.1984 0.2244, 0.1831 -0.1984 0.0, 0.1855 -0.2003 0.2244, 0.1855 -0.2003 0.0, 0.1874 -0.2028 0.2244, 0.1874 -0.2028 0.0, 0.1886 -0.2056 0.2244, 0.1886 -0.2056 0.0, 0.189 -0.2087 0.2244, 0.189 -0.2087 0.0, 0.4291 -0.1969 0.2244, 0.4291 -0.1969 0.0, 0.4322 -0.1973 0.2244, 0.4322 -0.1973 0.0, 0.435 -0.1984 0.2244, 0.435 -0.1984 0.0, 0.4375 -0.2003 0.2244, 0.4375 -0.2003 0.0, 0.4394 -0.2028 0.2244, 0.4394 -0.2028 0.0, 0.4405 -0.2056 0.2244, 0.4405 -0.2056 0.0, 0.4409 -0.2087 0.2244, 0.4409 -0.2087 0.0, 0.315 -0.2087 0.2244, 0.315 -0.2087 0.0, 0.3154 -0.2056 0.2244, 0.3154 -0.2056 0.0, 0.3165 -0.2028 0.2244, 0.3165 -0.2028 0.0, 0.3184 -0.2003 0.2244, 0.3184 -0.2003 0.0, 0.3209 -0.1984 0.2244, 0.3209 -0.1984 0.0, 0.3237 -0.1973 0.2244, 0.3237 -0.1973 0.0, 0.3268 -0.1969 0.2244, 0.3268 -0.1969 0.0, 0.4409 0.2087 0.2244, 0.4409 0.2087 0.0, 0.4405 0.2056 0.2244, 0.4405 0.2056 0.0, 0.4394 0.2028 0.2244, 0.4394 0.2028 0.0, 0.4375 0.2003 0.2244, 0.4375 0.2003 0.0, 0.435 0.1984 0.2244, 0.435 0.1984 0.0, 0.4322 0.1973 0.2244, 0.4322 0.1973 0.0, 0.4291 0.1969 0.2244, 0.4291 0.1969 0.0, 0.3268 0.1969 0.2244, 0.3268 0.1969 0.0, 0.3237 0.1973 0.2244, 0.3237 0.1973 0.0, 0.3209 0.1984 0.2244, 0.3209 0.1984 0.0, 0.3184 0.2003 0.2244, 0.3184 0.2003 0.0, 0.3165 0.2028 0.2244, 0.3165 0.2028 0.0, 0.3154 0.2056 0.2244, 0.3154 0.2056 0.0, 0.315 0.2087 0.2244, 0.315 0.2087 0.0, 0.189 0.2087 0.2244, 0.189 0.2087 0.0, 0.1886 0.2056 0.2244, 0.1886 0.2056 0.0, 0.1874 0.2028 0.2244, 0.1874 0.2028 0.0, 0.1855 0.2003 0.2244, 0.1855 0.2003 0.0, 0.1831 0.1984 0.2244, 0.1831 0.1984 0.0, 0.1802 0.1973 0.2244, 0.1802 0.1973 0.0, 0.1772 0.1969 0.2244, 0.1772 0.1969 0.0, 0.0748 0.1969 0.2244, 0.0748 0.1969 0.0, 0.0717 0.1973 0.2244, 0.0717 0.1973 0.0, 0.0689 0.1984 0.2244, 0.0689 0.1984 0.0, 0.0665 0.2003 0.2244, 0.0665 0.2003 0.0, 0.0646 0.2028 0.2244, 0.0646 0.2028 0.0, 0.0634 0.2056 0.2244, 0.0634 0.2056 0.0, 0.063 0.2087 0.2244, 0.063 0.2087 0.0, -0.063 0.2087 0.2244, -0.063 0.2087 0.0, -0.0634 0.2056 0.2244, -0.0634 0.2056 0.0, -0.0646 0.2028 0.2244, -0.0646 0.2028 0.0, -0.0665 0.2003 0.2244, -0.0665 0.2003 0.0, -0.0689 0.1984 0.2244, -0.0689 0.1984 0.0, -0.0717 0.1973 0.2244, -0.0717 0.1973 0.0, -0.0748 0.1969 0.2244, -0.0748 0.1969 0.0, -0.1772 0.1969 0.2244, -0.1772 0.1969 0.0, -0.1802 0.1973 0.2244, -0.1802 0.1973 0.0, -0.1831 0.1984 0.2244, -0.1831 0.1984 0.0, -0.1855 0.2003 0.2244, -0.1855 0.2003 0.0, -0.1874 0.2028 0.2244, -0.1874 0.2028 0.0, -0.1886 0.2056 0.2244, -0.1886 0.2056 0.0, -0.189 0.2087 0.2244, -0.189 0.2087 0.0, -0.4291 0.1969 0.2244, -0.4291 0.1969 0.0, -0.4322 0.1973 0.2244, -0.4322 0.1973 0.0, -0.435 0.1984 0.2244, -0.435 0.1984 0.0, -0.4375 0.2003 0.2244, -0.4375 0.2003 0.0, -0.4394 0.2028 0.2244, -0.4394 0.2028 0.0, -0.4405 0.2056 0.2244, -0.4405 0.2056 0.0, -0.4409 0.2087 0.2244, -0.4409 0.2087 0.0, -0.315 0.2087 0.2244, -0.315 0.2087 0.0, -0.3154 0.2056 0.2244, -0.3154 0.2056 0.0, -0.3165 0.2028 0.2244, -0.3165 0.2028 0.0, -0.3184 0.2003 0.2244, -0.3184 0.2003 0.0, -0.3209 0.1984 0.2244, -0.3209 0.1984 0.0, -0.3237 0.1973 0.2244, -0.3237 0.1973 0.0, -0.3268 0.1969 0.2244, -0.3268 0.1969 0.0, -0.3268 0.1969 0.0
            ]
        }
        coordIndex [
            0,1,2,-1,2,1,3,-1,2,3,4,-1,4,3,5,-1,4,5,6,-1,6,5,7,-1,6,7,8,-1,8,7,9,-1,8,9,10,-1,10,9,11,-1,10,11,12,-1,12,11,13,-1,14,15,16,-1,16,15,17,-1,16,17,18,-1,18,17,19,-1,18,19,20,-1,20,19,21,-1,20,21,22,-1,22,21,23,-1,22,23,24,-1,24,23,25,-1,24,25,26,-1,26,25,27,-1,28,29,30,-1,30,29,31,-1,30,31,32,-1,32,31,33,-1,32,33,34,-1,34,33,35,-1,34,35,36,-1,36,35,37,-1,36,37,38,-1,38,37,39,-1,38,39,40,-1,40,39,41,-1,42,43,44,-1,44,43,45,-1,44,45,46,-1,46,45,47,-1,46,47,48,-1,48,47,49,-1,48,49,50,-1,50,49,51,-1,50,51,52,-1,52,51,53,-1,52,53,54,-1,54,53,55,-1,56,57,58,-1,58,57,59,-1,58,59,60,-1,60,59,61,-1,60,61,62,-1,62,61,63,-1,62,63,64,-1,64,63,65,-1,64,65,66,-1,66,65,67,-1,66,67,68,-1,68,67,69,-1,70,71,72,-1,72,71,73,-1,72,73,74,-1,74,73,75,-1,74,75,76,-1,76,75,77,-1,76,77,78,-1,78,77,79,-1,78,79,80,-1,80,79,81,-1,80,81,82,-1,82,81,83,-1,84,85,86,-1,86,85,87,-1,86,87,88,-1,88,87,89,-1,88,89,90,-1,90,89,91,-1,90,91,92,-1,92,91,93,-1,92,93,94,-1,94,93,95,-1,94,95,96,-1,96,95,97,-1,98,99,100,-1,100,99,101,-1,100,101,102,-1,102,101,103,-1,102,103,104,-1,104,103,105,-1,104,105,106,-1,106,105,107,-1,106,107,108,-1,108,107,109,-1,108,109,110,-1,110,109,111,-1,112,113,114,-1,114,113,115,-1,114,115,116,-1,116,115,117,-1,116,117,118,-1,118,117,119,-1,118,119,120,-1,120,119,121,-1,120,121,122,-1,122,121,123,-1,122,123,124,-1,124,123,125,-1,126,127,128,-1,128,127,129,-1,128,129,130,-1,130,129,131,-1,130,131,132,-1,132,131,133,-1,132,133,134,-1,134,133,135,-1,134,135,136,-1,136,135,137,-1,136,137,138,-1,138,137,139,-1,140,141,142,-1,142,141,143,-1,142,143,144,-1,144,143,145,-1,144,145,146,-1,146,145,147,-1,146,147,148,-1,148,147,149,-1,148,149,150,-1,150,149,151,-1,150,151,152,-1,152,151,153,-1,154,155,156,-1,156,155,157,-1,156,157,158,-1,158,157,159,-1,158,159,160,-1,160,159,161,-1,160,161,162,-1,162,161,163,-1,162,163,164,-1,164,163,165,-1,164,165,166,-1,166,165,167,-1,168,169,170,-1,170,169,171,-1,170,171,172,-1,172,171,173,-1,172,173,174,-1,174,173,175,-1,174,175,176,-1,176,175,177,-1,176,177,178,-1,178,177,179,-1,178,179,180,-1,180,179,181,-1,182,183,184,-1,184,183,185,-1,184,185,186,-1,186,185,187,-1,186,187,188,-1,188,187,189,-1,188,189,190,-1,190,189,191,-1,190,191,192,-1,192,191,193,-1,192,193,194,-1,194,193,195,-1,196,197,198,-1,198,197,199,-1,198,199,200,-1,200,199,201,-1,200,201,202,-1,202,201,203,-1,202,203,204,-1,204,203,205,-1,204,205,206,-1,206,205,207,-1,206,207,208,-1,208,207,209,-1,210,211,212,-1,212,211,213,-1,212,213,214,-1,214,213,215,-1,214,215,216,-1,216,215,217,-1,216,217,218,-1,218,217,219,-1,218,219,220,-1,220,219,221,-1,220,221,222,-1,222,221,223,-1,
        ]
    }
}